<?xml version="1.0" encoding="utf-8"?>
<!-- Generator: Adobe Illustrator 24.3.0, SVG Export Plug-In . SVG Version: 6.00 Build 0)  -->
<svg version="1.1" xmlns="http://www.w3.org/2000/svg" xmlns:xlink="http://www.w3.org/1999/xlink" x="0px" y="0px"
	 viewBox="0 0 653 647" style="enable-background:new 0 0 653 647;" xml:space="preserve">
<style type="text/css">
	.st0{fill:#FF9557;}
	.st1{fill:#FFFFFF;}
</style>
<g id="Layer_1">
</g>
<g id="Group_11934">
</g>
<g id="Group_11935">
	<g>
		<g id="Group_11927_1_" transform="translate(0 2.967)">
			<g id="Group_11826_1_" transform="translate(0 0)">
				<path id="Path_2443_1_" class="st0" d="M333,107.3v199.4l141-141c3.3-3.3,3.4-8.7,0.1-12c-0.1-0.1-0.3-0.3-0.4-0.4
					c-36.9-31.8-83-50.9-131.6-54.5c-4.7-0.3-8.7,3.2-9,7.9c0,0,0,0,0,0C333,106.9,333,107.1,333,107.3L333,107.3z"/>
				<path id="Path_2444_1_" class="st0" d="M336.5,327l119.6,119.6c62-67.7,62-171.5,0-239.2L336.5,327z"/>
				<path id="Path_2445_1_" class="st0" d="M318.5,333.1c-1.6-1.6-2.5-3.7-2.5-6V149.4c-98.2,4.5-174.2,87.7-169.7,185.9
					c4.5,98.2,87.7,174.2,185.9,169.7c41.6-1.9,81.1-18.3,111.9-46.3L318.5,333.1z"/>
			</g>
		</g>
		<path id="Path_2750_1_" class="st1" d="M181.3,287.5l0.8,0.1h0.5l0.8-0.2c0.8-0.4,1.4-1.1,1.6-2c0.3-1,0-2.1-0.7-2.8
			c-0.7-0.8-1.8-1.1-2.8-1l-1,0.4l-0.6,0.5l-0.5,0.9C178.9,285.1,179.7,286.8,181.3,287.5z M177.5,300.9c0.9-0.1,1.8-0.6,2.4-1.3
			l0.4-1l0-0.8l-0.5-1c-1.3-1.1-3.2-1.2-4.5-0.1l-0.1,0.1l-0.8,1.2v0.9l0.6,1.2C175.7,300.7,176.6,301,177.5,300.9L177.5,300.9z
			 M185,309.8l-0.3-0.8c-0.1-0.2-0.3-0.4-0.5-0.5c-0.7-0.6-1.6-0.8-2.4-0.6c-0.1-0.1-0.3-0.3-0.4-0.4c-1.2-1.1-3-1.1-4.2,0.1
			c-0.5,0.5-0.8,1.2-0.8,1.9v0.6l0.1,0.4l0.3,0.6c0.2,0.2,0.4,0.5,0.7,0.7c2.5-0.9,5.1-1.4,7.7-1.5C185.1,310.1,185,310,185,309.8
			L185,309.8z M170.1,306.2l-0.4-0.3l-0.7-0.3l-0.5-0.1l-0.8,0c-0.9,0.1-1.8,0.6-2.2,1.4c-0.4,0.8-0.3,1.8,0.3,2.5l1.2,0.7l1,0.1
			h0.5c0.8-0.1,1.5-0.5,1.9-1.2l0.2-1l-0.1-0.7L170.1,306.2z M172.6,298.7c0,0-0.1-0.1-0.1-0.1c-0.3-0.4-0.8-0.5-1.2-0.2
			c-0.1,0.1-0.2,0.2-0.3,0.4l0.3,0.8c-0.1,0-0.1-0.1-0.1-0.2l0.4,0.8c0.6,0.2,1.2,0,1.6-0.5l-0.7-0.9
			C172.5,298.6,172.6,298.6,172.6,298.7L172.6,298.7z M188.8,281.8l0.7,0.2c1.2,0.1,2.3-0.5,2.9-1.5c0.1-0.2,0.2-0.4,0.2-0.6
			c0.1,0,0.3,0,0.4,0.1l0.6-0.1l0.4-0.2l0.5-0.3c1.2-0.9,1.3-2.6,0.4-3.8c-0.1-0.1-0.2-0.2-0.3-0.3l-0.1-0.1l-1.4-0.7h-1l-1.4,0.6
			c-0.4,0.5-0.7,1.2-0.7,1.9h-0.5l-1,0.3c-1.3,0.6-1.8,2.2-1.2,3.5c0.1,0.2,0.2,0.3,0.3,0.5l0.6,0.4L188.8,281.8z M177.5,268.6
			l0.1,0.6l0.2,0.6l0.4,0.6c1,0.9,2.5,0.9,3.6,0.1c1-0.7,1.3-2.1,0.6-3.2c-0.1-0.1-0.1-0.2-0.2-0.3l-1-0.6l0.4-0.2l0.4-0.4l0.4-1
			v-0.8V264c0-0.4-0.2-0.8-0.5-1.2l-1.5-0.7l-1.1,0.1l-1.2,0.5c-1,0.8-1.1,2.2-0.4,3.2c0.1,0.1,0.2,0.2,0.4,0.4
			c0.2,0.1,0.3,0.3,0.5,0.4C178,267.1,177.6,267.8,177.5,268.6L177.5,268.6z M195.7,283.6l-0.4-0.3l-0.7-0.3l-0.5-0.1l-0.8,0
			c-0.9,0.1-1.8,0.6-2.2,1.4c-0.4,0.8-0.3,1.8,0.3,2.4l1.2,0.7l1,0.1h0.5c0.8-0.1,1.5-0.5,1.9-1.2l0.2-1l-0.1-0.7L195.7,283.6z
			 M205.1,261.7c0-0.8-0.4-1.5-1-2c-0.1-0.1-0.2-0.2-0.3-0.2l-1.1-0.3H202l-1,0.4c-0.6,0.4-1,1-1.2,1.6l-0.9-0.5l-0.9-0.1h-0.5
			c-0.5,0-0.9,0.2-1.3,0.4l-0.7,1l-0.1,0.8v0.4c0,0.4,0.2,0.8,0.5,1.2l1.2,0.7l0.9,0.1h0.4c0.4,0,0.9-0.2,1.3-0.4l0.8-1.1v-0.2
			c0.1,0.1,0.2,0.2,0.3,0.3c0.1,0.1,0.2,0.2,0.4,0.3l1,0.3h0.8l1-0.4C204.6,263.5,205.1,262.6,205.1,261.7L205.1,261.7z
			 M205.3,241.9l0.8,0.7l1.2,0.4h0.9l1.2-0.4c1.1-0.9,1.3-2.5,0.4-3.5c-0.1-0.1-0.2-0.3-0.4-0.4c-0.6-0.5-1.5-0.7-2.3-0.6
			c-0.9,0.1-1.6,0.6-2.1,1.3l-0.2,1l0.1,0.7L205.3,241.9z M204.6,249.4l0.6-0.1l0.4-0.1l0.5-0.2c0.9-0.6,1.4-1.6,1.2-2.7l0.1-0.7
			l-0.3-1c-0.7-1-1.9-1.4-3.1-1.1h-0.5l-1.2,0.4c-1.3,1.1-1.4,3-0.4,4.3c0.1,0.1,0.3,0.3,0.4,0.4
			C203.1,249.1,203.8,249.3,204.6,249.4L204.6,249.4z M210.4,275.1c0.1,0.1,0.2,0.2,0.3,0.3c-0.6-1-1.7-1.5-2.9-1.5l-0.7,0.1
			l-0.5,0.2l-0.6,0.4c-0.3,0.3-0.6,0.7-0.7,1.2c-0.3,1.4,0.6,2.7,1.9,3c1.4,0.6,3,0.1,3.8-1.1l0.1-1.2l-0.3-0.8L210.4,275.1z
			 M206.7,271.7l0.6,0l0.8-0.1l0.2-0.1c1.9-0.6,2.8-1.6,2.7-3.1l-0.1-0.4l-0.1-0.3l-0.2-0.3c-0.2-0.3-0.4-0.5-0.6-0.7
			c-0.5-0.4-1.1-0.6-1.8-0.7l-1.1-0.1l-1.4,0.5c-0.8,0.6-1.3,1.6-1.4,2.7c0.1,0.8,0.4,1.5,1,1.9c0.1,0.1,0.3,0.2,0.5,0.3
			L206.7,271.7z M232.5,305.8c-0.9-0.8-2-1.2-3.2-1c-0.2,0-0.4,0.1-0.6,0.2c-0.1-0.4-0.4-0.8-0.8-1.1l-0.1-0.1l-0.2-0.1l-1.2-0.3
			l-0.8,0.1l-1,0.5c-1,0.8-1.2,2.2-0.5,3.3l1.2,0.8l1,0.2h0.5l0.3-0.1l0.3,0.6c0.1,0.1,0.3,0.2,0.4,0.4c0.7,0.6,1.6,0.9,2.5,0.8
			c0.8,0.4,1.8,0.3,2.6-0.2l0.7-0.8l0.2-0.7l-0.1-1C233.4,306.5,233,306.1,232.5,305.8L232.5,305.8z M170.9,287.2
			c0.1,0,0.2-0.1,0.3-0.1C171.3,287.1,171.1,287.2,170.9,287.2L170.9,287.2z M221.4,273.6l-1-0.2l-1.5,0.3c-1.2,0.7-1.7,2.3-1,3.5
			c0.1,0.2,0.2,0.3,0.4,0.5l1.3,0.6h1l1.3-0.6c0.8-0.8,1.1-2,0.7-3.1L221.4,273.6z M156.1,225.2c0.4-0.3,0.6-0.8,0.5-1.3
			c0-0.5-0.3-1-0.8-1.4l-0.6,0.6c0.1,0.1-0.5,0.6-0.5,0.6c-0.1-0.1-0.2-0.1-0.3-0.2l-0.4,0.4c-0.1,0.1,0,0.3,0.1,0.4l-1.1,1.1
			C154,226.1,155.2,226,156.1,225.2L156.1,225.2z M234.5,227.5c-0.1-0.1-0.3-0.2-0.4-0.3l-1.1-0.3h-0.8l-1,0.4
			c-0.8,0.5-1.2,1.4-1.3,2.3c0,0.8,0.4,1.5,1,2c0.1,0.1,0.2,0.2,0.4,0.3l1.1,0.3h0.4c0-0.1,0.4,0,0.4,0l1.3-0.4
			c0.7-0.5,1.1-1.2,1.1-2C235.6,228.8,235.2,228,234.5,227.5L234.5,227.5z M211.9,188.5l-0.4-0.2c-1.3-0.8-3-1-4.5-0.4l-0.4,0.3
			l-0.3,0.2l-0.3,0.4c-0.3,0.4-0.4,1-0.3,1.5l-0.1,0.8l0.5,1.3l1.2,1l1.4,0.4l0.9-0.1l1.2-0.7c0.1-0.1,0.1-0.1,0.4-0.3
			c0.4-0.2,0.8-0.5,1.2-0.9l0.4-1.3l-0.2-0.9L211.9,188.5z M148.9,223.8l0.6-0.6c1.2,1.2,3,1.2,4.3,0.2l0.4-0.5l0.2-0.4l0.1-0.6
			c0-0.8-0.4-1.5-1-2c-0.1-0.1-0.1-0.1-0.2-0.1c0.4,0,0.9,0,1.3-0.1c0.1,0.5,0.3,0.9,0.6,1.3c0.6,0.7,1.5,1.1,2.5,1.1l0.9-0.2
			l0.6-0.3l0.6-0.6c0.1-0.1,0.1-0.2,0.2-0.4c1-0.9,1.1-2.4,0.3-3.4c-0.1-0.1-0.1-0.2-0.2-0.2l-1-0.5h-0.2c0-0.1,0-0.8,0-0.8l-0.4-1
			c-0.1-0.1-0.3-0.3-0.4-0.4c-0.1-0.1-0.3-0.2-0.4-0.3c0.2-0.1,0.3-0.2,0.4-0.3l0.9,0.4h1l0.9-0.3c-0.1,0.1-0.2,0.1-0.3,0.1
			c0.9-0.2,1.6-0.8,1.9-1.6c0.3-0.7,0.2-1.5-0.3-2.1l-1-0.7l-0.6-0.1c-0.3-0.2-0.6-0.4-0.9-0.6l-0.9-0.1l-0.1-0.7l-0.5-0.9
			c-0.5-0.4-1.1-0.7-1.7-0.8c0-0.3,0-0.6,0-0.8c-0.2-1-0.9-1.8-1.8-2c0-0.2,0-0.4,0-0.6l-0.1-0.2c0.3,0,0.5,0,0.8,0
			c1-0.2,1.9-0.9,2.2-1.9c0.3-1.1-0.2-2.2-1.2-2.7c-0.4-0.2-0.9-0.3-1.4-0.3c0.1-0.1,0.2-0.2,0.3-0.3c-1,0.6-1.9,1.2-2.7,2
			c0,0.1-0.1,0.1-0.1,0.2c-1.6,1.3-2.8,3-3.7,4.8l0.6,0.5c-0.1,0-0.2-0.1-0.3-0.2c0.4,0.4,0.9,0.8,1.4,1l0.6,0c0,0.2,0,0.4,0.1,0.7
			c-0.3,0.1-0.6,0.2-0.8,0.4l-0.6,1l-0.1,0.8l0.3,0.9l-0.2-0.2c0-0.1-0.1-0.2-0.1-0.3c0,0.1,0,0.2,0.1,0.3l-0.6-0.6
			c-0.6-0.2-1.1-0.2-1.7-0.1c-0.2,0.9-0.2,1.8-0.2,2.7v2.9l0.2-0.6c1.3,0.1,2.4-0.7,2.9-1.8l0.1-0.2v-0.7l0.6,1.4
			c1,1,2.5,1.2,3.7,0.5l0.2-0.3l0.4,0.3l0.5,0.2c0.1,0-0.4,0.5-0.4,0.5c-0.6,0.1-1.1,0.3-1.6,0.7l-0.4,0.8c-0.1,0-0.2,0-0.3,0
			c-1,0.1-1.9,0.9-2.2,1.9c-0.1,0.3-0.1,0.6-0.1,0.8l0.3,0.8l-0.3-0.2l-0.4-0.3V218l-0.4-0.3l-2.1-0.1l-0.2,0.2l-0.6,0.1v6.2
			c0.5,0,1,0,1.5-0.1L148.9,223.8z M193.8,246.1c-1.2,0.8-1.5,2.5-0.7,3.7c0.1,0.1,0.1,0.2,0.2,0.3l0.7,0.4l0.6,0.2l0.8,0.1
			c1.1-0.1,2-0.7,2.5-1.6c-0.2,0.2-0.4,0.3-0.6,0.3l1.2-1l0.3-0.9l-0.4-1.5l-0.1-0.1C197,244.8,195,244.9,193.8,246.1L193.8,246.1z
			 M164.9,232.7l0.3,0.1c1.4,0.7,3,0.2,3.8-1.2l0.2-0.8l-0.1-0.6l-0.3-0.8c-0.1-0.2-0.3-0.3-0.5-0.5c-1.2-1-3-1.1-4.3-0.2
			c-1,0.8-1.2,2.2-0.4,3.2c0,0.1,0.1,0.1,0.1,0.2L164.9,232.7z M166.8,261.1l1.1-0.5l0.8-0.8l0.4-1.1v-0.8l-0.5-1.1l-0.2-0.1
			c-0.7-0.6-1.5-0.9-2.4-0.9l-0.6,0.1l-0.4,0.1l-0.5,0.3c-0.7,0.5-1.1,1.2-1.1,2c0,0.8,0.4,1.6,1.1,2.1c0.1,0.1,0.2,0.2,0.4,0.3
			l1.2,0.3L166.8,261.1z M176.3,294.3l0.3-0.1c-0.1,0.1-0.2,0.1-0.3,0.2c0.8-0.2,1.4-0.9,1.4-1.8l-0.2-0.6l-0.1-1.1
			c-1-0.8-2.4-0.9-3.5-0.3c0.5-0.9,0.4-2.1-0.4-2.9l-1.1-0.5l-0.8-0.1l-1.1,0.2c0.1-0.1,0.2-0.1,0.4-0.1c-1,0.1-2,0.6-2.5,1.5
			l-0.2,0.9l0.1,0.7l0.5,0.9l0.1,0.1c0.7,0.6,1.5,0.9,2.4,0.9l0.6-0.1l0.4-0.1l0.4-0.2c-0.5,1-0.2,2.3,0.7,3l2.4-0.1L176.3,294.3z
			 M190.8,212.8l1.2,0.3l0.8-0.1l1.1-0.5c0.5-0.6,1-1.2,1.3-1.9c0.2-0.4,0.4-0.7,0.7-1c0,0-0.1,0.1-0.2,0.1l1.2-1.4l0-1.1l-1.1-1.5
			c-0.7-0.2-1.4-0.2-2.1-0.1c0.3-0.1,0.6,0,0.9,0h-1.1L193,206l-0.8,0.5c-0.1,0.1,0,0,0.2-0.1l-0.8,0.6l-0.4,0.5l-0.3,0.9
			c0-0.1,0-0.1,0-0.2c0,0.1-0.3,0.3-0.3,0.4c-0.4,0.4-0.7,0.9-0.9,1.5C189.4,211.2,189.8,212.3,190.8,212.8L190.8,212.8z
			 M150.8,228.1c-1,0.8-1.2,2.2-0.4,3.2c0.1,0.2,0.2,0.3,0.4,0.4c0.2,0.1,0.4,0.3,0.6,0.4l1.1,0.2l0.8-0.1l1-0.5l0.2-0.2
			c0,0.1-0.1,0.1-0.1,0.2v1.1l0.3,0.8l0.8,0.8c-0.1,0-0.2-0.1-0.2-0.1c0.6,0.5,1.4,0.8,2.1,0.8l1.1-0.3l0.6-0.4l0.6-0.9l0.1-0.5
			c0.2-0.7,0-1.5-0.5-2c-0.5-0.5-1.2-0.8-1.9-0.8l-0.6,0.2c-0.8-0.1-1.6,0.3-2.2,0.9l0.4-0.9v-0.8v-0.2c0-0.4-0.2-0.8-0.4-1.1
			l-1.5-0.7l-1.1,0L150.8,228.1z M193.3,310l-0.4,0.2C193,310.1,193.3,310,193.3,310l-0.3-0.3c0-0.1,0-0.1,0-0.2
			c-0.1-0.7-0.4-1.3-0.9-1.7l-2.4,0.1l-0.2,0.2l-0.4,0.1l-0.4,0.4l-0.4,0.7c-0.1,0.3-0.1,0.6,0,0.9h0.7c1.5,0,3.1,0.2,4.6,0.5
			C193.6,310.4,193.5,310.2,193.3,310L193.3,310z M194.7,223.4l0-0.8l-0.5-1c-0.1-0.1-0.3-0.3-0.4-0.4c-0.8-0.8-2-1.2-3.1-1.1
			c-0.6,0.1-1.1,0.3-1.5,0.7l-0.2-0.1l-1.1,0.2l-1.2,1.1l-0.2,0.7l0.2,1.1l0.4,0.7l1,0.7c2.1-0.1,4.3-0.4,6.3-1L194.7,223.4z
			 M149.1,289.4c0.3-0.9,0-1.9-0.8-2.5c-0.4-0.3-0.8-0.5-1.2-0.7v4.8C148,290.8,148.8,290.3,149.1,289.4L149.1,289.4z M147.1,231.4
			v3.6c0.5-0.4,0.8-1.1,0.8-1.7C147.9,232.5,147.6,231.9,147.1,231.4L147.1,231.4z M148.4,296.8c0.2-0.1,0.3-0.2,0.5-0.3l0.4-1.5
			l-0.2-0.7l-0.1-0.2l-0.3-0.5l-1.1-0.8l-0.4-0.1v4.9c0.4-0.1,0.8-0.3,1.1-0.5L148.4,296.8z M149.6,277.9l0.3-1l-0.1-0.7l-0.5-0.9
			l-0.4-0.3l-0.7-0.3l-0.5-0.1h-0.4v4.7h0.5C148.4,279,149.1,278.5,149.6,277.9L149.6,277.9z M152.6,283.4l1,0.4h0.8l1.1-0.3
			c1.2-0.7,1.6-2.2,0.9-3.4c-0.1-0.2-0.2-0.3-0.3-0.4l-0.1-0.2l-1-0.6l-0.8-0.2l-1.2,0.1c-0.8,0.3-1.5,1-1.7,1.9
			c-0.1,0.9,0.2,1.7,0.9,2.3C152.3,283.1,152.5,283.2,152.6,283.4L152.6,283.4z M148.6,237.6c0.1-0.8-0.3-1.6-0.9-2.1
			c-0.2-0.1-0.3-0.2-0.5-0.3v4.2c0,0,0.1,0,0.2-0.1C148,239.1,148.5,238.4,148.6,237.6L148.6,237.6z M164.1,320.7l-0.1-0.1l-1.1-0.4
			h-0.8l-1.1,0.3c-0.7,0.4-1.1,1.2-1.2,2c0,0.8,0.3,1.5,0.9,2l0.2,0.2l0.2,0.1c1-1.4,2.1-2.7,3.2-4L164.1,320.7z M185.7,181.3
			c-0.2-0.1-0.4-0.3-0.6-0.3c0.4,0.4,0.9,0.8,1.3,1.2C186.2,181.8,186,181.5,185.7,181.3L185.7,181.3z M184.3,199.4l1.2-0.2l0.8-0.4
			l0.2-0.3c0.5,0.2,1.1,0.2,1.6,0c0.7-0.2,1.3-0.8,1.6-1.5v-1l-0.1-0.3h-7.6c-0.3,0.9-0.1,1.8,0.4,2.6
			C182.8,198.9,183.5,199.3,184.3,199.4L184.3,199.4z M149.5,323.4l-1.2-0.6l-0.9-0.1h-0.3v4.5h0.3h0.4c0.5,0,0.9-0.2,1.3-0.4l0.7-1
			l0.1-0.8v-0.4C149.9,324.1,149.7,323.8,149.5,323.4L149.5,323.4z M149.6,272.5c0.6,0.5,1.3,0.7,2.1,0.6h0.2h0.2l0.2-0.1
			c0.9-0.2,1.6-0.9,1.8-1.8c0.2-0.9-0.2-1.9-1-2.5c-0.7-0.6-1.5-0.8-2.4-0.8c-0.7,0.1-1.4,0.5-1.8,1.1l-0.2,0.8v0.6l0.3,0.8
			c-0.1-0.2-0.2-0.4-0.2-0.6C148.8,271.4,149.1,272.1,149.6,272.5L149.6,272.5z M157.6,290.5l-0.5-1.1l-0.6-0.5l-1.3-0.4h-0.3
			c0,0,0.1-0.5,0.1-0.5v-0.7c-0.1-0.6-0.4-1.1-0.8-1.5l-0.9-0.4l-0.8-0.2l-1.1,0.1c-0.2,0.1-0.3,0.2-0.5,0.3
			c-0.2,0.1-0.5,0.3-0.7,0.4c-0.8,0.8-0.9,2.1-0.1,2.9c0.1,0.1,0.1,0.1,0.2,0.2c0.6,0.5,1.3,0.8,2.1,0.8c-0.4,0.8-0.3,1.8,0.4,2.4
			l0.2,0.1c0.1,0.1,0.2,0.3,0.4,0.4l1.2,0.4h0.9l1.2-0.5l0.6-0.5l0.4-1.1L157.6,290.5z M155.6,316.6l-1.3,0.4l0.7-0.9l-1-0.6
			l-0.7-0.2c-1.2-0.2-2.4,0.3-3,1.4l-0.1,0.3l-0.1,0.3l0,0.4c0,0.8,0.4,1.6,1.1,2.1c0.4,0.3,0.8,0.6,1.2,0.8l0.2,0.1l1.1,0.2
			l0.8-0.1l1-0.4c1-0.9,1.2-2.4,0.3-3.4C155.7,316.7,155.7,316.7,155.6,316.6L155.6,316.6z M164.6,223.8l0.6-0.5l0.3-0.8
			c0.1,0.3,0.2,0.7,0.5,0.9l1.2,0.6h0.4c0.3,0,0.6,0,0.9,0l1.4-0.5c1-0.8,1.1-2.1,0.4-3.1c-0.1-0.1-0.2-0.2-0.2-0.3
			c-0.2-0.2-0.4-0.3-0.6-0.4l-1.2-0.2l-0.8,0.1l-1.1,0.5c-0.3,0.3-0.6,0.7-0.8,1.1l-0.5-1c-1-0.9-2.3-1.1-3.5-0.8l-0.9,0.6l-0.5,0.6
			l-0.3,1c0,0.6,0.3,1.2,0.8,1.7c0.3,0.3,0.8,0.5,1.2,0.6c-0.2-0.1-0.4-0.2-0.6-0.3l1.2,0.5h0.9L164.6,223.8z M187.5,240.4l0.3,0.8
			l0.2,0.3c0.3,0.4,0.6,0.6,1,0.8l1.4,0.1l0.9-0.3l0.4-0.2c0.4-0.2,0.6-0.5,0.9-0.9l0.1-1.2l-0.3-0.8l-0.2-0.4
			c-0.2-0.3-0.6-0.6-0.9-0.8l-1.4-0.1l-0.9,0.3l-0.4,0.2l-0.2,0.1l-0.1-1l-0.6-1.1c-0.7-0.6-1.6-0.9-2.5-0.8
			c-0.8,0.1-1.5,0.6-1.9,1.2l-0.2,1l0.1,0.7l0.5,0.9l0.4,0.3l1.1,0.4h0.8h0.2c0.4,0,0.9-0.2,1.3-0.4L187.5,240.4z M170.4,243
			l-0.9-0.1h-0.4c-0.5,0-0.9,0.2-1.3,0.4l-0.7,1l-0.1,0.8v0.4c0,0.4,0.2,0.8,0.4,1.1l1.2,0.7l0.9,0.1h0.4c0.4,0,0.9-0.2,1.3-0.4
			l0.5-0.8l0.8,0.6c-0.1,0-0.2-0.1-0.3-0.2l0.1,0.1c0.4,0.5,0.9,0.8,1.4,1.1h1.5l0.9-0.4l0.9-1c-0.1,0.2-0.2,0.4-0.4,0.6
			c1.2-0.6,1.9-1.7,1.9-3l-0.2-0.7l-0.2-0.4l-0.5-0.5c-0.6-0.4-1.3-0.7-2.1-0.8c0.3,0.1,0.5,0.3,0.7,0.5l-1.4-0.9l-1.1-0.1l-1.5,0.7
			c-0.1,0.1-0.2,0.2-0.3,0.3c-0.3,0.4-0.6,0.8-0.8,1.2L170.4,243z M162.4,218.8l1.3,0.5h0.9l1.3-0.6c0.7-0.3,1.3-1,1.4-1.8
			c0-0.9-0.3-1.7-1-2.2l-1.2-0.4h-0.9l-1.2,0.4C160.6,216.8,162,218.4,162.4,218.8L162.4,218.8z M169.8,207.6
			c0.8-0.1,1.5-0.6,1.9-1.2l0.2-1l-0.1-0.7l-0.5-0.9c-1-0.9-2.4-1-3.6-0.5l-0.9,1.3v1l0.6,1.2C168,207.4,168.9,207.7,169.8,207.6
			L169.8,207.6z M178,255.6c-0.2,1,0.1,1.9,0.8,2.7l1,0.7l0.8,0.2l1.3-0.2c0.7-0.3,1.1-0.9,1.3-1.7c0.1-0.4,0.1-0.7,0.1-1.1
			c0,0.1,0,0.2,0,0.2l-0.2-1.1l-0.5-0.7l-1-0.7C180.2,253.4,178.6,254.2,178,255.6C178,255.6,178,255.7,178,255.6L178,255.6z
			 M174,215.4c1.1,1,2.8,1.1,4,0.2l0.6-1c0.1,0,0.6,0,0.6,0c0.5,0,0.9-0.2,1.3-0.4l0.7-1.1l0.1-0.9v-0.5c-0.1-0.6-0.4-1.1-0.9-1.4
			l-0.1-0.1l-0.2-0.1l-1.2-0.3l-0.8,0.1l-1,0.4c-0.3,0.3-0.6,0.7-0.8,1.2c-0.9-0.2-1.7,0-2.4,0.6l-0.6,1l-0.1,0.8l0.4,1.1
			C173.8,215.1,173.9,215.3,174,215.4L174,215.4z M149.3,265.9c0.6,0.2,1.2,0.2,1.8,0c-0.1,0.7,0.1,1.3,0.5,1.8l1.4,0.6
			c1,0.6,2.3,0.6,3.2,0l0.5-0.5l0.2-0.4l0.2-0.7c0-0.9-0.5-1.8-1.2-2.4c-0.1-0.1-0.3-0.3-0.5-0.4l-1.1-0.4l-0.8,0l-0.9,0.3l-0.1-0.8
			c-0.1-0.6-0.5-1.2-0.9-1.6c-0.2-0.2-0.5-0.4-0.8-0.5l-0.3,0l-0.1-0.2c-0.2-0.3-0.5-0.6-0.8-0.9c-0.6-0.5-1.4-0.7-2.2-0.6
			c-0.2,0-0.3,0.1-0.5,0.2v8.2c0.7-0.1,1.4-0.4,1.9-1L149.3,265.9z M162.4,315c0.9-0.8,1.1-2.1,0.3-3.1c0,0-0.1-0.1-0.1-0.1
			l-1.1-0.6l-0.1-0.1l-1.1-0.2l-1.7,0.4l-0.6,0.5l-0.4,0.8l-0.1,0.6l0.1,0.9c0.2,0.3,0.4,0.6,0.6,0.8
			C159.5,315.9,161.2,315.9,162.4,315L162.4,315z M155.4,252.9l1.6-0.2l0.6-0.4c1.1-0.2,2-1,2.3-2c0.1-0.2,0.1-0.5,0.1-0.8l-0.1-0.4
			l-0.1-0.3l-0.2-0.4c-0.3-0.5-0.8-1-1.3-1.3l0.4-0.6l0.1-0.8v-0.3c0-0.4-0.2-0.8-0.5-1.2l-1.2-0.7l-0.9-0.1h-0.4
			c-0.5,0-0.9,0.2-1.3,0.4l-0.7,1l-0.1,0.8v0.4c0.1,0.3,0.2,0.6,0.3,0.8c-0.1,0-0.6,0.5-0.6,0.5c-0.3,0.4-0.6,0.9-0.7,1.4
			c-0.5,1.8,0.6,3.7,2.5,4.1C155.3,252.9,155.3,252.9,155.4,252.9L155.4,252.9z M160.5,304.2l-1.1,0.2l-0.7,0.4l-0.8,0.9l-0.1,0.2
			c-0.3,1.2,0.2,2.4,1.2,3.1l1.5,0.4l1-0.2l1.2-1c0.1-0.1,0.1-0.3,0.1-0.4c0.3-0.8,0.1-1.7-0.4-2.3
			C162.1,304.7,161.3,304.3,160.5,304.2L160.5,304.2z M156,258.3l0.3,0.1l1.2-0.2l0.7-0.4l0.8-0.8c0.3-0.7,0.3-1.6-0.2-2.3
			c-0.5-0.7-1.2-1.2-2-1.3h-0.2l-1.2,0.2l-0.7,0.4l-0.8,0.8c-0.3,0.7-0.2,1.6,0.2,2.3C154.5,257.7,155.3,258.2,156,258.3L156,258.3z
			 M162.4,276.3l-1.5-0.5c-0.1,0-0.3-0.1-0.4-0.1l-1,0.1l-1.3,0.7l-0.1,0.1c-0.4,0.4-0.7,0.9-0.9,1.4c-0.3,1.3,0.4,2.5,1.7,2.9
			l1.8-0.3l0.6-0.5c0.9-0.2,1.6-0.8,1.9-1.7C163.3,277.7,163,276.8,162.4,276.3L162.4,276.3z"/>
		<path id="Path_2752_1_" class="st1" d="M239.4,185.7l0.8,0.1h0.5l0.8-0.2c0.8-0.4,1.4-1.1,1.6-2c0.3-1,0-2.1-0.7-2.8
			c-0.7-0.8-1.8-1.1-2.8-1l-1,0.4l-0.6,0.5l-0.5,0.9C237,183.3,237.9,185,239.4,185.7z M235.7,199.1c0.9-0.1,1.8-0.6,2.4-1.3l0.4-1
			l0-0.8l-0.5-1c-1.3-1.1-3.2-1.2-4.5-0.1l-0.1,0.1l-0.8,1.2v0.9l0.6,1.2C233.8,199,234.7,199.2,235.7,199.1L235.7,199.1z
			 M243.1,208.1l-0.3-0.8c-0.1-0.2-0.3-0.4-0.5-0.5c-0.7-0.6-1.6-0.8-2.4-0.6c-0.1-0.1-0.3-0.3-0.4-0.4c-1.2-1.1-3-1.1-4.2,0.1
			c-0.5,0.5-0.8,1.2-0.8,1.9v0.6l0.1,0.4l0.3,0.6c0.2,0.2,0.4,0.5,0.7,0.7c2.5-0.9,5.1-1.4,7.7-1.5
			C243.2,208.4,243.2,208.2,243.1,208.1L243.1,208.1z M228.2,204.5l-0.4-0.3l-0.7-0.3l-0.5-0.1l-0.8,0c-0.9,0.1-1.8,0.6-2.2,1.4
			c-0.4,0.8-0.3,1.8,0.3,2.5l1.2,0.7l1,0.1h0.5c0.8-0.1,1.5-0.5,1.9-1.2l0.2-1l-0.1-0.7L228.2,204.5z M230.8,196.9
			c0,0-0.1-0.1-0.1-0.1c-0.3-0.4-0.8-0.5-1.2-0.2c-0.1,0.1-0.2,0.2-0.3,0.4l0.3,0.8c-0.1,0-0.1-0.1-0.1-0.2l0.4,0.8
			c0.6,0.2,1.2,0,1.6-0.5l-0.7-0.9C230.7,196.9,230.7,196.9,230.8,196.9L230.8,196.9z M246.9,180.1l0.7,0.2c1.2,0.1,2.3-0.5,2.9-1.5
			c0.1-0.2,0.2-0.4,0.2-0.6c0.1,0,0.3,0,0.4,0.1l0.6-0.1l0.4-0.2l0.5-0.3c1.2-0.9,1.3-2.6,0.4-3.8c-0.1-0.1-0.2-0.2-0.3-0.3
			l-0.1-0.1l-1.4-0.7h-1l-1.4,0.6c-0.4,0.5-0.7,1.2-0.7,1.9h-0.5l-1,0.3c-1.3,0.6-1.8,2.2-1.2,3.5c0.1,0.2,0.2,0.3,0.3,0.5l0.6,0.4
			L246.9,180.1z M235.6,166.8l0.1,0.6l0.2,0.6l0.4,0.6c1,0.9,2.5,0.9,3.6,0.1c1-0.7,1.3-2.1,0.6-3.2c-0.1-0.1-0.1-0.2-0.2-0.3
			l-1-0.6l0.4-0.2l0.4-0.4l0.4-1v-0.8v-0.2c0-0.4-0.2-0.8-0.5-1.2l-1.5-0.7l-1.1,0.1l-1.2,0.5c-1,0.8-1.1,2.2-0.4,3.2
			c0.1,0.1,0.2,0.2,0.4,0.4c0.2,0.1,0.3,0.3,0.5,0.4C236.1,165.4,235.7,166,235.6,166.8L235.6,166.8z M253.8,181.8l-0.4-0.3
			l-0.7-0.3l-0.5-0.1l-0.8,0c-0.9,0.1-1.8,0.6-2.2,1.4c-0.4,0.8-0.3,1.8,0.3,2.4l1.2,0.7l1,0.1h0.5c0.8-0.1,1.5-0.5,1.9-1.2l0.2-1
			l-0.1-0.7L253.8,181.8z M263.3,160c0-0.8-0.4-1.5-1-2c-0.1-0.1-0.2-0.2-0.3-0.2l-1.1-0.3h-0.8l-1,0.4c-0.6,0.4-1,1-1.2,1.6
			L257,159l-0.9-0.1h-0.5c-0.5,0-0.9,0.2-1.3,0.4l-0.7,1l-0.1,0.8v0.4c0,0.4,0.2,0.8,0.5,1.2l1.2,0.7l0.9,0.1h0.4
			c0.4,0,0.9-0.2,1.3-0.4l0.8-1.1v-0.2c0.1,0.1,0.2,0.2,0.3,0.3c0.1,0.1,0.2,0.2,0.4,0.3l1,0.3h0.8l1-0.4
			C262.8,161.7,263.2,160.9,263.3,160L263.3,160z M263.5,140.2l0.8,0.7l1.2,0.4h0.9l1.2-0.4c1.1-0.9,1.3-2.5,0.4-3.5
			c-0.1-0.1-0.2-0.3-0.4-0.4c-0.6-0.5-1.5-0.7-2.3-0.6c-0.9,0.1-1.6,0.6-2.1,1.3l-0.2,1l0.1,0.7L263.5,140.2z M262.7,147.6l0.6-0.1
			l0.4-0.1l0.5-0.2c0.9-0.6,1.4-1.6,1.2-2.7l0.1-0.7l-0.3-1c-0.7-1-1.9-1.4-3.1-1.1h-0.5l-1.2,0.4c-1.3,1.1-1.4,3-0.4,4.3
			c0.1,0.1,0.3,0.3,0.4,0.4C261.2,147.3,262,147.6,262.7,147.6L262.7,147.6z M268.6,173.4c0.1,0.1,0.2,0.2,0.3,0.3
			c-0.6-1-1.7-1.5-2.9-1.5l-0.7,0.1l-0.5,0.2l-0.6,0.4c-0.3,0.3-0.6,0.7-0.7,1.2c-0.3,1.4,0.6,2.7,1.9,3c1.4,0.6,3,0.1,3.8-1.1
			l0.1-1.2l-0.3-0.8L268.6,173.4z M264.8,170l0.6,0l0.8-0.1l0.2-0.1c1.9-0.6,2.8-1.6,2.7-3.1l-0.1-0.4l-0.1-0.3l-0.2-0.3
			c-0.2-0.3-0.4-0.5-0.6-0.7c-0.5-0.4-1.1-0.6-1.8-0.7l-1.1-0.1l-1.4,0.5c-0.8,0.6-1.3,1.6-1.4,2.7c0.1,0.8,0.4,1.5,1,1.9
			c0.1,0.1,0.3,0.2,0.5,0.3L264.8,170z M290.7,204c-0.9-0.8-2-1.2-3.2-1c-0.2,0-0.4,0.1-0.6,0.2c-0.1-0.4-0.4-0.8-0.8-1.1L286,202
			l-0.2-0.1l-1.2-0.3l-0.8,0.1l-1,0.5c-1,0.8-1.2,2.2-0.5,3.3l1.2,0.8l1,0.2h0.5l0.3-0.1l0.3,0.6c0.1,0.1,0.3,0.2,0.4,0.4
			c0.7,0.6,1.6,0.9,2.5,0.8c0.8,0.4,1.8,0.3,2.6-0.2l0.7-0.8l0.2-0.7l-0.1-1C291.5,204.8,291.1,204.4,290.7,204L290.7,204z
			 M229.1,185.5c0.1,0,0.2-0.1,0.3-0.1C229.4,185.4,229.3,185.4,229.1,185.5L229.1,185.5z M279.5,171.8l-1-0.2l-1.5,0.3
			c-1.2,0.7-1.7,2.3-1,3.5c0.1,0.2,0.2,0.3,0.4,0.5l1.3,0.6h1l1.3-0.6c0.8-0.8,1.1-2,0.7-3.1L279.5,171.8z M214.2,123.5
			c0.4-0.3,0.6-0.8,0.5-1.3c0-0.5-0.3-1-0.8-1.4l-0.6,0.6c0.1,0.1-0.5,0.6-0.5,0.6c-0.1-0.1-0.2-0.1-0.3-0.2l-0.4,0.4
			c-0.1,0.1,0,0.3,0.1,0.4l-1.1,1.1C212.1,124.4,213.4,124.3,214.2,123.5L214.2,123.5z M292.6,125.7c-0.1-0.1-0.3-0.2-0.4-0.3
			l-1.1-0.3h-0.8l-1,0.4c-0.8,0.5-1.2,1.4-1.3,2.3c0,0.8,0.4,1.5,1,2c0.1,0.1,0.2,0.2,0.4,0.3l1.1,0.3h0.4c0-0.1,0.4,0,0.4,0
			l1.3-0.4c0.7-0.5,1.1-1.2,1.1-2C293.7,127,293.3,126.2,292.6,125.7L292.6,125.7z M270.1,86.8l-0.4-0.2c-1.3-0.8-3-1-4.5-0.4
			l-0.4,0.3l-0.3,0.2l-0.3,0.4c-0.3,0.4-0.4,1-0.3,1.5l-0.1,0.8l0.5,1.3l1.2,1l1.4,0.4l0.9-0.1l1.2-0.7c0.1-0.1,0.1-0.1,0.4-0.3
			c0.4-0.2,0.8-0.5,1.2-0.9l0.4-1.3l-0.2-0.9L270.1,86.8z M207,122l0.6-0.6c1.2,1.2,3,1.2,4.3,0.2l0.4-0.5l0.2-0.4l0.1-0.6
			c0-0.8-0.4-1.5-1-2c-0.1-0.1-0.1-0.1-0.2-0.1c0.4,0,0.9,0,1.3-0.1c0.1,0.5,0.3,0.9,0.6,1.3c0.6,0.7,1.5,1.1,2.5,1.1l0.9-0.2
			l0.6-0.3l0.6-0.6c0.1-0.1,0.1-0.2,0.2-0.4c1-0.9,1.1-2.4,0.3-3.4c-0.1-0.1-0.1-0.2-0.2-0.2l-1-0.5h-0.2c0-0.1,0-0.8,0-0.8l-0.4-1
			c-0.1-0.1-0.3-0.3-0.4-0.4c-0.1-0.1-0.3-0.2-0.4-0.3c0.2-0.1,0.3-0.2,0.4-0.3l0.9,0.4h1l0.9-0.3c-0.1,0.1-0.2,0.1-0.3,0.1
			c0.9-0.2,1.6-0.8,1.9-1.6c0.3-0.7,0.2-1.5-0.3-2.1l-1-0.7l-0.6-0.1c-0.3-0.2-0.6-0.4-0.9-0.6l-0.9-0.1l-0.1-0.7l-0.5-0.9
			c-0.5-0.4-1.1-0.7-1.7-0.8c0-0.3,0-0.6,0-0.8c-0.2-1-0.9-1.8-1.8-2c0-0.2,0-0.4,0-0.6l-0.1-0.2c0.3,0,0.5,0,0.8,0
			c1-0.2,1.9-0.9,2.2-1.9c0.3-1.1-0.2-2.2-1.2-2.7c-0.4-0.2-0.9-0.3-1.4-0.3c0.1-0.1,0.2-0.2,0.3-0.3c-1,0.6-1.9,1.2-2.7,2
			c0,0.1-0.1,0.1-0.1,0.2c-1.6,1.3-2.8,3-3.7,4.8l0.6,0.5c-0.1,0-0.2-0.1-0.3-0.2c0.4,0.4,0.9,0.8,1.4,1l0.6,0c0,0.2,0,0.4,0.1,0.7
			c-0.3,0.1-0.6,0.2-0.8,0.4l-0.6,1l-0.1,0.8l0.3,0.9l-0.2-0.2c0-0.1-0.1-0.2-0.1-0.3c0,0.1,0,0.2,0.1,0.3l-0.6-0.6
			c-0.6-0.2-1.1-0.2-1.7-0.1c-0.2,0.9-0.2,1.8-0.2,2.7v2.9l0.2-0.6c1.3,0.1,2.4-0.7,2.9-1.8l0.1-0.2v-0.7l0.6,1.4
			c1,1,2.5,1.2,3.7,0.5l0.2-0.3l0.4,0.3l0.5,0.2c0.1,0-0.4,0.5-0.4,0.5c-0.6,0.1-1.1,0.3-1.6,0.7l-0.4,0.8c-0.1,0-0.2,0-0.3,0
			c-1,0.1-1.9,0.9-2.2,1.9c-0.1,0.3-0.1,0.6-0.1,0.8l0.3,0.8l-0.3-0.2l-0.4-0.3v-0.2l-0.4-0.3l-2.1-0.1l-0.2,0.2l-0.6,0.1v6.2
			c0.5,0,1,0,1.5-0.1L207,122z M251.9,144.3c-1.2,0.8-1.5,2.5-0.7,3.7c0.1,0.1,0.1,0.2,0.2,0.3l0.7,0.4l0.6,0.2l0.8,0.1
			c1.1-0.1,2-0.7,2.5-1.6c-0.2,0.2-0.4,0.3-0.6,0.3l1.2-1l0.3-0.9l-0.4-1.5l-0.1-0.1C255.1,143.1,253.2,143.2,251.9,144.3
			L251.9,144.3z M223.1,131l0.3,0.1c1.4,0.7,3,0.2,3.8-1.2l0.2-0.8l-0.1-0.6l-0.3-0.8c-0.1-0.2-0.3-0.3-0.5-0.5
			c-1.2-1-3-1.1-4.3-0.2c-1,0.8-1.2,2.2-0.4,3.2c0,0.1,0.1,0.1,0.1,0.2L223.1,131z M224.9,159.4l1.1-0.5l0.8-0.8l0.4-1.1v-0.8
			l-0.5-1.1l-0.2-0.1c-0.7-0.6-1.5-0.9-2.4-0.9l-0.6,0.1l-0.4,0.1l-0.5,0.3c-0.7,0.5-1.1,1.2-1.1,2c0,0.8,0.4,1.6,1.1,2.1
			c0.1,0.1,0.2,0.2,0.4,0.3l1.2,0.3L224.9,159.4z M234.5,192.6l0.3-0.1c-0.1,0.1-0.2,0.1-0.3,0.2c0.8-0.2,1.4-0.9,1.4-1.8l-0.2-0.6
			l-0.1-1.1c-1-0.8-2.4-0.9-3.5-0.3c0.5-0.9,0.4-2.1-0.4-2.9l-1.1-0.5l-0.8-0.1l-1.1,0.2c0.1-0.1,0.2-0.1,0.4-0.1
			c-1,0.1-2,0.6-2.5,1.5l-0.2,0.9l0.1,0.7l0.5,0.9l0.1,0.1c0.7,0.6,1.5,0.9,2.4,0.9l0.6-0.1l0.4-0.1l0.4-0.2c-0.5,1-0.2,2.3,0.7,3
			l2.4-0.1L234.5,192.6z M248.9,111.1l1.2,0.3l0.8-0.1l1.1-0.5c0.5-0.6,1-1.2,1.3-1.9c0.2-0.4,0.4-0.7,0.7-1c0,0-0.1,0.1-0.2,0.1
			l1.2-1.4l0-1.1l-1.1-1.5c-0.7-0.2-1.4-0.2-2.1-0.1c0.3-0.1,0.6,0,0.9,0h-1.1l-0.7,0.2l-0.8,0.5c-0.1,0.1,0,0,0.2-0.1l-0.8,0.6
			l-0.4,0.5l-0.3,0.9c0-0.1,0-0.1,0-0.2c0,0.1-0.3,0.3-0.3,0.4c-0.4,0.4-0.7,0.9-0.9,1.5C247.5,109.5,248,110.6,248.9,111.1
			L248.9,111.1z M209,126.4c-1,0.8-1.2,2.2-0.4,3.2c0.1,0.2,0.2,0.3,0.4,0.4c0.2,0.1,0.4,0.3,0.6,0.4l1.1,0.2l0.8-0.1l1-0.5l0.2-0.2
			c0,0.1-0.1,0.1-0.1,0.2v1.1l0.3,0.8l0.8,0.8c-0.1,0-0.2-0.1-0.2-0.1c0.6,0.5,1.4,0.8,2.1,0.8l1.1-0.3l0.6-0.4l0.6-0.9l0.1-0.5
			c0.2-0.7,0-1.5-0.5-2c-0.5-0.5-1.2-0.8-1.9-0.8l-0.6,0.2c-0.8-0.1-1.6,0.3-2.2,0.9l0.4-0.9v-0.8v-0.2c0-0.4-0.2-0.8-0.4-1.1
			l-1.5-0.7l-1.1,0L209,126.4z M251.5,208.3l-0.4,0.2C251.1,208.4,251.4,208.2,251.5,208.3l-0.3-0.3c0-0.1,0-0.1,0-0.2
			c-0.1-0.7-0.4-1.3-0.9-1.7l-2.4,0.1l-0.2,0.2l-0.4,0.1l-0.4,0.4l-0.4,0.7c-0.1,0.3-0.1,0.6,0,0.9h0.7c1.5,0,3.1,0.2,4.6,0.5
			C251.7,208.7,251.6,208.5,251.5,208.3L251.5,208.3z M252.8,121.6l0-0.8l-0.5-1c-0.1-0.1-0.3-0.3-0.4-0.4c-0.8-0.8-2-1.2-3.1-1.1
			c-0.6,0.1-1.1,0.3-1.5,0.7L247,119l-1.1,0.2l-1.2,1.1l-0.2,0.7l0.2,1.1l0.4,0.7l1,0.7c2.1-0.1,4.3-0.4,6.3-1L252.8,121.6z
			 M207.2,187.7c0.3-0.9,0-1.9-0.8-2.5c-0.4-0.3-0.8-0.5-1.2-0.7v4.8C206.1,189.1,206.9,188.5,207.2,187.7L207.2,187.7z
			 M205.3,129.7v3.6c0.5-0.4,0.8-1.1,0.8-1.7C206.1,130.8,205.8,130.2,205.3,129.7L205.3,129.7z M206.5,195.1
			c0.2-0.1,0.3-0.2,0.5-0.3l0.4-1.5l-0.2-0.7l-0.1-0.2l-0.3-0.5l-1.1-0.8l-0.4-0.1v4.9c0.4-0.1,0.8-0.3,1.1-0.5L206.5,195.1z
			 M207.7,176.1l0.3-1l-0.1-0.7l-0.5-0.9l-0.4-0.3l-0.7-0.3l-0.5-0.1h-0.4v4.7h0.5C206.6,177.2,207.2,176.8,207.7,176.1L207.7,176.1
			z M210.8,181.6l1,0.4h0.8l1.1-0.3c1.2-0.7,1.6-2.2,0.9-3.4c-0.1-0.2-0.2-0.3-0.3-0.4l-0.1-0.2l-1-0.6l-0.8-0.2l-1.2,0.1
			c-0.8,0.3-1.5,1-1.7,1.9c-0.1,0.9,0.2,1.7,0.9,2.3C210.4,181.3,210.6,181.5,210.8,181.6L210.8,181.6z M206.7,135.9
			c0.1-0.8-0.3-1.6-0.9-2.1c-0.2-0.1-0.3-0.2-0.5-0.3v4.2c0,0,0.1,0,0.2-0.1C206.1,137.4,206.6,136.7,206.7,135.9L206.7,135.9z
			 M222.3,219l-0.1-0.1l-1.1-0.4h-0.8l-1.1,0.3c-0.7,0.4-1.1,1.2-1.2,2c0,0.8,0.3,1.5,0.9,2l0.2,0.2l0.2,0.1c1-1.4,2.1-2.7,3.2-4
			L222.3,219z M243.9,79.5c-0.2-0.1-0.4-0.3-0.6-0.3c0.4,0.4,0.9,0.8,1.3,1.2C244.4,80.1,244.1,79.8,243.9,79.5L243.9,79.5z
			 M242.4,97.6l1.2-0.2l0.8-0.4l0.2-0.3c0.5,0.2,1.1,0.2,1.6,0c0.7-0.2,1.3-0.8,1.6-1.5v-1l-0.1-0.3h-7.6c-0.3,0.9-0.1,1.8,0.4,2.6
			C240.9,97.1,241.6,97.5,242.4,97.6L242.4,97.6z M207.6,221.7l-1.2-0.6l-0.9-0.1h-0.3v4.5h0.3h0.4c0.5,0,0.9-0.2,1.3-0.4l0.7-1
			l0.1-0.8v-0.4C208.1,222.4,207.9,222,207.6,221.7L207.6,221.7z M207.8,170.7c0.6,0.5,1.3,0.7,2.1,0.6h0.2h0.2l0.2-0.1
			c0.9-0.2,1.6-0.9,1.8-1.8c0.2-0.9-0.2-1.9-1-2.5c-0.7-0.6-1.5-0.8-2.4-0.8c-0.7,0.1-1.4,0.5-1.8,1.1l-0.2,0.8v0.6l0.3,0.8
			c-0.1-0.2-0.2-0.4-0.2-0.6C206.9,169.7,207.2,170.3,207.8,170.7L207.8,170.7z M215.7,188.7l-0.5-1.1l-0.6-0.5l-1.3-0.4h-0.3
			c0,0,0.1-0.5,0.1-0.5v-0.7c-0.1-0.6-0.4-1.1-0.8-1.5l-0.9-0.4l-0.8-0.2l-1.1,0.1c-0.2,0.1-0.3,0.2-0.5,0.3
			c-0.2,0.1-0.5,0.3-0.7,0.4c-0.8,0.8-0.9,2.1-0.1,2.9c0.1,0.1,0.1,0.1,0.2,0.2c0.6,0.5,1.3,0.8,2.1,0.8c-0.4,0.8-0.3,1.8,0.4,2.4
			l0.2,0.1c0.1,0.1,0.2,0.3,0.4,0.4l1.2,0.4h0.9l1.2-0.5l0.6-0.5l0.4-1.1L215.7,188.7z M213.7,214.8l-1.3,0.4l0.7-0.9l-1-0.6
			l-0.7-0.2c-1.2-0.2-2.4,0.3-3,1.4l-0.1,0.3l-0.1,0.3l0,0.4c0,0.8,0.4,1.6,1.1,2.1c0.4,0.3,0.8,0.6,1.2,0.8l0.2,0.1l1.1,0.2
			l0.8-0.1l1-0.4c1-0.9,1.2-2.4,0.3-3.4C213.8,214.9,213.8,214.9,213.7,214.8L213.7,214.8z M222.7,122l0.6-0.5l0.3-0.8
			c0.1,0.3,0.2,0.7,0.5,0.9l1.2,0.6h0.4c0.3,0,0.6,0,0.9,0l1.4-0.5c1-0.8,1.1-2.1,0.4-3.1c-0.1-0.1-0.2-0.2-0.2-0.3
			c-0.2-0.2-0.4-0.3-0.6-0.4l-1.2-0.2l-0.8,0.1l-1.1,0.5c-0.3,0.3-0.6,0.7-0.8,1.1l-0.5-1c-1-0.9-2.3-1.1-3.5-0.8l-0.9,0.6l-0.5,0.6
			l-0.3,1c0,0.6,0.3,1.2,0.8,1.7c0.3,0.3,0.8,0.5,1.2,0.6c-0.2-0.1-0.4-0.2-0.6-0.3l1.2,0.5h0.9L222.7,122z M245.6,138.7l0.3,0.8
			l0.2,0.3c0.3,0.4,0.6,0.6,1,0.8l1.4,0.1l0.9-0.3l0.4-0.2c0.4-0.2,0.6-0.5,0.9-0.9l0.1-1.2l-0.3-0.8l-0.2-0.4
			c-0.2-0.3-0.6-0.6-0.9-0.8l-1.4-0.1l-0.9,0.3l-0.4,0.2l-0.2,0.1l-0.1-1l-0.6-1.1c-0.7-0.6-1.6-0.9-2.5-0.8
			c-0.8,0.1-1.5,0.6-1.9,1.2l-0.2,1l0.1,0.7l0.5,0.9l0.4,0.3l1.1,0.4h0.8h0.2c0.4,0,0.9-0.2,1.3-0.4L245.6,138.7z M228.6,141.2
			l-0.9-0.1h-0.4c-0.5,0-0.9,0.2-1.3,0.4l-0.7,1l-0.1,0.8v0.4c0,0.4,0.2,0.8,0.4,1.1l1.2,0.7l0.9,0.1h0.4c0.4,0,0.9-0.2,1.3-0.4
			l0.5-0.8l0.8,0.6c-0.1,0-0.2-0.1-0.3-0.2l0.1,0.1c0.4,0.5,0.9,0.8,1.4,1.1h1.5l0.9-0.4l0.9-1c-0.1,0.2-0.2,0.4-0.4,0.6
			c1.2-0.6,1.9-1.7,1.9-3l-0.2-0.7l-0.2-0.4l-0.5-0.5c-0.6-0.4-1.3-0.7-2.1-0.8c0.3,0.1,0.5,0.3,0.7,0.5l-1.4-0.9l-1.1-0.1l-1.5,0.7
			c-0.1,0.1-0.2,0.2-0.3,0.3c-0.3,0.4-0.6,0.8-0.8,1.2L228.6,141.2z M220.6,117.1l1.3,0.5h0.9l1.3-0.6c0.7-0.3,1.3-1,1.4-1.8
			c0-0.9-0.3-1.7-1-2.2l-1.2-0.4h-0.9l-1.2,0.4C218.8,115.1,220.1,116.7,220.6,117.1L220.6,117.1z M227.9,105.8
			c0.8-0.1,1.5-0.6,1.9-1.2l0.2-1L230,103l-0.5-0.9c-1-0.9-2.4-1-3.6-0.5l-0.9,1.3v1l0.6,1.2C226.2,105.7,227,106,227.9,105.8
			L227.9,105.8z M236.1,153.9c-0.2,1,0.1,1.9,0.8,2.7l1,0.7l0.8,0.2l1.3-0.2c0.7-0.3,1.1-0.9,1.3-1.7c0.1-0.4,0.1-0.7,0.1-1.1
			c0,0.1,0,0.2,0,0.2l-0.2-1.1l-0.5-0.7l-1-0.7C238.3,151.7,236.7,152.4,236.1,153.9C236.1,153.9,236.1,153.9,236.1,153.9
			L236.1,153.9z M232.1,113.6c1.1,1,2.8,1.1,4,0.2l0.6-1c0.1,0,0.6,0,0.6,0c0.5,0,0.9-0.2,1.3-0.4l0.7-1.1l0.1-0.9V110
			c-0.1-0.6-0.4-1.1-0.9-1.4l-0.1-0.1l-0.2-0.1l-1.2-0.3l-0.8,0.1l-1,0.4c-0.3,0.3-0.6,0.7-0.8,1.2c-0.9-0.2-1.7,0-2.4,0.6l-0.6,1
			l-0.1,0.8l0.4,1.1C231.9,113.4,232,113.5,232.1,113.6L232.1,113.6z M207.4,164.2c0.6,0.2,1.2,0.2,1.8,0c-0.1,0.7,0.1,1.3,0.5,1.8
			l1.4,0.6c1,0.6,2.3,0.6,3.2,0l0.5-0.5l0.2-0.4l0.2-0.7c0-0.9-0.5-1.8-1.2-2.4c-0.1-0.1-0.3-0.3-0.5-0.4l-1.1-0.4l-0.8,0l-0.9,0.3
			l-0.1-0.8c-0.1-0.6-0.5-1.2-0.9-1.6c-0.2-0.2-0.5-0.4-0.8-0.5l-0.3,0l-0.1-0.2c-0.2-0.3-0.5-0.6-0.8-0.9c-0.6-0.5-1.4-0.7-2.2-0.6
			c-0.2,0-0.3,0.1-0.5,0.2v8.2c0.7-0.1,1.4-0.4,1.9-1L207.4,164.2z M220.5,213.3c0.9-0.8,1.1-2.1,0.3-3.1c0,0-0.1-0.1-0.1-0.1
			l-1.1-0.6l-0.1-0.1l-1.1-0.2l-1.7,0.4l-0.6,0.5l-0.4,0.8l-0.1,0.6l0.1,0.9c0.2,0.3,0.4,0.6,0.6,0.8
			C217.7,214.2,219.3,214.2,220.5,213.3L220.5,213.3z M213.5,151.2l1.6-0.2l0.6-0.4c1.1-0.2,2-1,2.3-2c0.1-0.2,0.1-0.5,0.1-0.8
			l-0.1-0.4l-0.1-0.3l-0.2-0.4c-0.3-0.5-0.8-1-1.3-1.3l0.4-0.6l0.1-0.8v-0.3c0-0.4-0.2-0.8-0.5-1.2l-1.2-0.7l-0.9-0.1h-0.4
			c-0.5,0-0.9,0.2-1.3,0.4l-0.7,1l-0.1,0.8v0.4c0.1,0.3,0.2,0.6,0.3,0.8c-0.1,0-0.6,0.5-0.6,0.5c-0.3,0.4-0.6,0.9-0.7,1.4
			c-0.5,1.8,0.6,3.7,2.5,4.1C213.4,151.2,213.5,151.2,213.5,151.2L213.5,151.2z M218.6,202.5l-1.1,0.2l-0.7,0.4l-0.8,0.9l-0.1,0.2
			c-0.3,1.2,0.2,2.4,1.2,3.1l1.5,0.4l1-0.2l1.2-1c0.1-0.1,0.1-0.3,0.1-0.4c0.3-0.8,0.1-1.7-0.4-2.3
			C220.2,203,219.5,202.6,218.6,202.5L218.6,202.5z M214.2,156.5l0.3,0.1l1.2-0.2l0.7-0.4l0.8-0.8c0.3-0.7,0.3-1.6-0.2-2.3
			c-0.5-0.7-1.2-1.2-2-1.3h-0.2l-1.2,0.2l-0.7,0.4l-0.8,0.8c-0.3,0.7-0.2,1.6,0.2,2.3C212.7,156,213.4,156.4,214.2,156.5
			L214.2,156.5z M220.5,174.5L219,174c-0.1,0-0.3-0.1-0.4-0.1l-1,0.1l-1.3,0.7l-0.1,0.1c-0.4,0.4-0.7,0.9-0.9,1.4
			c-0.3,1.3,0.4,2.5,1.7,2.9l1.8-0.3l0.6-0.5c0.9-0.2,1.6-0.8,1.9-1.7C221.4,175.9,221.2,175.1,220.5,174.5L220.5,174.5z"/>
		<path id="Path_2751_1_" class="st1" d="M181.3,403.7l0.8,0.1h0.5l0.8-0.2c0.8-0.4,1.4-1.1,1.6-2c0.3-1,0-2.1-0.7-2.8
			c-0.7-0.8-1.8-1.1-2.8-1l-1,0.4l-0.6,0.5l-0.5,0.9C178.9,401.3,179.7,403.1,181.3,403.7z M177.5,417.2c0.9-0.1,1.8-0.6,2.4-1.3
			l0.4-1l0-0.8l-0.5-1c-1.3-1.1-3.2-1.2-4.5-0.1l-0.1,0.1l-0.8,1.2v0.9l0.6,1.2C175.7,417,176.6,417.3,177.5,417.2L177.5,417.2z
			 M185,426.1l-0.3-0.8c-0.1-0.2-0.3-0.4-0.5-0.5c-0.7-0.6-1.6-0.8-2.4-0.6c-0.1-0.1-0.3-0.3-0.4-0.4c-1.2-1.1-3-1.1-4.2,0.1
			c-0.5,0.5-0.8,1.2-0.8,1.9v0.6l0.1,0.4l0.3,0.6c0.2,0.2,0.4,0.5,0.7,0.7c2.5-0.9,5.1-1.4,7.7-1.5C185.1,426.4,185,426.3,185,426.1
			L185,426.1z M170.1,422.5l-0.4-0.3l-0.7-0.3l-0.5-0.1l-0.8,0c-0.9,0.1-1.8,0.6-2.2,1.4c-0.4,0.8-0.3,1.8,0.3,2.5l1.2,0.7l1,0.1
			h0.5c0.8-0.1,1.5-0.5,1.9-1.2l0.2-1l-0.1-0.7L170.1,422.5z M172.6,414.9c0,0-0.1-0.1-0.1-0.1c-0.3-0.4-0.8-0.5-1.2-0.2
			c-0.1,0.1-0.2,0.2-0.3,0.4l0.3,0.8c-0.1,0-0.1-0.1-0.1-0.2l0.4,0.8c0.6,0.2,1.2,0,1.6-0.5l-0.7-0.9
			C172.5,414.9,172.6,414.9,172.6,414.9L172.6,414.9z M188.8,398.1l0.7,0.2c1.2,0.1,2.3-0.5,2.9-1.5c0.1-0.2,0.2-0.4,0.2-0.6
			c0.1,0,0.3,0,0.4,0.1l0.6-0.1l0.4-0.2l0.5-0.3c1.2-0.9,1.3-2.6,0.4-3.8c-0.1-0.1-0.2-0.2-0.3-0.3l-0.1-0.1l-1.4-0.7h-1l-1.4,0.6
			c-0.4,0.5-0.7,1.2-0.7,1.9h-0.5l-1,0.3c-1.3,0.6-1.8,2.2-1.2,3.5c0.1,0.2,0.2,0.3,0.3,0.5l0.6,0.4L188.8,398.1z M177.5,384.8
			l0.1,0.6l0.2,0.6l0.4,0.6c1,0.9,2.5,0.9,3.6,0.1c1-0.7,1.3-2.1,0.6-3.2c-0.1-0.1-0.1-0.2-0.2-0.3l-1-0.6l0.4-0.2l0.4-0.4l0.4-1
			v-0.8v-0.2c0-0.4-0.2-0.8-0.5-1.2l-1.5-0.7l-1.1,0.1L178,379c-1,0.8-1.1,2.2-0.4,3.2c0.1,0.1,0.2,0.2,0.4,0.4
			c0.2,0.1,0.3,0.3,0.5,0.4C178,383.4,177.6,384.1,177.5,384.8L177.5,384.8z M195.7,399.8l-0.4-0.3l-0.7-0.3l-0.5-0.1l-0.8,0
			c-0.9,0.1-1.8,0.6-2.2,1.4c-0.4,0.8-0.3,1.8,0.3,2.4l1.2,0.7l1,0.1h0.5c0.8-0.1,1.5-0.5,1.9-1.2l0.2-1l-0.1-0.7L195.7,399.8z
			 M205.1,378c0-0.8-0.4-1.5-1-2c-0.1-0.1-0.2-0.2-0.3-0.2l-1.1-0.3H202l-1,0.4c-0.6,0.4-1,1-1.2,1.6l-0.9-0.5l-0.9-0.1h-0.5
			c-0.5,0-0.9,0.2-1.3,0.4l-0.7,1l-0.1,0.8v0.4c0,0.4,0.2,0.8,0.5,1.2l1.2,0.7l0.9,0.1h0.4c0.4,0,0.9-0.2,1.3-0.4l0.8-1.1v-0.2
			c0.1,0.1,0.2,0.2,0.3,0.3c0.1,0.1,0.2,0.2,0.4,0.3l1,0.3h0.8l1-0.4C204.6,379.7,205.1,378.9,205.1,378L205.1,378z M205.3,358.2
			l0.8,0.7l1.2,0.4h0.9l1.2-0.4c1.1-0.9,1.3-2.5,0.4-3.5c-0.1-0.1-0.2-0.3-0.4-0.4c-0.6-0.5-1.5-0.7-2.3-0.6
			c-0.9,0.1-1.6,0.6-2.1,1.3l-0.2,1l0.1,0.7L205.3,358.2z M204.6,365.7l0.6-0.1l0.4-0.1l0.5-0.2c0.9-0.6,1.4-1.6,1.2-2.7l0.1-0.7
			l-0.3-1c-0.7-1-1.9-1.4-3.1-1.1h-0.5l-1.2,0.4c-1.3,1.1-1.4,3-0.4,4.3c0.1,0.1,0.3,0.3,0.4,0.4
			C203.1,365.3,203.8,365.6,204.6,365.7L204.6,365.7z M210.4,391.4c0.1,0.1,0.2,0.2,0.3,0.3c-0.6-1-1.7-1.5-2.9-1.5l-0.7,0.1
			l-0.5,0.2l-0.6,0.4c-0.3,0.3-0.6,0.7-0.7,1.2c-0.3,1.4,0.6,2.7,1.9,3c1.4,0.6,3,0.1,3.8-1.1l0.1-1.2l-0.3-0.8L210.4,391.4z
			 M206.7,388l0.6,0l0.8-0.1l0.2-0.1c1.9-0.6,2.8-1.6,2.7-3.1l-0.1-0.4l-0.1-0.3l-0.2-0.3c-0.2-0.3-0.4-0.5-0.6-0.7
			c-0.5-0.4-1.1-0.6-1.8-0.7l-1.1-0.1l-1.4,0.5c-0.8,0.6-1.3,1.6-1.4,2.7c0.1,0.8,0.4,1.5,1,1.9c0.1,0.1,0.3,0.2,0.5,0.3L206.7,388z
			 M232.5,422.1c-0.9-0.8-2-1.2-3.2-1c-0.2,0-0.4,0.1-0.6,0.2c-0.1-0.4-0.4-0.8-0.8-1.1l-0.1-0.1l-0.2-0.1l-1.2-0.3l-0.8,0.1l-1,0.5
			c-1,0.8-1.2,2.2-0.5,3.3l1.2,0.8l1,0.2h0.5l0.3-0.1l0.3,0.6c0.1,0.1,0.3,0.2,0.4,0.4c0.7,0.6,1.6,0.9,2.5,0.8
			c0.8,0.4,1.8,0.3,2.6-0.2l0.7-0.8l0.2-0.7l-0.1-1C233.4,422.8,233,422.4,232.5,422.1L232.5,422.1z M170.9,403.5
			c0.1,0,0.2-0.1,0.3-0.1C171.3,403.4,171.1,403.4,170.9,403.5L170.9,403.5z M221.4,389.9l-1-0.2l-1.5,0.3c-1.2,0.7-1.7,2.3-1,3.5
			c0.1,0.2,0.2,0.3,0.4,0.5l1.3,0.6h1l1.3-0.6c0.8-0.8,1.1-2,0.7-3.1L221.4,389.9z M156.1,341.5c0.4-0.3,0.6-0.8,0.5-1.3
			c0-0.5-0.3-1-0.8-1.4l-0.6,0.6c0.1,0.1-0.5,0.6-0.5,0.6c-0.1-0.1-0.2-0.1-0.3-0.2l-0.4,0.4c-0.1,0.1,0,0.3,0.1,0.4l-1.1,1.1
			C154,342.4,155.2,342.3,156.1,341.5L156.1,341.5z M234.5,343.7c-0.1-0.1-0.3-0.2-0.4-0.3l-1.1-0.3h-0.8l-1,0.4
			c-0.8,0.5-1.2,1.4-1.3,2.3c0,0.8,0.4,1.5,1,2c0.1,0.1,0.2,0.2,0.4,0.3l1.1,0.3h0.4c0-0.1,0.4,0,0.4,0l1.3-0.4
			c0.7-0.5,1.1-1.2,1.1-2C235.6,345,235.2,344.3,234.5,343.7L234.5,343.7z M211.9,304.8l-0.4-0.2c-1.3-0.8-3-1-4.5-0.4l-0.4,0.3
			l-0.3,0.2l-0.3,0.4c-0.3,0.4-0.4,1-0.3,1.5l-0.1,0.8l0.5,1.3l1.2,1l1.4,0.4l0.9-0.1l1.2-0.7c0.1-0.1,0.1-0.1,0.4-0.3
			c0.4-0.2,0.8-0.5,1.2-0.9l0.4-1.3l-0.2-0.9L211.9,304.8z M148.9,340l0.6-0.6c1.2,1.2,3,1.2,4.3,0.2l0.4-0.5l0.2-0.4l0.1-0.6
			c0-0.8-0.4-1.5-1-2c-0.1-0.1-0.1-0.1-0.2-0.1c0.4,0,0.9,0,1.3-0.1c0.1,0.5,0.3,0.9,0.6,1.3c0.6,0.7,1.5,1.1,2.5,1.1l0.9-0.2
			l0.6-0.3l0.6-0.6c0.1-0.1,0.1-0.2,0.2-0.4c1-0.9,1.1-2.4,0.3-3.4c-0.1-0.1-0.1-0.2-0.2-0.2l-1-0.5h-0.2c0-0.1,0-0.8,0-0.8l-0.4-1
			c-0.1-0.1-0.3-0.3-0.4-0.4c-0.1-0.1-0.3-0.2-0.4-0.3c0.2-0.1,0.3-0.2,0.4-0.3l0.9,0.4h1l0.9-0.3c-0.1,0.1-0.2,0.1-0.3,0.1
			c0.9-0.2,1.6-0.8,1.9-1.6c0.3-0.7,0.2-1.5-0.3-2.1l-1-0.7l-0.6-0.1c-0.3-0.2-0.6-0.4-0.9-0.6l-0.9-0.1l-0.1-0.7l-0.5-0.9
			c-0.5-0.4-1.1-0.7-1.7-0.8c0-0.3,0-0.6,0-0.8c-0.2-1-0.9-1.8-1.8-2c0-0.2,0-0.4,0-0.6l-0.1-0.2c0.3,0,0.5,0,0.8,0
			c1-0.2,1.9-0.9,2.2-1.9c0.3-1.1-0.2-2.2-1.2-2.7c-0.4-0.2-0.9-0.3-1.4-0.3c0.1-0.1,0.2-0.2,0.3-0.3c-1,0.6-1.9,1.2-2.7,2
			c0,0.1-0.1,0.1-0.1,0.2c-1.6,1.3-2.8,3-3.7,4.8l0.6,0.5c-0.1,0-0.2-0.1-0.3-0.2c0.4,0.4,0.9,0.8,1.4,1l0.6,0c0,0.2,0,0.4,0.1,0.7
			c-0.3,0.1-0.6,0.2-0.8,0.4l-0.6,1l-0.1,0.8l0.3,0.9l-0.2-0.2c0-0.1-0.1-0.2-0.1-0.3c0,0.1,0,0.2,0.1,0.3l-0.6-0.6
			c-0.6-0.2-1.1-0.2-1.7-0.1c-0.2,0.9-0.2,1.8-0.2,2.7v2.9l0.2-0.6c1.3,0.1,2.4-0.7,2.9-1.8l0.1-0.2v-0.7l0.6,1.4
			c1,1,2.5,1.2,3.7,0.5l0.2-0.3l0.4,0.3l0.5,0.2c0.1,0-0.4,0.5-0.4,0.5c-0.6,0.1-1.1,0.3-1.6,0.7l-0.4,0.8c-0.1,0-0.2,0-0.3,0
			c-1,0.1-1.9,0.9-2.2,1.9c-0.1,0.3-0.1,0.6-0.1,0.8l0.3,0.8l-0.3-0.2l-0.4-0.3v-0.2l-0.4-0.3l-2.1-0.1l-0.2,0.2l-0.6,0.1v6.2
			c0.5,0,1,0,1.5-0.1L148.9,340z M193.8,362.4c-1.2,0.8-1.5,2.5-0.7,3.7c0.1,0.1,0.1,0.2,0.2,0.3l0.7,0.4l0.6,0.2l0.8,0.1
			c1.1-0.1,2-0.7,2.5-1.6c-0.2,0.2-0.4,0.3-0.6,0.3l1.2-1l0.3-0.9l-0.4-1.5l-0.1-0.1C197,361.1,195,361.2,193.8,362.4L193.8,362.4z
			 M164.9,349l0.3,0.1c1.4,0.7,3,0.2,3.8-1.2l0.2-0.8l-0.1-0.6l-0.3-0.8c-0.1-0.2-0.3-0.3-0.5-0.5c-1.2-1-3-1.1-4.3-0.2
			c-1,0.8-1.2,2.2-0.4,3.2c0,0.1,0.1,0.1,0.1,0.2L164.9,349z M166.8,377.4l1.1-0.5l0.8-0.8l0.4-1.1v-0.8l-0.5-1.1l-0.2-0.1
			c-0.7-0.6-1.5-0.9-2.4-0.9l-0.6,0.1l-0.4,0.1l-0.5,0.3c-0.7,0.5-1.1,1.2-1.1,2c0,0.8,0.4,1.6,1.1,2.1c0.1,0.1,0.2,0.2,0.4,0.3
			l1.2,0.3L166.8,377.4z M176.3,410.6l0.3-0.1c-0.1,0.1-0.2,0.1-0.3,0.2c0.8-0.2,1.4-0.9,1.4-1.8l-0.2-0.6l-0.1-1.1
			c-1-0.8-2.4-0.9-3.5-0.3c0.5-0.9,0.4-2.1-0.4-2.9l-1.1-0.5l-0.8-0.1l-1.1,0.2c0.1-0.1,0.2-0.1,0.4-0.1c-1,0.1-2,0.6-2.5,1.5
			l-0.2,0.9l0.1,0.7l0.5,0.9l0.1,0.1c0.7,0.6,1.5,0.9,2.4,0.9l0.6-0.1l0.4-0.1l0.4-0.2c-0.5,1-0.2,2.3,0.7,3l2.4-0.1L176.3,410.6z
			 M190.8,329.1l1.2,0.3l0.8-0.1l1.1-0.5c0.5-0.6,1-1.2,1.3-1.9c0.2-0.4,0.4-0.7,0.7-1c0,0-0.1,0.1-0.2,0.1l1.2-1.4l0-1.1l-1.1-1.5
			c-0.7-0.2-1.4-0.2-2.1-0.1c0.3-0.1,0.6,0,0.9,0h-1.1l-0.7,0.2l-0.8,0.5c-0.1,0.1,0,0,0.2-0.1l-0.8,0.6l-0.4,0.5l-0.3,0.9
			c0-0.1,0-0.1,0-0.2c0,0.1-0.3,0.3-0.3,0.4c-0.4,0.4-0.7,0.9-0.9,1.5C189.4,327.5,189.8,328.6,190.8,329.1L190.8,329.1z
			 M150.8,344.4c-1,0.8-1.2,2.2-0.4,3.2c0.1,0.2,0.2,0.3,0.4,0.4c0.2,0.1,0.4,0.3,0.6,0.4l1.1,0.2l0.8-0.1l1-0.5l0.2-0.2
			c0,0.1-0.1,0.1-0.1,0.2v1.1l0.3,0.8l0.8,0.8c-0.1,0-0.2-0.1-0.2-0.1c0.6,0.5,1.4,0.8,2.1,0.8l1.1-0.3l0.6-0.4l0.6-0.9l0.1-0.5
			c0.2-0.7,0-1.5-0.5-2c-0.5-0.5-1.2-0.8-1.9-0.8l-0.6,0.2c-0.8-0.1-1.6,0.3-2.2,0.9l0.4-0.9v-0.8v-0.2c0-0.4-0.2-0.8-0.4-1.1
			l-1.5-0.7l-1.1,0L150.8,344.4z M193.3,426.3l-0.4,0.2C193,426.4,193.3,426.3,193.3,426.3L193,426c0-0.1,0-0.1,0-0.2
			c-0.1-0.7-0.4-1.3-0.9-1.7l-2.4,0.1l-0.2,0.2l-0.4,0.1l-0.4,0.4l-0.4,0.7c-0.1,0.3-0.1,0.6,0,0.9h0.7c1.5,0,3.1,0.2,4.6,0.5
			C193.6,426.7,193.5,426.5,193.3,426.3L193.3,426.3z M194.7,339.6l0-0.8l-0.5-1c-0.1-0.1-0.3-0.3-0.4-0.4c-0.8-0.8-2-1.2-3.1-1.1
			c-0.6,0.1-1.1,0.3-1.5,0.7l-0.2-0.1l-1.1,0.2l-1.2,1.1l-0.2,0.7l0.2,1.1l0.4,0.7l1,0.7c2.1-0.1,4.3-0.4,6.3-1L194.7,339.6z
			 M149.1,405.7c0.3-0.9,0-1.9-0.8-2.5c-0.4-0.3-0.8-0.5-1.2-0.7v4.8C148,407.1,148.8,406.5,149.1,405.7L149.1,405.7z M147.1,347.7
			v3.6c0.5-0.4,0.8-1.1,0.8-1.7C147.9,348.8,147.6,348.2,147.1,347.7L147.1,347.7z M148.4,413.1c0.2-0.1,0.3-0.2,0.5-0.3l0.4-1.5
			l-0.2-0.7l-0.1-0.2l-0.3-0.5l-1.1-0.8l-0.4-0.1v4.9c0.4-0.1,0.8-0.3,1.1-0.5L148.4,413.1z M149.6,394.1l0.3-1l-0.1-0.7l-0.5-0.9
			l-0.4-0.3l-0.7-0.3l-0.5-0.1h-0.4v4.7h0.5C148.4,395.2,149.1,394.8,149.6,394.1L149.6,394.1z M152.6,399.6l1,0.4h0.8l1.1-0.3
			c1.2-0.7,1.6-2.2,0.9-3.4c-0.1-0.2-0.2-0.3-0.3-0.4l-0.1-0.2l-1-0.6l-0.8-0.2l-1.2,0.1c-0.8,0.3-1.5,1-1.7,1.9
			c-0.1,0.9,0.2,1.7,0.9,2.3C152.3,399.3,152.5,399.5,152.6,399.6L152.6,399.6z M148.6,353.9c0.1-0.8-0.3-1.6-0.9-2.1
			c-0.2-0.1-0.3-0.2-0.5-0.3v4.2c0,0,0.1,0,0.2-0.1C148,355.4,148.5,354.7,148.6,353.9L148.6,353.9z M164.1,437l-0.1-0.1l-1.1-0.4
			h-0.8l-1.1,0.3c-0.7,0.4-1.1,1.2-1.2,2c0,0.8,0.3,1.5,0.9,2l0.2,0.2l0.2,0.1c1-1.4,2.1-2.7,3.2-4L164.1,437z M185.7,297.5
			c-0.2-0.1-0.4-0.3-0.6-0.3c0.4,0.4,0.9,0.8,1.3,1.2C186.2,298.1,186,297.8,185.7,297.5L185.7,297.5z M184.3,315.6l1.2-0.2l0.8-0.4
			l0.2-0.3c0.5,0.2,1.1,0.2,1.6,0c0.7-0.2,1.3-0.8,1.6-1.5v-1l-0.1-0.3h-7.6c-0.3,0.9-0.1,1.8,0.4,2.6
			C182.8,315.1,183.5,315.5,184.3,315.6L184.3,315.6z M149.5,439.7l-1.2-0.6l-0.9-0.1h-0.3v4.5h0.3h0.4c0.5,0,0.9-0.2,1.3-0.4l0.7-1
			l0.1-0.8v-0.4C149.9,440.4,149.7,440,149.5,439.7L149.5,439.7z M149.6,388.7c0.6,0.5,1.3,0.7,2.1,0.6h0.2h0.2l0.2-0.1
			c0.9-0.2,1.6-0.9,1.8-1.8c0.2-0.9-0.2-1.9-1-2.5c-0.7-0.6-1.5-0.8-2.4-0.8c-0.7,0.1-1.4,0.5-1.8,1.1l-0.2,0.8v0.6l0.3,0.8
			c-0.1-0.2-0.2-0.4-0.2-0.6C148.8,387.7,149.1,388.3,149.6,388.7L149.6,388.7z M157.6,406.7l-0.5-1.1l-0.6-0.5l-1.3-0.4h-0.3
			c0,0,0.1-0.5,0.1-0.5v-0.7c-0.1-0.6-0.4-1.1-0.8-1.5l-0.9-0.4l-0.8-0.2l-1.1,0.1c-0.2,0.1-0.3,0.2-0.5,0.3
			c-0.2,0.1-0.5,0.3-0.7,0.4c-0.8,0.8-0.9,2.1-0.1,2.9c0.1,0.1,0.1,0.1,0.2,0.2c0.6,0.5,1.3,0.8,2.1,0.8c-0.4,0.8-0.3,1.8,0.4,2.4
			l0.2,0.1c0.1,0.1,0.2,0.3,0.4,0.4l1.2,0.4h0.9l1.2-0.5l0.6-0.5l0.4-1.1L157.6,406.7z M155.6,432.8l-1.3,0.4l0.7-0.9l-1-0.6
			l-0.7-0.2c-1.2-0.2-2.4,0.3-3,1.4l-0.1,0.3l-0.1,0.3l0,0.4c0,0.8,0.4,1.6,1.1,2.1c0.4,0.3,0.8,0.6,1.2,0.8l0.2,0.1l1.1,0.2
			l0.8-0.1l1-0.4c1-0.9,1.2-2.4,0.3-3.4C155.7,432.9,155.7,432.9,155.6,432.8L155.6,432.8z M164.6,340l0.6-0.5l0.3-0.8
			c0.1,0.3,0.2,0.7,0.5,0.9l1.2,0.6h0.4c0.3,0,0.6,0,0.9,0l1.4-0.5c1-0.8,1.1-2.1,0.4-3.1c-0.1-0.1-0.2-0.2-0.2-0.3
			c-0.2-0.2-0.4-0.3-0.6-0.4l-1.2-0.2l-0.8,0.1l-1.1,0.5c-0.3,0.3-0.6,0.7-0.8,1.1l-0.5-1c-1-0.9-2.3-1.1-3.5-0.8l-0.9,0.6l-0.5,0.6
			l-0.3,1c0,0.6,0.3,1.2,0.8,1.7c0.3,0.3,0.8,0.5,1.2,0.6c-0.2-0.1-0.4-0.2-0.6-0.3l1.2,0.5h0.9L164.6,340z M187.5,356.7l0.3,0.8
			l0.2,0.3c0.3,0.4,0.6,0.6,1,0.8l1.4,0.1l0.9-0.3l0.4-0.2c0.4-0.2,0.6-0.5,0.9-0.9l0.1-1.2l-0.3-0.8l-0.2-0.4
			c-0.2-0.3-0.6-0.6-0.9-0.8l-1.4-0.1l-0.9,0.3l-0.4,0.2l-0.2,0.1l-0.1-1l-0.6-1.1c-0.7-0.6-1.6-0.9-2.5-0.8
			c-0.8,0.1-1.5,0.6-1.9,1.2l-0.2,1l0.1,0.7l0.5,0.9l0.4,0.3l1.1,0.4h0.8h0.2c0.4,0,0.9-0.2,1.3-0.4L187.5,356.7z M170.4,359.2
			l-0.9-0.1h-0.4c-0.5,0-0.9,0.2-1.3,0.4l-0.7,1l-0.1,0.8v0.4c0,0.4,0.2,0.8,0.4,1.1l1.2,0.7l0.9,0.1h0.4c0.4,0,0.9-0.2,1.3-0.4
			l0.5-0.8l0.8,0.6c-0.1,0-0.2-0.1-0.3-0.2l0.1,0.1c0.4,0.5,0.9,0.8,1.4,1.1h1.5l0.9-0.4l0.9-1c-0.1,0.2-0.2,0.4-0.4,0.6
			c1.2-0.6,1.9-1.7,1.9-3l-0.2-0.7l-0.2-0.4l-0.5-0.5c-0.6-0.4-1.3-0.7-2.1-0.8c0.3,0.1,0.5,0.3,0.7,0.5l-1.4-0.9l-1.1-0.1l-1.5,0.7
			c-0.1,0.1-0.2,0.2-0.3,0.3c-0.3,0.4-0.6,0.8-0.8,1.2L170.4,359.2z M162.4,335.1l1.3,0.5h0.9l1.3-0.6c0.7-0.3,1.3-1,1.4-1.8
			c0-0.9-0.3-1.7-1-2.2l-1.2-0.4h-0.9L163,331C160.6,333.1,162,334.7,162.4,335.1L162.4,335.1z M169.8,323.9
			c0.8-0.1,1.5-0.6,1.9-1.2l0.2-1l-0.1-0.7l-0.5-0.9c-1-0.9-2.4-1-3.6-0.5l-0.9,1.3v1l0.6,1.2C168,323.7,168.9,324,169.8,323.9
			L169.8,323.9z M178,371.9c-0.2,1,0.1,1.9,0.8,2.7l1,0.7l0.8,0.2l1.3-0.2c0.7-0.3,1.1-0.9,1.3-1.7c0.1-0.4,0.1-0.7,0.1-1.1
			c0,0.1,0,0.2,0,0.2l-0.2-1.1l-0.5-0.7l-1-0.7C180.2,369.7,178.6,370.5,178,371.9C178,371.9,178,371.9,178,371.9L178,371.9z
			 M174,331.6c1.1,1,2.8,1.1,4,0.2l0.6-1c0.1,0,0.6,0,0.6,0c0.5,0,0.9-0.2,1.3-0.4l0.7-1.1l0.1-0.9V328c-0.1-0.6-0.4-1.1-0.9-1.4
			l-0.1-0.1l-0.2-0.1l-1.2-0.3l-0.8,0.1l-1,0.4c-0.3,0.3-0.6,0.7-0.8,1.2c-0.9-0.2-1.7,0-2.4,0.6l-0.6,1l-0.1,0.8l0.4,1.1
			C173.8,331.4,173.9,331.5,174,331.6L174,331.6z M149.3,382.2c0.6,0.2,1.2,0.2,1.8,0c-0.1,0.7,0.1,1.3,0.5,1.8l1.4,0.6
			c1,0.6,2.3,0.6,3.2,0l0.5-0.5l0.2-0.4l0.2-0.7c0-0.9-0.5-1.8-1.2-2.4c-0.1-0.1-0.3-0.3-0.5-0.4l-1.1-0.4l-0.8,0l-0.9,0.3l-0.1-0.8
			c-0.1-0.6-0.5-1.2-0.9-1.6c-0.2-0.2-0.5-0.4-0.8-0.5l-0.3,0l-0.1-0.2c-0.2-0.3-0.5-0.6-0.8-0.9c-0.6-0.5-1.4-0.7-2.2-0.6
			c-0.2,0-0.3,0.1-0.5,0.2v8.2c0.7-0.1,1.4-0.4,1.9-1L149.3,382.2z M162.4,431.3c0.9-0.8,1.1-2.1,0.3-3.1c0,0-0.1-0.1-0.1-0.1
			l-1.1-0.6l-0.1-0.1l-1.1-0.2l-1.7,0.4l-0.6,0.5l-0.4,0.8l-0.1,0.6l0.1,0.9c0.2,0.3,0.4,0.6,0.6,0.8
			C159.5,432.2,161.2,432.2,162.4,431.3L162.4,431.3z M155.4,369.2l1.6-0.2l0.6-0.4c1.1-0.2,2-1,2.3-2c0.1-0.2,0.1-0.5,0.1-0.8
			l-0.1-0.4l-0.1-0.3l-0.2-0.4c-0.3-0.5-0.8-1-1.3-1.3l0.4-0.6l0.1-0.8v-0.3c0-0.4-0.2-0.8-0.5-1.2l-1.2-0.7l-0.9-0.1h-0.4
			c-0.5,0-0.9,0.2-1.3,0.4l-0.7,1l-0.1,0.8v0.4c0.1,0.3,0.2,0.6,0.3,0.8c-0.1,0-0.6,0.5-0.6,0.5c-0.3,0.4-0.6,0.9-0.7,1.4
			c-0.5,1.8,0.6,3.7,2.5,4.1C155.3,369.2,155.3,369.2,155.4,369.2L155.4,369.2z M160.5,420.5l-1.1,0.2l-0.7,0.4l-0.8,0.9l-0.1,0.2
			c-0.3,1.2,0.2,2.4,1.2,3.1l1.5,0.4l1-0.2l1.2-1c0.1-0.1,0.1-0.3,0.1-0.4c0.3-0.8,0.1-1.7-0.4-2.3
			C162.1,421,161.3,420.6,160.5,420.5L160.5,420.5z M156,374.6l0.3,0.1l1.2-0.2l0.7-0.4l0.8-0.8c0.3-0.7,0.3-1.6-0.2-2.3
			c-0.5-0.7-1.2-1.2-2-1.3h-0.2l-1.2,0.2l-0.7,0.4l-0.8,0.8c-0.3,0.7-0.2,1.6,0.2,2.3C154.5,374,155.3,374.4,156,374.6L156,374.6z
			 M162.4,392.5l-1.5-0.5c-0.1,0-0.3-0.1-0.4-0.1l-1,0.1l-1.3,0.7l-0.1,0.1c-0.4,0.4-0.7,0.9-0.9,1.4c-0.3,1.3,0.4,2.5,1.7,2.9
			l1.8-0.3l0.6-0.5c0.9-0.2,1.6-0.8,1.9-1.7C163.3,394,163,393.1,162.4,392.5L162.4,392.5z"/>
		<path id="Path_2753_1_" class="st1" d="M224.9,512.7l0.8,0.1h0.5l0.8-0.2c0.8-0.4,1.4-1.1,1.6-2c0.3-1,0-2.1-0.7-2.8
			c-0.7-0.8-1.8-1.1-2.8-1l-1,0.4l-0.6,0.5l-0.5,0.9C222.5,510.3,223.3,512.1,224.9,512.7z M221.1,526.2c0.9-0.1,1.8-0.6,2.4-1.3
			l0.4-1l0-0.8l-0.5-1c-1.3-1.1-3.2-1.2-4.5-0.1l-0.1,0.1l-0.8,1.2v0.9l0.6,1.2C219.3,526,220.2,526.3,221.1,526.2L221.1,526.2z
			 M228.6,535.1l-0.3-0.8c-0.1-0.2-0.3-0.4-0.5-0.5c-0.7-0.6-1.6-0.8-2.4-0.6c-0.1-0.1-0.3-0.3-0.4-0.4c-1.2-1.1-3-1.1-4.2,0.1
			c-0.5,0.5-0.8,1.2-0.8,1.9v0.6l0.1,0.4l0.3,0.6c0.2,0.2,0.4,0.5,0.7,0.7c2.5-0.9,5.1-1.4,7.7-1.5
			C228.7,535.4,228.6,535.3,228.6,535.1L228.6,535.1z M213.7,531.5l-0.4-0.3l-0.7-0.3l-0.5-0.1l-0.8,0c-0.9,0.1-1.8,0.6-2.2,1.4
			c-0.4,0.8-0.3,1.8,0.3,2.5l1.2,0.7l1,0.1h0.5c0.8-0.1,1.5-0.5,1.9-1.2l0.2-1l-0.1-0.7L213.7,531.5z M216.2,523.9
			c0,0-0.1-0.1-0.1-0.1c-0.3-0.4-0.8-0.5-1.2-0.2c-0.1,0.1-0.2,0.2-0.3,0.4l0.3,0.8c-0.1,0-0.1-0.1-0.1-0.2l0.4,0.8
			c0.6,0.2,1.2,0,1.6-0.5l-0.7-0.9C216.1,523.9,216.2,523.9,216.2,523.9L216.2,523.9z M232.4,507.1l0.7,0.2c1.2,0.1,2.3-0.5,2.9-1.5
			c0.1-0.2,0.2-0.4,0.2-0.6c0.1,0,0.3,0,0.4,0.1l0.6-0.1l0.4-0.2l0.5-0.3c1.2-0.9,1.3-2.6,0.4-3.8c-0.1-0.1-0.2-0.2-0.3-0.3
			l-0.1-0.1l-1.4-0.7h-1l-1.4,0.6c-0.4,0.5-0.7,1.2-0.7,1.9h-0.5l-1,0.3c-1.3,0.6-1.8,2.2-1.2,3.5c0.1,0.2,0.2,0.3,0.3,0.5l0.6,0.4
			L232.4,507.1z M221.1,493.8l0.1,0.6l0.2,0.6l0.4,0.6c1,0.9,2.5,0.9,3.6,0.1c1-0.7,1.3-2.1,0.6-3.2c-0.1-0.1-0.1-0.2-0.2-0.3
			l-1-0.6l0.4-0.2l0.4-0.4l0.4-1v-0.8v-0.2c0-0.4-0.2-0.8-0.5-1.2l-1.5-0.7l-1.1,0.1l-1.2,0.5c-1,0.8-1.1,2.2-0.4,3.2
			c0.1,0.1,0.2,0.2,0.4,0.4c0.2,0.1,0.3,0.3,0.5,0.4C221.6,492.4,221.2,493.1,221.1,493.8L221.1,493.8z M239.3,508.8l-0.4-0.3
			l-0.7-0.3l-0.5-0.1l-0.8,0c-0.9,0.1-1.8,0.6-2.2,1.4c-0.4,0.8-0.3,1.8,0.3,2.4l1.2,0.7l1,0.1h0.5c0.8-0.1,1.5-0.5,1.9-1.2l0.2-1
			l-0.1-0.7L239.3,508.8z M248.7,487c0-0.8-0.4-1.5-1-2c-0.1-0.1-0.2-0.2-0.3-0.2l-1.1-0.3h-0.8l-1,0.4c-0.6,0.4-1,1-1.2,1.6
			l-0.9-0.5l-0.9-0.1h-0.5c-0.5,0-0.9,0.2-1.3,0.4l-0.7,1l-0.1,0.8v0.4c0,0.4,0.2,0.8,0.5,1.2l1.2,0.7l0.9,0.1h0.4
			c0.4,0,0.9-0.2,1.3-0.4l0.8-1.1v-0.2c0.1,0.1,0.2,0.2,0.3,0.3c0.1,0.1,0.2,0.2,0.4,0.3l1,0.3h0.8l1-0.4
			C248.2,488.7,248.7,487.9,248.7,487L248.7,487z M248.9,467.2l0.8,0.7l1.2,0.4h0.9l1.2-0.4c1.1-0.9,1.3-2.5,0.4-3.5
			c-0.1-0.1-0.2-0.3-0.4-0.4c-0.6-0.5-1.5-0.7-2.3-0.6c-0.9,0.1-1.6,0.6-2.1,1.3l-0.2,1l0.1,0.7L248.9,467.2z M248.2,474.7l0.6-0.1
			l0.4-0.1l0.5-0.2c0.9-0.6,1.4-1.6,1.2-2.7l0.1-0.7l-0.3-1c-0.7-1-1.9-1.4-3.1-1.1h-0.5l-1.2,0.4c-1.3,1.1-1.4,3-0.4,4.3
			c0.1,0.1,0.3,0.3,0.4,0.4C246.7,474.3,247.4,474.6,248.2,474.7L248.2,474.7z M254.1,500.4c0.1,0.1,0.2,0.2,0.3,0.3
			c-0.6-1-1.7-1.5-2.9-1.5l-0.7,0.1l-0.5,0.2l-0.6,0.4c-0.3,0.3-0.6,0.7-0.7,1.2c-0.3,1.4,0.6,2.7,1.9,3c1.4,0.6,3,0.1,3.8-1.1
			l0.1-1.2l-0.3-0.8L254.1,500.4z M250.3,497l0.6,0l0.8-0.1l0.2-0.1c1.9-0.6,2.8-1.6,2.7-3.1l-0.1-0.4l-0.1-0.3l-0.2-0.3
			c-0.2-0.3-0.4-0.5-0.6-0.7c-0.5-0.4-1.1-0.6-1.8-0.7l-1.1-0.1l-1.4,0.5c-0.8,0.6-1.3,1.6-1.4,2.7c0.1,0.8,0.4,1.5,1,1.9
			c0.1,0.1,0.3,0.2,0.5,0.3L250.3,497z M276.2,531.1c-0.9-0.8-2-1.2-3.2-1c-0.2,0-0.4,0.1-0.6,0.2c-0.1-0.4-0.4-0.8-0.8-1.1
			l-0.1-0.1l-0.2-0.1l-1.2-0.3l-0.8,0.1l-1,0.5c-1,0.8-1.2,2.2-0.5,3.3l1.2,0.8l1,0.2h0.5l0.3-0.1l0.3,0.6c0.1,0.1,0.3,0.2,0.4,0.4
			c0.7,0.6,1.6,0.9,2.5,0.8c0.8,0.4,1.8,0.3,2.6-0.2l0.7-0.8l0.2-0.7l-0.1-1C277,531.8,276.6,531.4,276.2,531.1L276.2,531.1z
			 M214.6,512.5c0.1,0,0.2-0.1,0.3-0.1C214.9,512.4,214.7,512.4,214.6,512.5L214.6,512.5z M265,498.9l-1-0.2l-1.5,0.3
			c-1.2,0.7-1.7,2.3-1,3.5c0.1,0.2,0.2,0.3,0.4,0.5l1.3,0.6h1l1.3-0.6c0.8-0.8,1.1-2,0.7-3.1L265,498.9z M199.7,450.5
			c0.4-0.3,0.6-0.8,0.5-1.3c0-0.5-0.3-1-0.8-1.4l-0.6,0.6c0.1,0.1-0.5,0.6-0.5,0.6c-0.1-0.1-0.2-0.1-0.3-0.2l-0.4,0.4
			c-0.1,0.1,0,0.3,0.1,0.4l-1.1,1.1C197.6,451.4,198.8,451.3,199.7,450.5L199.7,450.5z M278.1,452.7c-0.1-0.1-0.3-0.2-0.4-0.3
			l-1.1-0.3h-0.8l-1,0.4c-0.8,0.5-1.2,1.4-1.3,2.3c0,0.8,0.4,1.5,1,2c0.1,0.1,0.2,0.2,0.4,0.3l1.1,0.3h0.4c0-0.1,0.4,0,0.4,0
			l1.3-0.4c0.7-0.5,1.1-1.2,1.1-2C279.2,454,278.8,453.3,278.1,452.7L278.1,452.7z M255.5,413.8l-0.4-0.2c-1.3-0.8-3-1-4.5-0.4
			l-0.4,0.3l-0.3,0.2l-0.3,0.4c-0.3,0.4-0.4,1-0.3,1.5l-0.1,0.8l0.5,1.3l1.2,1l1.4,0.4l0.9-0.1l1.2-0.7c0.1-0.1,0.1-0.1,0.4-0.3
			c0.4-0.2,0.8-0.5,1.2-0.9l0.4-1.3l-0.2-0.9L255.5,413.8z M192.5,449l0.6-0.6c1.2,1.2,3,1.2,4.3,0.2l0.4-0.5l0.2-0.4l0.1-0.6
			c0-0.8-0.4-1.5-1-2c-0.1-0.1-0.1-0.1-0.2-0.1c0.4,0,0.9,0,1.3-0.1c0.1,0.5,0.3,0.9,0.6,1.3c0.6,0.7,1.5,1.1,2.5,1.1l0.9-0.2
			l0.6-0.3l0.6-0.6c0.1-0.1,0.1-0.2,0.2-0.4c1-0.9,1.1-2.4,0.3-3.4c-0.1-0.1-0.1-0.2-0.2-0.2l-1-0.5h-0.2c0-0.1,0-0.8,0-0.8l-0.4-1
			c-0.1-0.1-0.3-0.3-0.4-0.4c-0.1-0.1-0.3-0.2-0.4-0.3c0.2-0.1,0.3-0.2,0.4-0.3l0.9,0.4h1l0.9-0.3c-0.1,0.1-0.2,0.1-0.3,0.1
			c0.9-0.2,1.6-0.8,1.9-1.6c0.3-0.7,0.2-1.5-0.3-2.1l-1-0.7l-0.6-0.1c-0.3-0.2-0.6-0.4-0.9-0.6l-0.9-0.1l-0.1-0.7l-0.5-0.9
			c-0.5-0.4-1.1-0.7-1.7-0.8c0-0.3,0-0.6,0-0.8c-0.2-1-0.9-1.8-1.8-2c0-0.2,0-0.4,0-0.6l-0.1-0.2c0.3,0,0.5,0,0.8,0
			c1-0.2,1.9-0.9,2.2-1.9c0.3-1.1-0.2-2.2-1.2-2.7c-0.4-0.2-0.9-0.3-1.4-0.3c0.1-0.1,0.2-0.2,0.3-0.3c-1,0.6-1.9,1.2-2.7,2
			c0,0.1-0.1,0.1-0.1,0.2c-1.6,1.3-2.8,3-3.7,4.8l0.6,0.5c-0.1,0-0.2-0.1-0.3-0.2c0.4,0.4,0.9,0.8,1.4,1l0.6,0c0,0.2,0,0.4,0.1,0.7
			c-0.3,0.1-0.6,0.2-0.8,0.4l-0.6,1l-0.1,0.8l0.3,0.9l-0.2-0.2c0-0.1-0.1-0.2-0.1-0.3c0,0.1,0,0.2,0.1,0.3l-0.6-0.6
			c-0.6-0.2-1.1-0.2-1.7-0.1c-0.2,0.9-0.2,1.8-0.2,2.7v2.9l0.2-0.6c1.3,0.1,2.4-0.7,2.9-1.8l0.1-0.2v-0.7l0.6,1.4
			c1,1,2.5,1.2,3.7,0.5l0.2-0.3l0.4,0.3l0.5,0.2c0.1,0-0.4,0.5-0.4,0.5c-0.6,0.1-1.1,0.3-1.6,0.7l-0.4,0.8c-0.1,0-0.2,0-0.3,0
			c-1,0.1-1.9,0.9-2.2,1.9c-0.1,0.3-0.1,0.6-0.1,0.8l0.3,0.8l-0.3-0.2l-0.4-0.3v-0.2l-0.4-0.3l-2.1-0.1l-0.2,0.2l-0.6,0.1v6.2
			c0.5,0,1,0,1.5-0.1L192.5,449z M237.4,471.4c-1.2,0.8-1.5,2.5-0.7,3.7c0.1,0.1,0.1,0.2,0.2,0.3l0.7,0.4l0.6,0.2l0.8,0.1
			c1.1-0.1,2-0.7,2.5-1.6c-0.2,0.2-0.4,0.3-0.6,0.3l1.2-1l0.3-0.9l-0.4-1.5l-0.1-0.1C240.6,470.1,238.6,470.2,237.4,471.4
			L237.4,471.4z M208.5,458l0.3,0.1c1.4,0.7,3,0.2,3.8-1.2l0.2-0.8l-0.1-0.6l-0.3-0.8c-0.1-0.2-0.3-0.3-0.5-0.5
			c-1.2-1-3-1.1-4.3-0.2c-1,0.8-1.2,2.2-0.4,3.2c0,0.1,0.1,0.1,0.1,0.2L208.5,458z M210.4,486.4l1.1-0.5l0.8-0.8l0.4-1.1v-0.8
			l-0.5-1.1l-0.2-0.1c-0.7-0.6-1.5-0.9-2.4-0.9l-0.6,0.1l-0.4,0.1l-0.5,0.3c-0.7,0.5-1.1,1.2-1.1,2c0,0.8,0.4,1.6,1.1,2.1
			c0.1,0.1,0.2,0.2,0.4,0.3l1.2,0.3L210.4,486.4z M219.9,519.6l0.3-0.1c-0.1,0.1-0.2,0.1-0.3,0.2c0.8-0.2,1.4-0.9,1.4-1.8l-0.2-0.6
			l-0.1-1.1c-1-0.8-2.4-0.9-3.5-0.3c0.5-0.9,0.4-2.1-0.4-2.9l-1.1-0.5l-0.8-0.1l-1.1,0.2c0.1-0.1,0.2-0.1,0.4-0.1
			c-1,0.1-2,0.6-2.5,1.5l-0.2,0.9l0.1,0.7l0.5,0.9l0.1,0.1c0.7,0.6,1.5,0.9,2.4,0.9l0.6-0.1l0.4-0.1l0.4-0.2c-0.5,1-0.2,2.3,0.7,3
			l2.4-0.1L219.9,519.6z M234.4,438.1l1.2,0.3l0.8-0.1l1.1-0.5c0.5-0.6,1-1.2,1.3-1.9c0.2-0.4,0.4-0.7,0.7-1c0,0-0.1,0.1-0.2,0.1
			l1.2-1.4l0-1.1l-1.1-1.5c-0.7-0.2-1.4-0.2-2.1-0.1c0.3-0.1,0.6,0,0.9,0h-1.1l-0.7,0.2l-0.8,0.5c-0.1,0.1,0,0,0.2-0.1l-0.8,0.6
			l-0.4,0.5l-0.3,0.9c0-0.1,0-0.1,0-0.2c0,0.1-0.3,0.3-0.3,0.4c-0.4,0.4-0.7,0.9-0.9,1.5C233,436.5,233.4,437.6,234.4,438.1
			L234.4,438.1z M194.5,453.4c-1,0.8-1.2,2.2-0.4,3.2c0.1,0.2,0.2,0.3,0.4,0.4c0.2,0.1,0.4,0.3,0.6,0.4l1.1,0.2l0.8-0.1l1-0.5
			l0.2-0.2c0,0.1-0.1,0.1-0.1,0.2v1.1l0.3,0.8l0.8,0.8c-0.1,0-0.2-0.1-0.2-0.1c0.6,0.5,1.4,0.8,2.1,0.8l1.1-0.3l0.6-0.4l0.6-0.9
			l0.1-0.5c0.2-0.7,0-1.5-0.5-2c-0.5-0.5-1.2-0.8-1.9-0.8l-0.6,0.2c-0.8-0.1-1.6,0.3-2.2,0.9l0.4-0.9v-0.8v-0.2
			c0-0.4-0.2-0.8-0.4-1.1l-1.5-0.7l-1.1,0L194.5,453.4z M236.9,535.3l-0.4,0.2C236.6,535.4,236.9,535.3,236.9,535.3l-0.3-0.3
			c0-0.1,0-0.1,0-0.2c-0.1-0.7-0.4-1.3-0.9-1.7l-2.4,0.1l-0.2,0.2l-0.4,0.1l-0.4,0.4l-0.4,0.7c-0.1,0.3-0.1,0.6,0,0.9h0.7
			c1.5,0,3.1,0.2,4.6,0.5C237.2,535.7,237.1,535.5,236.9,535.3L236.9,535.3z M238.3,448.6l0-0.8l-0.5-1c-0.1-0.1-0.3-0.3-0.4-0.4
			c-0.8-0.8-2-1.2-3.1-1.1c-0.6,0.1-1.1,0.3-1.5,0.7l-0.2-0.1l-1.1,0.2l-1.2,1.1l-0.2,0.7l0.2,1.1l0.4,0.7l1,0.7
			c2.1-0.1,4.3-0.4,6.3-1L238.3,448.6z M192.7,514.7c0.3-0.9,0-1.9-0.8-2.5c-0.4-0.3-0.8-0.5-1.2-0.7v4.8
			C191.6,516.1,192.4,515.5,192.7,514.7L192.7,514.7z M190.8,456.7v3.6c0.5-0.4,0.8-1.1,0.8-1.7
			C191.5,457.8,191.2,457.2,190.8,456.7L190.8,456.7z M192,522.1c0.2-0.1,0.3-0.2,0.5-0.3l0.4-1.5l-0.2-0.7l-0.1-0.2l-0.3-0.5
			l-1.1-0.8l-0.4-0.1v4.9c0.4-0.1,0.8-0.3,1.1-0.5L192,522.1z M193.2,503.2l0.3-1l-0.1-0.7l-0.5-0.9l-0.4-0.3l-0.7-0.3l-0.5-0.1
			h-0.4v4.7h0.5C192,504.2,192.7,503.8,193.2,503.2L193.2,503.2z M196.2,508.6l1,0.4h0.8l1.1-0.3c1.2-0.7,1.6-2.2,0.9-3.4
			c-0.1-0.2-0.2-0.3-0.3-0.4l-0.1-0.2l-1-0.6l-0.8-0.2l-1.2,0.1c-0.8,0.3-1.5,1-1.7,1.9c-0.1,0.9,0.2,1.7,0.9,2.3
			C195.9,508.3,196.1,508.5,196.2,508.6L196.2,508.6z M192.2,462.9c0.1-0.8-0.3-1.6-0.9-2.1c-0.2-0.1-0.3-0.2-0.5-0.3v4.2
			c0,0,0.1,0,0.2-0.1C191.6,464.4,192.1,463.7,192.2,462.9L192.2,462.9z M207.7,546l-0.1-0.1l-1.1-0.4h-0.8l-1.1,0.3
			c-0.7,0.4-1.1,1.2-1.2,2c0,0.8,0.3,1.5,0.9,2l0.2,0.2l0.2,0.1c1-1.4,2.1-2.7,3.2-4L207.7,546z M229.3,406.5
			c-0.2-0.1-0.4-0.3-0.6-0.3c0.4,0.4,0.9,0.8,1.3,1.2C229.8,407.1,229.6,406.8,229.3,406.5L229.3,406.5z M227.9,424.6l1.2-0.2
			l0.8-0.4l0.2-0.3c0.5,0.2,1.1,0.2,1.6,0c0.7-0.2,1.3-0.8,1.6-1.5v-1l-0.1-0.3h-7.6c-0.3,0.9-0.1,1.8,0.4,2.6
			C226.4,424.1,227.1,424.5,227.9,424.6L227.9,424.6z M193.1,548.7l-1.2-0.6L191,548h-0.3v4.5h0.3h0.4c0.5,0,0.9-0.2,1.3-0.4l0.7-1
			l0.1-0.8v-0.4C193.5,549.4,193.4,549,193.1,548.7L193.1,548.7z M193.2,497.7c0.6,0.5,1.3,0.7,2.1,0.6h0.2h0.2l0.2-0.1
			c0.9-0.2,1.6-0.9,1.8-1.8c0.2-0.9-0.2-1.9-1-2.5c-0.7-0.6-1.5-0.8-2.4-0.8c-0.7,0.1-1.4,0.5-1.8,1.1l-0.2,0.8v0.6l0.3,0.8
			c-0.1-0.2-0.2-0.4-0.2-0.6C192.4,496.7,192.7,497.3,193.2,497.7L193.2,497.7z M201.2,515.7l-0.5-1.1l-0.6-0.5l-1.3-0.4h-0.3
			c0,0,0.1-0.5,0.1-0.5v-0.7c-0.1-0.6-0.4-1.1-0.8-1.5l-0.9-0.4l-0.8-0.2l-1.1,0.1c-0.2,0.1-0.3,0.2-0.5,0.3
			c-0.2,0.1-0.5,0.3-0.7,0.4c-0.8,0.8-0.9,2.1-0.1,2.9c0.1,0.1,0.1,0.1,0.2,0.2c0.6,0.5,1.3,0.8,2.1,0.8c-0.4,0.8-0.3,1.8,0.4,2.4
			l0.2,0.1c0.1,0.1,0.2,0.3,0.4,0.4l1.2,0.4h0.9l1.2-0.5l0.6-0.5l0.4-1.1L201.2,515.7z M199.2,541.8l-1.3,0.4l0.7-0.9l-1-0.6
			l-0.7-0.2c-1.2-0.2-2.4,0.3-3,1.4l-0.1,0.3l-0.1,0.3l0,0.4c0,0.8,0.4,1.6,1.1,2.1c0.4,0.3,0.8,0.6,1.2,0.8l0.2,0.1l1.1,0.2
			l0.8-0.1l1-0.4c1-0.9,1.2-2.4,0.3-3.4C199.3,541.9,199.3,541.9,199.2,541.8L199.2,541.8z M208.2,449l0.6-0.5l0.3-0.8
			c0.1,0.3,0.2,0.7,0.5,0.9l1.2,0.6h0.4c0.3,0,0.6,0,0.9,0l1.4-0.5c1-0.8,1.1-2.1,0.4-3.1c-0.1-0.1-0.2-0.2-0.2-0.3
			c-0.2-0.2-0.4-0.3-0.6-0.4l-1.2-0.2l-0.8,0.1l-1.1,0.5c-0.3,0.3-0.6,0.7-0.8,1.1l-0.5-1c-1-0.9-2.3-1.1-3.5-0.8l-0.9,0.6l-0.5,0.6
			l-0.3,1c0,0.6,0.3,1.2,0.8,1.7c0.3,0.3,0.8,0.5,1.2,0.6c-0.2-0.1-0.4-0.2-0.6-0.3l1.2,0.5h0.9L208.2,449z M231.1,465.7l0.3,0.8
			l0.2,0.3c0.3,0.4,0.6,0.6,1,0.8l1.4,0.1l0.9-0.3l0.4-0.2c0.4-0.2,0.6-0.5,0.9-0.9l0.1-1.2l-0.3-0.8l-0.2-0.4
			c-0.2-0.3-0.6-0.6-0.9-0.8l-1.4-0.1l-0.9,0.3l-0.4,0.2l-0.2,0.1l-0.1-1l-0.6-1.1c-0.7-0.6-1.6-0.9-2.5-0.8
			c-0.8,0.1-1.5,0.6-1.9,1.2l-0.2,1l0.1,0.7l0.5,0.9l0.4,0.3l1.1,0.4h0.8h0.2c0.4,0,0.9-0.2,1.3-0.4L231.1,465.7z M214,468.2
			l-0.9-0.1h-0.4c-0.5,0-0.9,0.2-1.3,0.4l-0.7,1l-0.1,0.8v0.4c0,0.4,0.2,0.8,0.4,1.1l1.2,0.7l0.9,0.1h0.4c0.4,0,0.9-0.2,1.3-0.4
			l0.5-0.8l0.8,0.6c-0.1,0-0.2-0.1-0.3-0.2l0.1,0.1c0.4,0.5,0.9,0.8,1.4,1.1h1.5l0.9-0.4l0.9-1c-0.1,0.2-0.2,0.4-0.4,0.6
			c1.2-0.6,1.9-1.7,1.9-3l-0.2-0.7l-0.2-0.4l-0.5-0.5c-0.6-0.4-1.3-0.7-2.1-0.8c0.3,0.1,0.5,0.3,0.7,0.5l-1.4-0.9l-1.1-0.1l-1.5,0.7
			c-0.1,0.1-0.2,0.2-0.3,0.3c-0.3,0.4-0.6,0.8-0.8,1.2L214,468.2z M206,444.1l1.3,0.5h0.9l1.3-0.6c0.7-0.3,1.3-1,1.4-1.8
			c0-0.9-0.3-1.7-1-2.2l-1.2-0.4h-0.9l-1.2,0.4C204.2,442.1,205.6,443.7,206,444.1L206,444.1z M213.4,432.9c0.8-0.1,1.5-0.6,1.9-1.2
			l0.2-1l-0.1-0.7l-0.5-0.9c-1-0.9-2.4-1-3.6-0.5l-0.9,1.3v1l0.6,1.2C211.6,432.7,212.5,433,213.4,432.9L213.4,432.9z M221.6,480.9
			c-0.2,1,0.1,1.9,0.8,2.7l1,0.7l0.8,0.2l1.3-0.2c0.7-0.3,1.1-0.9,1.3-1.7c0.1-0.4,0.1-0.7,0.1-1.1c0,0.1,0,0.2,0,0.2l-0.2-1.1
			l-0.5-0.7l-1-0.7C223.8,478.7,222.2,479.5,221.6,480.9C221.6,480.9,221.6,480.9,221.6,480.9L221.6,480.9z M217.6,440.6
			c1.1,1,2.8,1.1,4,0.2l0.6-1c0.1,0,0.6,0,0.6,0c0.5,0,0.9-0.2,1.3-0.4l0.7-1.1l0.1-0.9V437c-0.1-0.6-0.4-1.1-0.9-1.4l-0.1-0.1
			l-0.2-0.1l-1.2-0.3l-0.8,0.1l-1,0.4c-0.3,0.3-0.6,0.7-0.8,1.2c-0.9-0.2-1.7,0-2.4,0.6l-0.6,1l-0.1,0.8l0.4,1.1
			C217.4,440.4,217.5,440.5,217.6,440.6L217.6,440.6z M192.9,491.2c0.6,0.2,1.2,0.2,1.8,0c-0.1,0.7,0.1,1.3,0.5,1.8l1.4,0.6
			c1,0.6,2.3,0.6,3.2,0l0.5-0.5l0.2-0.4l0.2-0.7c0-0.9-0.5-1.8-1.2-2.4c-0.1-0.1-0.3-0.3-0.5-0.4l-1.1-0.4l-0.8,0l-0.9,0.3l-0.1-0.8
			c-0.1-0.6-0.5-1.2-0.9-1.6c-0.2-0.2-0.5-0.4-0.8-0.5l-0.3,0l-0.1-0.2c-0.2-0.3-0.5-0.6-0.8-0.9c-0.6-0.5-1.4-0.7-2.2-0.6
			c-0.2,0-0.3,0.1-0.5,0.2v8.2c0.7-0.1,1.4-0.4,1.9-1L192.9,491.2z M206,540.3c0.9-0.8,1.1-2.1,0.3-3.1c0,0-0.1-0.1-0.1-0.1
			l-1.1-0.6l-0.1-0.1l-1.1-0.2l-1.7,0.4l-0.6,0.5l-0.4,0.8l-0.1,0.6l0.1,0.9c0.2,0.3,0.4,0.6,0.6,0.8
			C203.1,541.2,204.8,541.2,206,540.3L206,540.3z M199,478.2l1.6-0.2l0.6-0.4c1.1-0.2,2-1,2.3-2c0.1-0.2,0.1-0.5,0.1-0.8l-0.1-0.4
			l-0.1-0.3l-0.2-0.4c-0.3-0.5-0.8-1-1.3-1.3l0.4-0.6l0.1-0.8v-0.3c0-0.4-0.2-0.8-0.5-1.2l-1.2-0.7l-0.9-0.1h-0.4
			c-0.5,0-0.9,0.2-1.3,0.4l-0.7,1l-0.1,0.8v0.4c0.1,0.3,0.2,0.6,0.3,0.8c-0.1,0-0.6,0.5-0.6,0.5c-0.3,0.4-0.6,0.9-0.7,1.4
			c-0.5,1.8,0.6,3.7,2.5,4.1C198.9,478.2,198.9,478.2,199,478.2L199,478.2z M204.1,529.5l-1.1,0.2l-0.7,0.4l-0.8,0.9l-0.1,0.2
			c-0.3,1.2,0.2,2.4,1.2,3.1l1.5,0.4l1-0.2l1.2-1c0.1-0.1,0.1-0.3,0.1-0.4c0.3-0.8,0.1-1.7-0.4-2.3
			C205.7,530,204.9,529.6,204.1,529.5L204.1,529.5z M199.6,483.6l0.3,0.1l1.2-0.2l0.7-0.4l0.8-0.8c0.3-0.7,0.3-1.6-0.2-2.3
			c-0.5-0.7-1.2-1.2-2-1.3h-0.2l-1.2,0.2l-0.7,0.4l-0.8,0.8c-0.3,0.7-0.2,1.6,0.2,2.3C198.1,483,198.9,483.4,199.6,483.6
			L199.6,483.6z M206,501.5l-1.5-0.5c-0.1,0-0.3-0.1-0.4-0.1l-1,0.1l-1.3,0.7l-0.1,0.1c-0.4,0.4-0.7,0.9-0.9,1.4
			c-0.3,1.3,0.4,2.5,1.7,2.9l1.8-0.3l0.6-0.5c0.9-0.2,1.6-0.8,1.9-1.7C206.9,503,206.6,502.1,206,501.5L206,501.5z"/>
		<path id="Path_2754_1_" class="st1" d="M347.2,506.9l0.2-0.7l0-0.5l-0.1-0.8c-0.3-0.8-1-1.5-1.8-1.8c-1-0.4-2.1-0.2-2.9,0.4
			c-0.8,0.7-1.3,1.7-1.3,2.7l0.3,1.1l0.4,0.6l0.9,0.6C344.6,509.1,346.4,508.4,347.2,506.9z M360.2,511.8c0-1-0.4-1.9-1.1-2.5
			l-1-0.4l-0.8,0l-1.1,0.4c-1.2,1.2-1.4,3.1-0.5,4.5l0.1,0.2l1.1,0.9l0.9,0.1l1.3-0.5C359.9,513.6,360.2,512.7,360.2,511.8
			L360.2,511.8z M369.8,505.1l-0.8,0.2c-0.2,0.1-0.4,0.3-0.5,0.4c-0.6,0.6-0.9,1.5-0.8,2.4c-0.1,0.1-0.3,0.2-0.4,0.4
			c-1.2,1.1-1.3,2.9-0.2,4.2c0.5,0.5,1.1,0.9,1.8,1l0.6,0.1l0.4-0.1l0.6-0.2c0.3-0.2,0.5-0.4,0.7-0.6c-0.7-2.5-1-5.2-0.8-7.8
			C370.1,505,370,505.1,369.8,505.1L369.8,505.1z M364.9,519.7l-0.4,0.4l-0.4,0.6l-0.2,0.5l-0.1,0.8c0,0.9,0.5,1.8,1.2,2.3
			c0.8,0.5,1.7,0.4,2.5-0.1l0.8-1.1l0.2-1l0-0.5c0-0.8-0.4-1.5-1-2l-1-0.3l-0.7,0L364.9,519.7z M357.6,516.5c0,0-0.1,0.1-0.1,0.1
			c-0.4,0.2-0.6,0.8-0.3,1.2c0.1,0.1,0.2,0.2,0.3,0.3l0.8-0.2c0,0.1-0.1,0.1-0.2,0.1l0.8-0.3c0.2-0.6,0.1-1.2-0.4-1.7l-0.9,0.6
			C357.6,516.6,357.6,516.5,357.6,516.5L357.6,516.5z M342.2,498.9l0.2-0.7c0.2-1.2-0.3-2.3-1.3-3c-0.2-0.1-0.4-0.2-0.6-0.3
			c0-0.1,0.1-0.3,0.1-0.4l-0.1-0.6l-0.1-0.4l-0.3-0.6c-0.8-1.2-2.5-1.5-3.8-0.7c-0.1,0.1-0.2,0.2-0.3,0.3l-0.1,0.1l-0.8,1.2l-0.1,1
			l0.5,1.5c0.5,0.5,1.1,0.8,1.8,0.9l0,0.5l0.2,1.1c0.5,1.3,2,2,3.3,1.5c0.2-0.1,0.4-0.2,0.5-0.3l0.5-0.5L342.2,498.9z M328,509.1
			l0.6,0l0.6-0.2l0.6-0.4c1-0.9,1.2-2.4,0.5-3.6c-0.6-1.1-2-1.5-3.1-0.8c-0.1,0.1-0.2,0.1-0.3,0.2l-0.6,0.9l-0.1-0.4l-0.3-0.4
			l-1-0.5l-0.8-0.1l-0.2,0c-0.4,0-0.8,0.1-1.2,0.4l-0.8,1.4l0,1.1l0.4,1.2c0.7,1,2.1,1.3,3.1,0.6c0.1-0.1,0.3-0.2,0.4-0.3
			c0.1-0.2,0.3-0.3,0.4-0.5C326.6,508.4,327.3,508.8,328,509.1L328,509.1z M344.5,492.2l-0.4,0.4l-0.4,0.6l-0.2,0.5l-0.1,0.7
			c0,0.9,0.5,1.8,1.2,2.3c0.8,0.4,1.7,0.4,2.5-0.1l0.8-1.1l0.2-1l0-0.5c0-0.8-0.4-1.5-1-2l-1-0.3l-0.7,0L344.5,492.2z M323.6,480.9
			c-0.8-0.1-1.5,0.2-2.1,0.8c-0.1,0.1-0.2,0.2-0.3,0.3l-0.4,1l-0.1,0.8l0.3,1.1c0.4,0.6,0.9,1.1,1.5,1.3l-0.6,0.9l-0.2,0.9l0,0.4
			c0,0.5,0.1,0.9,0.3,1.3l1,0.8l0.8,0.2l0.4,0c0.4,0,0.8-0.1,1.2-0.4l0.7-1.1l0.2-0.9l0-0.4c0-0.5-0.1-0.9-0.3-1.3l-1-0.8l-0.2,0
			c0.1-0.1,0.2-0.2,0.3-0.3c0.1-0.1,0.2-0.2,0.3-0.3l0.4-1l0.1-0.8l-0.3-1.1C325.3,481.6,324.5,481,323.6,480.9L323.6,480.9z
			 M303.9,479l0.7-0.8l0.5-1.1l0.1-0.9l-0.3-1.2c-0.8-1.2-2.3-1.5-3.5-0.7c-0.1,0.1-0.3,0.2-0.4,0.3c-0.6,0.6-0.9,1.4-0.8,2.2
			c0,0.9,0.4,1.7,1.1,2.2l1,0.3l0.7,0L303.9,479z M311.3,480.4l0-0.6l-0.1-0.4l-0.2-0.5c-0.5-0.9-1.5-1.5-2.6-1.4l-0.7-0.1l-1,0.1
			c-0.2,0.1-0.4,0.3-0.6,0.5c-0.6,0.7-0.9,1.6-0.7,2.5l0,0.5l0.3,1.2c1,1.4,2.9,1.7,4.2,0.7c0.2-0.1,0.3-0.2,0.4-0.4
			C310.8,481.8,311.2,481.1,311.3,480.4L311.3,480.4z M337.4,476.8c0.1-0.1,0.2-0.2,0.3-0.3c-1,0.5-1.7,1.6-1.7,2.7l0.1,0.7l0.1,0.5
			l0.3,0.6c0.3,0.4,0.7,0.6,1.1,0.8c1.3,0.4,2.7-0.3,3.2-1.7c0.7-1.3,0.4-2.9-0.8-3.9l-1.2-0.2l-0.8,0.2L337.4,476.8z M333.7,480.3
			l0.1-0.6l0-0.8l0-0.2c-0.4-1.9-1.4-2.9-2.8-3l-0.4,0l-0.3,0.1l-0.3,0.1c-0.3,0.1-0.5,0.3-0.7,0.6c-0.4,0.5-0.7,1.1-0.8,1.7
			l-0.2,1.1l0.4,1.4c0.6,0.9,1.5,1.5,2.5,1.6c0.8,0,1.5-0.3,2-0.9c0.1-0.1,0.2-0.3,0.4-0.4L333.7,480.3z M369.9,457.5
			c-0.9,0.8-1.3,1.9-1.3,3.1c0,0.2,0.1,0.4,0.1,0.6c-0.4,0.1-0.9,0.3-1.2,0.7l-0.1,0.1l-0.1,0.2l-0.4,1.2l0,0.8l0.4,1.1
			c0.7,1,2.1,1.4,3.2,0.8l0.9-1.1l0.2-0.9l0-0.5l0-0.3l0.6-0.2c0.1-0.1,0.3-0.2,0.4-0.4c0.6-0.6,1-1.5,1-2.4
			c0.5-0.8,0.5-1.7,0.1-2.6l-0.8-0.7l-0.7-0.3l-1,0C370.8,456.7,370.3,457,369.9,457.5L369.9,457.5z M346.1,517.2
			c0-0.1,0-0.2-0.1-0.4C346,516.8,346,517,346.1,517.2z M336.9,465.7l-0.3,1l0.2,1.5c0.6,1.3,2.1,1.9,3.4,1.3
			c0.2-0.1,0.4-0.2,0.5-0.3l0.7-1.3l0.1-1l-0.5-1.3c-0.7-0.9-1.9-1.3-3-0.9L336.9,465.7z M283.1,526.6c-0.3-0.4-0.8-0.6-1.3-0.6
			c-0.5,0-1.1,0.2-1.4,0.6l0.5,0.6c0.1-0.1,0.6,0.6,0.6,0.6c-0.1,0.1-0.2,0.2-0.2,0.2l0.3,0.4c0.1,0.1,0.3,0,0.4,0l1,1.2
			C283.7,528.7,283.8,527.5,283.1,526.6z M292.1,448.7c-0.1,0.1-0.2,0.2-0.3,0.4l-0.4,1.1l-0.1,0.8l0.3,1.1c0.4,0.8,1.2,1.3,2.2,1.5
			c0.8,0.1,1.5-0.2,2-0.8c0.1-0.1,0.2-0.2,0.3-0.3l0.4-1.1l0-0.4c-0.1,0,0-0.4,0-0.4l-0.2-1.3c-0.4-0.7-1.1-1.2-1.9-1.3
			C293.5,447.7,292.6,448,292.1,448.7L292.1,448.7z M251.3,467.8l-0.2,0.4c-0.9,1.3-1.2,2.9-0.8,4.4l0.2,0.4l0.2,0.3l0.3,0.3
			c0.4,0.3,0.9,0.4,1.4,0.4l0.7,0.2l1.4-0.4l1.1-1.1l0.5-1.3l0-0.9l-0.6-1.3c-0.1-0.1-0.1-0.1-0.3-0.4c-0.2-0.5-0.5-0.9-0.8-1.3
			l-1.3-0.6l-0.9,0.1L251.3,467.8z M281,533.6l-0.5-0.6c1.2-1.1,1.5-2.9,0.6-4.2l-0.5-0.4l-0.4-0.2l-0.6-0.2c-0.8,0-1.5,0.3-2,0.9
			c0,0-0.1,0.1-0.1,0.2c0.1-0.4,0.1-0.9,0-1.3c0.5,0,1-0.2,1.3-0.5c0.8-0.6,1.2-1.4,1.3-2.4l-0.1-0.9l-0.2-0.6l-0.5-0.7
			c-0.1-0.1-0.2-0.1-0.4-0.2c-0.8-1.1-2.3-1.3-3.4-0.6c-0.1,0.1-0.2,0.1-0.2,0.2l-0.5,1l0,0.2c-0.1,0-0.8-0.1-0.8-0.1l-1.1,0.3
			c-0.1,0.1-0.3,0.2-0.4,0.4c-0.1,0.1-0.2,0.2-0.3,0.4c-0.1-0.2-0.2-0.3-0.3-0.4l0.4-0.8l0.1-1l-0.2-1c0,0.1,0.1,0.2,0.1,0.3
			c-0.1-0.9-0.6-1.6-1.4-2.1c-0.7-0.3-1.5-0.3-2.1,0.1l-0.8,1l-0.2,0.6c-0.3,0.2-0.5,0.5-0.7,0.8l-0.2,0.9l-0.6,0l-1,0.4
			c-0.4,0.4-0.8,1-0.9,1.6c-0.3-0.1-0.5-0.1-0.8-0.1c-1,0.1-1.8,0.7-2.2,1.6c-0.2,0-0.4-0.1-0.6-0.1l-0.2,0c0.1-0.3,0.1-0.5,0.1-0.8
			c-0.1-1-0.7-2-1.7-2.3c-1-0.4-2.2,0.1-2.7,1c-0.3,0.4-0.4,0.9-0.4,1.4c-0.1-0.1-0.2-0.2-0.3-0.3c0.5,1,1,2,1.7,2.9
			c0.1,0,0.1,0.1,0.2,0.1c1.2,1.7,2.7,3.1,4.5,4.1l0.6-0.6c0,0.1-0.1,0.2-0.2,0.3c0.4-0.4,0.8-0.8,1.1-1.3l0-0.6c0.2,0,0.4,0,0.7,0
			c0.1,0.3,0.2,0.6,0.3,0.8l0.9,0.7l0.7,0.2l0.9-0.2l-0.2,0.2c-0.1,0-0.2,0.1-0.3,0.1c0.1,0,0.2,0,0.3,0l-0.6,0.6
			c-0.2,0.5-0.3,1.1-0.2,1.7c0.9,0.2,1.8,0.4,2.6,0.5l2.9,0.2l-0.6-0.3c0.2-1.3-0.4-2.5-1.6-3.1l-0.2-0.1l-0.6-0.1l1.4-0.5
			c1.1-0.9,1.4-2.4,0.8-3.6l-0.3-0.2l0.3-0.4l0.2-0.5c0-0.1,0.5,0.4,0.5,0.4c0.1,0.6,0.2,1.1,0.5,1.6l0.8,0.5c0,0.1,0,0.2,0,0.3
			c0,1.1,0.7,2,1.7,2.3c0.3,0.1,0.5,0.2,0.8,0.2l0.9-0.2l-0.3,0.3l-0.3,0.3l-0.2,0l-0.4,0.4l-0.3,2.1l0.1,0.2l0,0.6l6.2,0.5
			c0.1-0.5,0.1-1,0-1.5L281,533.6z M307.1,490.8c0.7,1.3,2.3,1.7,3.6,1c0.1-0.1,0.2-0.1,0.3-0.2l0.5-0.6l0.2-0.5l0.2-0.8
			c0-1.1-0.6-2.1-1.5-2.7c0.1,0.2,0.2,0.4,0.3,0.6l-0.9-1.3l-0.8-0.4l-1.5,0.2l-0.1,0.1C306.1,487.5,306,489.5,307.1,490.8z
			 M291.3,518.4l0.1-0.3c0.8-1.3,0.4-3-0.8-3.9l-0.8-0.3l-0.6,0l-0.8,0.3c-0.2,0.1-0.4,0.3-0.5,0.4c-1.1,1.1-1.4,2.9-0.6,4.3
			c0.7,1.1,2.1,1.4,3.1,0.7c0.1,0,0.1-0.1,0.2-0.1L291.3,518.4z M319.8,519.1l-0.4-1.1l-0.7-0.8l-1-0.5l-0.8-0.1l-1.1,0.4l-0.1,0.1
			c-0.6,0.6-1,1.4-1.1,2.3l0,0.7l0.1,0.4l0.2,0.6c0.4,0.7,1.1,1.2,1.9,1.3c0.8,0.1,1.7-0.3,2.2-0.9c0.1-0.1,0.2-0.2,0.3-0.4l0.4-1.2
			L319.8,519.1z M353.7,512.4l0-0.3c0.1,0.1,0.1,0.2,0.1,0.3c-0.1-0.9-0.8-1.5-1.7-1.6l-0.6,0.2l-1.1,0c-0.9,0.9-1.1,2.3-0.6,3.5
			c-0.9-0.6-2.1-0.6-2.9,0.1l-0.6,1l-0.2,0.8l0.1,1.2c-0.1-0.1-0.1-0.2-0.1-0.4c0,1,0.5,2,1.3,2.6l0.9,0.2l0.7-0.1l0.9-0.4l0.1-0.1
			c0.6-0.6,1.1-1.5,1.2-2.3l0-0.6L351,516l-0.2-0.5c1,0.6,2.2,0.4,3-0.4l0.1-2.4L353.7,512.4z M273.7,490.9l0.4-1.1l0-0.8l-0.4-1.1
			c-0.5-0.6-1.1-1.1-1.8-1.5c-0.3-0.2-0.7-0.5-1-0.8c0,0,0,0.1,0.1,0.2l-1.3-1.3l-1.1-0.1l-1.6,0.9c-0.3,0.6-0.4,1.4-0.2,2
			c0-0.3,0-0.6,0.1-0.8l-0.1,1.1l0.1,0.7l0.5,0.9c0.1,0.1,0,0-0.1-0.2l0.5,0.8l0.5,0.4l0.8,0.4c-0.1,0-0.1,0-0.2,0
			c0.1,0,0.3,0.3,0.4,0.4c0.4,0.5,0.9,0.8,1.4,1.1C272,492.2,273.1,491.8,273.7,490.9z M285.5,532c0.7,1.1,2.1,1.4,3.1,0.7
			c0.2-0.1,0.3-0.2,0.4-0.4c0.2-0.2,0.3-0.3,0.4-0.5l0.3-1l0-0.8l-0.4-1.1l-0.2-0.2c0.1,0.1,0.1,0.1,0.2,0.1l1.1,0.1l0.8-0.2
			l0.9-0.8c0,0.1-0.1,0.2-0.1,0.2c0.6-0.6,0.9-1.3,1-2.1l-0.2-1.1l-0.4-0.7l-0.8-0.7l-0.5-0.2c-0.7-0.3-1.5-0.1-2.1,0.3
			c-0.6,0.4-0.9,1.1-1,1.8l0.1,0.6c-0.1,0.8,0.1,1.7,0.7,2.3l-0.8-0.5l-0.8-0.1l-0.2,0c-0.4,0-0.8,0.1-1.2,0.3l-0.8,1.4l-0.1,1.1
			L285.5,532z M370.8,496.9l0.1,0.4C370.8,497.3,370.7,496.9,370.8,496.9l-0.3,0.3c-0.1,0-0.1,0-0.2,0c-0.7,0-1.3,0.3-1.7,0.8
			l-0.1,2.4l0.2,0.2l0,0.4l0.3,0.4l0.6,0.4c0.3,0.1,0.6,0.1,0.9,0.1l0.1-0.7c0.1-1.5,0.4-3.1,0.9-4.5
			C371.2,496.7,371,496.8,370.8,496.9L370.8,496.9z M284.5,488l-0.8,0l-1,0.4c-0.1,0.1-0.3,0.3-0.4,0.4c-0.8,0.8-1.3,1.9-1.3,3
			c0,0.6,0.2,1.1,0.5,1.6l0,0.3l0.2,1.1l1,1.3l0.7,0.3l1.1-0.1l0.7-0.4l0.8-0.9c0.2-0.7,0.3-1.5,0-2.2c0.9-1.3,0.7-3.1-0.4-4.2
			L284.5,488z M346.4,539.1c-0.9-0.4-1.9-0.2-2.6,0.5c-0.4,0.3-0.6,0.7-0.8,1.2l4.7,0.4C347.7,540.3,347.2,539.5,346.4,539.1z
			 M288.4,536l3.6,0.3c-0.4-0.5-1-0.9-1.6-1C289.6,535.3,288.9,535.5,288.4,536z M353.7,540.5c-0.1-0.2-0.2-0.4-0.3-0.5l-1.4-0.5
			l-0.7,0.2l-0.2,0.1l-0.6,0.2l-0.9,1l-0.1,0.4l4.9,0.4c-0.1-0.4-0.2-0.8-0.4-1.2L353.7,540.5z M334.9,537.7l-1-0.3l-0.7,0l-1,0.4
			l-0.4,0.4l-0.4,0.6l-0.2,0.5l0,0.4l4.7,0.4l0-0.5C335.9,538.9,335.5,538.1,334.9,537.7L334.9,537.7z M340.7,535.1l0.5-1l0.1-0.8
			l-0.2-1.1c-0.6-1.2-2.1-1.8-3.3-1.1c-0.2,0.1-0.3,0.2-0.5,0.3l-0.2,0.1l-0.7,0.9l-0.3,0.8l0,1.2c0.2,0.9,0.9,1.6,1.8,1.8
			c0.8,0.2,1.7-0.1,2.3-0.7C340.3,535.4,340.5,535.2,340.7,535.1L340.7,535.1z M294.8,535.1c-0.8-0.1-1.6,0.1-2.1,0.7
			c-0.1,0.1-0.3,0.3-0.4,0.5l4.2,0.4c0,0,0-0.1,0-0.2C296.2,535.8,295.5,535.3,294.8,535.1z M378.8,526.8l-0.1,0.1l-0.5,1.1
			l-0.1,0.8l0.2,1.1c0.4,0.7,1.1,1.2,1.9,1.4c0.8,0.1,1.5-0.2,2.1-0.7l0.2-0.2l0-0.2C381.3,529.2,380.1,528,378.8,526.8L378.8,526.8
			z M241.8,493.2c-0.2,0.2-0.3,0.4-0.4,0.6c0.5-0.4,0.9-0.8,1.3-1.2C242.4,492.7,242.1,492.9,241.8,493.2z M259.7,496.3l-0.1-1.2
			l-0.3-0.8L259,494c0.2-0.5,0.2-1.1,0.1-1.6c-0.2-0.7-0.6-1.4-1.3-1.7l-1-0.1l-0.3,0.1l-0.7,7.6c0.8,0.3,1.8,0.3,2.6-0.2
			C259.1,497.7,259.6,497,259.7,496.3z M380.3,541.7l-0.7,1.1l-0.2,0.9l0,0.3l4.5,0.4l0-0.3l0-0.4c0-0.5-0.1-0.9-0.3-1.3l-0.9-0.8
			l-0.8-0.2l-0.4,0C381,541.3,380.6,541.4,380.3,541.7z M329.5,537.1c0.5-0.5,0.8-1.3,0.8-2l0-0.2l0-0.2l0-0.2
			c-0.1-0.9-0.7-1.7-1.6-2c-0.9-0.3-2,0-2.6,0.7c-0.6,0.6-1,1.4-1,2.3c0,0.7,0.3,1.4,0.9,1.9l0.8,0.3l0.6,0.1l0.8-0.2
			c-0.2,0.1-0.4,0.2-0.6,0.2C328.4,537.8,329,537.6,329.5,537.1L329.5,537.1z M348.2,530.7l-1.1,0.5l-0.6,0.6l-0.5,1.3l0,0.3
			c0,0-0.5-0.2-0.5-0.2l-0.6-0.1c-0.6,0.1-1.1,0.3-1.6,0.7l-0.5,0.8l-0.2,0.8l0,1.1c0.1,0.2,0.1,0.3,0.2,0.5
			c0.1,0.2,0.2,0.5,0.4,0.7c0.7,0.9,2,1.1,2.9,0.4c0.1-0.1,0.2-0.1,0.2-0.2c0.6-0.5,0.9-1.3,1-2c0.8,0.5,1.7,0.4,2.4-0.1l0.1-0.2
			c0.2-0.1,0.3-0.2,0.4-0.3l0.5-1.2l0.1-0.9l-0.4-1.2l-0.5-0.6l-1.1-0.5L348.2,530.7z M374,535l0.2,1.3l-0.9-0.8l-0.7,1l-0.3,0.7
			c-0.3,1.2,0.1,2.4,1.1,3.1l0.3,0.2l0.3,0.1l0.4,0.1c0.8,0,1.6-0.3,2.2-0.9c0.3-0.3,0.6-0.7,0.9-1.1l0.1-0.2l0.3-1l0-0.8l-0.3-1
			c-0.8-1.1-2.3-1.4-3.4-0.6C374.1,535,374.1,535,374,535L374,535z M282.3,518l-0.5-0.6l-0.7-0.4c0.3,0,0.7-0.2,1-0.4l0.7-1.1l0-0.4
			c0-0.3,0-0.6,0.1-0.9l-0.4-1.4c-0.7-1-2-1.3-3.1-0.6c-0.1,0.1-0.2,0.1-0.3,0.2c-0.2,0.2-0.3,0.3-0.5,0.5l-0.3,1.1l0,0.8l0.4,1.1
			c0.3,0.3,0.6,0.6,1,0.8l-1,0.4c-0.9,0.9-1.3,2.2-1.1,3.4l0.5,1l0.5,0.5l1,0.4c0.6,0,1.3-0.2,1.7-0.6c0.3-0.3,0.6-0.7,0.7-1.1
			c-0.1,0.2-0.2,0.4-0.3,0.5l0.6-1.1l0.1-0.9L282.3,518z M300.9,496.6l0.8-0.3l0.4-0.2c0.4-0.2,0.7-0.6,0.9-1l0.2-1.3l-0.2-0.9
			l-0.2-0.4c-0.2-0.4-0.4-0.7-0.8-1l-1.2-0.2l-0.8,0.3l-0.4,0.2c-0.3,0.2-0.6,0.5-0.8,0.9l-0.2,1.4l0.2,0.9l0.2,0.4l0.1,0.2l-1,0
			l-1.1,0.5c-0.6,0.6-1,1.5-1,2.4c0,0.8,0.4,1.5,1.1,2l1,0.3l0.7-0.1l0.9-0.4l0.4-0.4l0.5-1.1l0.1-0.8l0-0.2c0-0.4-0.1-0.9-0.3-1.3
			L300.9,496.6z M301.9,513.8l-0.2,0.9l0,0.4c0,0.5,0.1,0.9,0.3,1.3l1,0.8l0.8,0.2l0.4,0c0.4,0,0.8-0.1,1.2-0.3l0.8-1.1l0.2-0.9
			l0-0.4c0-0.5-0.1-0.9-0.3-1.3l-0.7-0.6l0.6-0.7c0,0.1-0.1,0.2-0.2,0.3l0.1-0.1c0.5-0.4,0.9-0.8,1.2-1.3l0.1-1.5l-0.3-0.9l-0.9-0.9
			c0.2,0.1,0.4,0.3,0.5,0.5c-0.5-1.2-1.6-2-2.9-2.1l-0.7,0.1l-0.5,0.2l-0.6,0.4c-0.5,0.6-0.8,1.3-0.9,2c0.1-0.3,0.3-0.5,0.6-0.7
			l-1,1.3l-0.2,1.1l0.5,1.6c0.1,0.1,0.2,0.2,0.3,0.3c0.3,0.4,0.7,0.6,1.1,0.9L301.9,513.8z M277.2,519.7l0.6-1.2l0.1-0.9l-0.5-1.3
			c-0.3-0.8-0.9-1.3-1.7-1.5c-0.9-0.1-1.7,0.2-2.3,0.8l-0.6,1.1l-0.1,0.9l0.3,1.2C275,521.3,276.7,520.1,277.2,519.7z M266.7,511.4
			c0-0.8-0.4-1.5-1.1-2l-0.9-0.3l-0.7,0l-1,0.4c-0.9,0.9-1.2,2.3-0.8,3.6l1.3,1l1,0.1l1.2-0.5C266.3,513.1,266.7,512.3,266.7,511.4z
			 M315.2,507.4c0.9,0.2,2,0.1,2.7-0.5l0.8-1l0.2-0.8l-0.1-1.3c-0.3-0.7-0.8-1.2-1.5-1.5c-0.4-0.1-0.7-0.2-1.1-0.2
			c0.1,0,0.2,0,0.2,0l-1.2,0.1l-0.7,0.4l-0.8,1C313.3,505.1,313.9,506.7,315.2,507.4z M274.8,507.9c1.1-1,1.3-2.7,0.5-4l-1-0.7
			c0-0.1,0.1-0.6,0.1-0.6c0-0.5-0.1-0.9-0.3-1.3l-1-0.8l-0.9-0.2l-0.5,0c-0.6,0.1-1.1,0.3-1.5,0.7l-0.1,0.1l-0.1,0.2l-0.4,1.2l0,0.8
			l0.4,1.1c0.3,0.4,0.7,0.7,1.1,0.9c-0.2,0.8-0.1,1.7,0.4,2.5l1,0.7l0.8,0.1l1.2-0.3C274.5,508.1,274.7,508,274.8,507.9L274.8,507.9
			z M323,536.9c0.2-0.6,0.3-1.2,0.2-1.8c0.6,0.1,1.3,0,1.9-0.4l0.7-1.3c0.7-0.9,0.8-2.2,0.3-3.2l-0.5-0.6l-0.4-0.3l-0.7-0.2
			c-0.9,0-1.8,0.3-2.5,1c-0.1,0.1-0.3,0.3-0.4,0.4l-0.5,1l-0.1,0.8l0.2,1l-0.8,0.1c-0.6,0.1-1.2,0.3-1.7,0.8
			c-0.2,0.2-0.4,0.5-0.6,0.8l-0.1,0.3l-0.2,0.1c-0.3,0.2-0.7,0.4-0.9,0.7c-0.5,0.6-0.8,1.3-0.8,2.1c0,0.2,0.1,0.3,0.1,0.5l8.2,0.7
			c0-0.7-0.3-1.4-0.8-2L323,536.9z M373,528.1c-0.7-1-2-1.3-3-0.6c0,0-0.1,0.1-0.1,0.1l-0.7,1.1l-0.1,0.1l-0.3,1l0.3,1.7l0.5,0.6
			l0.7,0.5l0.6,0.2l0.9-0.1c0.3-0.1,0.6-0.3,0.8-0.6C373.6,531,373.8,529.4,373,528.1z M310.6,529.7l-0.1-1.6l-0.4-0.6
			c-0.1-1.1-0.8-2.1-1.8-2.5c-0.2-0.1-0.5-0.1-0.7-0.2l-0.4,0l-0.3,0.1l-0.4,0.1c-0.6,0.3-1.1,0.7-1.4,1.2l-0.6-0.5l-0.8-0.2l-0.4,0
			c-0.4,0-0.8,0.1-1.2,0.3l-0.8,1.1l-0.2,0.9l0,0.4c0,0.5,0.1,0.9,0.3,1.3l1,0.8l0.8,0.2l0.4,0c0.3,0,0.6-0.1,0.8-0.2
			c0,0.1,0.5,0.7,0.5,0.7c0.4,0.4,0.9,0.6,1.4,0.8c1.8,0.6,3.7-0.3,4.3-2.1C310.5,529.8,310.6,529.7,310.6,529.7L310.6,529.7z
			 M362.1,529.1l0.1,1.1l0.3,0.7l0.8,0.8l0.2,0.1c1.1,0.4,2.4,0,3.2-0.9l0.5-1.5l-0.1-1l-0.9-1.4c-0.1-0.1-0.3-0.1-0.4-0.2
			c-0.8-0.3-1.6-0.3-2.3,0.2C362.7,527.5,362.2,528.2,362.1,529.1L362.1,529.1z M316,529.5l0.1-0.3L316,528l-0.3-0.7l-0.7-0.8
			c-0.7-0.4-1.6-0.4-2.3,0c-0.7,0.4-1.3,1.1-1.5,1.9l0,0.2l0.1,1.2l0.3,0.7l0.7,0.8c0.7,0.4,1.6,0.4,2.3,0
			C315.2,530.9,315.7,530.3,316,529.5L316,529.5z M334.4,524.7l-0.6,1.5c0,0.1-0.1,0.3-0.1,0.4l0,1l0.6,1.3l0.1,0.1
			c0.4,0.4,0.8,0.8,1.3,1c1.2,0.4,2.6-0.2,3-1.4l-0.1-1.8l-0.4-0.6c-0.1-0.9-0.7-1.7-1.5-2C335.9,523.9,335,524.1,334.4,524.7
			L334.4,524.7z"/>
	</g>
</g>
</svg>
