<?xml version="1.0" encoding="utf-8"?>
<!-- Generator: Adobe Illustrator 24.3.0, SVG Export Plug-In . SVG Version: 6.00 Build 0)  -->
<svg version="1.1" xmlns="http://www.w3.org/2000/svg" xmlns:xlink="http://www.w3.org/1999/xlink" x="0px" y="0px"
	 viewBox="0 0 653 647" style="enable-background:new 0 0 653 647;" xml:space="preserve">
<style type="text/css">
	.st0{fill:#FF9557;}
	.st1{fill:#FFFFFF;}
</style>
<g id="Layer_1">
</g>
<g id="Group_11934">
	<g>
		<g id="Group_11924_1_" transform="translate(0 9.359)">
			<g id="Group_11823_1_" transform="translate(0 0)">
				<ellipse id="Ellipse_85_1_" class="st0" cx="324.3" cy="230.5" rx="67.9" ry="67.9"/>
				<path id="Path_2437_1_" class="st0" d="M464,172.6c-7.9-19.5-26-33-46.9-35c-3.2-31.4-31.3-54.2-62.6-51
					c-11.1,1.1-21.6,5.5-30.2,12.5c-24.5-19.9-60.4-16.2-80.3,8.2c-7,8.6-11.4,19.1-12.5,30.2c-31.4,3.2-54.2,31.3-51,62.6
					c1.1,11.1,5.5,21.6,12.5,30.2c-19.9,24.5-16.2,60.4,8.3,80.3c8.6,7,19.1,11.4,30.2,12.5c3.2,31.4,31.3,54.2,62.7,50.9
					c11-1.1,21.5-5.5,30.1-12.5c24.5,19.9,60.4,16.2,80.3-8.3c7-8.6,11.4-19.1,12.5-30.2c31.4-3.2,54.2-31.3,51-62.7
					c-1.1-11.1-5.5-21.5-12.5-30.2C469,214.3,472.2,192,464,172.6z M324.3,315.4c-46.9,0-84.8-38-84.8-84.8s38-84.8,84.8-84.8
					s84.8,38,84.8,84.8c0,0,0,0,0,0C409.1,277.4,371.1,315.4,324.3,315.4C324.3,315.4,324.3,315.4,324.3,315.4L324.3,315.4z"/>
				<path id="Path_2438_1_" class="st0" d="M307.3,389.3v88.2c10.7-5.3,23.2-5.3,33.9,0v-88.2c-5.9-1.6-11.6-3.9-17-6.9
					C318.9,385.4,313.2,387.7,307.3,389.3L307.3,389.3z"/>
				<path id="Path_2439_1_" class="st0" d="M247.9,379.6v113.9c0,4.7,3.8,8.5,8.5,8.5c1.3,0,2.6-0.3,3.8-0.9l30.1-15.1v-94.4
					C275.3,392,260.5,387.8,247.9,379.6z"/>
				<path id="Path_2440_1_" class="st0" d="M358.2,391.6V486l30.1,15.1c4.2,2.1,9.3,0.4,11.4-3.8c0.6-1.2,0.9-2.5,0.9-3.8V379.6
					C388,387.8,373.2,392,358.2,391.6z"/>
			</g>
		</g>
		<path id="Path_2745_1_" class="st1" d="M217.5,204.1l0.8,0.1h0.5l0.8-0.2c0.8-0.4,1.4-1.1,1.6-2c0.3-1,0-2.1-0.7-2.8
			c-0.7-0.8-1.8-1.1-2.8-1l-1,0.4l-0.6,0.5l-0.5,0.9C215.1,201.7,215.9,203.4,217.5,204.1z M213.7,217.5c0.9-0.1,1.8-0.6,2.4-1.3
			l0.4-1l0-0.8l-0.5-1c-1.3-1.1-3.2-1.2-4.5-0.1l-0.1,0.1l-0.8,1.2v0.9l0.6,1.2C211.9,217.3,212.8,217.6,213.7,217.5L213.7,217.5z
			 M221.2,226.4l-0.3-0.8c-0.1-0.2-0.3-0.4-0.5-0.5c-0.7-0.6-1.6-0.8-2.4-0.6c-0.1-0.1-0.3-0.3-0.4-0.4c-1.2-1.1-3-1.1-4.2,0.1
			c-0.5,0.5-0.8,1.2-0.8,1.9v0.6l0.1,0.4l0.3,0.6c0.2,0.2,0.4,0.5,0.7,0.7c2.5-0.9,5.1-1.4,7.7-1.5
			C221.3,226.7,221.2,226.6,221.2,226.4L221.2,226.4z M206.3,222.9l-0.4-0.3l-0.7-0.3l-0.5-0.1l-0.8,0c-0.9,0.1-1.8,0.6-2.2,1.4
			c-0.4,0.8-0.3,1.8,0.3,2.5l1.2,0.7l1,0.1h0.5c0.8-0.1,1.5-0.5,1.9-1.2l0.2-1l-0.1-0.7L206.3,222.9z M208.8,215.3
			c0,0-0.1-0.1-0.1-0.1c-0.3-0.4-0.8-0.5-1.2-0.2c-0.1,0.1-0.2,0.2-0.3,0.4l0.3,0.8c-0.1,0-0.1-0.1-0.1-0.2l0.4,0.8
			c0.6,0.2,1.2,0,1.6-0.5l-0.7-0.9C208.7,215.3,208.8,215.3,208.8,215.3L208.8,215.3z M225,198.5l0.7,0.2c1.2,0.1,2.3-0.5,2.9-1.5
			c0.1-0.2,0.2-0.4,0.2-0.6c0.1,0,0.3,0,0.4,0.1l0.6-0.1l0.4-0.2l0.5-0.3c1.2-0.9,1.3-2.6,0.4-3.8c-0.1-0.1-0.2-0.2-0.3-0.3
			l-0.1-0.1l-1.4-0.7h-1l-1.4,0.6c-0.4,0.5-0.7,1.2-0.7,1.9h-0.5l-1,0.3c-1.3,0.6-1.8,2.2-1.2,3.5c0.1,0.2,0.2,0.3,0.3,0.5l0.6,0.4
			L225,198.5z M213.7,185.2l0.1,0.6l0.2,0.6l0.4,0.6c1,0.9,2.5,0.9,3.6,0.1c1-0.7,1.3-2.1,0.6-3.2c-0.1-0.1-0.1-0.2-0.2-0.3l-1-0.6
			l0.4-0.2l0.4-0.4l0.4-1v-0.8v-0.2c0-0.4-0.2-0.8-0.5-1.2l-1.5-0.7l-1.1,0.1l-1.2,0.5c-1,0.8-1.1,2.2-0.4,3.2
			c0.1,0.1,0.2,0.2,0.4,0.4c0.2,0.1,0.3,0.3,0.5,0.4C214.2,183.7,213.8,184.4,213.7,185.2L213.7,185.2z M231.9,200.2l-0.4-0.3
			l-0.7-0.3l-0.5-0.1l-0.8,0c-0.9,0.1-1.8,0.6-2.2,1.4c-0.4,0.8-0.3,1.8,0.3,2.4l1.2,0.7l1,0.1h0.5c0.8-0.1,1.5-0.5,1.9-1.2l0.2-1
			l-0.1-0.7L231.9,200.2z M241.3,178.4c0-0.8-0.4-1.5-1-2c-0.1-0.1-0.2-0.2-0.3-0.2l-1.1-0.3h-0.8l-1,0.4c-0.6,0.4-1,1-1.2,1.6
			l-0.9-0.5l-0.9-0.1h-0.5c-0.5,0-0.9,0.2-1.3,0.4l-0.7,1l-0.1,0.8v0.4c0,0.4,0.2,0.8,0.5,1.2l1.2,0.7l0.9,0.1h0.4
			c0.4,0,0.9-0.2,1.3-0.4l0.8-1.1v-0.2c0.1,0.1,0.2,0.2,0.3,0.3c0.1,0.1,0.2,0.2,0.4,0.3l1,0.3h0.8l1-0.4
			C240.8,180.1,241.3,179.3,241.3,178.4L241.3,178.4z M241.5,158.6l0.8,0.7l1.2,0.4h0.9l1.2-0.4c1.1-0.9,1.3-2.5,0.4-3.5
			c-0.1-0.1-0.2-0.3-0.4-0.4c-0.6-0.5-1.5-0.7-2.3-0.6c-0.9,0.1-1.6,0.6-2.1,1.3l-0.2,1l0.1,0.7L241.5,158.6z M240.8,166l0.6-0.1
			l0.4-0.1l0.5-0.2c0.9-0.6,1.4-1.6,1.2-2.7l0.1-0.7l-0.3-1c-0.7-1-1.9-1.4-3.1-1.1h-0.5l-1.2,0.4c-1.3,1.1-1.4,3-0.4,4.3
			c0.1,0.1,0.3,0.3,0.4,0.4C239.3,165.7,240,166,240.8,166L240.8,166z M246.7,191.7c0.1,0.1,0.2,0.2,0.3,0.3c-0.6-1-1.7-1.5-2.9-1.5
			l-0.7,0.1l-0.5,0.2l-0.6,0.4c-0.3,0.3-0.6,0.7-0.7,1.2c-0.3,1.4,0.6,2.7,1.9,3c1.4,0.6,3,0.1,3.8-1.1l0.1-1.2l-0.3-0.8
			L246.7,191.7z M242.9,188.4l0.6,0l0.8-0.1l0.2-0.1c1.9-0.6,2.8-1.6,2.7-3.1l-0.1-0.4l-0.1-0.3l-0.2-0.3c-0.2-0.3-0.4-0.5-0.6-0.7
			c-0.5-0.4-1.1-0.6-1.8-0.7l-1.1-0.1l-1.4,0.5c-0.8,0.6-1.3,1.6-1.4,2.7c0.1,0.8,0.4,1.5,1,1.9c0.1,0.1,0.3,0.2,0.5,0.3
			L242.9,188.4z M268.8,222.4c-0.9-0.8-2-1.2-3.2-1c-0.2,0-0.4,0.1-0.6,0.2c-0.1-0.4-0.4-0.8-0.8-1.1l-0.1-0.1l-0.2-0.1l-1.2-0.3
			l-0.8,0.1l-1,0.5c-1,0.8-1.2,2.2-0.5,3.3l1.2,0.8l1,0.2h0.5l0.3-0.1l0.3,0.6c0.1,0.1,0.3,0.2,0.4,0.4c0.7,0.6,1.6,0.9,2.5,0.8
			c0.8,0.4,1.8,0.3,2.6-0.2l0.7-0.8l0.2-0.7l-0.1-1C269.6,223.2,269.2,222.8,268.8,222.4L268.8,222.4z M207.2,203.9
			c0.1,0,0.2-0.1,0.3-0.1C207.5,203.8,207.3,203.8,207.2,203.9L207.2,203.9z M257.6,190.2l-1-0.2l-1.5,0.3c-1.2,0.7-1.7,2.3-1,3.5
			c0.1,0.2,0.2,0.3,0.4,0.5l1.3,0.6h1l1.3-0.6c0.8-0.8,1.1-2,0.7-3.1L257.6,190.2z M192.3,141.9c0.4-0.3,0.6-0.8,0.5-1.3
			c0-0.5-0.3-1-0.8-1.4l-0.6,0.6c0.1,0.1-0.5,0.6-0.5,0.6c-0.1-0.1-0.2-0.1-0.3-0.2l-0.4,0.4c-0.1,0.1,0,0.3,0.1,0.4l-1.1,1.1
			C190.2,142.7,191.4,142.7,192.3,141.9L192.3,141.9z M270.7,144.1c-0.1-0.1-0.3-0.2-0.4-0.3l-1.1-0.3h-0.8l-1,0.4
			c-0.8,0.5-1.2,1.4-1.3,2.3c0,0.8,0.4,1.5,1,2c0.1,0.1,0.2,0.2,0.4,0.3l1.1,0.3h0.4c0-0.1,0.4,0,0.4,0l1.3-0.4
			c0.7-0.5,1.1-1.2,1.1-2C271.8,145.4,271.4,144.6,270.7,144.1L270.7,144.1z M248.1,105.2l-0.4-0.2c-1.3-0.8-3-1-4.5-0.4l-0.4,0.3
			l-0.3,0.2l-0.3,0.4c-0.3,0.4-0.4,1-0.3,1.5l-0.1,0.8l0.5,1.3l1.2,1l1.4,0.4l0.9-0.1l1.2-0.7c0.1-0.1,0.1-0.1,0.4-0.3
			c0.4-0.2,0.8-0.5,1.2-0.9l0.4-1.3l-0.2-0.9L248.1,105.2z M185.1,140.4l0.6-0.6c1.2,1.2,3,1.2,4.3,0.2l0.4-0.5l0.2-0.4l0.1-0.6
			c0-0.8-0.4-1.5-1-2c-0.1-0.1-0.1-0.1-0.2-0.1c0.4,0,0.9,0,1.3-0.1c0.1,0.5,0.3,0.9,0.6,1.3c0.6,0.7,1.5,1.1,2.5,1.1l0.9-0.2
			l0.6-0.3l0.6-0.6c0.1-0.1,0.1-0.2,0.2-0.4c1-0.9,1.1-2.4,0.3-3.4c-0.1-0.1-0.1-0.2-0.2-0.2l-1-0.5h-0.2c0-0.1,0-0.8,0-0.8l-0.4-1
			c-0.1-0.1-0.3-0.3-0.4-0.4c-0.1-0.1-0.3-0.2-0.4-0.3c0.2-0.1,0.3-0.2,0.4-0.3l0.9,0.4h1l0.9-0.3c-0.1,0.1-0.2,0.1-0.3,0.1
			c0.9-0.2,1.6-0.8,1.9-1.6c0.3-0.7,0.2-1.5-0.3-2.1l-1-0.7l-0.6-0.1c-0.3-0.2-0.6-0.4-0.9-0.6l-0.9-0.1l-0.1-0.7l-0.5-0.9
			c-0.5-0.4-1.1-0.7-1.7-0.8c0-0.3,0-0.6,0-0.8c-0.2-1-0.9-1.8-1.8-2c0-0.2,0-0.4,0-0.6l-0.1-0.2c0.3,0,0.5,0,0.8,0
			c1-0.2,1.9-0.9,2.2-1.9c0.3-1.1-0.2-2.2-1.2-2.7c-0.4-0.2-0.9-0.3-1.4-0.3c0.1-0.1,0.2-0.2,0.3-0.3c-1,0.6-1.9,1.2-2.7,2
			c0,0.1-0.1,0.1-0.1,0.2c-1.6,1.3-2.8,3-3.7,4.8l0.6,0.5c-0.1,0-0.2-0.1-0.3-0.2c0.4,0.4,0.9,0.8,1.4,1l0.6,0c0,0.2,0,0.4,0.1,0.7
			c-0.3,0.1-0.6,0.2-0.8,0.4l-0.6,1l-0.1,0.8l0.3,0.9l-0.2-0.2c0-0.1-0.1-0.2-0.1-0.3c0,0.1,0,0.2,0.1,0.3l-0.6-0.6
			c-0.6-0.2-1.1-0.2-1.7-0.1c-0.2,0.9-0.2,1.8-0.2,2.7v2.9l0.2-0.6c1.3,0.1,2.4-0.7,2.9-1.8l0.1-0.2v-0.7l0.6,1.4
			c1,1,2.5,1.2,3.7,0.5l0.2-0.3l0.4,0.3l0.5,0.2c0.1,0-0.4,0.5-0.4,0.5c-0.6,0.1-1.1,0.3-1.6,0.7l-0.4,0.8c-0.1,0-0.2,0-0.3,0
			c-1,0.1-1.9,0.9-2.2,1.9c-0.1,0.3-0.1,0.6-0.1,0.8l0.3,0.8l-0.3-0.2l-0.4-0.3v-0.2l-0.4-0.3l-2.1-0.1l-0.2,0.2l-0.6,0.1v6.2
			c0.5,0,1,0,1.5-0.1L185.1,140.4z M230,162.7c-1.2,0.8-1.5,2.5-0.7,3.7c0.1,0.1,0.1,0.2,0.2,0.3l0.7,0.4l0.6,0.2l0.8,0.1
			c1.1-0.1,2-0.7,2.5-1.6c-0.2,0.2-0.4,0.3-0.6,0.3l1.2-1l0.3-0.9l-0.4-1.5l-0.1-0.1C233.2,161.4,231.2,161.5,230,162.7L230,162.7z
			 M201.1,149.4l0.3,0.1c1.4,0.7,3,0.2,3.8-1.2l0.2-0.8l-0.1-0.6l-0.3-0.8c-0.1-0.2-0.3-0.3-0.5-0.5c-1.2-1-3-1.1-4.3-0.2
			c-1,0.8-1.2,2.2-0.4,3.2c0,0.1,0.1,0.1,0.1,0.2L201.1,149.4z M203,177.8l1.1-0.5l0.8-0.8l0.4-1.1v-0.8l-0.5-1.1l-0.2-0.1
			c-0.7-0.6-1.5-0.9-2.4-0.9l-0.6,0.1l-0.4,0.1l-0.5,0.3c-0.7,0.5-1.1,1.2-1.1,2c0,0.8,0.4,1.6,1.1,2.1c0.1,0.1,0.2,0.2,0.4,0.3
			l1.2,0.3L203,177.8z M212.5,211l0.3-0.1c-0.1,0.1-0.2,0.1-0.3,0.2c0.8-0.2,1.4-0.9,1.4-1.8l-0.2-0.6l-0.1-1.1
			c-1-0.8-2.4-0.9-3.5-0.3c0.5-0.9,0.4-2.1-0.4-2.9l-1.1-0.5l-0.8-0.1l-1.1,0.2c0.1-0.1,0.2-0.1,0.4-0.1c-1,0.1-2,0.6-2.5,1.5
			l-0.2,0.9l0.1,0.7l0.5,0.9l0.1,0.1c0.7,0.6,1.5,0.9,2.4,0.9l0.6-0.1l0.4-0.1l0.4-0.2c-0.5,1-0.2,2.3,0.7,3l2.4-0.1L212.5,211z
			 M227,129.5l1.2,0.3l0.8-0.1l1.1-0.5c0.5-0.6,1-1.2,1.3-1.9c0.2-0.4,0.4-0.7,0.7-1c0,0-0.1,0.1-0.2,0.1l1.2-1.4l0-1.1l-1.1-1.5
			c-0.7-0.2-1.4-0.2-2.1-0.1c0.3-0.1,0.6,0,0.9,0h-1.1l-0.7,0.2l-0.8,0.5c-0.1,0.1,0,0,0.2-0.1l-0.8,0.6l-0.4,0.5l-0.3,0.9
			c0-0.1,0-0.1,0-0.2c0,0.1-0.3,0.3-0.3,0.4c-0.4,0.4-0.7,0.9-0.9,1.5C225.6,127.8,226,129,227,129.5L227,129.5z M187.1,144.7
			c-1,0.8-1.2,2.2-0.4,3.2c0.1,0.2,0.2,0.3,0.4,0.4c0.2,0.1,0.4,0.3,0.6,0.4l1.1,0.2l0.8-0.1l1-0.5l0.2-0.2c0,0.1-0.1,0.1-0.1,0.2
			v1.1l0.3,0.8l0.8,0.8c-0.1,0-0.2-0.1-0.2-0.1c0.6,0.5,1.4,0.8,2.1,0.8l1.1-0.3l0.6-0.4l0.6-0.9l0.1-0.5c0.2-0.7,0-1.5-0.5-2
			c-0.5-0.5-1.2-0.8-1.9-0.8l-0.6,0.2c-0.8-0.1-1.6,0.3-2.2,0.9l0.4-0.9v-0.8V146c0-0.4-0.2-0.8-0.4-1.1l-1.5-0.7l-1.1,0
			L187.1,144.7z M229.5,226.7l-0.4,0.2C229.2,226.8,229.5,226.6,229.5,226.7l-0.3-0.3c0-0.1,0-0.1,0-0.2c-0.1-0.7-0.4-1.3-0.9-1.7
			l-2.4,0.1l-0.2,0.2l-0.4,0.1l-0.4,0.4l-0.4,0.7c-0.1,0.3-0.1,0.6,0,0.9h0.7c1.5,0,3.1,0.2,4.6,0.5
			C229.8,227.1,229.7,226.9,229.5,226.7L229.5,226.7z M230.9,140l0-0.8l-0.5-1c-0.1-0.1-0.3-0.3-0.4-0.4c-0.8-0.8-2-1.2-3.1-1.1
			c-0.6,0.1-1.1,0.3-1.5,0.7l-0.2-0.1l-1.1,0.2l-1.2,1.1l-0.2,0.7l0.2,1.1l0.4,0.7l1,0.7c2.1-0.1,4.3-0.4,6.3-1L230.9,140z
			 M185.3,206c0.3-0.9,0-1.9-0.8-2.5c-0.4-0.3-0.8-0.5-1.2-0.7v4.8C184.2,207.5,185,206.9,185.3,206L185.3,206z M183.3,148v3.6
			c0.5-0.4,0.8-1.1,0.8-1.7C184.1,149.2,183.8,148.5,183.3,148L183.3,148z M184.6,213.4c0.2-0.1,0.3-0.2,0.5-0.3l0.4-1.5l-0.2-0.7
			l-0.1-0.2l-0.3-0.5l-1.1-0.8l-0.4-0.1v4.9c0.4-0.1,0.8-0.3,1.1-0.5L184.6,213.4z M185.8,194.5l0.3-1l-0.1-0.7l-0.5-0.9l-0.4-0.3
			l-0.7-0.3l-0.5-0.1h-0.4v4.7h0.5C184.6,195.6,185.3,195.2,185.8,194.5L185.8,194.5z M188.8,200l1,0.4h0.8l1.1-0.3
			c1.2-0.7,1.6-2.2,0.9-3.4c-0.1-0.2-0.2-0.3-0.3-0.4l-0.1-0.2l-1-0.6l-0.8-0.2l-1.2,0.1c-0.8,0.3-1.5,1-1.7,1.9
			c-0.1,0.9,0.2,1.7,0.9,2.3C188.5,199.7,188.7,199.9,188.8,200L188.8,200z M184.8,154.3c0.1-0.8-0.3-1.6-0.9-2.1
			c-0.2-0.1-0.3-0.2-0.5-0.3v4.2c0,0,0.1,0,0.2-0.1C184.2,155.7,184.7,155.1,184.8,154.3L184.8,154.3z M200.3,237.3l-0.1-0.1
			l-1.1-0.4h-0.8l-1.1,0.3c-0.7,0.4-1.1,1.2-1.2,2c0,0.8,0.3,1.5,0.9,2l0.2,0.2l0.2,0.1c1-1.4,2.1-2.7,3.2-4L200.3,237.3z
			 M221.9,97.9c-0.2-0.1-0.4-0.3-0.6-0.3c0.4,0.4,0.9,0.8,1.3,1.2C222.4,98.5,222.2,98.2,221.9,97.9L221.9,97.9z M220.5,116l1.2-0.2
			l0.8-0.4l0.2-0.3c0.5,0.2,1.1,0.2,1.6,0c0.7-0.2,1.3-0.8,1.6-1.5v-1l-0.1-0.3h-7.6c-0.3,0.9-0.1,1.8,0.4,2.6
			C219,115.5,219.7,115.9,220.5,116L220.5,116z M185.7,240.1l-1.2-0.6l-0.9-0.1h-0.3v4.5h0.3h0.4c0.5,0,0.9-0.2,1.3-0.4l0.7-1
			l0.1-0.8v-0.4C186.1,240.8,186,240.4,185.7,240.1L185.7,240.1z M185.8,189.1c0.6,0.5,1.3,0.7,2.1,0.6h0.2h0.2l0.2-0.1
			c0.9-0.2,1.6-0.9,1.8-1.8c0.2-0.9-0.2-1.9-1-2.5c-0.7-0.6-1.5-0.8-2.4-0.8c-0.7,0.1-1.4,0.5-1.8,1.1l-0.2,0.8v0.6l0.3,0.8
			c-0.1-0.2-0.2-0.4-0.2-0.6C185,188.1,185.3,188.7,185.8,189.1L185.8,189.1z M193.8,207.1l-0.5-1.1l-0.6-0.5l-1.3-0.4H191
			c0,0,0.1-0.5,0.1-0.5V204c-0.1-0.6-0.4-1.1-0.8-1.5l-0.9-0.4l-0.8-0.2l-1.1,0.1c-0.2,0.1-0.3,0.2-0.5,0.3
			c-0.2,0.1-0.5,0.3-0.7,0.4c-0.8,0.8-0.9,2.1-0.1,2.9c0.1,0.1,0.1,0.1,0.2,0.2c0.6,0.5,1.3,0.8,2.1,0.8c-0.4,0.8-0.3,1.8,0.4,2.4
			l0.2,0.1c0.1,0.1,0.2,0.3,0.4,0.4l1.2,0.4h0.9l1.2-0.5l0.6-0.5l0.4-1.1L193.8,207.1z M191.8,233.2l-1.3,0.4l0.7-0.9l-1-0.6
			l-0.7-0.2c-1.2-0.2-2.4,0.3-3,1.4l-0.1,0.3l-0.1,0.3l0,0.4c0,0.8,0.4,1.6,1.1,2.1c0.4,0.3,0.8,0.6,1.2,0.8l0.2,0.1l1.1,0.2
			l0.8-0.1l1-0.4c1-0.9,1.2-2.4,0.3-3.4C191.9,233.3,191.9,233.3,191.8,233.2L191.8,233.2z M200.8,140.4l0.6-0.5l0.3-0.8
			c0.1,0.3,0.2,0.7,0.5,0.9l1.2,0.6h0.4c0.3,0,0.6,0,0.9,0l1.4-0.5c1-0.8,1.1-2.1,0.4-3.1c-0.1-0.1-0.2-0.2-0.2-0.3
			c-0.2-0.2-0.4-0.3-0.6-0.4l-1.2-0.2l-0.8,0.1l-1.1,0.5c-0.3,0.3-0.6,0.7-0.8,1.1l-0.5-1c-1-0.9-2.3-1.1-3.5-0.8l-0.9,0.6l-0.5,0.6
			l-0.3,1c0,0.6,0.3,1.2,0.8,1.7c0.3,0.3,0.8,0.5,1.2,0.6c-0.2-0.1-0.4-0.2-0.6-0.3l1.2,0.5h0.9L200.8,140.4z M223.7,157l0.3,0.8
			l0.2,0.3c0.3,0.4,0.6,0.6,1,0.8l1.4,0.1l0.9-0.3l0.4-0.2c0.4-0.2,0.6-0.5,0.9-0.9l0.1-1.2l-0.3-0.8l-0.2-0.4
			c-0.2-0.3-0.6-0.6-0.9-0.8l-1.4-0.1l-0.9,0.3l-0.4,0.2l-0.2,0.1l-0.1-1l-0.6-1.1c-0.7-0.6-1.6-0.9-2.5-0.8
			c-0.8,0.1-1.5,0.6-1.9,1.2l-0.2,1l0.1,0.7l0.5,0.9l0.4,0.3l1.1,0.4h0.8h0.2c0.4,0,0.9-0.2,1.3-0.4L223.7,157z M206.6,159.6
			l-0.9-0.1h-0.4c-0.5,0-0.9,0.2-1.3,0.4l-0.7,1l-0.1,0.8v0.4c0,0.4,0.2,0.8,0.4,1.1l1.2,0.7l0.9,0.1h0.4c0.4,0,0.9-0.2,1.3-0.4
			l0.5-0.8l0.8,0.6c-0.1,0-0.2-0.1-0.3-0.2l0.1,0.1c0.4,0.5,0.9,0.8,1.4,1.1h1.5l0.9-0.4l0.9-1c-0.1,0.2-0.2,0.4-0.4,0.6
			c1.2-0.6,1.9-1.7,1.9-3l-0.2-0.7l-0.2-0.4l-0.5-0.5c-0.6-0.4-1.3-0.7-2.1-0.8c0.3,0.1,0.5,0.3,0.7,0.5l-1.4-0.9l-1.1-0.1l-1.5,0.7
			c-0.1,0.1-0.2,0.2-0.3,0.3c-0.3,0.4-0.6,0.8-0.8,1.2L206.6,159.6z M198.6,135.5l1.3,0.5h0.9l1.3-0.6c0.7-0.3,1.3-1,1.4-1.8
			c0-0.9-0.3-1.7-1-2.2l-1.2-0.4h-0.9l-1.2,0.4C196.8,133.4,198.2,135.1,198.6,135.5L198.6,135.5z M206,124.2
			c0.8-0.1,1.5-0.6,1.9-1.2l0.2-1l-0.1-0.7l-0.5-0.9c-1-0.9-2.4-1-3.6-0.5l-0.9,1.3v1l0.6,1.2C204.2,124.1,205.1,124.3,206,124.2
			L206,124.2z M214.2,172.3c-0.2,1,0.1,1.9,0.8,2.7l1,0.7l0.8,0.2l1.3-0.2c0.7-0.3,1.1-0.9,1.3-1.7c0.1-0.4,0.1-0.7,0.1-1.1
			c0,0.1,0,0.2,0,0.2l-0.2-1.1l-0.5-0.7l-1-0.7C216.4,170.1,214.8,170.8,214.2,172.3C214.2,172.3,214.2,172.3,214.2,172.3
			L214.2,172.3z M210.2,132c1.1,1,2.8,1.1,4,0.2l0.6-1c0.1,0,0.6,0,0.6,0c0.5,0,0.9-0.2,1.3-0.4l0.7-1.1l0.1-0.9v-0.5
			c-0.1-0.6-0.4-1.1-0.9-1.4l-0.1-0.1l-0.2-0.1l-1.2-0.3l-0.8,0.1l-1,0.4c-0.3,0.3-0.6,0.7-0.8,1.2c-0.9-0.2-1.7,0-2.4,0.6l-0.6,1
			l-0.1,0.8l0.4,1.1C210,131.7,210.1,131.9,210.2,132L210.2,132z M185.5,182.6c0.6,0.2,1.2,0.2,1.8,0c-0.1,0.7,0.1,1.3,0.5,1.8
			l1.4,0.6c1,0.6,2.3,0.6,3.2,0l0.5-0.5l0.2-0.4l0.2-0.7c0-0.9-0.5-1.8-1.2-2.4c-0.1-0.1-0.3-0.3-0.5-0.4l-1.1-0.4l-0.8,0l-0.9,0.3
			l-0.1-0.8c-0.1-0.6-0.5-1.2-0.9-1.6c-0.2-0.2-0.5-0.4-0.8-0.5l-0.3,0l-0.1-0.2c-0.2-0.3-0.5-0.6-0.8-0.9c-0.6-0.5-1.4-0.7-2.2-0.6
			c-0.2,0-0.3,0.1-0.5,0.2v8.2c0.7-0.1,1.4-0.4,1.9-1L185.5,182.6z M198.6,231.6c0.9-0.8,1.1-2.1,0.3-3.1c0,0-0.1-0.1-0.1-0.1
			l-1.1-0.6l-0.1-0.1l-1.1-0.2l-1.7,0.4l-0.6,0.5l-0.4,0.8l-0.1,0.6l0.1,0.9c0.2,0.3,0.4,0.6,0.6,0.8
			C195.7,232.5,197.4,232.6,198.6,231.6L198.6,231.6z M191.6,169.6l1.6-0.2l0.6-0.4c1.1-0.2,2-1,2.3-2c0.1-0.2,0.1-0.5,0.1-0.8
			l-0.1-0.4l-0.1-0.3l-0.2-0.4c-0.3-0.5-0.8-1-1.3-1.3l0.4-0.6l0.1-0.8v-0.3c0-0.4-0.2-0.8-0.5-1.2l-1.2-0.7l-0.9-0.1h-0.4
			c-0.5,0-0.9,0.2-1.3,0.4l-0.7,1l-0.1,0.8v0.4c0.1,0.3,0.2,0.6,0.3,0.8c-0.1,0-0.6,0.5-0.6,0.5c-0.3,0.4-0.6,0.9-0.7,1.4
			c-0.5,1.8,0.6,3.7,2.5,4.1C191.5,169.6,191.5,169.6,191.6,169.6L191.6,169.6z M196.7,220.9l-1.1,0.2l-0.7,0.4l-0.8,0.9l-0.1,0.2
			c-0.3,1.2,0.2,2.4,1.2,3.1l1.5,0.4l1-0.2l1.2-1c0.1-0.1,0.1-0.3,0.1-0.4c0.3-0.8,0.1-1.7-0.4-2.3
			C198.3,221.4,197.5,220.9,196.7,220.9L196.7,220.9z M192.2,174.9l0.3,0.1l1.2-0.2l0.7-0.4l0.8-0.8c0.3-0.7,0.3-1.6-0.2-2.3
			c-0.5-0.7-1.2-1.2-2-1.3h-0.2l-1.2,0.2l-0.7,0.4l-0.8,0.8c-0.3,0.7-0.2,1.6,0.2,2.3C190.7,174.3,191.5,174.8,192.2,174.9
			L192.2,174.9z M198.6,192.9l-1.5-0.5c-0.1,0-0.3-0.1-0.4-0.1l-1,0.1l-1.3,0.7l-0.1,0.1c-0.4,0.4-0.7,0.9-0.9,1.4
			c-0.3,1.3,0.4,2.5,1.7,2.9l1.8-0.3l0.6-0.5c0.9-0.2,1.6-0.8,1.9-1.7C199.5,194.3,199.2,193.4,198.6,192.9L198.6,192.9z"/>
		<path id="Path_2747_1_" class="st1" d="M268.4,131.4l0.8,0.1h0.5l0.8-0.2c0.8-0.4,1.4-1.1,1.6-2c0.3-1,0-2.1-0.7-2.8
			c-0.7-0.8-1.8-1.1-2.8-1l-1,0.4l-0.6,0.5l-0.5,0.9C266,129,266.8,130.7,268.4,131.4z M264.6,144.9c0.9-0.1,1.8-0.6,2.4-1.3l0.4-1
			l0-0.8l-0.5-1c-1.3-1.1-3.2-1.2-4.5-0.1l-0.1,0.1l-0.8,1.2v0.9l0.6,1.2C262.7,144.7,263.7,144.9,264.6,144.9L264.6,144.9z
			 M272.1,153.8l-0.3-0.8c-0.1-0.2-0.3-0.4-0.5-0.5c-0.7-0.6-1.6-0.8-2.4-0.6c-0.1-0.1-0.3-0.3-0.4-0.4c-1.2-1.1-3-1.1-4.2,0.1
			c-0.5,0.5-0.8,1.2-0.8,1.9v0.6l0.1,0.4l0.3,0.6c0.2,0.2,0.4,0.5,0.7,0.7c2.5-0.9,5.1-1.4,7.7-1.5
			C272.2,154.1,272.1,153.9,272.1,153.8L272.1,153.8z M257.2,150.2l-0.4-0.3l-0.7-0.3l-0.5-0.1l-0.8,0c-0.9,0.1-1.8,0.6-2.2,1.4
			c-0.4,0.8-0.3,1.8,0.3,2.5l1.2,0.7l1,0.1h0.5c0.8-0.1,1.5-0.5,1.9-1.2l0.2-1l-0.1-0.7L257.2,150.2z M259.7,142.6
			c0,0-0.1-0.1-0.1-0.1c-0.3-0.4-0.8-0.5-1.2-0.2c-0.1,0.1-0.2,0.2-0.3,0.4l0.3,0.8c-0.1,0-0.1-0.1-0.1-0.2l0.4,0.8
			c0.6,0.2,1.2,0,1.6-0.5l-0.7-0.9C259.6,142.6,259.6,142.6,259.7,142.6L259.7,142.6z M275.9,125.8l0.7,0.2c1.2,0.1,2.3-0.5,2.9-1.5
			c0.1-0.2,0.2-0.4,0.2-0.6c0.1,0,0.3,0,0.4,0.1l0.6-0.1l0.4-0.2l0.5-0.3c1.2-0.9,1.3-2.6,0.4-3.8c-0.1-0.1-0.2-0.2-0.3-0.3
			l-0.1-0.1l-1.4-0.7h-1l-1.4,0.6c-0.4,0.5-0.7,1.2-0.7,1.9h-0.5l-1,0.3c-1.3,0.6-1.8,2.2-1.2,3.5c0.1,0.2,0.2,0.3,0.3,0.5l0.6,0.4
			L275.9,125.8z M264.5,112.5l0.1,0.6l0.2,0.6l0.4,0.6c1,0.9,2.5,0.9,3.6,0.1c1-0.7,1.3-2.1,0.6-3.2c-0.1-0.1-0.1-0.2-0.2-0.3
			l-1-0.6l0.4-0.2l0.4-0.4l0.4-1v-0.8v-0.2c0-0.4-0.2-0.8-0.5-1.2l-1.5-0.7l-1.1,0.1l-1.2,0.5c-1,0.8-1.1,2.2-0.4,3.2
			c0.1,0.1,0.2,0.2,0.4,0.4c0.2,0.1,0.3,0.3,0.5,0.4C265.1,111.1,264.7,111.7,264.5,112.5L264.5,112.5z M282.8,127.5l-0.4-0.3
			l-0.7-0.3l-0.5-0.1l-0.8,0c-0.9,0.1-1.8,0.6-2.2,1.4c-0.4,0.8-0.3,1.8,0.3,2.4l1.2,0.7l1,0.1h0.5c0.8-0.1,1.5-0.5,1.9-1.2l0.2-1
			l-0.1-0.7L282.8,127.5z M292.2,105.7c0-0.8-0.4-1.5-1-2c-0.1-0.1-0.2-0.2-0.3-0.2l-1.1-0.3h-0.8l-1,0.4c-0.6,0.4-1,1-1.2,1.6
			l-0.9-0.5l-0.9-0.1h-0.5c-0.5,0-0.9,0.2-1.3,0.4l-0.7,1l-0.1,0.8v0.4c0,0.4,0.2,0.8,0.5,1.2l1.2,0.7l0.9,0.1h0.4
			c0.4,0,0.9-0.2,1.3-0.4l0.8-1.1v-0.2c0.1,0.1,0.2,0.2,0.3,0.3c0.1,0.1,0.2,0.2,0.4,0.3l1,0.3h0.8l1-0.4
			C291.7,107.4,292.2,106.6,292.2,105.7L292.2,105.7z M292.4,85.9l0.8,0.7l1.2,0.4h0.9l1.2-0.4c1.1-0.9,1.3-2.5,0.4-3.5
			c-0.1-0.1-0.2-0.3-0.4-0.4c-0.6-0.5-1.5-0.7-2.3-0.6c-0.9,0.1-1.6,0.6-2.1,1.3l-0.2,1l0.1,0.7L292.4,85.9z M291.6,93.3l0.6-0.1
			l0.4-0.1l0.5-0.2c0.9-0.6,1.4-1.6,1.2-2.7l0.1-0.7l-0.3-1c-0.7-1-1.9-1.4-3.1-1.1h-0.5l-1.2,0.4c-1.3,1.1-1.4,3-0.4,4.3
			c0.1,0.1,0.3,0.3,0.4,0.4C290.1,93,290.9,93.3,291.6,93.3L291.6,93.3z M297.5,119.1c0.1,0.1,0.2,0.2,0.3,0.3
			c-0.6-1-1.7-1.5-2.9-1.5l-0.7,0.1l-0.5,0.2l-0.6,0.4c-0.3,0.3-0.6,0.7-0.7,1.2c-0.3,1.4,0.6,2.7,1.9,3c1.4,0.6,3,0.1,3.8-1.1
			l0.1-1.2l-0.3-0.8L297.5,119.1z M293.7,115.7l0.6,0l0.8-0.1l0.2-0.1c1.9-0.6,2.8-1.6,2.7-3.1l-0.1-0.4l-0.1-0.3l-0.2-0.3
			c-0.2-0.3-0.4-0.5-0.6-0.7c-0.5-0.4-1.1-0.6-1.8-0.7l-1.1-0.1l-1.4,0.5c-0.8,0.6-1.3,1.6-1.4,2.7c0.1,0.8,0.4,1.5,1,1.9
			c0.1,0.1,0.3,0.2,0.5,0.3L293.7,115.7z M319.6,149.8c-0.9-0.8-2-1.2-3.2-1c-0.2,0-0.4,0.1-0.6,0.2c-0.1-0.4-0.4-0.8-0.8-1.1
			l-0.1-0.1l-0.2-0.1l-1.2-0.3l-0.8,0.1l-1,0.5c-1,0.8-1.2,2.2-0.5,3.3l1.2,0.8l1,0.2h0.5l0.3-0.1l0.3,0.6c0.1,0.1,0.3,0.2,0.4,0.4
			c0.7,0.6,1.6,0.9,2.5,0.8c0.8,0.4,1.8,0.3,2.6-0.2l0.7-0.8l0.2-0.7l-0.1-1C320.5,150.5,320.1,150.1,319.6,149.8L319.6,149.8z
			 M258,131.2c0.1,0,0.2-0.1,0.3-0.1C258.4,131.1,258.2,131.1,258,131.2L258,131.2z M308.5,117.6l-1-0.2l-1.5,0.3
			c-1.2,0.7-1.7,2.3-1,3.5c0.1,0.2,0.2,0.3,0.4,0.5l1.3,0.6h1l1.3-0.6c0.8-0.8,1.1-2,0.7-3.1L308.5,117.6z M243.2,69.2
			c0.4-0.3,0.6-0.8,0.5-1.3c0-0.5-0.3-1-0.8-1.4l-0.6,0.6c0.1,0.1-0.5,0.6-0.5,0.6c-0.1-0.1-0.2-0.1-0.3-0.2l-0.4,0.4
			c-0.1,0.1,0,0.3,0.1,0.4l-1.1,1.1C241,70.1,242.3,70,243.2,69.2L243.2,69.2z M321.6,71.4c-0.1-0.1-0.3-0.2-0.4-0.3l-1.1-0.3h-0.8
			l-1,0.4c-0.8,0.5-1.2,1.4-1.3,2.3c0,0.8,0.4,1.5,1,2c0.1,0.1,0.2,0.2,0.4,0.3l1.1,0.3h0.4c0-0.1,0.4,0,0.4,0l1.3-0.4
			c0.7-0.5,1.1-1.2,1.1-2C322.7,72.7,322.3,71.9,321.6,71.4L321.6,71.4z M299,32.5l-0.4-0.2c-1.3-0.8-3-1-4.5-0.4l-0.4,0.3l-0.3,0.2
			l-0.3,0.4c-0.3,0.4-0.4,1-0.3,1.5l-0.1,0.8l0.5,1.3l1.2,1l1.4,0.4l0.9-0.1L298,37c0.1-0.1,0.1-0.1,0.4-0.3
			c0.4-0.2,0.8-0.5,1.2-0.9l0.4-1.3l-0.2-0.9L299,32.5z M235.9,67.7l0.6-0.6c1.2,1.2,3,1.2,4.3,0.2l0.4-0.5l0.2-0.4l0.1-0.6
			c0-0.8-0.4-1.5-1-2c-0.1-0.1-0.1-0.1-0.2-0.1c0.4,0,0.9,0,1.3-0.1c0.1,0.5,0.3,0.9,0.6,1.3c0.6,0.7,1.5,1.1,2.5,1.1l0.9-0.2
			l0.6-0.3l0.6-0.6c0.1-0.1,0.1-0.2,0.2-0.4c1-0.9,1.1-2.4,0.3-3.4c-0.1-0.1-0.1-0.2-0.2-0.2l-1-0.5h-0.2c0-0.1,0-0.8,0-0.8l-0.4-1
			c-0.1-0.1-0.3-0.3-0.4-0.4c-0.1-0.1-0.3-0.2-0.4-0.3c0.2-0.1,0.3-0.2,0.4-0.3l0.9,0.4h1l0.9-0.3c-0.1,0.1-0.2,0.1-0.3,0.1
			c0.9-0.2,1.6-0.8,1.9-1.6c0.3-0.7,0.2-1.5-0.3-2.1l-1-0.7l-0.6-0.1c-0.3-0.2-0.6-0.4-0.9-0.6l-0.9-0.1l-0.1-0.7l-0.5-0.9
			c-0.5-0.4-1.1-0.7-1.7-0.8c0-0.3,0-0.6,0-0.8c-0.2-1-0.9-1.8-1.8-2c0-0.2,0-0.4,0-0.6l-0.1-0.2c0.3,0,0.5,0,0.8,0
			c1-0.2,1.9-0.9,2.2-1.9c0.3-1.1-0.2-2.2-1.2-2.7c-0.4-0.2-0.9-0.3-1.4-0.3c0.1-0.1,0.2-0.2,0.3-0.3c-1,0.6-1.9,1.2-2.7,2
			c0,0.1-0.1,0.1-0.1,0.2c-1.6,1.3-2.8,3-3.7,4.8l0.6,0.5c-0.1,0-0.2-0.1-0.3-0.2c0.4,0.4,0.9,0.8,1.4,1l0.6,0c0,0.2,0,0.4,0.1,0.7
			c-0.3,0.1-0.6,0.2-0.8,0.4l-0.6,1l-0.1,0.8l0.3,0.9l-0.2-0.2c0-0.1-0.1-0.2-0.1-0.3c0,0.1,0,0.2,0.1,0.3l-0.6-0.6
			c-0.6-0.2-1.1-0.2-1.7-0.1c-0.2,0.9-0.2,1.8-0.2,2.7v2.9l0.2-0.6c1.3,0.1,2.4-0.7,2.9-1.8l0.1-0.2v-0.7l0.6,1.4
			c1,1,2.5,1.2,3.7,0.5l0.2-0.3l0.4,0.3l0.5,0.2c0.1,0-0.4,0.5-0.4,0.5c-0.6,0.1-1.1,0.3-1.6,0.7l-0.4,0.8c-0.1,0-0.2,0-0.3,0
			c-1,0.1-1.9,0.9-2.2,1.9c-0.1,0.3-0.1,0.6-0.1,0.8l0.3,0.8l-0.3-0.2l-0.4-0.3V62l-0.4-0.3l-2.1-0.1l-0.2,0.2l-0.6,0.1v6.2
			c0.5,0,1,0,1.5-0.1L235.9,67.7z M280.9,90c-1.2,0.8-1.5,2.5-0.7,3.7c0.1,0.1,0.1,0.2,0.2,0.3l0.7,0.4l0.6,0.2l0.8,0.1
			c1.1-0.1,2-0.7,2.5-1.6c-0.2,0.2-0.4,0.3-0.6,0.3l1.2-1l0.3-0.9l-0.4-1.5l-0.1-0.1C284.1,88.8,282.1,88.9,280.9,90L280.9,90z
			 M252,76.7l0.3,0.1c1.4,0.7,3,0.2,3.8-1.2l0.2-0.8l-0.1-0.6l-0.3-0.8c-0.1-0.2-0.3-0.3-0.5-0.5c-1.2-1-3-1.1-4.3-0.2
			c-1,0.8-1.2,2.2-0.4,3.2c0,0.1,0.1,0.1,0.1,0.2L252,76.7z M253.8,105.1l1.1-0.5l0.8-0.8l0.4-1.1V102l-0.5-1.1l-0.2-0.1
			c-0.7-0.6-1.5-0.9-2.4-0.9l-0.6,0.1l-0.4,0.1l-0.5,0.3c-0.7,0.5-1.1,1.2-1.1,2c0,0.8,0.4,1.6,1.1,2.1c0.1,0.1,0.2,0.2,0.4,0.3
			l1.2,0.3L253.8,105.1z M263.4,138.3l0.3-0.1c-0.1,0.1-0.2,0.1-0.3,0.2c0.8-0.2,1.4-0.9,1.4-1.8l-0.2-0.6l-0.1-1.1
			c-1-0.8-2.4-0.9-3.5-0.3c0.5-0.9,0.4-2.1-0.4-2.9l-1.1-0.5l-0.8-0.1l-1.1,0.2c0.1-0.1,0.2-0.1,0.4-0.1c-1,0.1-2,0.6-2.5,1.5
			l-0.2,0.9l0.1,0.7l0.5,0.9l0.1,0.1c0.7,0.6,1.5,0.9,2.4,0.9l0.6-0.1l0.4-0.1l0.4-0.2c-0.5,1-0.2,2.3,0.7,3l2.4-0.1L263.4,138.3z
			 M277.9,56.8l1.2,0.3l0.8-0.1l1.1-0.5c0.5-0.6,1-1.2,1.3-1.9c0.2-0.4,0.4-0.7,0.7-1c0,0-0.1,0.1-0.2,0.1l1.2-1.4l0-1.1l-1.1-1.5
			c-0.7-0.2-1.4-0.2-2.1-0.1c0.3-0.1,0.6,0,0.9,0h-1.1l-0.7,0.2l-0.8,0.5c-0.1,0.1,0,0,0.2-0.1l-0.8,0.6l-0.4,0.5l-0.3,0.9
			c0-0.1,0-0.1,0-0.2c0,0.1-0.3,0.3-0.3,0.4c-0.4,0.4-0.7,0.9-0.9,1.5C276.4,55.2,276.9,56.3,277.9,56.8L277.9,56.8z M237.9,72.1
			c-1,0.8-1.2,2.2-0.4,3.2c0.1,0.2,0.2,0.3,0.4,0.4c0.2,0.1,0.4,0.3,0.6,0.4l1.1,0.2l0.8-0.1l1-0.5l0.2-0.2c0,0.1-0.1,0.1-0.1,0.2
			v1.1l0.3,0.8l0.8,0.8c-0.1,0-0.2-0.1-0.2-0.1c0.6,0.5,1.4,0.8,2.1,0.8l1.1-0.3l0.6-0.4l0.6-0.9l0.1-0.5c0.2-0.7,0-1.5-0.5-2
			c-0.5-0.5-1.2-0.8-1.9-0.8l-0.6,0.2c-0.8-0.1-1.6,0.3-2.2,0.9l0.4-0.9v-0.8v-0.2c0-0.4-0.2-0.8-0.4-1.1l-1.5-0.7l-1.1,0
			L237.9,72.1z M280.4,154l-0.4,0.2C280,154.1,280.3,154,280.4,154l-0.3-0.3c0-0.1,0-0.1,0-0.2c-0.1-0.7-0.4-1.3-0.9-1.7l-2.4,0.1
			l-0.2,0.2l-0.4,0.1l-0.4,0.4l-0.4,0.7c-0.1,0.3-0.1,0.6,0,0.9h0.7c1.5,0,3.1,0.2,4.6,0.5C280.6,154.4,280.6,154.2,280.4,154
			L280.4,154z M281.7,67.3l0-0.8l-0.5-1c-0.1-0.1-0.3-0.3-0.4-0.4c-0.8-0.8-2-1.2-3.1-1.1c-0.6,0.1-1.1,0.3-1.5,0.7l-0.2-0.1
			l-1.1,0.2l-1.2,1.1l-0.2,0.7l0.2,1.1l0.4,0.7l1,0.7c2.1-0.1,4.3-0.4,6.3-1L281.7,67.3z M236.2,133.4c0.3-0.9,0-1.9-0.8-2.5
			c-0.4-0.3-0.8-0.5-1.2-0.7v4.8C235.1,134.8,235.8,134.2,236.2,133.4L236.2,133.4z M234.2,75.4v3.6c0.5-0.4,0.8-1.1,0.8-1.7
			C235,76.5,234.7,75.9,234.2,75.4L234.2,75.4z M235.4,140.8c0.2-0.1,0.3-0.2,0.5-0.3l0.4-1.5l-0.2-0.7L236,138l-0.3-0.5l-1.1-0.8
			l-0.4-0.1v4.9c0.4-0.1,0.8-0.3,1.1-0.5L235.4,140.8z M236.6,121.8l0.3-1l-0.1-0.7l-0.5-0.9l-0.4-0.3l-0.7-0.3l-0.5-0.1h-0.4v4.7
			h0.5C235.5,122.9,236.2,122.5,236.6,121.8L236.6,121.8z M239.7,127.3l1,0.4h0.8l1.1-0.3c1.2-0.7,1.6-2.2,0.9-3.4
			c-0.1-0.2-0.2-0.3-0.3-0.4l-0.1-0.2l-1-0.6l-0.8-0.2l-1.2,0.1c-0.8,0.3-1.5,1-1.7,1.9c-0.1,0.9,0.2,1.7,0.9,2.3
			C239.4,127,239.5,127.2,239.7,127.3L239.7,127.3z M235.6,81.6c0.1-0.8-0.3-1.6-0.9-2.1c-0.2-0.1-0.3-0.2-0.5-0.3v4.2
			c0,0,0.1,0,0.2-0.1C235.1,83.1,235.5,82.4,235.6,81.6L235.6,81.6z M251.2,164.7l-0.1-0.1l-1.1-0.4h-0.8l-1.1,0.3
			c-0.7,0.4-1.1,1.2-1.2,2c0,0.8,0.3,1.5,0.9,2l0.2,0.2l0.2,0.1c1-1.4,2.1-2.7,3.2-4L251.2,164.7z M272.8,25.2
			c-0.2-0.1-0.4-0.3-0.6-0.3c0.4,0.4,0.9,0.8,1.3,1.2C273.3,25.8,273.1,25.5,272.8,25.2L272.8,25.2z M271.3,43.3l1.2-0.2l0.8-0.4
			l0.2-0.3c0.5,0.2,1.1,0.2,1.6,0c0.7-0.2,1.3-0.8,1.6-1.5v-1l-0.1-0.3H269c-0.3,0.9-0.1,1.8,0.4,2.6
			C269.9,42.8,270.6,43.2,271.3,43.3L271.3,43.3z M236.6,167.4l-1.2-0.6l-0.9-0.1h-0.3v4.5h0.3h0.4c0.5,0,0.9-0.2,1.3-0.4l0.7-1
			l0.1-0.8v-0.4C237,168.1,236.8,167.7,236.6,167.4L236.6,167.4z M236.7,116.4c0.6,0.5,1.3,0.7,2.1,0.6h0.2h0.2l0.2-0.1
			c0.9-0.2,1.6-0.9,1.8-1.8c0.2-0.9-0.2-1.9-1-2.5c-0.7-0.6-1.5-0.8-2.4-0.8c-0.7,0.1-1.4,0.5-1.8,1.1l-0.2,0.8v0.6l0.3,0.8
			c-0.1-0.2-0.2-0.4-0.2-0.6C235.9,115.4,236.2,116,236.7,116.4L236.7,116.4z M244.7,134.4l-0.5-1.1l-0.6-0.5l-1.3-0.4h-0.3
			c0,0,0.1-0.5,0.1-0.5v-0.7c-0.1-0.6-0.4-1.1-0.8-1.5l-0.9-0.4l-0.8-0.2l-1.1,0.1c-0.2,0.1-0.3,0.2-0.5,0.3
			c-0.2,0.1-0.5,0.3-0.7,0.4c-0.8,0.8-0.9,2.1-0.1,2.9c0.1,0.1,0.1,0.1,0.2,0.2c0.6,0.5,1.3,0.8,2.1,0.8c-0.4,0.8-0.3,1.8,0.4,2.4
			l0.2,0.1c0.1,0.1,0.2,0.3,0.4,0.4l1.2,0.4h0.9l1.2-0.5l0.6-0.5l0.4-1.1L244.7,134.4z M242.7,160.5l-1.3,0.4l0.7-0.9l-1-0.6
			l-0.7-0.2c-1.2-0.2-2.4,0.3-3,1.4l-0.1,0.3l-0.1,0.3l0,0.4c0,0.8,0.4,1.6,1.1,2.1c0.4,0.3,0.8,0.6,1.2,0.8l0.2,0.1l1.1,0.2
			l0.8-0.1l1-0.4c1-0.9,1.2-2.4,0.3-3.4C242.7,160.6,242.7,160.6,242.7,160.5L242.7,160.5z M251.7,67.7l0.6-0.5l0.3-0.8
			c0.1,0.3,0.2,0.7,0.5,0.9l1.2,0.6h0.4c0.3,0,0.6,0,0.9,0l1.4-0.5c1-0.8,1.1-2.1,0.4-3.1c-0.1-0.1-0.2-0.2-0.2-0.3
			c-0.2-0.2-0.4-0.3-0.6-0.4l-1.2-0.2l-0.8,0.1l-1.1,0.5c-0.3,0.3-0.6,0.7-0.8,1.1l-0.5-1c-1-0.9-2.3-1.1-3.5-0.8l-0.9,0.6l-0.5,0.6
			l-0.3,1c0,0.6,0.3,1.2,0.8,1.7c0.3,0.3,0.8,0.5,1.2,0.6c-0.2-0.1-0.4-0.2-0.6-0.3l1.2,0.5h0.9L251.7,67.7z M274.6,84.4l0.3,0.8
			l0.2,0.3c0.3,0.4,0.6,0.6,1,0.8l1.4,0.1l0.9-0.3l0.4-0.2c0.4-0.2,0.6-0.5,0.9-0.9l0.1-1.2l-0.3-0.8l-0.2-0.4
			c-0.2-0.3-0.6-0.6-0.9-0.8l-1.4-0.1l-0.9,0.3l-0.4,0.2l-0.2,0.1l-0.1-1l-0.6-1.1c-0.7-0.6-1.6-0.9-2.5-0.8
			c-0.8,0.1-1.5,0.6-1.9,1.2l-0.2,1l0.1,0.7l0.5,0.9l0.4,0.3l1.1,0.4h0.8h0.2c0.4,0,0.9-0.2,1.3-0.4L274.6,84.4z M257.5,86.9
			l-0.9-0.1h-0.4c-0.5,0-0.9,0.2-1.3,0.4l-0.7,1l-0.1,0.8v0.4c0,0.4,0.2,0.8,0.4,1.1l1.2,0.7l0.9,0.1h0.4c0.4,0,0.9-0.2,1.3-0.4
			l0.5-0.8l0.8,0.6c-0.1,0-0.2-0.1-0.3-0.2l0.1,0.1c0.4,0.5,0.9,0.8,1.4,1.1h1.5l0.9-0.4l0.9-1c-0.1,0.2-0.2,0.4-0.4,0.6
			c1.2-0.6,1.9-1.7,1.9-3l-0.2-0.7l-0.2-0.4l-0.5-0.5c-0.6-0.4-1.3-0.7-2.1-0.8c0.3,0.1,0.5,0.3,0.7,0.5l-1.4-0.9l-1.1-0.1l-1.5,0.7
			c-0.1,0.1-0.2,0.2-0.3,0.3c-0.3,0.4-0.6,0.8-0.8,1.2L257.5,86.9z M249.5,62.8l1.3,0.5h0.9l1.3-0.6c0.7-0.3,1.3-1,1.4-1.8
			c0-0.9-0.3-1.7-1-2.2l-1.2-0.4h-0.9l-1.2,0.4C247.7,60.8,249,62.4,249.5,62.8L249.5,62.8z M256.9,51.5c0.8-0.1,1.5-0.6,1.9-1.2
			l0.2-1l-0.1-0.7l-0.5-0.9c-1-0.9-2.4-1-3.6-0.5l-0.9,1.3v1l0.6,1.2C255.1,51.4,256,51.7,256.9,51.5L256.9,51.5z M265.1,99.6
			c-0.2,1,0.1,1.9,0.8,2.7l1,0.7l0.8,0.2l1.3-0.2c0.7-0.3,1.1-0.9,1.3-1.7c0.1-0.4,0.1-0.7,0.1-1.1c0,0.1,0,0.2,0,0.2l-0.2-1.1
			l-0.5-0.7l-1-0.7C267.2,97.4,265.6,98.1,265.1,99.6C265.1,99.6,265.1,99.6,265.1,99.6L265.1,99.6z M261.1,59.3
			c1.1,1,2.8,1.1,4,0.2l0.6-1c0.1,0,0.6,0,0.6,0c0.5,0,0.9-0.2,1.3-0.4l0.7-1.1l0.1-0.9v-0.5c-0.1-0.6-0.4-1.1-0.9-1.4l-0.1-0.1
			l-0.2-0.1l-1.2-0.3l-0.8,0.1l-1,0.4c-0.3,0.3-0.6,0.7-0.8,1.2c-0.9-0.2-1.7,0-2.4,0.6l-0.6,1l-0.1,0.8l0.4,1.1
			C260.8,59.1,261,59.2,261.1,59.3L261.1,59.3z M236.4,109.9c0.6,0.2,1.2,0.2,1.8,0c-0.1,0.7,0.1,1.3,0.5,1.8l1.4,0.6
			c1,0.6,2.3,0.6,3.2,0l0.5-0.5l0.2-0.4l0.2-0.7c0-0.9-0.5-1.8-1.2-2.4c-0.1-0.1-0.3-0.3-0.5-0.4l-1.1-0.4l-0.8,0l-0.9,0.3l-0.1-0.8
			c-0.1-0.6-0.5-1.2-0.9-1.6c-0.2-0.2-0.5-0.4-0.8-0.5l-0.3,0l-0.1-0.2c-0.2-0.3-0.5-0.6-0.8-0.9c-0.6-0.5-1.4-0.7-2.2-0.6
			c-0.2,0-0.3,0.1-0.5,0.2v8.2c0.7-0.1,1.4-0.4,1.9-1L236.4,109.9z M249.5,159c0.9-0.8,1.1-2.1,0.3-3.1c0,0-0.1-0.1-0.1-0.1
			l-1.1-0.6l-0.1-0.1l-1.1-0.2l-1.7,0.4l-0.6,0.5l-0.4,0.8l-0.1,0.6l0.1,0.9c0.2,0.3,0.4,0.6,0.6,0.8
			C246.6,159.9,248.3,159.9,249.5,159L249.5,159z M242.5,96.9l1.6-0.2l0.6-0.4c1.1-0.2,2-1,2.3-2c0.1-0.2,0.1-0.5,0.1-0.8l-0.1-0.4
			l-0.1-0.3l-0.2-0.4c-0.3-0.5-0.8-1-1.3-1.3l0.4-0.6l0.1-0.8v-0.3c0-0.4-0.2-0.8-0.5-1.2l-1.2-0.7l-0.9-0.1H243
			c-0.5,0-0.9,0.2-1.3,0.4l-0.7,1l-0.1,0.8V90c0.1,0.3,0.2,0.6,0.3,0.8c-0.1,0-0.6,0.5-0.6,0.5c-0.3,0.4-0.6,0.9-0.7,1.4
			c-0.5,1.8,0.6,3.7,2.5,4.1C242.4,96.9,242.4,96.9,242.5,96.9L242.5,96.9z M247.6,148.2l-1.1,0.2l-0.7,0.4l-0.8,0.9l-0.1,0.2
			c-0.3,1.2,0.2,2.4,1.2,3.1l1.5,0.4l1-0.2l1.2-1c0.1-0.1,0.1-0.3,0.1-0.4c0.3-0.8,0.1-1.7-0.4-2.3
			C249.2,148.7,248.4,148.3,247.6,148.2L247.6,148.2z M243.1,102.3l0.3,0.1l1.2-0.2l0.7-0.4l0.8-0.8c0.3-0.7,0.3-1.6-0.2-2.3
			c-0.5-0.7-1.2-1.2-2-1.3h-0.2l-1.2,0.2l-0.7,0.4l-0.8,0.8c-0.3,0.7-0.2,1.6,0.2,2.3C241.6,101.7,242.3,102.1,243.1,102.3
			L243.1,102.3z M249.5,120.2l-1.5-0.5c-0.1,0-0.3-0.1-0.4-0.1l-1,0.1l-1.3,0.7l-0.1,0.1c-0.4,0.4-0.7,0.9-0.9,1.4
			c-0.3,1.3,0.4,2.5,1.7,2.9l1.8-0.3l0.6-0.5c0.9-0.2,1.6-0.8,1.9-1.7C250.4,121.6,250.1,120.8,249.5,120.2L249.5,120.2z"/>
		<path id="Path_2748_1_" class="st1" d="M268.4,429.4l0.8,0.1h0.5l0.8-0.2c0.8-0.4,1.4-1.1,1.6-2c0.3-1,0-2.1-0.7-2.8
			c-0.7-0.8-1.8-1.1-2.8-1l-1,0.4l-0.6,0.5l-0.5,0.9C266,427,266.8,428.7,268.4,429.4z M264.6,442.8c0.9-0.1,1.8-0.6,2.4-1.3l0.4-1
			l0-0.8l-0.5-1c-1.3-1.1-3.2-1.2-4.5-0.1l-0.1,0.1l-0.8,1.2v0.9l0.6,1.2C262.7,442.6,263.7,442.9,264.6,442.8L264.6,442.8z
			 M272.1,451.7l-0.3-0.8c-0.1-0.2-0.3-0.4-0.5-0.5c-0.7-0.6-1.6-0.8-2.4-0.6c-0.1-0.1-0.3-0.3-0.4-0.4c-1.2-1.1-3-1.1-4.2,0.1
			c-0.5,0.5-0.8,1.2-0.8,1.9v0.6l0.1,0.4l0.3,0.6c0.2,0.2,0.4,0.5,0.7,0.7c2.5-0.9,5.1-1.4,7.7-1.5
			C272.2,452,272.1,451.9,272.1,451.7L272.1,451.7z M257.2,448.1l-0.4-0.3l-0.7-0.3l-0.5-0.1l-0.8,0c-0.9,0.1-1.8,0.6-2.2,1.4
			c-0.4,0.8-0.3,1.8,0.3,2.5l1.2,0.7l1,0.1h0.5c0.8-0.1,1.5-0.5,1.9-1.2l0.2-1l-0.1-0.7L257.2,448.1z M259.7,440.6
			c0,0-0.1-0.1-0.1-0.1c-0.3-0.4-0.8-0.5-1.2-0.2c-0.1,0.1-0.2,0.2-0.3,0.4l0.3,0.8c-0.1,0-0.1-0.1-0.1-0.2l0.4,0.8
			c0.6,0.2,1.2,0,1.6-0.5l-0.7-0.9C259.6,440.6,259.6,440.6,259.7,440.6L259.7,440.6z M275.9,423.8l0.7,0.2c1.2,0.1,2.3-0.5,2.9-1.5
			c0.1-0.2,0.2-0.4,0.2-0.6c0.1,0,0.3,0,0.4,0.1l0.6-0.1l0.4-0.2l0.5-0.3c1.2-0.9,1.3-2.6,0.4-3.8c-0.1-0.1-0.2-0.2-0.3-0.3
			l-0.1-0.1l-1.4-0.7h-1l-1.4,0.6c-0.4,0.5-0.7,1.2-0.7,1.9h-0.5l-1,0.3c-1.3,0.6-1.8,2.2-1.2,3.5c0.1,0.2,0.2,0.3,0.3,0.5l0.6,0.4
			L275.9,423.8z M264.5,410.5l0.1,0.6l0.2,0.6l0.4,0.6c1,0.9,2.5,0.9,3.6,0.1c1-0.7,1.3-2.1,0.6-3.2c-0.1-0.1-0.1-0.2-0.2-0.3
			l-1-0.6l0.4-0.2l0.4-0.4l0.4-1v-0.8v-0.2c0-0.4-0.2-0.8-0.5-1.2l-1.5-0.7l-1.1,0.1l-1.2,0.5c-1,0.8-1.1,2.2-0.4,3.2
			c0.1,0.1,0.2,0.2,0.4,0.4c0.2,0.1,0.3,0.3,0.5,0.4C265.1,409,264.7,409.7,264.5,410.5L264.5,410.5z M282.8,425.5l-0.4-0.3
			l-0.7-0.3l-0.5-0.1l-0.8,0c-0.9,0.1-1.8,0.6-2.2,1.4c-0.4,0.8-0.3,1.8,0.3,2.4l1.2,0.7l1,0.1h0.5c0.8-0.1,1.5-0.5,1.9-1.2l0.2-1
			l-0.1-0.7L282.8,425.5z M292.2,403.7c0-0.8-0.4-1.5-1-2c-0.1-0.1-0.2-0.2-0.3-0.2l-1.1-0.3h-0.8l-1,0.4c-0.6,0.4-1,1-1.2,1.6
			l-0.9-0.5l-0.9-0.1h-0.5c-0.5,0-0.9,0.2-1.3,0.4l-0.7,1l-0.1,0.8v0.4c0,0.4,0.2,0.8,0.5,1.2l1.2,0.7l0.9,0.1h0.4
			c0.4,0,0.9-0.2,1.3-0.4l0.8-1.1v-0.2c0.1,0.1,0.2,0.2,0.3,0.3c0.1,0.1,0.2,0.2,0.4,0.3l1,0.3h0.8l1-0.4
			C291.7,405.4,292.2,404.5,292.2,403.7L292.2,403.7z M292.4,383.9l0.8,0.7l1.2,0.4h0.9l1.2-0.4c1.1-0.9,1.3-2.5,0.4-3.5
			c-0.1-0.1-0.2-0.3-0.4-0.4c-0.6-0.5-1.5-0.7-2.3-0.6c-0.9,0.1-1.6,0.6-2.1,1.3l-0.2,1l0.1,0.7L292.4,383.9z M291.6,391.3l0.6-0.1
			l0.4-0.1l0.5-0.2c0.9-0.6,1.4-1.6,1.2-2.7l0.1-0.7l-0.3-1c-0.7-1-1.9-1.4-3.1-1.1h-0.5l-1.2,0.4c-1.3,1.1-1.4,3-0.4,4.3
			c0.1,0.1,0.3,0.3,0.4,0.4C290.1,391,290.9,391.3,291.6,391.3L291.6,391.3z M297.5,417c0.1,0.1,0.2,0.2,0.3,0.3
			c-0.6-1-1.7-1.5-2.9-1.5l-0.7,0.1l-0.5,0.2l-0.6,0.4c-0.3,0.3-0.6,0.7-0.7,1.2c-0.3,1.4,0.6,2.7,1.9,3c1.4,0.6,3,0.1,3.8-1.1
			l0.1-1.2l-0.3-0.8L297.5,417z M293.7,413.6l0.6,0l0.8-0.1l0.2-0.1c1.9-0.6,2.8-1.6,2.7-3.1l-0.1-0.4l-0.1-0.3l-0.2-0.3
			c-0.2-0.3-0.4-0.5-0.6-0.7c-0.5-0.4-1.1-0.6-1.8-0.7l-1.1-0.1l-1.4,0.5c-0.8,0.6-1.3,1.6-1.4,2.7c0.1,0.8,0.4,1.5,1,1.9
			c0.1,0.1,0.3,0.2,0.5,0.3L293.7,413.6z M319.6,447.7c-0.9-0.8-2-1.2-3.2-1c-0.2,0-0.4,0.1-0.6,0.2c-0.1-0.4-0.4-0.8-0.8-1.1
			l-0.1-0.1l-0.2-0.1l-1.2-0.3l-0.8,0.1l-1,0.5c-1,0.8-1.2,2.2-0.5,3.3l1.2,0.8l1,0.2h0.5l0.3-0.1l0.3,0.6c0.1,0.1,0.3,0.2,0.4,0.4
			c0.7,0.6,1.6,0.9,2.5,0.8c0.8,0.4,1.8,0.3,2.6-0.2l0.7-0.8l0.2-0.7l-0.1-1C320.5,448.5,320.1,448,319.6,447.7L319.6,447.7z
			 M258,429.1c0.1,0,0.2-0.1,0.3-0.1C258.4,429,258.2,429.1,258,429.1L258,429.1z M308.5,415.5l-1-0.2l-1.5,0.3
			c-1.2,0.7-1.7,2.3-1,3.5c0.1,0.2,0.2,0.3,0.4,0.5l1.3,0.6h1l1.3-0.6c0.8-0.8,1.1-2,0.7-3.1L308.5,415.5z M243.2,367.2
			c0.4-0.3,0.6-0.8,0.5-1.3c0-0.5-0.3-1-0.8-1.4l-0.6,0.6c0.1,0.1-0.5,0.6-0.5,0.6c-0.1-0.1-0.2-0.1-0.3-0.2l-0.4,0.4
			c-0.1,0.1,0,0.3,0.1,0.4l-1.1,1.1C241,368,242.3,368,243.2,367.2L243.2,367.2z M321.6,369.4c-0.1-0.1-0.3-0.2-0.4-0.3l-1.1-0.3
			h-0.8l-1,0.4c-0.8,0.5-1.2,1.4-1.3,2.3c0,0.8,0.4,1.5,1,2c0.1,0.1,0.2,0.2,0.4,0.3l1.1,0.3h0.4c0-0.1,0.4,0,0.4,0l1.3-0.4
			c0.7-0.5,1.1-1.2,1.1-2C322.7,370.7,322.3,369.9,321.6,369.4L321.6,369.4z M299,330.4l-0.4-0.2c-1.3-0.8-3-1-4.5-0.4l-0.4,0.3
			l-0.3,0.2l-0.3,0.4c-0.3,0.4-0.4,1-0.3,1.5l-0.1,0.8l0.5,1.3l1.2,1l1.4,0.4l0.9-0.1l1.2-0.7c0.1-0.1,0.1-0.1,0.4-0.3
			c0.4-0.2,0.8-0.5,1.2-0.9l0.4-1.3l-0.2-0.9L299,330.4z M235.9,365.7l0.6-0.6c1.2,1.2,3,1.2,4.3,0.2l0.4-0.5l0.2-0.4l0.1-0.6
			c0-0.8-0.4-1.5-1-2c-0.1-0.1-0.1-0.1-0.2-0.1c0.4,0,0.9,0,1.3-0.1c0.1,0.5,0.3,0.9,0.6,1.3c0.6,0.7,1.5,1.1,2.5,1.1l0.9-0.2
			l0.6-0.3l0.6-0.6c0.1-0.1,0.1-0.2,0.2-0.4c1-0.9,1.1-2.4,0.3-3.4c-0.1-0.1-0.1-0.2-0.2-0.2l-1-0.5h-0.2c0-0.1,0-0.8,0-0.8l-0.4-1
			c-0.1-0.1-0.3-0.3-0.4-0.4c-0.1-0.1-0.3-0.2-0.4-0.3c0.2-0.1,0.3-0.2,0.4-0.3l0.9,0.4h1l0.9-0.3c-0.1,0.1-0.2,0.1-0.3,0.1
			c0.9-0.2,1.6-0.8,1.9-1.6c0.3-0.7,0.2-1.5-0.3-2.1l-1-0.7l-0.6-0.1c-0.3-0.2-0.6-0.4-0.9-0.6l-0.9-0.1l-0.1-0.7l-0.5-0.9
			c-0.5-0.4-1.1-0.7-1.7-0.8c0-0.3,0-0.6,0-0.8c-0.2-1-0.9-1.8-1.8-2c0-0.2,0-0.4,0-0.6l-0.1-0.2c0.3,0,0.5,0,0.8,0
			c1-0.2,1.9-0.9,2.2-1.9c0.3-1.1-0.2-2.2-1.2-2.7c-0.4-0.2-0.9-0.3-1.4-0.3c0.1-0.1,0.2-0.2,0.3-0.3c-1,0.6-1.9,1.2-2.7,2
			c0,0.1-0.1,0.1-0.1,0.2c-1.6,1.3-2.8,3-3.7,4.8l0.6,0.5c-0.1,0-0.2-0.1-0.3-0.2c0.4,0.4,0.9,0.8,1.4,1l0.6,0c0,0.2,0,0.4,0.1,0.7
			c-0.3,0.1-0.6,0.2-0.8,0.4l-0.6,1l-0.1,0.8l0.3,0.9l-0.2-0.2c0-0.1-0.1-0.2-0.1-0.3c0,0.1,0,0.2,0.1,0.3l-0.6-0.6
			c-0.6-0.2-1.1-0.2-1.7-0.1c-0.2,0.9-0.2,1.8-0.2,2.7v2.9l0.2-0.6c1.3,0.1,2.4-0.7,2.9-1.8l0.1-0.2V353l0.6,1.4
			c1,1,2.5,1.2,3.7,0.5l0.2-0.3l0.4,0.3l0.5,0.2c0.1,0-0.4,0.5-0.4,0.5c-0.6,0.1-1.1,0.3-1.6,0.7l-0.4,0.8c-0.1,0-0.2,0-0.3,0
			c-1,0.1-1.9,0.9-2.2,1.9c-0.1,0.3-0.1,0.6-0.1,0.8l0.3,0.8l-0.3-0.2l-0.4-0.3v-0.2l-0.4-0.3l-2.1-0.1l-0.2,0.2l-0.6,0.1v6.2
			c0.5,0,1,0,1.5-0.1L235.9,365.7z M280.9,388c-1.2,0.8-1.5,2.5-0.7,3.7c0.1,0.1,0.1,0.2,0.2,0.3l0.7,0.4l0.6,0.2l0.8,0.1
			c1.1-0.1,2-0.7,2.5-1.6c-0.2,0.2-0.4,0.3-0.6,0.3l1.2-1l0.3-0.9l-0.4-1.5l-0.1-0.1C284.1,386.7,282.1,386.8,280.9,388L280.9,388z
			 M252,374.7l0.3,0.1c1.4,0.7,3,0.2,3.8-1.2l0.2-0.8l-0.1-0.6l-0.3-0.8c-0.1-0.2-0.3-0.3-0.5-0.5c-1.2-1-3-1.1-4.3-0.2
			c-1,0.8-1.2,2.2-0.4,3.2c0,0.1,0.1,0.1,0.1,0.2L252,374.7z M253.8,403.1l1.1-0.5l0.8-0.8l0.4-1.1V400l-0.5-1.1l-0.2-0.1
			c-0.7-0.6-1.5-0.9-2.4-0.9l-0.6,0.1l-0.4,0.1l-0.5,0.3c-0.7,0.5-1.1,1.2-1.1,2c0,0.8,0.4,1.6,1.1,2.1c0.1,0.1,0.2,0.2,0.4,0.3
			l1.2,0.3L253.8,403.1z M263.4,436.3l0.3-0.1c-0.1,0.1-0.2,0.1-0.3,0.2c0.8-0.2,1.4-0.9,1.4-1.8l-0.2-0.6l-0.1-1.1
			c-1-0.8-2.4-0.9-3.5-0.3c0.5-0.9,0.4-2.1-0.4-2.9l-1.1-0.5l-0.8-0.1l-1.1,0.2c0.1-0.1,0.2-0.1,0.4-0.1c-1,0.1-2,0.6-2.5,1.5
			l-0.2,0.9l0.1,0.7l0.5,0.9l0.1,0.1c0.7,0.6,1.5,0.9,2.4,0.9l0.6-0.1l0.4-0.1l0.4-0.2c-0.5,1-0.2,2.3,0.7,3l2.4-0.1L263.4,436.3z
			 M277.9,354.8l1.2,0.3l0.8-0.1l1.1-0.5c0.5-0.6,1-1.2,1.3-1.9c0.2-0.4,0.4-0.7,0.7-1c0,0-0.1,0.1-0.2,0.1l1.2-1.4l0-1.1l-1.1-1.5
			c-0.7-0.2-1.4-0.2-2.1-0.1c0.3-0.1,0.6,0,0.9,0h-1.1l-0.7,0.2l-0.8,0.5c-0.1,0.1,0,0,0.2-0.1l-0.8,0.6l-0.4,0.5l-0.3,0.9
			c0-0.1,0-0.1,0-0.2c0,0.1-0.3,0.3-0.3,0.4c-0.4,0.4-0.7,0.9-0.9,1.5C276.4,353.1,276.9,354.3,277.9,354.8L277.9,354.8z M237.9,370
			c-1,0.8-1.2,2.2-0.4,3.2c0.1,0.2,0.2,0.3,0.4,0.4c0.2,0.1,0.4,0.3,0.6,0.4l1.1,0.2l0.8-0.1l1-0.5l0.2-0.2c0,0.1-0.1,0.1-0.1,0.2
			v1.1l0.3,0.8l0.8,0.8c-0.1,0-0.2-0.1-0.2-0.1c0.6,0.5,1.4,0.8,2.1,0.8l1.1-0.3l0.6-0.4l0.6-0.9l0.1-0.5c0.2-0.7,0-1.5-0.5-2
			c-0.5-0.5-1.2-0.8-1.9-0.8l-0.6,0.2c-0.8-0.1-1.6,0.3-2.2,0.9l0.4-0.9v-0.8v-0.2c0-0.4-0.2-0.8-0.4-1.1l-1.5-0.7l-1.1,0L237.9,370
			z M280.4,452l-0.4,0.2C280,452.1,280.3,451.9,280.4,452l-0.3-0.3c0-0.1,0-0.1,0-0.2c-0.1-0.7-0.4-1.3-0.9-1.7l-2.4,0.1l-0.2,0.2
			l-0.4,0.1l-0.4,0.4l-0.4,0.7c-0.1,0.3-0.1,0.6,0,0.9h0.7c1.5,0,3.1,0.2,4.6,0.5C280.6,452.4,280.6,452.2,280.4,452L280.4,452z
			 M281.7,365.3l0-0.8l-0.5-1c-0.1-0.1-0.3-0.3-0.4-0.4c-0.8-0.8-2-1.2-3.1-1.1c-0.6,0.1-1.1,0.3-1.5,0.7l-0.2-0.1l-1.1,0.2
			l-1.2,1.1l-0.2,0.7l0.2,1.1l0.4,0.7l1,0.7c2.1-0.1,4.3-0.4,6.3-1L281.7,365.3z M236.2,431.3c0.3-0.9,0-1.9-0.8-2.5
			c-0.4-0.3-0.8-0.5-1.2-0.7v4.8C235.1,432.8,235.8,432.2,236.2,431.3L236.2,431.3z M234.2,373.3v3.6c0.5-0.4,0.8-1.1,0.8-1.7
			C235,374.5,234.7,373.8,234.2,373.3L234.2,373.3z M235.4,438.7c0.2-0.1,0.3-0.2,0.5-0.3l0.4-1.5l-0.2-0.7l-0.1-0.2l-0.3-0.5
			l-1.1-0.8l-0.4-0.1v4.9c0.4-0.1,0.8-0.3,1.1-0.5L235.4,438.7z M236.6,419.8l0.3-1l-0.1-0.7l-0.5-0.9l-0.4-0.3l-0.7-0.3l-0.5-0.1
			h-0.4v4.7h0.5C235.5,420.9,236.2,420.5,236.6,419.8L236.6,419.8z M239.7,425.3l1,0.4h0.8l1.1-0.3c1.2-0.7,1.6-2.2,0.9-3.4
			c-0.1-0.2-0.2-0.3-0.3-0.4l-0.1-0.2l-1-0.6l-0.8-0.2l-1.2,0.1c-0.8,0.3-1.5,1-1.7,1.9c-0.1,0.9,0.2,1.7,0.9,2.3
			C239.4,425,239.5,425.2,239.7,425.3L239.7,425.3z M235.6,379.6c0.1-0.8-0.3-1.6-0.9-2.1c-0.2-0.1-0.3-0.2-0.5-0.3v4.2
			c0,0,0.1,0,0.2-0.1C235.1,381,235.5,380.4,235.6,379.6L235.6,379.6z M251.2,462.6l-0.1-0.1l-1.1-0.4h-0.8l-1.1,0.3
			c-0.7,0.4-1.1,1.2-1.2,2c0,0.8,0.3,1.5,0.9,2l0.2,0.2l0.2,0.1c1-1.4,2.1-2.7,3.2-4L251.2,462.6z M272.8,323.2
			c-0.2-0.1-0.4-0.3-0.6-0.3c0.4,0.4,0.9,0.8,1.3,1.2C273.3,323.8,273.1,323.5,272.8,323.2L272.8,323.2z M271.3,341.3l1.2-0.2
			l0.8-0.4l0.2-0.3c0.5,0.2,1.1,0.2,1.6,0c0.7-0.2,1.3-0.8,1.6-1.5v-1l-0.1-0.3H269c-0.3,0.9-0.1,1.8,0.4,2.6
			C269.9,340.8,270.6,341.2,271.3,341.3L271.3,341.3z M236.6,465.3l-1.2-0.6l-0.9-0.1h-0.3v4.5h0.3h0.4c0.5,0,0.9-0.2,1.3-0.4l0.7-1
			l0.1-0.8v-0.4C237,466.1,236.8,465.7,236.6,465.3L236.6,465.3z M236.7,414.4c0.6,0.5,1.3,0.7,2.1,0.6h0.2h0.2l0.2-0.1
			c0.9-0.2,1.6-0.9,1.8-1.8c0.2-0.9-0.2-1.9-1-2.5c-0.7-0.6-1.5-0.8-2.4-0.8c-0.7,0.1-1.4,0.5-1.8,1.1l-0.2,0.8v0.6l0.3,0.8
			c-0.1-0.2-0.2-0.4-0.2-0.6C235.9,413.3,236.2,414,236.7,414.4L236.7,414.4z M244.7,432.4l-0.5-1.1l-0.6-0.5l-1.3-0.4h-0.3
			c0,0,0.1-0.5,0.1-0.5v-0.7c-0.1-0.6-0.4-1.1-0.8-1.5l-0.9-0.4l-0.8-0.2l-1.1,0.1c-0.2,0.1-0.3,0.2-0.5,0.3
			c-0.2,0.1-0.5,0.3-0.7,0.4c-0.8,0.8-0.9,2.1-0.1,2.9c0.1,0.1,0.1,0.1,0.2,0.2c0.6,0.5,1.3,0.8,2.1,0.8c-0.4,0.8-0.3,1.8,0.4,2.4
			l0.2,0.1c0.1,0.1,0.2,0.3,0.4,0.4l1.2,0.4h0.9l1.2-0.5l0.6-0.5l0.4-1.1L244.7,432.4z M242.7,458.5l-1.3,0.4l0.7-0.9l-1-0.6
			l-0.7-0.2c-1.2-0.2-2.4,0.3-3,1.4l-0.1,0.3l-0.1,0.3l0,0.4c0,0.8,0.4,1.6,1.1,2.1c0.4,0.3,0.8,0.6,1.2,0.8l0.2,0.1l1.1,0.2
			l0.8-0.1l1-0.4c1-0.9,1.2-2.4,0.3-3.4C242.7,458.6,242.7,458.6,242.7,458.5L242.7,458.5z M251.7,365.7l0.6-0.5l0.3-0.8
			c0.1,0.3,0.2,0.7,0.5,0.9l1.2,0.6h0.4c0.3,0,0.6,0,0.9,0l1.4-0.5c1-0.8,1.1-2.1,0.4-3.1c-0.1-0.1-0.2-0.2-0.2-0.3
			c-0.2-0.2-0.4-0.3-0.6-0.4l-1.2-0.2l-0.8,0.1l-1.1,0.5c-0.3,0.3-0.6,0.7-0.8,1.1l-0.5-1c-1-0.9-2.3-1.1-3.5-0.8l-0.9,0.6l-0.5,0.6
			l-0.3,1c0,0.6,0.3,1.2,0.8,1.7c0.3,0.3,0.8,0.5,1.2,0.6c-0.2-0.1-0.4-0.2-0.6-0.3l1.2,0.5h0.9L251.7,365.7z M274.6,382.3l0.3,0.8
			l0.2,0.3c0.3,0.4,0.6,0.6,1,0.8l1.4,0.1l0.9-0.3l0.4-0.2c0.4-0.2,0.6-0.5,0.9-0.9l0.1-1.2l-0.3-0.8l-0.2-0.4
			c-0.2-0.3-0.6-0.6-0.9-0.8l-1.4-0.1l-0.9,0.3l-0.4,0.2l-0.2,0.1l-0.1-1l-0.6-1.1c-0.7-0.6-1.6-0.9-2.5-0.8
			c-0.8,0.1-1.5,0.6-1.9,1.2l-0.2,1l0.1,0.7l0.5,0.9l0.4,0.3l1.1,0.4h0.8h0.2c0.4,0,0.9-0.2,1.3-0.4L274.6,382.3z M257.5,384.9
			l-0.9-0.1h-0.4c-0.5,0-0.9,0.2-1.3,0.4l-0.7,1l-0.1,0.8v0.4c0,0.4,0.2,0.8,0.4,1.1l1.2,0.7l0.9,0.1h0.4c0.4,0,0.9-0.2,1.3-0.4
			l0.5-0.8l0.8,0.6c-0.1,0-0.2-0.1-0.3-0.2l0.1,0.1c0.4,0.5,0.9,0.8,1.4,1.1h1.5l0.9-0.4l0.9-1c-0.1,0.2-0.2,0.4-0.4,0.6
			c1.2-0.6,1.9-1.7,1.9-3l-0.2-0.7l-0.2-0.4l-0.5-0.5c-0.6-0.4-1.3-0.7-2.1-0.8c0.3,0.1,0.5,0.3,0.7,0.5l-1.4-0.9l-1.1-0.1l-1.5,0.7
			c-0.1,0.1-0.2,0.2-0.3,0.3c-0.3,0.4-0.6,0.8-0.8,1.2L257.5,384.9z M249.5,360.8l1.3,0.5h0.9l1.3-0.6c0.7-0.3,1.3-1,1.4-1.8
			c0-0.9-0.3-1.7-1-2.2l-1.2-0.4h-0.9l-1.2,0.4C247.7,358.7,249,360.3,249.5,360.8L249.5,360.8z M256.9,349.5
			c0.8-0.1,1.5-0.6,1.9-1.2l0.2-1l-0.1-0.7l-0.5-0.9c-1-0.9-2.4-1-3.6-0.5l-0.9,1.3v1l0.6,1.2C255.1,349.3,256,349.6,256.9,349.5
			L256.9,349.5z M265.1,397.6c-0.2,1,0.1,1.9,0.8,2.7l1,0.7l0.8,0.2l1.3-0.2c0.7-0.3,1.1-0.9,1.3-1.7c0.1-0.4,0.1-0.7,0.1-1.1
			c0,0.1,0,0.2,0,0.2l-0.2-1.1l-0.5-0.7l-1-0.7C267.2,395.4,265.6,396.1,265.1,397.6C265.1,397.6,265.1,397.6,265.1,397.6
			L265.1,397.6z M261.1,357.3c1.1,1,2.8,1.1,4,0.2l0.6-1c0.1,0,0.6,0,0.6,0c0.5,0,0.9-0.2,1.3-0.4l0.7-1.1l0.1-0.9v-0.5
			c-0.1-0.6-0.4-1.1-0.9-1.4l-0.1-0.1l-0.2-0.1l-1.2-0.3l-0.8,0.1l-1,0.4c-0.3,0.3-0.6,0.7-0.8,1.2c-0.9-0.2-1.7,0-2.4,0.6l-0.6,1
			l-0.1,0.8l0.4,1.1C260.8,357,261,357.2,261.1,357.3L261.1,357.3z M236.4,407.9c0.6,0.2,1.2,0.2,1.8,0c-0.1,0.7,0.1,1.3,0.5,1.8
			l1.4,0.6c1,0.6,2.3,0.6,3.2,0l0.5-0.5l0.2-0.4l0.2-0.7c0-0.9-0.5-1.8-1.2-2.4c-0.1-0.1-0.3-0.3-0.5-0.4l-1.1-0.4l-0.8,0l-0.9,0.3
			l-0.1-0.8c-0.1-0.6-0.5-1.2-0.9-1.6c-0.2-0.2-0.5-0.4-0.8-0.5l-0.3,0l-0.1-0.2c-0.2-0.3-0.5-0.6-0.8-0.9c-0.6-0.5-1.4-0.7-2.2-0.6
			c-0.2,0-0.3,0.1-0.5,0.2v8.2c0.7-0.1,1.4-0.4,1.9-1L236.4,407.9z M249.5,456.9c0.9-0.8,1.1-2.1,0.3-3.1c0,0-0.1-0.1-0.1-0.1
			l-1.1-0.6l-0.1-0.1l-1.1-0.2l-1.7,0.4l-0.6,0.5l-0.4,0.8l-0.1,0.6l0.1,0.9c0.2,0.3,0.4,0.6,0.6,0.8
			C246.6,457.8,248.3,457.9,249.5,456.9L249.5,456.9z M242.5,394.9l1.6-0.2l0.6-0.4c1.1-0.2,2-1,2.3-2c0.1-0.2,0.1-0.5,0.1-0.8
			l-0.1-0.4l-0.1-0.3l-0.2-0.4c-0.3-0.5-0.8-1-1.3-1.3l0.4-0.6l0.1-0.8v-0.3c0-0.4-0.2-0.8-0.5-1.2l-1.2-0.7l-0.9-0.1H243
			c-0.5,0-0.9,0.2-1.3,0.4l-0.7,1l-0.1,0.8v0.4c0.1,0.3,0.2,0.6,0.3,0.8c-0.1,0-0.6,0.5-0.6,0.5c-0.3,0.4-0.6,0.9-0.7,1.4
			c-0.5,1.8,0.6,3.7,2.5,4.1C242.4,394.9,242.4,394.9,242.5,394.9L242.5,394.9z M247.6,446.1l-1.1,0.2l-0.7,0.4l-0.8,0.9l-0.1,0.2
			c-0.3,1.2,0.2,2.4,1.2,3.1l1.5,0.4l1-0.2l1.2-1c0.1-0.1,0.1-0.3,0.1-0.4c0.3-0.8,0.1-1.7-0.4-2.3
			C249.2,446.6,248.4,446.2,247.6,446.1L247.6,446.1z M243.1,400.2l0.3,0.1l1.2-0.2l0.7-0.4l0.8-0.8c0.3-0.7,0.3-1.6-0.2-2.3
			c-0.5-0.7-1.2-1.2-2-1.3h-0.2l-1.2,0.2l-0.7,0.4l-0.8,0.8c-0.3,0.7-0.2,1.6,0.2,2.3C241.6,399.6,242.3,400.1,243.1,400.2
			L243.1,400.2z M249.5,418.2l-1.5-0.5c-0.1,0-0.3-0.1-0.4-0.1l-1,0.1l-1.3,0.7l-0.1,0.1c-0.4,0.4-0.7,0.9-0.9,1.4
			c-0.3,1.3,0.4,2.5,1.7,2.9l1.8-0.3l0.6-0.5c0.9-0.2,1.6-0.8,1.9-1.7C250.4,419.6,250.1,418.7,249.5,418.2L249.5,418.2z"/>
		<path id="Path_2749_1_" class="st1" d="M261.1,531.1l0.8,0.1h0.5l0.8-0.2c0.8-0.4,1.4-1.1,1.6-2c0.3-1,0-2.1-0.7-2.8
			c-0.7-0.8-1.8-1.1-2.8-1l-1,0.4l-0.6,0.5l-0.5,0.9C258.7,528.7,259.5,530.4,261.1,531.1z M257.3,544.5c0.9-0.1,1.8-0.6,2.4-1.3
			l0.4-1l0-0.8l-0.5-1c-1.3-1.1-3.2-1.2-4.5-0.1l-0.1,0.1l-0.8,1.2v0.9l0.6,1.2C255.5,544.4,256.4,544.6,257.3,544.5L257.3,544.5z
			 M264.8,553.5l-0.3-0.8c-0.1-0.2-0.3-0.4-0.5-0.5c-0.7-0.6-1.6-0.8-2.4-0.6c-0.1-0.1-0.3-0.3-0.4-0.4c-1.2-1.1-3-1.1-4.2,0.1
			c-0.5,0.5-0.8,1.2-0.8,1.9v0.6l0.1,0.4l0.3,0.6c0.2,0.2,0.4,0.5,0.7,0.7c2.5-0.9,5.1-1.4,7.7-1.5
			C264.9,553.8,264.8,553.6,264.8,553.5L264.8,553.5z M249.9,549.9l-0.4-0.3l-0.7-0.3l-0.5-0.1l-0.8,0c-0.9,0.1-1.8,0.6-2.2,1.4
			c-0.4,0.8-0.3,1.8,0.3,2.5l1.2,0.7l1,0.1h0.5c0.8-0.1,1.5-0.5,1.9-1.2l0.2-1l-0.1-0.7L249.9,549.9z M252.4,542.3
			c0,0-0.1-0.1-0.1-0.1c-0.3-0.4-0.8-0.5-1.2-0.2c-0.1,0.1-0.2,0.2-0.3,0.4l0.3,0.8c-0.1,0-0.1-0.1-0.1-0.2l0.4,0.8
			c0.6,0.2,1.2,0,1.6-0.5l-0.7-0.9C252.3,542.3,252.4,542.3,252.4,542.3L252.4,542.3z M268.6,525.5l0.7,0.2c1.2,0.1,2.3-0.5,2.9-1.5
			c0.1-0.2,0.2-0.4,0.2-0.6c0.1,0,0.3,0,0.4,0.1l0.6-0.1l0.4-0.2l0.5-0.3c1.2-0.9,1.3-2.6,0.4-3.8c-0.1-0.1-0.2-0.2-0.3-0.3
			l-0.1-0.1l-1.4-0.7h-1l-1.4,0.6c-0.4,0.5-0.7,1.2-0.7,1.9h-0.5l-1,0.3c-1.3,0.6-1.8,2.2-1.2,3.5c0.1,0.2,0.2,0.3,0.3,0.5l0.6,0.4
			L268.6,525.5z M257.3,512.2l0.1,0.6l0.2,0.6l0.4,0.6c1,0.9,2.5,0.9,3.6,0.1c1-0.7,1.3-2.1,0.6-3.2c-0.1-0.1-0.1-0.2-0.2-0.3
			l-1-0.6l0.4-0.2l0.4-0.4l0.4-1v-0.8v-0.2c0-0.4-0.2-0.8-0.5-1.2l-1.5-0.7l-1.1,0.1l-1.2,0.5c-1,0.8-1.1,2.2-0.4,3.2
			c0.1,0.1,0.2,0.2,0.4,0.4c0.2,0.1,0.3,0.3,0.5,0.4C257.8,510.8,257.4,511.4,257.3,512.2L257.3,512.2z M275.5,527.2l-0.4-0.3
			l-0.7-0.3l-0.5-0.1l-0.8,0c-0.9,0.1-1.8,0.6-2.2,1.4c-0.4,0.8-0.3,1.8,0.3,2.4l1.2,0.7l1,0.1h0.5c0.8-0.1,1.5-0.5,1.9-1.2l0.2-1
			l-0.1-0.7L275.5,527.2z M284.9,505.4c0-0.8-0.4-1.5-1-2c-0.1-0.1-0.2-0.2-0.3-0.2l-1.1-0.3h-0.8l-1,0.4c-0.6,0.4-1,1-1.2,1.6
			l-0.9-0.5l-0.9-0.1h-0.5c-0.5,0-0.9,0.2-1.3,0.4l-0.7,1l-0.1,0.8v0.4c0,0.4,0.2,0.8,0.5,1.2l1.2,0.7l0.9,0.1h0.4
			c0.4,0,0.9-0.2,1.3-0.4l0.8-1.1v-0.2c0.1,0.1,0.2,0.2,0.3,0.3c0.1,0.1,0.2,0.2,0.4,0.3l1,0.3h0.8l1-0.4
			C284.4,507.1,284.9,506.3,284.9,505.4L284.9,505.4z M285.1,485.6l0.8,0.7l1.2,0.4h0.9l1.2-0.4c1.1-0.9,1.3-2.5,0.4-3.5
			c-0.1-0.1-0.2-0.3-0.4-0.4c-0.6-0.5-1.5-0.7-2.3-0.6c-0.9,0.1-1.6,0.6-2.1,1.3l-0.2,1l0.1,0.7L285.1,485.6z M284.4,493l0.6-0.1
			l0.4-0.1l0.5-0.2c0.9-0.6,1.4-1.6,1.2-2.7l0.1-0.7l-0.3-1c-0.7-1-1.9-1.4-3.1-1.1h-0.5l-1.2,0.4c-1.3,1.1-1.4,3-0.4,4.3
			c0.1,0.1,0.3,0.3,0.4,0.4C282.9,492.7,283.6,493,284.4,493L284.4,493z M290.3,518.8c0.1,0.1,0.2,0.2,0.3,0.3
			c-0.6-1-1.7-1.5-2.9-1.5l-0.7,0.1l-0.5,0.2l-0.6,0.4c-0.3,0.3-0.6,0.7-0.7,1.2c-0.3,1.4,0.6,2.7,1.9,3c1.4,0.6,3,0.1,3.8-1.1
			l0.1-1.2l-0.3-0.8L290.3,518.8z M286.5,515.4l0.6,0l0.8-0.1l0.2-0.1c1.9-0.6,2.8-1.6,2.7-3.1l-0.1-0.4l-0.1-0.3l-0.2-0.3
			c-0.2-0.3-0.4-0.5-0.6-0.7c-0.5-0.4-1.1-0.6-1.8-0.7l-1.1-0.1l-1.4,0.5c-0.8,0.6-1.3,1.6-1.4,2.7c0.1,0.8,0.4,1.5,1,1.9
			c0.1,0.1,0.3,0.2,0.5,0.3L286.5,515.4z M312.4,549.4c-0.9-0.8-2-1.2-3.2-1c-0.2,0-0.4,0.1-0.6,0.2c-0.1-0.4-0.4-0.8-0.8-1.1
			l-0.1-0.1l-0.2-0.1l-1.2-0.3l-0.8,0.1l-1,0.5c-1,0.8-1.2,2.2-0.5,3.3l1.2,0.8l1,0.2h0.5l0.3-0.1l0.3,0.6c0.1,0.1,0.3,0.2,0.4,0.4
			c0.7,0.6,1.6,0.9,2.5,0.8c0.8,0.4,1.8,0.3,2.6-0.2l0.7-0.8l0.2-0.7l-0.1-1C313.2,550.2,312.8,549.8,312.4,549.4L312.4,549.4z
			 M250.8,530.9c0.1,0,0.2-0.1,0.3-0.1C251.1,530.8,250.9,530.8,250.8,530.9L250.8,530.9z M301.2,517.2l-1-0.2l-1.5,0.3
			c-1.2,0.7-1.7,2.3-1,3.5c0.1,0.2,0.2,0.3,0.4,0.5l1.3,0.6h1l1.3-0.6c0.8-0.8,1.1-2,0.7-3.1L301.2,517.2z M235.9,468.9
			c0.4-0.3,0.6-0.8,0.5-1.3c0-0.5-0.3-1-0.8-1.4l-0.6,0.6c0.1,0.1-0.5,0.6-0.5,0.6c-0.1-0.1-0.2-0.1-0.3-0.2l-0.4,0.4
			c-0.1,0.1,0,0.3,0.1,0.4l-1.1,1.1C233.8,469.8,235,469.7,235.9,468.9L235.9,468.9z M314.3,471.1c-0.1-0.1-0.3-0.2-0.4-0.3
			l-1.1-0.3H312l-1,0.4c-0.8,0.5-1.2,1.4-1.3,2.3c0,0.8,0.4,1.5,1,2c0.1,0.1,0.2,0.2,0.4,0.3l1.1,0.3h0.4c0-0.1,0.4,0,0.4,0l1.3-0.4
			c0.7-0.5,1.1-1.2,1.1-2C315.4,472.4,315,471.6,314.3,471.1L314.3,471.1z M291.7,432.2l-0.4-0.2c-1.3-0.8-3-1-4.5-0.4l-0.4,0.3
			l-0.3,0.2l-0.3,0.4c-0.3,0.4-0.4,1-0.3,1.5l-0.1,0.8l0.5,1.3l1.2,1l1.4,0.4l0.9-0.1l1.2-0.7c0.1-0.1,0.1-0.1,0.4-0.3
			c0.4-0.2,0.8-0.5,1.2-0.9l0.4-1.3l-0.2-0.9L291.7,432.2z M228.7,467.4l0.6-0.6c1.2,1.2,3,1.2,4.3,0.2l0.4-0.5l0.2-0.4l0.1-0.6
			c0-0.8-0.4-1.5-1-2c-0.1-0.1-0.1-0.1-0.2-0.1c0.4,0,0.9,0,1.3-0.1c0.1,0.5,0.3,0.9,0.6,1.3c0.6,0.7,1.5,1.1,2.5,1.1l0.9-0.2
			l0.6-0.3l0.6-0.6c0.1-0.1,0.1-0.2,0.2-0.4c1-0.9,1.1-2.4,0.3-3.4c-0.1-0.1-0.1-0.2-0.2-0.2l-1-0.5h-0.2c0-0.1,0-0.8,0-0.8l-0.4-1
			c-0.1-0.1-0.3-0.3-0.4-0.4c-0.1-0.1-0.3-0.2-0.4-0.3c0.2-0.1,0.3-0.2,0.4-0.3l0.9,0.4h1l0.9-0.3c-0.1,0.1-0.2,0.1-0.3,0.1
			c0.9-0.2,1.6-0.8,1.9-1.6c0.3-0.7,0.2-1.5-0.3-2.1l-1-0.7l-0.6-0.1c-0.3-0.2-0.6-0.4-0.9-0.6l-0.9-0.1l-0.1-0.7l-0.5-0.9
			c-0.5-0.4-1.1-0.7-1.7-0.8c0-0.3,0-0.6,0-0.8c-0.2-1-0.9-1.8-1.8-2c0-0.2,0-0.4,0-0.6l-0.1-0.2c0.3,0,0.5,0,0.8,0
			c1-0.2,1.9-0.9,2.2-1.9c0.3-1.1-0.2-2.2-1.2-2.7c-0.4-0.2-0.9-0.3-1.4-0.3c0.1-0.1,0.2-0.2,0.3-0.3c-1,0.6-1.9,1.2-2.7,2
			c0,0.1-0.1,0.1-0.1,0.2c-1.6,1.3-2.8,3-3.7,4.8l0.6,0.5c-0.1,0-0.2-0.1-0.3-0.2c0.4,0.4,0.9,0.8,1.4,1l0.6,0c0,0.2,0,0.4,0.1,0.7
			c-0.3,0.1-0.6,0.2-0.8,0.4l-0.6,1l-0.1,0.8l0.3,0.9l-0.2-0.2c0-0.1-0.1-0.2-0.1-0.3c0,0.1,0,0.2,0.1,0.3l-0.6-0.6
			c-0.6-0.2-1.1-0.2-1.7-0.1c-0.2,0.9-0.2,1.8-0.2,2.7v2.9l0.2-0.6c1.3,0.1,2.4-0.7,2.9-1.8l0.1-0.2v-0.7l0.6,1.4
			c1,1,2.5,1.2,3.7,0.5l0.2-0.3l0.4,0.3l0.5,0.2c0.1,0-0.4,0.5-0.4,0.5c-0.6,0.1-1.1,0.3-1.6,0.7l-0.4,0.8c-0.1,0-0.2,0-0.3,0
			c-1,0.1-1.9,0.9-2.2,1.9c-0.1,0.3-0.1,0.6-0.1,0.8l0.3,0.8l-0.3-0.2l-0.4-0.3v-0.2l-0.4-0.3l-2.1-0.1l-0.2,0.2l-0.6,0.1v6.2
			c0.5,0,1,0,1.5-0.1L228.7,467.4z M273.6,489.7c-1.2,0.8-1.5,2.5-0.7,3.7c0.1,0.1,0.1,0.2,0.2,0.3l0.7,0.4l0.6,0.2l0.8,0.1
			c1.1-0.1,2-0.7,2.5-1.6c-0.2,0.2-0.4,0.3-0.6,0.3l1.2-1l0.3-0.9l-0.4-1.5l-0.1-0.1C276.8,488.5,274.8,488.6,273.6,489.7
			L273.6,489.7z M244.7,476.4l0.3,0.1c1.4,0.7,3,0.2,3.8-1.2l0.2-0.8l-0.1-0.6l-0.3-0.8c-0.1-0.2-0.3-0.3-0.5-0.5
			c-1.2-1-3-1.1-4.3-0.2c-1,0.8-1.2,2.2-0.4,3.2c0,0.1,0.1,0.1,0.1,0.2L244.7,476.4z M246.6,504.8l1.1-0.5l0.8-0.8l0.4-1.1v-0.8
			l-0.5-1.1l-0.2-0.1c-0.7-0.6-1.5-0.9-2.4-0.9l-0.6,0.1l-0.4,0.1l-0.5,0.3c-0.7,0.5-1.1,1.2-1.1,2c0,0.8,0.4,1.6,1.1,2.1
			c0.1,0.1,0.2,0.2,0.4,0.3l1.2,0.3L246.6,504.8z M256.1,538l0.3-0.1c-0.1,0.1-0.2,0.1-0.3,0.2c0.8-0.2,1.4-0.9,1.4-1.8l-0.2-0.6
			l-0.1-1.1c-1-0.8-2.4-0.9-3.5-0.3c0.5-0.9,0.4-2.1-0.4-2.9l-1.1-0.5l-0.8-0.1l-1.1,0.2c0.1-0.1,0.2-0.1,0.4-0.1
			c-1,0.1-2,0.6-2.5,1.5l-0.2,0.9l0.1,0.7l0.5,0.9l0.1,0.1c0.7,0.6,1.5,0.9,2.4,0.9l0.6-0.1l0.4-0.1l0.4-0.2c-0.5,1-0.2,2.3,0.7,3
			l2.4-0.1L256.1,538z M270.6,456.5l1.2,0.3l0.8-0.1l1.1-0.5c0.5-0.6,1-1.2,1.3-1.9c0.2-0.4,0.4-0.7,0.7-1c0,0-0.1,0.1-0.2,0.1
			l1.2-1.4l0-1.1l-1.1-1.5c-0.7-0.2-1.4-0.2-2.1-0.1c0.3-0.1,0.6,0,0.9,0h-1.1l-0.7,0.2l-0.8,0.5c-0.1,0.1,0,0,0.2-0.1l-0.8,0.6
			l-0.4,0.5l-0.3,0.9c0-0.1,0-0.1,0-0.2c0,0.1-0.3,0.3-0.3,0.4c-0.4,0.4-0.7,0.9-0.9,1.5C269.2,454.9,269.6,456,270.6,456.5
			L270.6,456.5z M230.7,471.8c-1,0.8-1.2,2.2-0.4,3.2c0.1,0.2,0.2,0.3,0.4,0.4c0.2,0.1,0.4,0.3,0.6,0.4l1.1,0.2l0.8-0.1l1-0.5
			l0.2-0.2c0,0.1-0.1,0.1-0.1,0.2v1.1l0.3,0.8l0.8,0.8c-0.1,0-0.2-0.1-0.2-0.1c0.6,0.5,1.4,0.8,2.1,0.8l1.1-0.3l0.6-0.4l0.6-0.9
			l0.1-0.5c0.2-0.7,0-1.5-0.5-2c-0.5-0.5-1.2-0.8-1.9-0.8l-0.6,0.2c-0.8-0.1-1.6,0.3-2.2,0.9l0.4-0.9v-0.8v-0.2
			c0-0.4-0.2-0.8-0.4-1.1l-1.5-0.7l-1.1,0L230.7,471.8z M273.1,553.7l-0.4,0.2C272.8,553.8,273.1,553.6,273.1,553.7l-0.3-0.3
			c0-0.1,0-0.1,0-0.2c-0.1-0.7-0.4-1.3-0.9-1.7l-2.4,0.1l-0.2,0.2l-0.4,0.1l-0.4,0.4l-0.4,0.7c-0.1,0.3-0.1,0.6,0,0.9h0.7
			c1.5,0,3.1,0.2,4.6,0.5C273.4,554.1,273.3,553.9,273.1,553.7L273.1,553.7z M274.5,467l0-0.8l-0.5-1c-0.1-0.1-0.3-0.3-0.4-0.4
			c-0.8-0.8-2-1.2-3.1-1.1c-0.6,0.1-1.1,0.3-1.5,0.7l-0.2-0.1l-1.1,0.2l-1.2,1.1l-0.2,0.7l0.2,1.1l0.4,0.7l1,0.7
			c2.1-0.1,4.3-0.4,6.3-1L274.5,467z M228.9,533.1c0.3-0.9,0-1.9-0.8-2.5c-0.4-0.3-0.8-0.5-1.2-0.7v4.8
			C227.8,534.5,228.6,533.9,228.9,533.1L228.9,533.1z M227,475.1v3.6c0.5-0.4,0.8-1.1,0.8-1.7C227.7,476.2,227.4,475.6,227,475.1
			L227,475.1z M228.2,540.5c0.2-0.1,0.3-0.2,0.5-0.3l0.4-1.5l-0.2-0.7l-0.1-0.2l-0.3-0.5l-1.1-0.8l-0.4-0.1v4.9
			c0.4-0.1,0.8-0.3,1.1-0.5L228.2,540.5z M229.4,521.5l0.3-1l-0.1-0.7l-0.5-0.9l-0.4-0.3l-0.7-0.3l-0.5-0.1H227v4.7h0.5
			C228.2,522.6,228.9,522.2,229.4,521.5L229.4,521.5z M232.4,527l1,0.4h0.8l1.1-0.3c1.2-0.7,1.6-2.2,0.9-3.4
			c-0.1-0.2-0.2-0.3-0.3-0.4l-0.1-0.2l-1-0.6l-0.8-0.2l-1.2,0.1c-0.8,0.3-1.5,1-1.7,1.9c-0.1,0.9,0.2,1.7,0.9,2.3
			C232.1,526.7,232.3,526.9,232.4,527L232.4,527z M228.4,481.3c0.1-0.8-0.3-1.6-0.9-2.1c-0.2-0.1-0.3-0.2-0.5-0.3v4.2
			c0,0,0.1,0,0.2-0.1C227.8,482.8,228.3,482.1,228.4,481.3L228.4,481.3z M244,564.4l-0.1-0.1l-1.1-0.4h-0.8l-1.1,0.3
			c-0.7,0.4-1.1,1.2-1.2,2c0,0.8,0.3,1.5,0.9,2l0.2,0.2l0.2,0.1c1-1.4,2.1-2.7,3.2-4L244,564.4z M265.5,424.9
			c-0.2-0.1-0.4-0.3-0.6-0.3c0.4,0.4,0.9,0.8,1.3,1.2C266,425.5,265.8,425.2,265.5,424.9L265.5,424.9z M264.1,443l1.2-0.2l0.8-0.4
			l0.2-0.3c0.5,0.2,1.1,0.2,1.6,0c0.7-0.2,1.3-0.8,1.6-1.5v-1l-0.1-0.3h-7.6c-0.3,0.9-0.1,1.8,0.4,2.6
			C262.6,442.5,263.3,442.9,264.1,443L264.1,443z M229.3,567.1l-1.2-0.6l-0.9-0.1H227v4.5h0.3h0.4c0.5,0,0.9-0.2,1.3-0.4l0.7-1
			l0.1-0.8v-0.4C229.7,567.8,229.6,567.4,229.3,567.1L229.3,567.1z M229.4,516.1c0.6,0.5,1.3,0.7,2.1,0.6h0.2h0.2l0.2-0.1
			c0.9-0.2,1.6-0.9,1.8-1.8c0.2-0.9-0.2-1.9-1-2.5c-0.7-0.6-1.5-0.8-2.4-0.8c-0.7,0.1-1.4,0.5-1.8,1.1l-0.2,0.8v0.6l0.3,0.8
			c-0.1-0.2-0.2-0.4-0.2-0.6C228.6,515.1,228.9,515.7,229.4,516.1L229.4,516.1z M237.4,534.1l-0.5-1.1l-0.6-0.5l-1.3-0.4h-0.3
			c0,0,0.1-0.5,0.1-0.5V531c-0.1-0.6-0.4-1.1-0.8-1.5l-0.9-0.4l-0.8-0.2l-1.1,0.1c-0.2,0.1-0.3,0.2-0.5,0.3
			c-0.2,0.1-0.5,0.3-0.7,0.4c-0.8,0.8-0.9,2.1-0.1,2.9c0.1,0.1,0.1,0.1,0.2,0.2c0.6,0.5,1.3,0.8,2.1,0.8c-0.4,0.8-0.3,1.8,0.4,2.4
			l0.2,0.1c0.1,0.1,0.2,0.3,0.4,0.4l1.2,0.4h0.9l1.2-0.5l0.6-0.5l0.4-1.1L237.4,534.1z M235.4,560.2l-1.3,0.4l0.7-0.9l-1-0.6
			l-0.7-0.2c-1.2-0.2-2.4,0.3-3,1.4l-0.1,0.3l-0.1,0.3l0,0.4c0,0.8,0.4,1.6,1.1,2.1c0.4,0.3,0.8,0.6,1.2,0.8l0.2,0.1l1.1,0.2
			l0.8-0.1l1-0.4c1-0.9,1.2-2.4,0.3-3.4C235.5,560.3,235.5,560.3,235.4,560.2L235.4,560.2z M244.4,467.4l0.6-0.5l0.3-0.8
			c0.1,0.3,0.2,0.7,0.5,0.9l1.2,0.6h0.4c0.3,0,0.6,0,0.9,0l1.4-0.5c1-0.8,1.1-2.1,0.4-3.1c-0.1-0.1-0.2-0.2-0.2-0.3
			c-0.2-0.2-0.4-0.3-0.6-0.4l-1.2-0.2l-0.8,0.1l-1.1,0.5c-0.3,0.3-0.6,0.7-0.8,1.1l-0.5-1c-1-0.9-2.3-1.1-3.5-0.8l-0.9,0.6l-0.5,0.6
			l-0.3,1c0,0.6,0.3,1.2,0.8,1.7c0.3,0.3,0.8,0.5,1.2,0.6c-0.2-0.1-0.4-0.2-0.6-0.3l1.2,0.5h0.9L244.4,467.4z M267.3,484.1l0.3,0.8
			l0.2,0.3c0.3,0.4,0.6,0.6,1,0.8l1.4,0.1l0.9-0.3l0.4-0.2c0.4-0.2,0.6-0.5,0.9-0.9l0.1-1.2l-0.3-0.8l-0.2-0.4
			c-0.2-0.3-0.6-0.6-0.9-0.8l-1.4-0.1l-0.9,0.3l-0.4,0.2l-0.2,0.1l-0.1-1l-0.6-1.1c-0.7-0.6-1.6-0.9-2.5-0.8
			c-0.8,0.1-1.5,0.6-1.9,1.2l-0.2,1l0.1,0.7l0.5,0.9l0.4,0.3l1.1,0.4h0.8h0.2c0.4,0,0.9-0.2,1.3-0.4L267.3,484.1z M250.2,486.6
			l-0.9-0.1h-0.4c-0.5,0-0.9,0.2-1.3,0.4l-0.7,1l-0.1,0.8v0.4c0,0.4,0.2,0.8,0.4,1.1l1.2,0.7l0.9,0.1h0.4c0.4,0,0.9-0.2,1.3-0.4
			l0.5-0.8l0.8,0.6c-0.1,0-0.2-0.1-0.3-0.2l0.1,0.1c0.4,0.5,0.9,0.8,1.4,1.1h1.5l0.9-0.4l0.9-1c-0.1,0.2-0.2,0.4-0.4,0.6
			c1.2-0.6,1.9-1.7,1.9-3l-0.2-0.7l-0.2-0.4l-0.5-0.5c-0.6-0.4-1.3-0.7-2.1-0.8c0.3,0.1,0.5,0.3,0.7,0.5l-1.4-0.9l-1.1-0.1l-1.5,0.7
			c-0.1,0.1-0.2,0.2-0.3,0.3c-0.3,0.4-0.6,0.8-0.8,1.2L250.2,486.6z M242.2,462.5l1.3,0.5h0.9l1.3-0.6c0.7-0.3,1.3-1,1.4-1.8
			c0-0.9-0.3-1.7-1-2.2l-1.2-0.4H244l-1.2,0.4C240.4,460.5,241.8,462.1,242.2,462.5L242.2,462.5z M249.6,451.2
			c0.8-0.1,1.5-0.6,1.9-1.2l0.2-1l-0.1-0.7l-0.5-0.9c-1-0.9-2.4-1-3.6-0.5l-0.9,1.3v1l0.6,1.2C247.8,451.1,248.7,451.4,249.6,451.2
			L249.6,451.2z M257.8,499.3c-0.2,1,0.1,1.9,0.8,2.7l1,0.7l0.8,0.2l1.3-0.2c0.7-0.3,1.1-0.9,1.3-1.7c0.1-0.4,0.1-0.7,0.1-1.1
			c0,0.1,0,0.2,0,0.2l-0.2-1.1l-0.5-0.7l-1-0.7C260,497.1,258.4,497.8,257.8,499.3C257.8,499.3,257.8,499.3,257.8,499.3L257.8,499.3
			z M253.8,459c1.1,1,2.8,1.1,4,0.2l0.6-1c0.1,0,0.6,0,0.6,0c0.5,0,0.9-0.2,1.3-0.4l0.7-1.1l0.1-0.9v-0.5c-0.1-0.6-0.4-1.1-0.9-1.4
			l-0.1-0.1l-0.2-0.1l-1.2-0.3l-0.8,0.1l-1,0.4c-0.3,0.3-0.6,0.7-0.8,1.2c-0.9-0.2-1.7,0-2.4,0.6l-0.6,1l-0.1,0.8l0.4,1.1
			C253.6,458.8,253.7,458.9,253.8,459L253.8,459z M229.1,509.6c0.6,0.2,1.2,0.2,1.8,0c-0.1,0.7,0.1,1.3,0.5,1.8l1.4,0.6
			c1,0.6,2.3,0.6,3.2,0l0.5-0.5l0.2-0.4l0.2-0.7c0-0.9-0.5-1.8-1.2-2.4c-0.1-0.1-0.3-0.3-0.5-0.4l-1.1-0.4l-0.8,0l-0.9,0.3l-0.1-0.8
			c-0.1-0.6-0.5-1.2-0.9-1.6c-0.2-0.2-0.5-0.4-0.8-0.5l-0.3,0l-0.1-0.2c-0.2-0.3-0.5-0.6-0.8-0.9c-0.6-0.5-1.4-0.7-2.2-0.6
			c-0.2,0-0.3,0.1-0.5,0.2v8.2c0.7-0.1,1.4-0.4,1.9-1L229.1,509.6z M242.2,558.7c0.9-0.8,1.1-2.1,0.3-3.1c0,0-0.1-0.1-0.1-0.1
			l-1.1-0.6l-0.1-0.1l-1.1-0.2l-1.7,0.4l-0.6,0.5l-0.4,0.8l-0.1,0.6l0.1,0.9c0.2,0.3,0.4,0.6,0.6,0.8
			C239.3,559.5,241,559.6,242.2,558.7L242.2,558.7z M235.2,496.6l1.6-0.2l0.6-0.4c1.1-0.2,2-1,2.3-2c0.1-0.2,0.1-0.5,0.1-0.8
			l-0.1-0.4l-0.1-0.3l-0.2-0.4c-0.3-0.5-0.8-1-1.3-1.3l0.4-0.6l0.1-0.8V489c0-0.4-0.2-0.8-0.5-1.2l-1.2-0.7l-0.9-0.1h-0.4
			c-0.5,0-0.9,0.2-1.3,0.4l-0.7,1l-0.1,0.8v0.4c0.1,0.3,0.2,0.6,0.3,0.8c-0.1,0-0.6,0.5-0.6,0.5c-0.3,0.4-0.6,0.9-0.7,1.4
			c-0.5,1.8,0.6,3.7,2.5,4.1C235.1,496.6,235.1,496.6,235.2,496.6L235.2,496.6z M240.3,547.9l-1.1,0.2l-0.7,0.4l-0.8,0.9l-0.1,0.2
			c-0.3,1.2,0.2,2.4,1.2,3.1l1.5,0.4l1-0.2l1.2-1c0.1-0.1,0.1-0.3,0.1-0.4c0.3-0.8,0.1-1.7-0.4-2.3
			C241.9,548.4,241.1,548,240.3,547.9L240.3,547.9z M235.8,501.9l0.3,0.1l1.2-0.2l0.7-0.4l0.8-0.8c0.3-0.7,0.3-1.6-0.2-2.3
			c-0.5-0.7-1.2-1.2-2-1.3h-0.2l-1.2,0.2l-0.7,0.4l-0.8,0.8c-0.3,0.7-0.2,1.6,0.2,2.3C234.3,501.4,235.1,501.8,235.8,501.9
			L235.8,501.9z M242.2,519.9l-1.5-0.5c-0.1,0-0.3-0.1-0.4-0.1l-1,0.1l-1.3,0.7l-0.1,0.1c-0.4,0.4-0.7,0.9-0.9,1.4
			c-0.3,1.3,0.4,2.5,1.7,2.9l1.8-0.3l0.6-0.5c0.9-0.2,1.6-0.8,1.9-1.7C243.1,521.3,242.8,520.5,242.2,519.9L242.2,519.9z"/>
		<path id="Path_2746_1_" class="st1" d="M217.5,320.4l0.8,0.1h0.5l0.8-0.2c0.8-0.4,1.4-1.1,1.6-2c0.3-1,0-2.1-0.7-2.8
			c-0.7-0.8-1.8-1.1-2.8-1l-1,0.4l-0.6,0.5l-0.5,0.9C215.1,318,215.9,319.7,217.5,320.4z M213.7,333.8c0.9-0.1,1.8-0.6,2.4-1.3
			l0.4-1l0-0.8l-0.5-1c-1.3-1.1-3.2-1.2-4.5-0.1l-0.1,0.1l-0.8,1.2v0.9l0.6,1.2C211.9,333.6,212.8,333.9,213.7,333.8L213.7,333.8z
			 M221.2,342.7l-0.3-0.8c-0.1-0.2-0.3-0.4-0.5-0.5c-0.7-0.6-1.6-0.8-2.4-0.6c-0.1-0.1-0.3-0.3-0.4-0.4c-1.2-1.1-3-1.1-4.2,0.1
			c-0.5,0.5-0.8,1.2-0.8,1.9v0.6l0.1,0.4l0.3,0.6c0.2,0.2,0.4,0.5,0.7,0.7c2.5-0.9,5.1-1.4,7.7-1.5
			C221.3,343,221.2,342.9,221.2,342.7L221.2,342.7z M206.3,339.1l-0.4-0.3l-0.7-0.3l-0.5-0.1l-0.8,0c-0.9,0.1-1.8,0.6-2.2,1.4
			c-0.4,0.8-0.3,1.8,0.3,2.5l1.2,0.7l1,0.1h0.5c0.8-0.1,1.5-0.5,1.9-1.2l0.2-1l-0.1-0.7L206.3,339.1z M208.8,331.6
			c0,0-0.1-0.1-0.1-0.1c-0.3-0.4-0.8-0.5-1.2-0.2c-0.1,0.1-0.2,0.2-0.3,0.4l0.3,0.8c-0.1,0-0.1-0.1-0.1-0.2l0.4,0.8
			c0.6,0.2,1.2,0,1.6-0.5l-0.7-0.9C208.7,331.6,208.8,331.6,208.8,331.6L208.8,331.6z M225,314.8l0.7,0.2c1.2,0.1,2.3-0.5,2.9-1.5
			c0.1-0.2,0.2-0.4,0.2-0.6c0.1,0,0.3,0,0.4,0.1l0.6-0.1l0.4-0.2l0.5-0.3c1.2-0.9,1.3-2.6,0.4-3.8c-0.1-0.1-0.2-0.2-0.3-0.3
			l-0.1-0.1l-1.4-0.7h-1l-1.4,0.6c-0.4,0.5-0.7,1.2-0.7,1.9h-0.5l-1,0.3c-1.3,0.6-1.8,2.2-1.2,3.5c0.1,0.2,0.2,0.3,0.3,0.5l0.6,0.4
			L225,314.8z M213.7,301.5l0.1,0.6l0.2,0.6l0.4,0.6c1,0.9,2.5,0.9,3.6,0.1c1-0.7,1.3-2.1,0.6-3.2c-0.1-0.1-0.1-0.2-0.2-0.3l-1-0.6
			l0.4-0.2l0.4-0.4l0.4-1v-0.8v-0.2c0-0.4-0.2-0.8-0.5-1.2l-1.5-0.7l-1.1,0.1l-1.2,0.5c-1,0.8-1.1,2.2-0.4,3.2
			c0.1,0.1,0.2,0.2,0.4,0.4c0.2,0.1,0.3,0.3,0.5,0.4C214.2,300,213.8,300.7,213.7,301.5L213.7,301.5z M231.9,316.5l-0.4-0.3
			l-0.7-0.3l-0.5-0.1l-0.8,0c-0.9,0.1-1.8,0.6-2.2,1.4c-0.4,0.8-0.3,1.8,0.3,2.4l1.2,0.7l1,0.1h0.5c0.8-0.1,1.5-0.5,1.9-1.2l0.2-1
			l-0.1-0.7L231.9,316.5z M241.3,294.6c0-0.8-0.4-1.5-1-2c-0.1-0.1-0.2-0.2-0.3-0.2l-1.1-0.3h-0.8l-1,0.4c-0.6,0.4-1,1-1.2,1.6
			l-0.9-0.5l-0.9-0.1h-0.5c-0.5,0-0.9,0.2-1.3,0.4l-0.7,1l-0.1,0.8v0.4c0,0.4,0.2,0.8,0.5,1.2l1.2,0.7l0.9,0.1h0.4
			c0.4,0,0.9-0.2,1.3-0.4l0.8-1.1v-0.2c0.1,0.1,0.2,0.2,0.3,0.3c0.1,0.1,0.2,0.2,0.4,0.3l1,0.3h0.8l1-0.4
			C240.8,296.4,241.3,295.5,241.3,294.6L241.3,294.6z M241.5,274.9l0.8,0.7l1.2,0.4h0.9l1.2-0.4c1.1-0.9,1.3-2.5,0.4-3.5
			c-0.1-0.1-0.2-0.3-0.4-0.4c-0.6-0.5-1.5-0.7-2.3-0.6c-0.9,0.1-1.6,0.6-2.1,1.3l-0.2,1l0.1,0.7L241.5,274.9z M240.8,282.3l0.6-0.1
			l0.4-0.1l0.5-0.2c0.9-0.6,1.4-1.6,1.2-2.7l0.1-0.7l-0.3-1c-0.7-1-1.9-1.4-3.1-1.1h-0.5l-1.2,0.4c-1.3,1.1-1.4,3-0.4,4.3
			c0.1,0.1,0.3,0.3,0.4,0.4C239.3,282,240,282.2,240.8,282.3L240.8,282.3z M246.7,308c0.1,0.1,0.2,0.2,0.3,0.3
			c-0.6-1-1.7-1.5-2.9-1.5l-0.7,0.1l-0.5,0.2l-0.6,0.4c-0.3,0.3-0.6,0.7-0.7,1.2c-0.3,1.4,0.6,2.7,1.9,3c1.4,0.6,3,0.1,3.8-1.1
			l0.1-1.2l-0.3-0.8L246.7,308z M242.9,304.6l0.6,0l0.8-0.1l0.2-0.1c1.9-0.6,2.8-1.6,2.7-3.1l-0.1-0.4l-0.1-0.3l-0.2-0.3
			c-0.2-0.3-0.4-0.5-0.6-0.7c-0.5-0.4-1.1-0.6-1.8-0.7l-1.1-0.1l-1.4,0.5c-0.8,0.6-1.3,1.6-1.4,2.7c0.1,0.8,0.4,1.5,1,1.9
			c0.1,0.1,0.3,0.2,0.5,0.3L242.9,304.6z M268.8,338.7c-0.9-0.8-2-1.2-3.2-1c-0.2,0-0.4,0.1-0.6,0.2c-0.1-0.4-0.4-0.8-0.8-1.1
			l-0.1-0.1l-0.2-0.1l-1.2-0.3l-0.8,0.1l-1,0.5c-1,0.8-1.2,2.2-0.5,3.3l1.2,0.8l1,0.2h0.5l0.3-0.1l0.3,0.6c0.1,0.1,0.3,0.2,0.4,0.4
			c0.7,0.6,1.6,0.9,2.5,0.8c0.8,0.4,1.8,0.3,2.6-0.2l0.7-0.8l0.2-0.7l-0.1-1C269.6,339.5,269.2,339,268.8,338.7L268.8,338.7z
			 M207.2,320.1c0.1,0,0.2-0.1,0.3-0.1C207.5,320,207.3,320.1,207.2,320.1L207.2,320.1z M257.6,306.5l-1-0.2l-1.5,0.3
			c-1.2,0.7-1.7,2.3-1,3.5c0.1,0.2,0.2,0.3,0.4,0.5l1.3,0.6h1l1.3-0.6c0.8-0.8,1.1-2,0.7-3.1L257.6,306.5z M192.3,258.1
			c0.4-0.3,0.6-0.8,0.5-1.3c0-0.5-0.3-1-0.8-1.4l-0.6,0.6c0.1,0.1-0.5,0.6-0.5,0.6c-0.1-0.1-0.2-0.1-0.3-0.2l-0.4,0.4
			c-0.1,0.1,0,0.3,0.1,0.4l-1.1,1.1C190.2,259,191.4,259,192.3,258.1L192.3,258.1z M270.7,260.4c-0.1-0.1-0.3-0.2-0.4-0.3l-1.1-0.3
			h-0.8l-1,0.4c-0.8,0.5-1.2,1.4-1.3,2.3c0,0.8,0.4,1.5,1,2c0.1,0.1,0.2,0.2,0.4,0.3l1.1,0.3h0.4c0-0.1,0.4,0,0.4,0l1.3-0.4
			c0.7-0.5,1.1-1.2,1.1-2C271.8,261.7,271.4,260.9,270.7,260.4L270.7,260.4z M248.1,221.4l-0.4-0.2c-1.3-0.8-3-1-4.5-0.4l-0.4,0.3
			l-0.3,0.2l-0.3,0.4c-0.3,0.4-0.4,1-0.3,1.5l-0.1,0.8l0.5,1.3l1.2,1l1.4,0.4l0.9-0.1l1.2-0.7c0.1-0.1,0.1-0.1,0.4-0.3
			c0.4-0.2,0.8-0.5,1.2-0.9l0.4-1.3l-0.2-0.9L248.1,221.4z M185.1,256.7l0.6-0.6c1.2,1.2,3,1.2,4.3,0.2l0.4-0.5l0.2-0.4l0.1-0.6
			c0-0.8-0.4-1.5-1-2c-0.1-0.1-0.1-0.1-0.2-0.1c0.4,0,0.9,0,1.3-0.1c0.1,0.5,0.3,0.9,0.6,1.3c0.6,0.7,1.5,1.1,2.5,1.1l0.9-0.2
			l0.6-0.3l0.6-0.6c0.1-0.1,0.1-0.2,0.2-0.4c1-0.9,1.1-2.4,0.3-3.4c-0.1-0.1-0.1-0.2-0.2-0.2l-1-0.5h-0.2c0-0.1,0-0.8,0-0.8l-0.4-1
			c-0.1-0.1-0.3-0.3-0.4-0.4c-0.1-0.1-0.3-0.2-0.4-0.3c0.2-0.1,0.3-0.2,0.4-0.3l0.9,0.4h1l0.9-0.3c-0.1,0.1-0.2,0.1-0.3,0.1
			c0.9-0.2,1.6-0.8,1.9-1.6c0.3-0.7,0.2-1.5-0.3-2.1l-1-0.7l-0.6-0.1c-0.3-0.2-0.6-0.4-0.9-0.6l-0.9-0.1l-0.1-0.7l-0.5-0.9
			c-0.5-0.4-1.1-0.7-1.7-0.8c0-0.3,0-0.6,0-0.8c-0.2-1-0.9-1.8-1.8-2c0-0.2,0-0.4,0-0.6l-0.1-0.2c0.3,0,0.5,0,0.8,0
			c1-0.2,1.9-0.9,2.2-1.9c0.3-1.1-0.2-2.2-1.2-2.7c-0.4-0.2-0.9-0.3-1.4-0.3c0.1-0.1,0.2-0.2,0.3-0.3c-1,0.6-1.9,1.2-2.7,2
			c0,0.1-0.1,0.1-0.1,0.2c-1.6,1.3-2.8,3-3.7,4.8l0.6,0.5c-0.1,0-0.2-0.1-0.3-0.2c0.4,0.4,0.9,0.8,1.4,1l0.6,0c0,0.2,0,0.4,0.1,0.7
			c-0.3,0.1-0.6,0.2-0.8,0.4l-0.6,1l-0.1,0.8l0.3,0.9l-0.2-0.2c0-0.1-0.1-0.2-0.1-0.3c0,0.1,0,0.2,0.1,0.3l-0.6-0.6
			c-0.6-0.2-1.1-0.2-1.7-0.1c-0.2,0.9-0.2,1.8-0.2,2.7v2.9l0.2-0.6c1.3,0.1,2.4-0.7,2.9-1.8l0.1-0.2V244l0.6,1.4
			c1,1,2.5,1.2,3.7,0.5l0.2-0.3l0.4,0.3l0.5,0.2c0.1,0-0.4,0.5-0.4,0.5c-0.6,0.1-1.1,0.3-1.6,0.7l-0.4,0.8c-0.1,0-0.2,0-0.3,0
			c-1,0.1-1.9,0.9-2.2,1.9c-0.1,0.3-0.1,0.6-0.1,0.8l0.3,0.8l-0.3-0.2l-0.4-0.3v-0.2l-0.4-0.3l-2.1-0.1l-0.2,0.2l-0.6,0.1v6.2
			c0.5,0,1,0,1.5-0.1L185.1,256.7z M230,279c-1.2,0.8-1.5,2.5-0.7,3.7c0.1,0.1,0.1,0.2,0.2,0.3l0.7,0.4l0.6,0.2l0.8,0.1
			c1.1-0.1,2-0.7,2.5-1.6c-0.2,0.2-0.4,0.3-0.6,0.3l1.2-1l0.3-0.9l-0.4-1.5l-0.1-0.1C233.2,277.7,231.2,277.8,230,279L230,279z
			 M201.1,265.7l0.3,0.1c1.4,0.7,3,0.2,3.8-1.2l0.2-0.8l-0.1-0.6l-0.3-0.8c-0.1-0.2-0.3-0.3-0.5-0.5c-1.2-1-3-1.1-4.3-0.2
			c-1,0.8-1.2,2.2-0.4,3.2c0,0.1,0.1,0.1,0.1,0.2L201.1,265.7z M203,294.1l1.1-0.5l0.8-0.8l0.4-1.1V291l-0.5-1.1l-0.2-0.1
			c-0.7-0.6-1.5-0.9-2.4-0.9l-0.6,0.1l-0.4,0.1l-0.5,0.3c-0.7,0.5-1.1,1.2-1.1,2c0,0.8,0.4,1.6,1.1,2.1c0.1,0.1,0.2,0.2,0.4,0.3
			l1.2,0.3L203,294.1z M212.5,327.3l0.3-0.1c-0.1,0.1-0.2,0.1-0.3,0.2c0.8-0.2,1.4-0.9,1.4-1.8l-0.2-0.6l-0.1-1.1
			c-1-0.8-2.4-0.9-3.5-0.3c0.5-0.9,0.4-2.1-0.4-2.9l-1.1-0.5l-0.8-0.1l-1.1,0.2c0.1-0.1,0.2-0.1,0.4-0.1c-1,0.1-2,0.6-2.5,1.5
			l-0.2,0.9l0.1,0.7l0.5,0.9l0.1,0.1c0.7,0.6,1.5,0.9,2.4,0.9l0.6-0.1l0.4-0.1l0.4-0.2c-0.5,1-0.2,2.3,0.7,3l2.4-0.1L212.5,327.3z
			 M227,245.8l1.2,0.3l0.8-0.1l1.1-0.5c0.5-0.6,1-1.2,1.3-1.9c0.2-0.4,0.4-0.7,0.7-1c0,0-0.1,0.1-0.2,0.1l1.2-1.4l0-1.1l-1.1-1.5
			c-0.7-0.2-1.4-0.2-2.1-0.1c0.3-0.1,0.6,0,0.9,0h-1.1l-0.7,0.2l-0.8,0.5c-0.1,0.1,0,0,0.2-0.1l-0.8,0.6l-0.4,0.5l-0.3,0.9
			c0-0.1,0-0.1,0-0.2c0,0.1-0.3,0.3-0.3,0.4c-0.4,0.4-0.7,0.9-0.9,1.5C225.6,244.1,226,245.2,227,245.8L227,245.8z M187.1,261
			c-1,0.8-1.2,2.2-0.4,3.2c0.1,0.2,0.2,0.3,0.4,0.4c0.2,0.1,0.4,0.3,0.6,0.4l1.1,0.2l0.8-0.1l1-0.5l0.2-0.2c0,0.1-0.1,0.1-0.1,0.2
			v1.1l0.3,0.8l0.8,0.8c-0.1,0-0.2-0.1-0.2-0.1c0.6,0.5,1.4,0.8,2.1,0.8l1.1-0.3l0.6-0.4l0.6-0.9l0.1-0.5c0.2-0.7,0-1.5-0.5-2
			c-0.5-0.5-1.2-0.8-1.9-0.8l-0.6,0.2c-0.8-0.1-1.6,0.3-2.2,0.9l0.4-0.9v-0.8v-0.2c0-0.4-0.2-0.8-0.4-1.1l-1.5-0.7l-1.1,0L187.1,261
			z M229.5,343l-0.4,0.2C229.2,343,229.5,342.9,229.5,343l-0.3-0.3c0-0.1,0-0.1,0-0.2c-0.1-0.7-0.4-1.3-0.9-1.7l-2.4,0.1l-0.2,0.2
			l-0.4,0.1l-0.4,0.4l-0.4,0.7c-0.1,0.3-0.1,0.6,0,0.9h0.7c1.5,0,3.1,0.2,4.6,0.5C229.8,343.4,229.7,343.2,229.5,343L229.5,343z
			 M230.9,256.3l0-0.8l-0.5-1c-0.1-0.1-0.3-0.3-0.4-0.4c-0.8-0.8-2-1.2-3.1-1.1c-0.6,0.1-1.1,0.3-1.5,0.7l-0.2-0.1l-1.1,0.2
			l-1.2,1.1l-0.2,0.7l0.2,1.1l0.4,0.7l1,0.7c2.1-0.1,4.3-0.4,6.3-1L230.9,256.3z M185.3,322.3c0.3-0.9,0-1.9-0.8-2.5
			c-0.4-0.3-0.8-0.5-1.2-0.7v4.8C184.2,323.8,185,323.2,185.3,322.3L185.3,322.3z M183.3,264.3v3.6c0.5-0.4,0.8-1.1,0.8-1.7
			C184.1,265.5,183.8,264.8,183.3,264.3L183.3,264.3z M184.6,329.7c0.2-0.1,0.3-0.2,0.5-0.3l0.4-1.5l-0.2-0.7l-0.1-0.2l-0.3-0.5
			l-1.1-0.8l-0.4-0.1v4.9c0.4-0.1,0.8-0.3,1.1-0.5L184.6,329.7z M185.8,310.8l0.3-1l-0.1-0.7l-0.5-0.9l-0.4-0.3l-0.7-0.3l-0.5-0.1
			h-0.4v4.7h0.5C184.6,311.9,185.3,311.5,185.8,310.8L185.8,310.8z M188.8,316.3l1,0.4h0.8l1.1-0.3c1.2-0.7,1.6-2.2,0.9-3.4
			c-0.1-0.2-0.2-0.3-0.3-0.4l-0.1-0.2l-1-0.6l-0.8-0.2l-1.2,0.1c-0.8,0.3-1.5,1-1.7,1.9c-0.1,0.9,0.2,1.7,0.9,2.3
			C188.5,316,188.7,316.2,188.8,316.3L188.8,316.3z M184.8,270.6c0.1-0.8-0.3-1.6-0.9-2.1c-0.2-0.1-0.3-0.2-0.5-0.3v4.2
			c0,0,0.1,0,0.2-0.1C184.2,272,184.7,271.4,184.8,270.6L184.8,270.6z M200.3,353.6l-0.1-0.1l-1.1-0.4h-0.8l-1.1,0.3
			c-0.7,0.4-1.1,1.2-1.2,2c0,0.8,0.3,1.5,0.9,2l0.2,0.2l0.2,0.1c1-1.4,2.1-2.7,3.2-4L200.3,353.6z M221.9,214.2
			c-0.2-0.1-0.4-0.3-0.6-0.3c0.4,0.4,0.9,0.8,1.3,1.2C222.4,214.7,222.2,214.5,221.9,214.2L221.9,214.2z M220.5,232.3l1.2-0.2
			l0.8-0.4l0.2-0.3c0.5,0.2,1.1,0.2,1.6,0c0.7-0.2,1.3-0.8,1.6-1.5v-1l-0.1-0.3h-7.6c-0.3,0.9-0.1,1.8,0.4,2.6
			C219,231.8,219.7,232.2,220.5,232.3L220.5,232.3z M185.7,356.3l-1.2-0.6l-0.9-0.1h-0.3v4.5h0.3h0.4c0.5,0,0.9-0.2,1.3-0.4l0.7-1
			l0.1-0.8v-0.4C186.1,357,186,356.7,185.7,356.3L185.7,356.3z M185.8,305.4c0.6,0.5,1.3,0.7,2.1,0.6h0.2h0.2l0.2-0.1
			c0.9-0.2,1.6-0.9,1.8-1.8c0.2-0.9-0.2-1.9-1-2.5c-0.7-0.6-1.5-0.8-2.4-0.8c-0.7,0.1-1.4,0.5-1.8,1.1l-0.2,0.8v0.6l0.3,0.8
			c-0.1-0.2-0.2-0.4-0.2-0.6C185,304.3,185.3,305,185.8,305.4L185.8,305.4z M193.8,323.4l-0.5-1.1l-0.6-0.5l-1.3-0.4H191
			c0,0,0.1-0.5,0.1-0.5v-0.7c-0.1-0.6-0.4-1.1-0.8-1.5l-0.9-0.4l-0.8-0.2l-1.1,0.1c-0.2,0.1-0.3,0.2-0.5,0.3
			c-0.2,0.1-0.5,0.3-0.7,0.4c-0.8,0.8-0.9,2.1-0.1,2.9c0.1,0.1,0.1,0.1,0.2,0.2c0.6,0.5,1.3,0.8,2.1,0.8c-0.4,0.8-0.3,1.8,0.4,2.4
			l0.2,0.1c0.1,0.1,0.2,0.3,0.4,0.4l1.2,0.4h0.9l1.2-0.5l0.6-0.5l0.4-1.1L193.8,323.4z M191.8,349.5l-1.3,0.4l0.7-0.9l-1-0.6
			l-0.7-0.2c-1.2-0.2-2.4,0.3-3,1.4l-0.1,0.3l-0.1,0.3l0,0.4c0,0.8,0.4,1.6,1.1,2.1c0.4,0.3,0.8,0.6,1.2,0.8l0.2,0.1l1.1,0.2
			l0.8-0.1l1-0.4c1-0.9,1.2-2.4,0.3-3.4C191.9,349.6,191.9,349.6,191.8,349.5L191.8,349.5z M200.8,256.7l0.6-0.5l0.3-0.8
			c0.1,0.3,0.2,0.7,0.5,0.9l1.2,0.6h0.4c0.3,0,0.6,0,0.9,0l1.4-0.5c1-0.8,1.1-2.1,0.4-3.1c-0.1-0.1-0.2-0.2-0.2-0.3
			c-0.2-0.2-0.4-0.3-0.6-0.4l-1.2-0.2l-0.8,0.1l-1.1,0.5c-0.3,0.3-0.6,0.7-0.8,1.1l-0.5-1c-1-0.9-2.3-1.1-3.5-0.8l-0.9,0.6l-0.5,0.6
			l-0.3,1c0,0.6,0.3,1.2,0.8,1.7c0.3,0.3,0.8,0.5,1.2,0.6c-0.2-0.1-0.4-0.2-0.6-0.3l1.2,0.5h0.9L200.8,256.7z M223.7,273.3l0.3,0.8
			l0.2,0.3c0.3,0.4,0.6,0.6,1,0.8l1.4,0.1l0.9-0.3l0.4-0.2c0.4-0.2,0.6-0.5,0.9-0.9l0.1-1.2l-0.3-0.8l-0.2-0.4
			c-0.2-0.3-0.6-0.6-0.9-0.8l-1.4-0.1L225,271l-0.4,0.2l-0.2,0.1l-0.1-1l-0.6-1.1c-0.7-0.6-1.6-0.9-2.5-0.8
			c-0.8,0.1-1.5,0.6-1.9,1.2l-0.2,1l0.1,0.7l0.5,0.9l0.4,0.3l1.1,0.4h0.8h0.2c0.4,0,0.9-0.2,1.3-0.4L223.7,273.3z M206.6,275.9
			l-0.9-0.1h-0.4c-0.5,0-0.9,0.2-1.3,0.4l-0.7,1l-0.1,0.8v0.4c0,0.4,0.2,0.8,0.4,1.1l1.2,0.7l0.9,0.1h0.4c0.4,0,0.9-0.2,1.3-0.4
			l0.5-0.8l0.8,0.6c-0.1,0-0.2-0.1-0.3-0.2l0.1,0.1c0.4,0.5,0.9,0.8,1.4,1.1h1.5l0.9-0.4l0.9-1c-0.1,0.2-0.2,0.4-0.4,0.6
			c1.2-0.6,1.9-1.7,1.9-3l-0.2-0.7l-0.2-0.4l-0.5-0.5c-0.6-0.4-1.3-0.7-2.1-0.8c0.3,0.1,0.5,0.3,0.7,0.5l-1.4-0.9l-1.1-0.1l-1.5,0.7
			c-0.1,0.1-0.2,0.2-0.3,0.3c-0.3,0.4-0.6,0.8-0.8,1.2L206.6,275.9z M198.6,251.7l1.3,0.5h0.9l1.3-0.6c0.7-0.3,1.3-1,1.4-1.8
			c0-0.9-0.3-1.7-1-2.2l-1.2-0.4h-0.9l-1.2,0.4C196.8,249.7,198.2,251.3,198.6,251.7L198.6,251.7z M206,240.5
			c0.8-0.1,1.5-0.6,1.9-1.2l0.2-1l-0.1-0.7l-0.5-0.9c-1-0.9-2.4-1-3.6-0.5l-0.9,1.3v1l0.6,1.2C204.2,240.3,205.1,240.6,206,240.5
			L206,240.5z M214.2,288.5c-0.2,1,0.1,1.9,0.8,2.7l1,0.7l0.8,0.2l1.3-0.2c0.7-0.3,1.1-0.9,1.3-1.7c0.1-0.4,0.1-0.7,0.1-1.1
			c0,0.1,0,0.2,0,0.2l-0.2-1.1l-0.5-0.7l-1-0.7C216.4,286.4,214.8,287.1,214.2,288.5C214.2,288.6,214.2,288.6,214.2,288.5
			L214.2,288.5z M210.2,248.3c1.1,1,2.8,1.1,4,0.2l0.6-1c0.1,0,0.6,0,0.6,0c0.5,0,0.9-0.2,1.3-0.4l0.7-1.1l0.1-0.9v-0.5
			c-0.1-0.6-0.4-1.1-0.9-1.4l-0.1-0.1l-0.2-0.1l-1.2-0.3l-0.8,0.1l-1,0.4c-0.3,0.3-0.6,0.7-0.8,1.2c-0.9-0.2-1.7,0-2.4,0.6l-0.6,1
			l-0.1,0.8l0.4,1.1C210,248,210.1,248.2,210.2,248.3L210.2,248.3z M185.5,298.9c0.6,0.2,1.2,0.2,1.8,0c-0.1,0.7,0.1,1.3,0.5,1.8
			l1.4,0.6c1,0.6,2.3,0.6,3.2,0l0.5-0.5l0.2-0.4l0.2-0.7c0-0.9-0.5-1.8-1.2-2.4c-0.1-0.1-0.3-0.3-0.5-0.4l-1.1-0.4l-0.8,0l-0.9,0.3
			l-0.1-0.8c-0.1-0.6-0.5-1.2-0.9-1.6c-0.2-0.2-0.5-0.4-0.8-0.5l-0.3,0l-0.1-0.2c-0.2-0.3-0.5-0.6-0.8-0.9c-0.6-0.5-1.4-0.7-2.2-0.6
			c-0.2,0-0.3,0.1-0.5,0.2v8.2c0.7-0.1,1.4-0.4,1.9-1L185.5,298.9z M198.6,347.9c0.9-0.8,1.1-2.1,0.3-3.1c0,0-0.1-0.1-0.1-0.1
			l-1.1-0.6l-0.1-0.1l-1.1-0.2l-1.7,0.4l-0.6,0.5l-0.4,0.8l-0.1,0.6l0.1,0.9c0.2,0.3,0.4,0.6,0.6,0.8
			C195.7,348.8,197.4,348.8,198.6,347.9L198.6,347.9z M191.6,285.9l1.6-0.2l0.6-0.4c1.1-0.2,2-1,2.3-2c0.1-0.2,0.1-0.5,0.1-0.8
			l-0.1-0.4l-0.1-0.3l-0.2-0.4c-0.3-0.5-0.8-1-1.3-1.3l0.4-0.6l0.1-0.8v-0.3c0-0.4-0.2-0.8-0.5-1.2l-1.2-0.7l-0.9-0.1h-0.4
			c-0.5,0-0.9,0.2-1.3,0.4l-0.7,1l-0.1,0.8v0.4c0.1,0.3,0.2,0.6,0.3,0.8c-0.1,0-0.6,0.5-0.6,0.5c-0.3,0.4-0.6,0.9-0.7,1.4
			c-0.5,1.8,0.6,3.7,2.5,4.1C191.5,285.9,191.5,285.9,191.6,285.9L191.6,285.9z M196.7,337.1l-1.1,0.2l-0.7,0.4l-0.8,0.9l-0.1,0.2
			c-0.3,1.2,0.2,2.4,1.2,3.1l1.5,0.4l1-0.2l1.2-1c0.1-0.1,0.1-0.3,0.1-0.4c0.3-0.8,0.1-1.7-0.4-2.3
			C198.3,337.6,197.5,337.2,196.7,337.1L196.7,337.1z M192.2,291.2l0.3,0.1l1.2-0.2l0.7-0.4l0.8-0.8c0.3-0.7,0.3-1.6-0.2-2.3
			c-0.5-0.7-1.2-1.2-2-1.3h-0.2l-1.2,0.2l-0.7,0.4l-0.8,0.8c-0.3,0.7-0.2,1.6,0.2,2.3C190.7,290.6,191.5,291.1,192.2,291.2
			L192.2,291.2z M198.6,309.2l-1.5-0.5c-0.1,0-0.3-0.1-0.4-0.1l-1,0.1l-1.3,0.7l-0.1,0.1c-0.4,0.4-0.7,0.9-0.9,1.4
			c-0.3,1.3,0.4,2.5,1.7,2.9l1.8-0.3l0.6-0.5c0.9-0.2,1.6-0.8,1.9-1.7C199.5,310.6,199.2,309.7,198.6,309.2L198.6,309.2z"/>
	</g>
</g>
<g id="Group_11935">
</g>
</svg>
