<?xml version="1.0" encoding="utf-8"?>
<!-- Generator: Adobe Illustrator 24.3.0, SVG Export Plug-In . SVG Version: 6.00 Build 0)  -->
<svg version="1.1" xmlns="http://www.w3.org/2000/svg" xmlns:xlink="http://www.w3.org/1999/xlink" x="0px" y="0px"
	 viewBox="0 0 653 647" style="enable-background:new 0 0 653 647;" xml:space="preserve">
<style type="text/css">
	.st0{fill:#FF9557;}
	.st1{fill:#FFFFFF;}
</style>
<g id="Layer_1">
	<g id="Group_11937" transform="translate(0)">
		<g id="Group_11928" transform="translate(0.414 6.302)">
			<g id="Group_11828" transform="translate(0 0)">
				<ellipse id="Ellipse_86" class="st0" cx="204.6" cy="357.1" rx="41.6" ry="37.8"/>
				<path id="Path_2448" class="st0" d="M202.5,416.7c-42.1,0.1-76.3,34.2-76.4,76.4c0,14.1,11.4,25.5,25.5,25.5c0,0,0,0,0,0h101.8
					c14.1,0,25.5-11.4,25.5-25.5l0,0C278.8,450.9,244.7,416.8,202.5,416.7z"/>
				<ellipse id="Ellipse_87" class="st0" cx="473.3" cy="357.1" rx="45.4" ry="37.8"/>
				<path id="Path_2449" class="st0" d="M474,416.7c-42.1,0-76.3,34.2-76.4,76.4c0,14.1,11.4,25.5,25.5,25.5l0,0h101.8
					c14.1,0,25.5-11.4,25.5-25.5l0,0C550.3,450.9,516.1,416.8,474,416.7z"/>
				<ellipse id="Ellipse_88" class="st0" cx="473.3" cy="133.8" rx="45.4" ry="41.6"/>
				<ellipse id="Ellipse_131" class="st0" cx="208.4" cy="133.8" rx="45.4" ry="41.6"/>
				<path id="Path_2450" class="st0" d="M423.1,297.9h101.8c14.1,0,25.5-11.4,25.5-25.5v0c-0.4-42.2-34.9-76-77.1-75.6
					c-41.6,0.4-75.2,34-75.6,75.6C397.6,286.5,409,297.9,423.1,297.9z"/>
				<path id="Path_2736" class="st0" d="M154.2,297.9H256c14.1,0,25.5-11.4,25.5-25.5v0c-0.4-42.2-34.9-76-77.1-75.6
					c-41.6,0.4-75.2,34-75.6,75.6C128.8,286.5,140.1,297.9,154.2,297.9z"/>
				<path id="Path_2451" class="st0" d="M372.2,467.6h-67.9c-4.7,0-8.5,3.8-8.5,8.5s3.8,8.5,8.5,8.5h67.9c4.7,0,8.5-3.8,8.5-8.5
					S376.9,467.6,372.2,467.6z"/>
				<path id="Path_2452" class="st0" d="M372.2,213.1h-67.9c-4.7,0-8.5,3.8-8.5,8.5s3.8,8.5,8.5,8.5h67.9c4.7,0,8.5-3.8,8.5-8.5
					S376.9,213.1,372.2,213.1z"/>
			</g>
		</g>
		<path id="Path_2741" class="st1" d="M157.6,156.7l0.8,0.1h0.5l0.8-0.2c0.8-0.4,1.4-1.1,1.6-2c0.3-1,0-2.1-0.7-2.8
			c-0.7-0.8-1.8-1.1-2.8-1l-1,0.4l-0.6,0.5l-0.5,0.9C155.2,154.3,156,156,157.6,156.7z M153.8,170.1c0.9-0.1,1.8-0.6,2.4-1.3l0.4-1
			l0-0.8l-0.5-1c-1.3-1.1-3.2-1.2-4.5-0.1l-0.1,0.1l-0.8,1.2v0.9l0.6,1.2C152,169.9,152.9,170.2,153.8,170.1L153.8,170.1z
			 M161.3,179l-0.3-0.8c-0.1-0.2-0.3-0.4-0.5-0.5c-0.7-0.6-1.6-0.8-2.4-0.6c-0.1-0.1-0.3-0.3-0.4-0.4c-1.2-1.1-3-1.1-4.2,0.1
			c-0.5,0.5-0.8,1.2-0.8,1.9v0.6l0.1,0.4l0.3,0.6c0.2,0.2,0.4,0.5,0.7,0.7c2.5-0.9,5.1-1.4,7.7-1.5
			C161.4,179.3,161.4,179.2,161.3,179L161.3,179z M146.4,175.4l-0.4-0.3l-0.7-0.3l-0.5-0.1l-0.8,0c-0.9,0.1-1.8,0.6-2.2,1.4
			c-0.4,0.8-0.3,1.8,0.3,2.5l1.2,0.7l1,0.1h0.5c0.8-0.1,1.5-0.5,1.9-1.2l0.2-1l-0.1-0.7L146.4,175.4z M148.9,167.9
			c0,0-0.1-0.1-0.1-0.1c-0.3-0.4-0.8-0.5-1.2-0.2c-0.1,0.1-0.2,0.2-0.3,0.4l0.3,0.8c-0.1,0-0.1-0.1-0.1-0.2l0.4,0.8
			c0.6,0.2,1.2,0,1.6-0.5l-0.7-0.9C148.8,167.8,148.9,167.8,148.9,167.9L148.9,167.9z M165.1,151l0.7,0.2c1.2,0.1,2.3-0.5,2.9-1.5
			c0.1-0.2,0.2-0.4,0.2-0.6c0.1,0,0.3,0,0.4,0.1l0.6-0.1l0.4-0.2l0.5-0.3c1.2-0.9,1.3-2.6,0.4-3.8c-0.1-0.1-0.2-0.2-0.3-0.3
			l-0.1-0.1l-1.4-0.7h-1l-1.4,0.6c-0.4,0.5-0.7,1.2-0.7,1.9H166l-1,0.3c-1.3,0.6-1.8,2.2-1.2,3.5c0.1,0.2,0.2,0.3,0.3,0.5l0.6,0.4
			L165.1,151z M153.8,137.8l0.1,0.6l0.2,0.6l0.4,0.6c1,0.9,2.5,0.9,3.6,0.1c1-0.7,1.3-2.1,0.6-3.2c-0.1-0.1-0.1-0.2-0.2-0.3l-1-0.6
			l0.4-0.2l0.4-0.4l0.4-1v-0.8v-0.2c0-0.4-0.2-0.8-0.5-1.2l-1.5-0.7l-1.1,0.1l-1.2,0.5c-1,0.8-1.1,2.2-0.4,3.2
			c0.1,0.1,0.2,0.2,0.4,0.4c0.2,0.1,0.3,0.3,0.5,0.4C154.3,136.3,153.9,137,153.8,137.8L153.8,137.8z M172,152.8l-0.4-0.3l-0.7-0.3
			l-0.5-0.1l-0.8,0c-0.9,0.1-1.8,0.6-2.2,1.4c-0.4,0.8-0.3,1.8,0.3,2.4l1.2,0.7l1,0.1h0.5c0.8-0.1,1.5-0.5,1.9-1.2l0.2-1l-0.1-0.7
			L172,152.8z M181.5,130.9c0-0.8-0.4-1.5-1-2c-0.1-0.1-0.2-0.2-0.3-0.2l-1.1-0.3h-0.8l-1,0.4c-0.6,0.4-1,1-1.2,1.6l-0.9-0.5
			l-0.9-0.1h-0.5c-0.5,0-0.9,0.2-1.3,0.4l-0.7,1l-0.1,0.8v0.4c0,0.4,0.2,0.8,0.5,1.2l1.2,0.7l0.9,0.1h0.4c0.4,0,0.9-0.2,1.3-0.4
			l0.8-1.1v-0.2c0.1,0.1,0.2,0.2,0.3,0.3c0.1,0.1,0.2,0.2,0.4,0.3l1,0.3h0.8l1-0.4C180.9,132.7,181.4,131.8,181.5,130.9L181.5,130.9
			z M181.6,111.1l0.8,0.7l1.2,0.4h0.9l1.2-0.4c1.1-0.9,1.3-2.5,0.4-3.5c-0.1-0.1-0.2-0.3-0.4-0.4c-0.6-0.5-1.5-0.7-2.3-0.6
			c-0.9,0.1-1.6,0.6-2.1,1.3l-0.2,1l0.1,0.7L181.6,111.1z M180.9,118.6l0.6-0.1l0.4-0.1l0.5-0.2c0.9-0.6,1.4-1.6,1.2-2.7l0.1-0.7
			l-0.3-1c-0.7-1-1.9-1.4-3.1-1.1h-0.5l-1.2,0.4c-1.3,1.1-1.4,3-0.4,4.3c0.1,0.1,0.3,0.3,0.4,0.4
			C179.4,118.3,180.1,118.5,180.9,118.6L180.9,118.6z M186.8,144.3c0.1,0.1,0.2,0.2,0.3,0.3c-0.6-1-1.7-1.5-2.9-1.5l-0.7,0.1
			l-0.5,0.2l-0.6,0.4c-0.3,0.3-0.6,0.7-0.7,1.2c-0.3,1.4,0.6,2.7,1.9,3c1.4,0.6,3,0.1,3.8-1.1l0.1-1.2l-0.3-0.8L186.8,144.3z
			 M183,140.9l0.6,0l0.8-0.1l0.2-0.1c1.9-0.6,2.8-1.6,2.7-3.1l-0.1-0.4l-0.1-0.3l-0.2-0.3c-0.2-0.3-0.4-0.5-0.6-0.7
			c-0.5-0.4-1.1-0.6-1.8-0.7l-1.1-0.1l-1.4,0.5c-0.8,0.6-1.3,1.6-1.4,2.7c0.1,0.8,0.4,1.5,1,1.9c0.1,0.1,0.3,0.2,0.5,0.3L183,140.9z
			 M208.9,175c-0.9-0.8-2-1.2-3.2-1c-0.2,0-0.4,0.1-0.6,0.2c-0.1-0.4-0.4-0.8-0.8-1.1l-0.1-0.1l-0.2-0.1l-1.2-0.3l-0.8,0.1l-1,0.5
			c-1,0.8-1.2,2.2-0.5,3.3l1.2,0.8l1,0.2h0.5l0.3-0.1l0.3,0.6c0.1,0.1,0.3,0.2,0.4,0.4c0.7,0.6,1.6,0.9,2.5,0.8
			c0.8,0.4,1.8,0.3,2.6-0.2l0.7-0.8l0.2-0.7l-0.1-1C209.7,175.7,209.3,175.3,208.9,175L208.9,175z M147.3,156.4
			c0.1,0,0.2-0.1,0.3-0.1C147.6,156.3,147.4,156.4,147.3,156.4L147.3,156.4z M197.7,142.8l-1-0.2l-1.5,0.3c-1.2,0.7-1.7,2.3-1,3.5
			c0.1,0.2,0.2,0.3,0.4,0.5l1.3,0.6h1l1.3-0.6c0.8-0.8,1.1-2,0.7-3.1L197.7,142.8z M132.4,94.4c0.4-0.3,0.6-0.8,0.5-1.3
			c0-0.5-0.3-1-0.8-1.4l-0.6,0.6c0.1,0.1-0.5,0.6-0.5,0.6c-0.1-0.1-0.2-0.1-0.3-0.2l-0.4,0.4c-0.1,0.1,0,0.3,0.1,0.4l-1.1,1.1
			C130.3,95.3,131.5,95.3,132.4,94.4L132.4,94.4z M210.8,96.7c-0.1-0.1-0.3-0.2-0.4-0.3l-1.1-0.3h-0.8l-1,0.4
			c-0.8,0.5-1.2,1.4-1.3,2.3c0,0.8,0.4,1.5,1,2c0.1,0.1,0.2,0.2,0.4,0.3l1.1,0.3h0.4c0-0.1,0.4,0,0.4,0l1.3-0.4
			c0.7-0.5,1.1-1.2,1.1-2C211.9,98,211.5,97.2,210.8,96.7L210.8,96.7z M188.2,57.7l-0.4-0.2c-1.3-0.8-3-1-4.5-0.4l-0.4,0.3l-0.3,0.2
			l-0.3,0.4c-0.3,0.4-0.4,1-0.3,1.5l-0.1,0.8l0.5,1.3l1.2,1l1.4,0.4l0.9-0.1l1.2-0.7c0.1-0.1,0.1-0.1,0.4-0.3
			c0.4-0.2,0.8-0.5,1.2-0.9l0.4-1.3l-0.2-0.9L188.2,57.7z M125.2,93l0.6-0.6c1.2,1.2,3,1.2,4.3,0.2l0.4-0.5l0.2-0.4l0.1-0.6
			c0-0.8-0.4-1.5-1-2c-0.1-0.1-0.1-0.1-0.2-0.1c0.4,0,0.9,0,1.3-0.1c0.1,0.5,0.3,0.9,0.6,1.3c0.6,0.7,1.5,1.1,2.5,1.1l0.9-0.2
			l0.6-0.3l0.6-0.6c0.1-0.1,0.1-0.2,0.2-0.4c1-0.9,1.1-2.4,0.3-3.4c-0.1-0.1-0.1-0.2-0.2-0.2l-1-0.5h-0.2c0-0.1,0-0.8,0-0.8l-0.4-1
			c-0.1-0.1-0.3-0.3-0.4-0.4c-0.1-0.1-0.3-0.2-0.4-0.3c0.2-0.1,0.3-0.2,0.4-0.3l0.9,0.4h1l0.9-0.3c-0.1,0.1-0.2,0.1-0.3,0.1
			c0.9-0.2,1.6-0.8,1.9-1.6c0.3-0.7,0.2-1.5-0.3-2.1l-1-0.7l-0.6-0.1c-0.3-0.2-0.6-0.4-0.9-0.6l-0.9-0.1l-0.1-0.7l-0.5-0.9
			c-0.5-0.4-1.1-0.7-1.7-0.8c0-0.3,0-0.6,0-0.8c-0.2-1-0.9-1.8-1.8-2c0-0.2,0-0.4,0-0.6l-0.1-0.2c0.3,0,0.5,0,0.8,0
			c1-0.2,1.9-0.9,2.2-1.9c0.3-1.1-0.2-2.2-1.2-2.7c-0.4-0.2-0.9-0.3-1.4-0.3c0.1-0.1,0.2-0.2,0.3-0.3c-1,0.6-1.9,1.2-2.7,2
			c0,0.1-0.1,0.1-0.1,0.2c-1.6,1.3-2.8,3-3.7,4.8l0.6,0.5c-0.1,0-0.2-0.1-0.3-0.2c0.4,0.4,0.9,0.8,1.4,1l0.6,0c0,0.2,0,0.4,0.1,0.7
			c-0.3,0.1-0.6,0.2-0.8,0.4l-0.6,1l-0.1,0.8l0.3,0.9l-0.2-0.2c0-0.1-0.1-0.2-0.1-0.3c0,0.1,0,0.2,0.1,0.3l-0.6-0.6
			c-0.6-0.2-1.1-0.2-1.7-0.1c-0.2,0.9-0.2,1.8-0.2,2.7v2.9l0.2-0.6c1.3,0.1,2.4-0.7,2.9-1.8l0.1-0.2v-0.7l0.6,1.4
			c1,1,2.5,1.2,3.7,0.5l0.2-0.3l0.4,0.3l0.5,0.2c0.1,0-0.4,0.5-0.4,0.5c-0.6,0.1-1.1,0.3-1.6,0.7l-0.4,0.8c-0.1,0-0.2,0-0.3,0
			c-1,0.1-1.9,0.9-2.2,1.9c-0.1,0.3-0.1,0.6-0.1,0.8l0.3,0.8l-0.3-0.2l-0.4-0.3v-0.2l-0.4-0.3l-2.1-0.1l-0.2,0.2l-0.6,0.1v6.2
			c0.5,0,1,0,1.5-0.1L125.2,93z M170.1,115.3c-1.2,0.8-1.5,2.5-0.7,3.7c0.1,0.1,0.1,0.2,0.2,0.3l0.7,0.4l0.6,0.2l0.8,0.1
			c1.1-0.1,2-0.7,2.5-1.6c-0.2,0.2-0.4,0.3-0.6,0.3l1.2-1l0.3-0.9l-0.4-1.5l-0.1-0.1C173.3,114,171.4,114.1,170.1,115.3L170.1,115.3
			z M141.2,101.9l0.3,0.1c1.4,0.7,3,0.2,3.8-1.2l0.2-0.8l-0.1-0.6l-0.3-0.8c-0.1-0.2-0.3-0.3-0.5-0.5c-1.2-1-3-1.1-4.3-0.2
			c-1,0.8-1.2,2.2-0.4,3.2c0,0.1,0.1,0.1,0.1,0.2L141.2,101.9z M143.1,130.3l1.1-0.5l0.8-0.8l0.4-1.1v-0.8l-0.5-1.1l-0.2-0.1
			c-0.7-0.6-1.5-0.9-2.4-0.9l-0.6,0.1l-0.4,0.1l-0.5,0.3c-0.7,0.5-1.1,1.2-1.1,2c0,0.8,0.4,1.6,1.1,2.1c0.1,0.1,0.2,0.2,0.4,0.3
			l1.2,0.3L143.1,130.3z M152.6,163.5l0.3-0.1c-0.1,0.1-0.2,0.1-0.3,0.2c0.8-0.2,1.4-0.9,1.4-1.8l-0.2-0.6l-0.1-1.1
			c-1-0.8-2.4-0.9-3.5-0.3c0.5-0.9,0.4-2.1-0.4-2.9l-1.1-0.5l-0.8-0.1l-1.1,0.2c0.1-0.1,0.2-0.1,0.4-0.1c-1,0.1-2,0.6-2.5,1.5
			l-0.2,0.9l0.1,0.7l0.5,0.9l0.1,0.1c0.7,0.6,1.5,0.9,2.4,0.9l0.6-0.1l0.4-0.1l0.4-0.2c-0.5,1-0.2,2.3,0.7,3l2.4-0.1L152.6,163.5z
			 M167.1,82.1l1.2,0.3l0.8-0.1l1.1-0.5c0.5-0.6,1-1.2,1.3-1.9c0.2-0.4,0.4-0.7,0.7-1c0,0-0.1,0.1-0.2,0.1l1.2-1.4l0-1.1l-1.1-1.5
			c-0.7-0.2-1.4-0.2-2.1-0.1c0.3-0.1,0.6,0,0.9,0H170l-0.7,0.2l-0.8,0.5c-0.1,0.1,0,0,0.2-0.1l-0.8,0.6l-0.4,0.5l-0.3,0.9
			c0-0.1,0-0.1,0-0.2c0,0.1-0.3,0.3-0.3,0.4c-0.4,0.4-0.7,0.9-0.9,1.5C165.7,80.4,166.1,81.5,167.1,82.1L167.1,82.1z M127.2,97.3
			c-1,0.8-1.2,2.2-0.4,3.2c0.1,0.2,0.2,0.3,0.4,0.4c0.2,0.1,0.4,0.3,0.6,0.4l1.1,0.2l0.8-0.1l1-0.5l0.2-0.2c0,0.1-0.1,0.1-0.1,0.2
			v1.1l0.3,0.8l0.8,0.8c-0.1,0-0.2-0.1-0.2-0.1c0.6,0.5,1.4,0.8,2.1,0.8l1.1-0.3l0.6-0.4l0.6-0.9l0.1-0.5c0.2-0.7,0-1.5-0.5-2
			c-0.5-0.5-1.2-0.8-1.9-0.8l-0.6,0.2c-0.8-0.1-1.6,0.3-2.2,0.9l0.4-0.9v-0.8v-0.2c0-0.4-0.2-0.8-0.4-1.1l-1.5-0.7l-1.1,0
			L127.2,97.3z M169.6,179.3l-0.4,0.2C169.3,179.3,169.6,179.2,169.6,179.3l-0.3-0.3c0-0.1,0-0.1,0-0.2c-0.1-0.7-0.4-1.3-0.9-1.7
			l-2.4,0.1l-0.2,0.2l-0.4,0.1l-0.4,0.4l-0.4,0.7c-0.1,0.3-0.1,0.6,0,0.9h0.7c1.5,0,3.1,0.2,4.6,0.5
			C169.9,179.7,169.8,179.4,169.6,179.3L169.6,179.3z M171,92.6l0-0.8l-0.5-1c-0.1-0.1-0.3-0.3-0.4-0.4c-0.8-0.8-2-1.2-3.1-1.1
			c-0.6,0.1-1.1,0.3-1.5,0.7l-0.2-0.1l-1.1,0.2l-1.2,1.1l-0.2,0.7l0.2,1.1l0.4,0.7l1,0.7c2.1-0.1,4.3-0.4,6.3-1L171,92.6z
			 M125.4,158.6c0.3-0.9,0-1.9-0.8-2.5c-0.4-0.3-0.8-0.5-1.2-0.7v4.8C124.3,160.1,125.1,159.5,125.4,158.6L125.4,158.6z
			 M123.5,100.6v3.6c0.5-0.4,0.8-1.1,0.8-1.7C124.2,101.8,124,101.1,123.5,100.6L123.5,100.6z M124.7,166c0.2-0.1,0.3-0.2,0.5-0.3
			l0.4-1.5l-0.2-0.7l-0.1-0.2l-0.3-0.5l-1.1-0.8l-0.4-0.1v4.9c0.4-0.1,0.8-0.3,1.1-0.5L124.7,166z M125.9,147.1l0.3-1l-0.1-0.7
			l-0.5-0.9l-0.4-0.3l-0.7-0.3l-0.5-0.1h-0.4v4.7h0.5C124.7,148.2,125.4,147.7,125.9,147.1L125.9,147.1z M128.9,152.6l1,0.4h0.8
			l1.1-0.3c1.2-0.7,1.6-2.2,0.9-3.4c-0.1-0.2-0.2-0.3-0.3-0.4l-0.1-0.2l-1-0.6l-0.8-0.2l-1.2,0.1c-0.8,0.3-1.5,1-1.7,1.9
			c-0.1,0.9,0.2,1.7,0.9,2.3C128.6,152.3,128.8,152.4,128.9,152.6L128.9,152.6z M124.9,106.9c0.1-0.8-0.3-1.6-0.9-2.1
			c-0.2-0.1-0.3-0.2-0.5-0.3v4.2c0,0,0.1,0,0.2-0.1C124.3,108.3,124.8,107.6,124.9,106.9L124.9,106.9z M140.5,189.9l-0.1-0.1
			l-1.1-0.4h-0.8l-1.1,0.3c-0.7,0.4-1.1,1.2-1.2,2c0,0.8,0.3,1.5,0.9,2l0.2,0.2l0.2,0.1c1-1.4,2.1-2.7,3.2-4L140.5,189.9z M162,50.5
			c-0.2-0.1-0.4-0.3-0.6-0.3c0.4,0.4,0.9,0.8,1.3,1.2C162.6,51,162.3,50.7,162,50.5L162,50.5z M160.6,68.6l1.2-0.2l0.8-0.4l0.2-0.3
			c0.5,0.2,1.1,0.2,1.6,0c0.7-0.2,1.3-0.8,1.6-1.5v-1l-0.1-0.3h-7.6c-0.3,0.9-0.1,1.8,0.4,2.6C159.1,68.1,159.8,68.5,160.6,68.6
			L160.6,68.6z M125.8,192.6l-1.2-0.6l-0.9-0.1h-0.3v4.5h0.3h0.4c0.5,0,0.9-0.2,1.3-0.4l0.7-1l0.1-0.8v-0.4
			C126.2,193.3,126.1,193,125.8,192.6L125.8,192.6z M125.9,141.7c0.6,0.5,1.3,0.7,2.1,0.6h0.2h0.2l0.2-0.1c0.9-0.2,1.6-0.9,1.8-1.8
			c0.2-0.9-0.2-1.9-1-2.5c-0.7-0.6-1.5-0.8-2.4-0.8c-0.7,0.1-1.4,0.5-1.8,1.1l-0.2,0.8v0.6l0.3,0.8c-0.1-0.2-0.2-0.4-0.2-0.6
			C125.1,140.6,125.4,141.3,125.9,141.7L125.9,141.7z M133.9,159.7l-0.5-1.1l-0.6-0.5l-1.3-0.4h-0.3c0,0,0.1-0.5,0.1-0.5v-0.7
			c-0.1-0.6-0.4-1.1-0.8-1.5l-0.9-0.4l-0.8-0.2l-1.1,0.1c-0.2,0.1-0.3,0.2-0.5,0.3c-0.2,0.1-0.5,0.3-0.7,0.4
			c-0.8,0.8-0.9,2.1-0.1,2.9c0.1,0.1,0.1,0.1,0.2,0.2c0.6,0.5,1.3,0.8,2.1,0.8c-0.4,0.8-0.3,1.8,0.4,2.4l0.2,0.1
			c0.1,0.1,0.2,0.3,0.4,0.4l1.2,0.4h0.9l1.2-0.5l0.6-0.5l0.4-1.1L133.9,159.7z M131.9,185.8l-1.3,0.4l0.7-0.9l-1-0.6l-0.7-0.2
			c-1.2-0.2-2.4,0.3-3,1.4l-0.1,0.3l-0.1,0.3l0,0.4c0,0.8,0.4,1.6,1.1,2.1c0.4,0.3,0.8,0.6,1.2,0.8l0.2,0.1l1.1,0.2l0.8-0.1l1-0.4
			c1-0.9,1.2-2.4,0.3-3.4C132,185.9,132,185.9,131.9,185.8L131.9,185.8z M140.9,93l0.6-0.5l0.3-0.8c0.1,0.3,0.2,0.7,0.5,0.9l1.2,0.6
			h0.4c0.3,0,0.6,0,0.9,0l1.4-0.5c1-0.8,1.1-2.1,0.4-3.1c-0.1-0.1-0.2-0.2-0.2-0.3c-0.2-0.2-0.4-0.3-0.6-0.4l-1.2-0.2l-0.8,0.1
			l-1.1,0.5c-0.3,0.3-0.6,0.7-0.8,1.1l-0.5-1c-1-0.9-2.3-1.1-3.5-0.8l-0.9,0.6l-0.5,0.6l-0.3,1c0,0.6,0.3,1.2,0.8,1.7
			c0.3,0.3,0.8,0.5,1.2,0.6c-0.2-0.1-0.4-0.2-0.6-0.3l1.2,0.5h0.9L140.9,93z M163.8,109.6l0.3,0.8l0.2,0.3c0.3,0.4,0.6,0.6,1,0.8
			l1.4,0.1l0.9-0.3l0.4-0.2c0.4-0.2,0.6-0.5,0.9-0.9l0.1-1.2l-0.3-0.8l-0.2-0.4c-0.2-0.3-0.6-0.6-0.9-0.8L166,107l-0.9,0.3l-0.4,0.2
			l-0.2,0.1l-0.1-1l-0.6-1.1c-0.7-0.6-1.6-0.9-2.5-0.8c-0.8,0.1-1.5,0.6-1.9,1.2l-0.2,1l0.1,0.7l0.5,0.9l0.4,0.3l1.1,0.4h0.8h0.2
			c0.4,0,0.9-0.2,1.3-0.4L163.8,109.6z M146.8,112.2l-0.9-0.1h-0.4c-0.5,0-0.9,0.2-1.3,0.4l-0.7,1l-0.1,0.8v0.4
			c0,0.4,0.2,0.8,0.4,1.1l1.2,0.7l0.9,0.1h0.4c0.4,0,0.9-0.2,1.3-0.4l0.5-0.8l0.8,0.6c-0.1,0-0.2-0.1-0.3-0.2l0.1,0.1
			c0.4,0.5,0.9,0.8,1.4,1.1h1.5l0.9-0.4l0.9-1c-0.1,0.2-0.2,0.4-0.4,0.6c1.2-0.6,1.9-1.7,1.9-3l-0.2-0.7l-0.2-0.4l-0.5-0.5
			c-0.6-0.4-1.3-0.7-2.1-0.8c0.3,0.1,0.5,0.3,0.7,0.5l-1.4-0.9l-1.1-0.1l-1.5,0.7c-0.1,0.1-0.2,0.2-0.3,0.3
			c-0.3,0.4-0.6,0.8-0.8,1.2L146.8,112.2z M138.7,88l1.3,0.5h0.9l1.3-0.6c0.7-0.3,1.3-1,1.4-1.8c0-0.9-0.3-1.7-1-2.2l-1.2-0.4h-0.9
			l-1.2,0.4C136.9,86,138.3,87.6,138.7,88L138.7,88z M146.1,76.8c0.8-0.1,1.5-0.6,1.9-1.2l0.2-1l-0.1-0.7l-0.5-0.9
			c-1-0.9-2.4-1-3.6-0.5l-0.9,1.3v1l0.6,1.2C144.3,76.6,145.2,76.9,146.1,76.8L146.1,76.8z M154.3,124.8c-0.2,1,0.1,1.9,0.8,2.7
			l1,0.7l0.8,0.2l1.3-0.2c0.7-0.3,1.1-0.9,1.3-1.7c0.1-0.4,0.1-0.7,0.1-1.1c0,0.1,0,0.2,0,0.2l-0.2-1.1l-0.5-0.7l-1-0.7
			C156.5,122.6,154.9,123.4,154.3,124.8C154.3,124.8,154.3,124.9,154.3,124.8L154.3,124.8z M150.3,84.6c1.1,1,2.8,1.1,4,0.2l0.6-1
			c0.1,0,0.6,0,0.6,0c0.5,0,0.9-0.2,1.3-0.4l0.7-1.1l0.1-0.9v-0.5c-0.1-0.6-0.4-1.1-0.9-1.4l-0.1-0.1l-0.2-0.1l-1.2-0.3l-0.8,0.1
			l-1,0.4c-0.3,0.3-0.6,0.7-0.8,1.2c-0.9-0.2-1.7,0-2.4,0.6l-0.6,1l-0.1,0.8l0.4,1.1C150.1,84.3,150.2,84.5,150.3,84.6L150.3,84.6z
			 M125.6,135.2c0.6,0.2,1.2,0.2,1.8,0c-0.1,0.7,0.1,1.3,0.5,1.8l1.4,0.6c1,0.6,2.3,0.6,3.2,0l0.5-0.5l0.2-0.4l0.2-0.7
			c0-0.9-0.5-1.8-1.2-2.4c-0.1-0.1-0.3-0.3-0.5-0.4l-1.1-0.4l-0.8,0l-0.9,0.3l-0.1-0.8c-0.1-0.6-0.5-1.2-0.9-1.6
			c-0.2-0.2-0.5-0.4-0.8-0.5l-0.3,0l-0.1-0.2c-0.2-0.3-0.5-0.6-0.8-0.9c-0.6-0.5-1.4-0.7-2.2-0.6c-0.2,0-0.3,0.1-0.5,0.2v8.2
			c0.7-0.1,1.4-0.4,1.9-1L125.6,135.2z M138.7,184.2c0.9-0.8,1.1-2.1,0.3-3.1c0,0-0.1-0.1-0.1-0.1l-1.1-0.6l-0.1-0.1l-1.1-0.2
			l-1.7,0.4l-0.6,0.5l-0.4,0.8l-0.1,0.6l0.1,0.9c0.2,0.3,0.4,0.6,0.6,0.8C135.9,185.1,137.5,185.1,138.7,184.2L138.7,184.2z
			 M131.7,122.1l1.6-0.2l0.6-0.4c1.1-0.2,2-1,2.3-2c0.1-0.2,0.1-0.5,0.1-0.8l-0.1-0.4l-0.1-0.3l-0.2-0.4c-0.3-0.5-0.8-1-1.3-1.3
			l0.4-0.6l0.1-0.8v-0.3c0-0.4-0.2-0.8-0.5-1.2l-1.2-0.7l-0.9-0.1h-0.4c-0.5,0-0.9,0.2-1.3,0.4l-0.7,1l-0.1,0.8v0.4
			c0.1,0.3,0.2,0.6,0.3,0.8c-0.1,0-0.6,0.5-0.6,0.5c-0.3,0.4-0.6,0.9-0.7,1.4c-0.5,1.8,0.6,3.7,2.5,4.1
			C131.6,122.1,131.6,122.2,131.7,122.1L131.7,122.1z M136.8,173.4l-1.1,0.2L135,174l-0.8,0.9l-0.1,0.2c-0.3,1.2,0.2,2.4,1.2,3.1
			l1.5,0.4l1-0.2l1.2-1c0.1-0.1,0.1-0.3,0.1-0.4c0.3-0.8,0.1-1.7-0.4-2.3C138.4,173.9,137.6,173.5,136.8,173.4L136.8,173.4z
			 M132.4,127.5l0.3,0.1l1.2-0.2l0.7-0.4l0.8-0.8c0.3-0.7,0.3-1.6-0.2-2.3c-0.5-0.7-1.2-1.2-2-1.3h-0.2l-1.2,0.2l-0.7,0.4l-0.8,0.8
			c-0.3,0.7-0.2,1.6,0.2,2.3C130.9,126.9,131.6,127.4,132.4,127.5L132.4,127.5z M138.7,145.5l-1.5-0.5c-0.1,0-0.3-0.1-0.4-0.1
			l-1,0.1l-1.3,0.7l-0.1,0.1c-0.4,0.4-0.7,0.9-0.9,1.4c-0.3,1.3,0.4,2.5,1.7,2.9l1.8-0.3l0.6-0.5c0.9-0.2,1.6-0.8,1.9-1.7
			C139.6,146.9,139.3,146,138.7,145.5L138.7,145.5z"/>
		<path id="Path_2743" class="st1" d="M157.6,396.5l0.8,0.1h0.5l0.8-0.2c0.8-0.4,1.4-1.1,1.6-2c0.3-1,0-2.1-0.7-2.8
			c-0.7-0.8-1.8-1.1-2.8-1l-1,0.4l-0.6,0.5l-0.5,0.9C155.2,394.1,156,395.8,157.6,396.5z M153.8,409.9c0.9-0.1,1.8-0.6,2.4-1.3
			l0.4-1l0-0.8l-0.5-1c-1.3-1.1-3.2-1.2-4.5-0.1l-0.1,0.1l-0.8,1.2v0.9l0.6,1.2C152,409.7,152.9,410,153.8,409.9L153.8,409.9z
			 M161.3,418.8L161,418c-0.1-0.2-0.3-0.4-0.5-0.5c-0.7-0.6-1.6-0.8-2.4-0.6c-0.1-0.1-0.3-0.3-0.4-0.4c-1.2-1.1-3-1.1-4.2,0.1
			c-0.5,0.5-0.8,1.2-0.8,1.9v0.6l0.1,0.4l0.3,0.6c0.2,0.2,0.4,0.5,0.7,0.7c2.5-0.9,5.1-1.4,7.7-1.5
			C161.4,419.1,161.4,419,161.3,418.8L161.3,418.8z M146.4,415.2l-0.4-0.3l-0.7-0.3l-0.5-0.1l-0.8,0c-0.9,0.1-1.8,0.6-2.2,1.4
			c-0.4,0.8-0.3,1.8,0.3,2.5l1.2,0.7l1,0.1h0.5c0.8-0.1,1.5-0.5,1.9-1.2l0.2-1l-0.1-0.7L146.4,415.2z M148.9,407.7
			c0,0-0.1-0.1-0.1-0.1c-0.3-0.4-0.8-0.5-1.2-0.2c-0.1,0.1-0.2,0.2-0.3,0.4l0.3,0.8c-0.1,0-0.1-0.1-0.1-0.2l0.4,0.8
			c0.6,0.2,1.2,0,1.6-0.5l-0.7-0.9C148.8,407.7,148.9,407.7,148.9,407.7L148.9,407.7z M165.1,390.9l0.7,0.2c1.2,0.1,2.3-0.5,2.9-1.5
			c0.1-0.2,0.2-0.4,0.2-0.6c0.1,0,0.3,0,0.4,0.1l0.6-0.1l0.4-0.2l0.5-0.3c1.2-0.9,1.3-2.6,0.4-3.8c-0.1-0.1-0.2-0.2-0.3-0.3
			l-0.1-0.1l-1.4-0.7h-1l-1.4,0.6c-0.4,0.5-0.7,1.2-0.7,1.9H166l-1,0.3c-1.3,0.6-1.8,2.2-1.2,3.5c0.1,0.2,0.2,0.3,0.3,0.5l0.6,0.4
			L165.1,390.9z M153.8,377.6l0.1,0.6l0.2,0.6l0.4,0.6c1,0.9,2.5,0.9,3.6,0.1c1-0.7,1.3-2.1,0.6-3.2c-0.1-0.1-0.1-0.2-0.2-0.3
			l-1-0.6l0.4-0.2l0.4-0.4l0.4-1v-0.8V373c0-0.4-0.2-0.8-0.5-1.2l-1.5-0.7l-1.1,0.1l-1.2,0.5c-1,0.8-1.1,2.2-0.4,3.2
			c0.1,0.1,0.2,0.2,0.4,0.4c0.2,0.1,0.3,0.3,0.5,0.4C154.3,376.1,153.9,376.8,153.8,377.6L153.8,377.6z M172,392.6l-0.4-0.3
			l-0.7-0.3l-0.5-0.1l-0.8,0c-0.9,0.1-1.8,0.6-2.2,1.4c-0.4,0.8-0.3,1.8,0.3,2.4l1.2,0.7l1,0.1h0.5c0.8-0.1,1.5-0.5,1.9-1.2l0.2-1
			l-0.1-0.7L172,392.6z M181.5,370.8c0-0.8-0.4-1.5-1-2c-0.1-0.1-0.2-0.2-0.3-0.2l-1.1-0.3h-0.8l-1,0.4c-0.6,0.4-1,1-1.2,1.6
			l-0.9-0.5l-0.9-0.1h-0.5c-0.5,0-0.9,0.2-1.3,0.4l-0.7,1l-0.1,0.8v0.4c0,0.4,0.2,0.8,0.5,1.2l1.2,0.7l0.9,0.1h0.4
			c0.4,0,0.9-0.2,1.3-0.4l0.8-1.1v-0.2c0.1,0.1,0.2,0.2,0.3,0.3c0.1,0.1,0.2,0.2,0.4,0.3l1,0.3h0.8l1-0.4
			C180.9,372.5,181.4,371.6,181.5,370.8L181.5,370.8z M181.6,351l0.8,0.7l1.2,0.4h0.9l1.2-0.4c1.1-0.9,1.3-2.5,0.4-3.5
			c-0.1-0.1-0.2-0.3-0.4-0.4c-0.6-0.5-1.5-0.7-2.3-0.6c-0.9,0.1-1.6,0.6-2.1,1.3l-0.2,1l0.1,0.7L181.6,351z M180.9,358.4l0.6-0.1
			l0.4-0.1l0.5-0.2c0.9-0.6,1.4-1.6,1.2-2.7l0.1-0.7l-0.3-1c-0.7-1-1.9-1.4-3.1-1.1h-0.5l-1.2,0.4c-1.3,1.1-1.4,3-0.4,4.3
			c0.1,0.1,0.3,0.3,0.4,0.4C179.4,358.1,180.1,358.4,180.9,358.4L180.9,358.4z M186.8,384.1c0.1,0.1,0.2,0.2,0.3,0.3
			c-0.6-1-1.7-1.5-2.9-1.5l-0.7,0.1l-0.5,0.2l-0.6,0.4c-0.3,0.3-0.6,0.7-0.7,1.2c-0.3,1.4,0.6,2.7,1.9,3c1.4,0.6,3,0.1,3.8-1.1
			l0.1-1.2l-0.3-0.8L186.8,384.1z M183,380.7l0.6,0l0.8-0.1l0.2-0.1c1.9-0.6,2.8-1.6,2.7-3.1l-0.1-0.4l-0.1-0.3l-0.2-0.3
			c-0.2-0.3-0.4-0.5-0.6-0.7c-0.5-0.4-1.1-0.6-1.8-0.7l-1.1-0.1l-1.4,0.5c-0.8,0.6-1.3,1.6-1.4,2.7c0.1,0.8,0.4,1.5,1,1.9
			c0.1,0.1,0.3,0.2,0.5,0.3L183,380.7z M208.9,414.8c-0.9-0.8-2-1.2-3.2-1c-0.2,0-0.4,0.1-0.6,0.2c-0.1-0.4-0.4-0.8-0.8-1.1
			l-0.1-0.1l-0.2-0.1l-1.2-0.3l-0.8,0.1l-1,0.5c-1,0.8-1.2,2.2-0.5,3.3l1.2,0.8l1,0.2h0.5l0.3-0.1l0.3,0.6c0.1,0.1,0.3,0.2,0.4,0.4
			c0.7,0.6,1.6,0.9,2.5,0.8c0.8,0.4,1.8,0.3,2.6-0.2l0.7-0.8l0.2-0.7l-0.1-1C209.7,415.6,209.3,415.1,208.9,414.8L208.9,414.8z
			 M147.3,396.2c0.1,0,0.2-0.1,0.3-0.1C147.6,396.1,147.4,396.2,147.3,396.2L147.3,396.2z M197.7,382.6l-1-0.2l-1.5,0.3
			c-1.2,0.7-1.7,2.3-1,3.5c0.1,0.2,0.2,0.3,0.4,0.5l1.3,0.6h1l1.3-0.6c0.8-0.8,1.1-2,0.7-3.1L197.7,382.6z M132.4,334.3
			c0.4-0.3,0.6-0.8,0.5-1.3c0-0.5-0.3-1-0.8-1.4l-0.6,0.6c0.1,0.1-0.5,0.6-0.5,0.6c-0.1-0.1-0.2-0.1-0.3-0.2l-0.4,0.4
			c-0.1,0.1,0,0.3,0.1,0.4l-1.1,1.1C130.3,335.1,131.5,335.1,132.4,334.3L132.4,334.3z M210.8,336.5c-0.1-0.1-0.3-0.2-0.4-0.3
			l-1.1-0.3h-0.8l-1,0.4c-0.8,0.5-1.2,1.4-1.3,2.3c0,0.8,0.4,1.5,1,2c0.1,0.1,0.2,0.2,0.4,0.3l1.1,0.3h0.4c0-0.1,0.4,0,0.4,0
			l1.3-0.4c0.7-0.5,1.1-1.2,1.1-2C211.9,337.8,211.5,337,210.8,336.5L210.8,336.5z M188.2,297.5l-0.4-0.2c-1.3-0.8-3-1-4.5-0.4
			l-0.4,0.3l-0.3,0.2l-0.3,0.4c-0.3,0.4-0.4,1-0.3,1.5l-0.1,0.8l0.5,1.3l1.2,1l1.4,0.4l0.9-0.1l1.2-0.7c0.1-0.1,0.1-0.1,0.4-0.3
			c0.4-0.2,0.8-0.5,1.2-0.9l0.4-1.3l-0.2-0.9L188.2,297.5z M125.2,332.8l0.6-0.6c1.2,1.2,3,1.2,4.3,0.2l0.4-0.5l0.2-0.4l0.1-0.6
			c0-0.8-0.4-1.5-1-2c-0.1-0.1-0.1-0.1-0.2-0.1c0.4,0,0.9,0,1.3-0.1c0.1,0.5,0.3,0.9,0.6,1.3c0.6,0.7,1.5,1.1,2.5,1.1l0.9-0.2
			l0.6-0.3l0.6-0.6c0.1-0.1,0.1-0.2,0.2-0.4c1-0.9,1.1-2.4,0.3-3.4c-0.1-0.1-0.1-0.2-0.2-0.2l-1-0.5h-0.2c0-0.1,0-0.8,0-0.8l-0.4-1
			c-0.1-0.1-0.3-0.3-0.4-0.4c-0.1-0.1-0.3-0.2-0.4-0.3c0.2-0.1,0.3-0.2,0.4-0.3l0.9,0.4h1l0.9-0.3c-0.1,0.1-0.2,0.1-0.3,0.1
			c0.9-0.2,1.6-0.8,1.9-1.6c0.3-0.7,0.2-1.5-0.3-2.1l-1-0.7l-0.6-0.1c-0.3-0.2-0.6-0.4-0.9-0.6l-0.9-0.1l-0.1-0.7l-0.5-0.9
			c-0.5-0.4-1.1-0.7-1.7-0.8c0-0.3,0-0.6,0-0.8c-0.2-1-0.9-1.8-1.8-2c0-0.2,0-0.4,0-0.6l-0.1-0.2c0.3,0,0.5,0,0.8,0
			c1-0.2,1.9-0.9,2.2-1.9c0.3-1.1-0.2-2.2-1.2-2.7c-0.4-0.2-0.9-0.3-1.4-0.3c0.1-0.1,0.2-0.2,0.3-0.3c-1,0.6-1.9,1.2-2.7,2
			c0,0.1-0.1,0.1-0.1,0.2c-1.6,1.3-2.8,3-3.7,4.8l0.6,0.5c-0.1,0-0.2-0.1-0.3-0.2c0.4,0.4,0.9,0.8,1.4,1l0.6,0c0,0.2,0,0.4,0.1,0.7
			c-0.3,0.1-0.6,0.2-0.8,0.4l-0.6,1l-0.1,0.8l0.3,0.9l-0.2-0.2c0-0.1-0.1-0.2-0.1-0.3c0,0.1,0,0.2,0.1,0.3l-0.6-0.6
			c-0.6-0.2-1.1-0.2-1.7-0.1c-0.2,0.9-0.2,1.8-0.2,2.7v2.9l0.2-0.6c1.3,0.1,2.4-0.7,2.9-1.8l0.1-0.2v-0.7l0.6,1.4
			c1,1,2.5,1.2,3.7,0.5l0.2-0.3l0.4,0.3l0.5,0.2c0.1,0-0.4,0.5-0.4,0.5c-0.6,0.1-1.1,0.3-1.6,0.7l-0.4,0.8c-0.1,0-0.2,0-0.3,0
			c-1,0.1-1.9,0.9-2.2,1.9c-0.1,0.3-0.1,0.6-0.1,0.8l0.3,0.8l-0.3-0.2l-0.4-0.3V327l-0.4-0.3l-2.1-0.1l-0.2,0.2l-0.6,0.1v6.2
			c0.5,0,1,0,1.5-0.1L125.2,332.8z M170.1,355.1c-1.2,0.8-1.5,2.5-0.7,3.7c0.1,0.1,0.1,0.2,0.2,0.3l0.7,0.4l0.6,0.2l0.8,0.1
			c1.1-0.1,2-0.7,2.5-1.6c-0.2,0.2-0.4,0.3-0.6,0.3l1.2-1l0.3-0.9l-0.4-1.5l-0.1-0.1C173.3,353.8,171.4,353.9,170.1,355.1
			L170.1,355.1z M141.2,341.8l0.3,0.1c1.4,0.7,3,0.2,3.8-1.2l0.2-0.8l-0.1-0.6l-0.3-0.8c-0.1-0.2-0.3-0.3-0.5-0.5
			c-1.2-1-3-1.1-4.3-0.2c-1,0.8-1.2,2.2-0.4,3.2c0,0.1,0.1,0.1,0.1,0.2L141.2,341.8z M143.1,370.2l1.1-0.5l0.8-0.8l0.4-1.1v-0.8
			l-0.5-1.1l-0.2-0.1c-0.7-0.6-1.5-0.9-2.4-0.9l-0.6,0.1l-0.4,0.1l-0.5,0.3c-0.7,0.5-1.1,1.2-1.1,2c0,0.8,0.4,1.6,1.1,2.1
			c0.1,0.1,0.2,0.2,0.4,0.3l1.2,0.3L143.1,370.2z M152.6,403.4l0.3-0.1c-0.1,0.1-0.2,0.1-0.3,0.2c0.8-0.2,1.4-0.9,1.4-1.8l-0.2-0.6
			l-0.1-1.1c-1-0.8-2.4-0.9-3.5-0.3c0.5-0.9,0.4-2.1-0.4-2.9l-1.1-0.5l-0.8-0.1l-1.1,0.2c0.1-0.1,0.2-0.1,0.4-0.1
			c-1,0.1-2,0.6-2.5,1.5l-0.2,0.9l0.1,0.7l0.5,0.9l0.1,0.1c0.7,0.6,1.5,0.9,2.4,0.9l0.6-0.1l0.4-0.1l0.4-0.2c-0.5,1-0.2,2.3,0.7,3
			l2.4-0.1L152.6,403.4z M167.1,321.9l1.2,0.3l0.8-0.1l1.1-0.5c0.5-0.6,1-1.2,1.3-1.9c0.2-0.4,0.4-0.7,0.7-1c0,0-0.1,0.1-0.2,0.1
			l1.2-1.4l0-1.1l-1.1-1.5c-0.7-0.2-1.4-0.2-2.1-0.1c0.3-0.1,0.6,0,0.9,0H170l-0.7,0.2l-0.8,0.5c-0.1,0.1,0,0,0.2-0.1l-0.8,0.6
			l-0.4,0.5l-0.3,0.9c0-0.1,0-0.1,0-0.2c0,0.1-0.3,0.3-0.3,0.4c-0.4,0.4-0.7,0.9-0.9,1.5C165.7,320.2,166.1,321.4,167.1,321.9
			L167.1,321.9z M127.2,337.1c-1,0.8-1.2,2.2-0.4,3.2c0.1,0.2,0.2,0.3,0.4,0.4c0.2,0.1,0.4,0.3,0.6,0.4l1.1,0.2l0.8-0.1l1-0.5
			l0.2-0.2c0,0.1-0.1,0.1-0.1,0.2v1.1l0.3,0.8l0.8,0.8c-0.1,0-0.2-0.1-0.2-0.1c0.6,0.5,1.4,0.8,2.1,0.8l1.1-0.3l0.6-0.4l0.6-0.9
			l0.1-0.5c0.2-0.7,0-1.5-0.5-2c-0.5-0.5-1.2-0.8-1.9-0.8l-0.6,0.2c-0.8-0.1-1.6,0.3-2.2,0.9l0.4-0.9v-0.8v-0.2
			c0-0.4-0.2-0.8-0.4-1.1l-1.5-0.7l-1.1,0L127.2,337.1z M169.6,419.1l-0.4,0.2C169.3,419.2,169.6,419,169.6,419.1l-0.3-0.3
			c0-0.1,0-0.1,0-0.2c-0.1-0.7-0.4-1.3-0.9-1.7l-2.4,0.1l-0.2,0.2l-0.4,0.1l-0.4,0.4l-0.4,0.7c-0.1,0.3-0.1,0.6,0,0.9h0.7
			c1.5,0,3.1,0.2,4.6,0.5C169.9,419.5,169.8,419.3,169.6,419.1L169.6,419.1z M171,332.4l0-0.8l-0.5-1c-0.1-0.1-0.3-0.3-0.4-0.4
			c-0.8-0.8-2-1.2-3.1-1.1c-0.6,0.1-1.1,0.3-1.5,0.7l-0.2-0.1l-1.1,0.2l-1.2,1.1l-0.2,0.7l0.2,1.1l0.4,0.7l1,0.7
			c2.1-0.1,4.3-0.4,6.3-1L171,332.4z M125.4,398.4c0.3-0.9,0-1.9-0.8-2.5c-0.4-0.3-0.8-0.5-1.2-0.7v4.8
			C124.3,399.9,125.1,399.3,125.4,398.4L125.4,398.4z M123.5,340.4v3.6c0.5-0.4,0.8-1.1,0.8-1.7C124.2,341.6,124,340.9,123.5,340.4
			L123.5,340.4z M124.7,405.8c0.2-0.1,0.3-0.2,0.5-0.3l0.4-1.5l-0.2-0.7l-0.1-0.2l-0.3-0.5l-1.1-0.8l-0.4-0.1v4.9
			c0.4-0.1,0.8-0.3,1.1-0.5L124.7,405.8z M125.9,386.9l0.3-1l-0.1-0.7l-0.5-0.9l-0.4-0.3l-0.7-0.3l-0.5-0.1h-0.4v4.7h0.5
			C124.7,388,125.4,387.6,125.9,386.9L125.9,386.9z M128.9,392.4l1,0.4h0.8l1.1-0.3c1.2-0.7,1.6-2.2,0.9-3.4
			c-0.1-0.2-0.2-0.3-0.3-0.4l-0.1-0.2l-1-0.6l-0.8-0.2l-1.2,0.1c-0.8,0.3-1.5,1-1.7,1.9c-0.1,0.9,0.2,1.7,0.9,2.3
			C128.6,392.1,128.8,392.3,128.9,392.4L128.9,392.4z M124.9,346.7c0.1-0.8-0.3-1.6-0.9-2.1c-0.2-0.1-0.3-0.2-0.5-0.3v4.2
			c0,0,0.1,0,0.2-0.1C124.3,348.1,124.8,347.5,124.9,346.7L124.9,346.7z M140.5,429.7l-0.1-0.1l-1.1-0.4h-0.8l-1.1,0.3
			c-0.7,0.4-1.1,1.2-1.2,2c0,0.8,0.3,1.5,0.9,2l0.2,0.2l0.2,0.1c1-1.4,2.1-2.7,3.2-4L140.5,429.7z M162,290.3
			c-0.2-0.1-0.4-0.3-0.6-0.3c0.4,0.4,0.9,0.8,1.3,1.2C162.6,290.9,162.3,290.6,162,290.3L162,290.3z M160.6,308.4l1.2-0.2l0.8-0.4
			l0.2-0.3c0.5,0.2,1.1,0.2,1.6,0c0.7-0.2,1.3-0.8,1.6-1.5v-1l-0.1-0.3h-7.6c-0.3,0.9-0.1,1.8,0.4,2.6
			C159.1,307.9,159.8,308.3,160.6,308.4L160.6,308.4z M125.8,432.4l-1.2-0.6l-0.9-0.1h-0.3v4.5h0.3h0.4c0.5,0,0.9-0.2,1.3-0.4l0.7-1
			l0.1-0.8v-0.4C126.2,433.2,126.1,432.8,125.8,432.4L125.8,432.4z M125.9,381.5c0.6,0.5,1.3,0.7,2.1,0.6h0.2h0.2l0.2-0.1
			c0.9-0.2,1.6-0.9,1.8-1.8c0.2-0.9-0.2-1.9-1-2.5c-0.7-0.6-1.5-0.8-2.4-0.8c-0.7,0.1-1.4,0.5-1.8,1.1l-0.2,0.8v0.6l0.3,0.8
			c-0.1-0.2-0.2-0.4-0.2-0.6C125.1,380.4,125.4,381.1,125.9,381.5L125.9,381.5z M133.9,399.5l-0.5-1.1l-0.6-0.5l-1.3-0.4h-0.3
			c0,0,0.1-0.5,0.1-0.5v-0.7c-0.1-0.6-0.4-1.1-0.8-1.5l-0.9-0.4l-0.8-0.2l-1.1,0.1c-0.2,0.1-0.3,0.2-0.5,0.3
			c-0.2,0.1-0.5,0.3-0.7,0.4c-0.8,0.8-0.9,2.1-0.1,2.9c0.1,0.1,0.1,0.1,0.2,0.2c0.6,0.5,1.3,0.8,2.1,0.8c-0.4,0.8-0.3,1.8,0.4,2.4
			l0.2,0.1c0.1,0.1,0.2,0.3,0.4,0.4l1.2,0.4h0.9l1.2-0.5l0.6-0.5l0.4-1.1L133.9,399.5z M131.9,425.6l-1.3,0.4l0.7-0.9l-1-0.6
			l-0.7-0.2c-1.2-0.2-2.4,0.3-3,1.4l-0.1,0.3l-0.1,0.3l0,0.4c0,0.8,0.4,1.6,1.1,2.1c0.4,0.3,0.8,0.6,1.2,0.8l0.2,0.1l1.1,0.2
			l0.8-0.1l1-0.4c1-0.9,1.2-2.4,0.3-3.4C132,425.7,132,425.7,131.9,425.6L131.9,425.6z M140.9,332.8l0.6-0.5l0.3-0.8
			c0.1,0.3,0.2,0.7,0.5,0.9l1.2,0.6h0.4c0.3,0,0.6,0,0.9,0l1.4-0.5c1-0.8,1.1-2.1,0.4-3.1c-0.1-0.1-0.2-0.2-0.2-0.3
			c-0.2-0.2-0.4-0.3-0.6-0.4l-1.2-0.2l-0.8,0.1l-1.1,0.5c-0.3,0.3-0.6,0.7-0.8,1.1l-0.5-1c-1-0.9-2.3-1.1-3.5-0.8l-0.9,0.6l-0.5,0.6
			l-0.3,1c0,0.6,0.3,1.2,0.8,1.7c0.3,0.3,0.8,0.5,1.2,0.6c-0.2-0.1-0.4-0.2-0.6-0.3l1.2,0.5h0.9L140.9,332.8z M163.8,349.4l0.3,0.8
			l0.2,0.3c0.3,0.4,0.6,0.6,1,0.8l1.4,0.1l0.9-0.3l0.4-0.2c0.4-0.2,0.6-0.5,0.9-0.9l0.1-1.2l-0.3-0.8l-0.2-0.4
			c-0.2-0.3-0.6-0.6-0.9-0.8l-1.4-0.1l-0.9,0.3l-0.4,0.2l-0.2,0.1l-0.1-1l-0.6-1.1c-0.7-0.6-1.6-0.9-2.5-0.8
			c-0.8,0.1-1.5,0.6-1.9,1.2l-0.2,1l0.1,0.7l0.5,0.9l0.4,0.3l1.1,0.4h0.8h0.2c0.4,0,0.9-0.2,1.3-0.4L163.8,349.4z M146.8,352
			l-0.9-0.1h-0.4c-0.5,0-0.9,0.2-1.3,0.4l-0.7,1l-0.1,0.8v0.4c0,0.4,0.2,0.8,0.4,1.1l1.2,0.7l0.9,0.1h0.4c0.4,0,0.9-0.2,1.3-0.4
			l0.5-0.8l0.8,0.6c-0.1,0-0.2-0.1-0.3-0.2l0.1,0.1c0.4,0.5,0.9,0.8,1.4,1.1h1.5l0.9-0.4l0.9-1c-0.1,0.2-0.2,0.4-0.4,0.6
			c1.2-0.6,1.9-1.7,1.9-3l-0.2-0.7l-0.2-0.4l-0.5-0.5c-0.6-0.4-1.3-0.7-2.1-0.8c0.3,0.1,0.5,0.3,0.7,0.5l-1.4-0.9l-1.1-0.1l-1.5,0.7
			c-0.1,0.1-0.2,0.2-0.3,0.3c-0.3,0.4-0.6,0.8-0.8,1.2L146.8,352z M138.7,327.9l1.3,0.5h0.9l1.3-0.6c0.7-0.3,1.3-1,1.4-1.8
			c0-0.9-0.3-1.7-1-2.2l-1.2-0.4h-0.9l-1.2,0.4C136.9,325.8,138.3,327.4,138.7,327.9L138.7,327.9z M146.1,316.6
			c0.8-0.1,1.5-0.6,1.9-1.2l0.2-1l-0.1-0.7l-0.5-0.9c-1-0.9-2.4-1-3.6-0.5l-0.9,1.3v1l0.6,1.2C144.3,316.4,145.2,316.7,146.1,316.6
			L146.1,316.6z M154.3,364.7c-0.2,1,0.1,1.9,0.8,2.7l1,0.7l0.8,0.2l1.3-0.2c0.7-0.3,1.1-0.9,1.3-1.7c0.1-0.4,0.1-0.7,0.1-1.1
			c0,0.1,0,0.2,0,0.2l-0.2-1.1l-0.5-0.7l-1-0.7C156.5,362.5,154.9,363.2,154.3,364.7C154.3,364.7,154.3,364.7,154.3,364.7
			L154.3,364.7z M150.3,324.4c1.1,1,2.8,1.1,4,0.2l0.6-1c0.1,0,0.6,0,0.6,0c0.5,0,0.9-0.2,1.3-0.4l0.7-1.1l0.1-0.9v-0.5
			c-0.1-0.6-0.4-1.1-0.9-1.4l-0.1-0.1l-0.2-0.1l-1.2-0.3l-0.8,0.1l-1,0.4c-0.3,0.3-0.6,0.7-0.8,1.2c-0.9-0.2-1.7,0-2.4,0.6l-0.6,1
			l-0.1,0.8l0.4,1.1C150.1,324.1,150.2,324.3,150.3,324.4L150.3,324.4z M125.6,375c0.6,0.2,1.2,0.2,1.8,0c-0.1,0.7,0.1,1.3,0.5,1.8
			l1.4,0.6c1,0.6,2.3,0.6,3.2,0l0.5-0.5l0.2-0.4l0.2-0.7c0-0.9-0.5-1.8-1.2-2.4c-0.1-0.1-0.3-0.3-0.5-0.4l-1.1-0.4l-0.8,0l-0.9,0.3
			l-0.1-0.8c-0.1-0.6-0.5-1.2-0.9-1.6c-0.2-0.2-0.5-0.4-0.8-0.5l-0.3,0l-0.1-0.2c-0.2-0.3-0.5-0.6-0.8-0.9c-0.6-0.5-1.4-0.7-2.2-0.6
			c-0.2,0-0.3,0.1-0.5,0.2v8.2c0.7-0.1,1.4-0.4,1.9-1L125.6,375z M138.7,424c0.9-0.8,1.1-2.1,0.3-3.1c0,0-0.1-0.1-0.1-0.1l-1.1-0.6
			l-0.1-0.1l-1.1-0.2l-1.7,0.4l-0.6,0.5l-0.4,0.8l-0.1,0.6l0.1,0.9c0.2,0.3,0.4,0.6,0.6,0.8C135.9,424.9,137.5,425,138.7,424
			L138.7,424z M131.7,362l1.6-0.2l0.6-0.4c1.1-0.2,2-1,2.3-2c0.1-0.2,0.1-0.5,0.1-0.8l-0.1-0.4l-0.1-0.3l-0.2-0.4
			c-0.3-0.5-0.8-1-1.3-1.3l0.4-0.6l0.1-0.8v-0.3c0-0.4-0.2-0.8-0.5-1.2l-1.2-0.7l-0.9-0.1h-0.4c-0.5,0-0.9,0.2-1.3,0.4l-0.7,1
			l-0.1,0.8v0.4c0.1,0.3,0.2,0.6,0.3,0.8c-0.1,0-0.6,0.5-0.6,0.5c-0.3,0.4-0.6,0.9-0.7,1.4c-0.5,1.8,0.6,3.7,2.5,4.1
			C131.6,362,131.6,362,131.7,362L131.7,362z M136.8,413.2l-1.1,0.2l-0.7,0.4l-0.8,0.9l-0.1,0.2c-0.3,1.2,0.2,2.4,1.2,3.1l1.5,0.4
			l1-0.2l1.2-1c0.1-0.1,0.1-0.3,0.1-0.4c0.3-0.8,0.1-1.7-0.4-2.3C138.4,413.7,137.6,413.3,136.8,413.2L136.8,413.2z M132.4,367.3
			l0.3,0.1l1.2-0.2l0.7-0.4l0.8-0.8c0.3-0.7,0.3-1.6-0.2-2.3c-0.5-0.7-1.2-1.2-2-1.3h-0.2l-1.2,0.2L131,363l-0.8,0.8
			c-0.3,0.7-0.2,1.6,0.2,2.3C130.9,366.7,131.6,367.2,132.4,367.3L132.4,367.3z M138.7,385.3l-1.5-0.5c-0.1,0-0.3-0.1-0.4-0.1
			l-1,0.1l-1.3,0.7l-0.1,0.1c-0.4,0.4-0.7,0.9-0.9,1.4c-0.3,1.3,0.4,2.5,1.7,2.9l1.8-0.3l0.6-0.5c0.9-0.2,1.6-0.8,1.9-1.7
			C139.6,386.7,139.3,385.8,138.7,385.3L138.7,385.3z"/>
		<path id="Path_2742" class="st1" d="M157.6,272.9l0.8,0.1h0.5l0.8-0.2c0.8-0.4,1.4-1.1,1.6-2c0.3-1,0-2.1-0.7-2.8
			c-0.7-0.8-1.8-1.1-2.8-1l-1,0.4l-0.6,0.5l-0.5,0.9C155.2,270.5,156,272.3,157.6,272.9z M153.8,286.4c0.9-0.1,1.8-0.6,2.4-1.3
			l0.4-1l0-0.8l-0.5-1c-1.3-1.1-3.2-1.2-4.5-0.1l-0.1,0.1l-0.8,1.2v0.9l0.6,1.2C152,286.2,152.9,286.5,153.8,286.4L153.8,286.4z
			 M161.3,295.3l-0.3-0.8c-0.1-0.2-0.3-0.4-0.5-0.5c-0.7-0.6-1.6-0.8-2.4-0.6c-0.1-0.1-0.3-0.3-0.4-0.4c-1.2-1.1-3-1.1-4.2,0.1
			c-0.5,0.5-0.8,1.2-0.8,1.9v0.6l0.1,0.4l0.3,0.6c0.2,0.2,0.4,0.5,0.7,0.7c2.5-0.9,5.1-1.4,7.7-1.5
			C161.4,295.6,161.4,295.5,161.3,295.3L161.3,295.3z M146.4,291.7l-0.4-0.3l-0.7-0.3l-0.5-0.1l-0.8,0c-0.9,0.1-1.8,0.6-2.2,1.4
			c-0.4,0.8-0.3,1.8,0.3,2.5l1.2,0.7l1,0.1h0.5c0.8-0.1,1.5-0.5,1.9-1.2l0.2-1l-0.1-0.7L146.4,291.7z M148.9,284.1
			c0,0-0.1-0.1-0.1-0.1c-0.3-0.4-0.8-0.5-1.2-0.2c-0.1,0.1-0.2,0.2-0.3,0.4l0.3,0.8c-0.1,0-0.1-0.1-0.1-0.2l0.4,0.8
			c0.6,0.2,1.2,0,1.6-0.5l-0.7-0.9C148.8,284.1,148.9,284.1,148.9,284.1L148.9,284.1z M165.1,267.3l0.7,0.2c1.2,0.1,2.3-0.5,2.9-1.5
			c0.1-0.2,0.2-0.4,0.2-0.6c0.1,0,0.3,0,0.4,0.1l0.6-0.1l0.4-0.2l0.5-0.3c1.2-0.9,1.3-2.6,0.4-3.8c-0.1-0.1-0.2-0.2-0.3-0.3
			l-0.1-0.1l-1.4-0.7h-1l-1.4,0.6c-0.4,0.5-0.7,1.2-0.7,1.9H166l-1,0.3c-1.3,0.6-1.8,2.2-1.2,3.5c0.1,0.2,0.2,0.3,0.3,0.5l0.6,0.4
			L165.1,267.3z M153.8,254l0.1,0.6l0.2,0.6l0.4,0.6c1,0.9,2.5,0.9,3.6,0.1c1-0.7,1.3-2.1,0.6-3.2c-0.1-0.1-0.1-0.2-0.2-0.3l-1-0.6
			l0.4-0.2l0.4-0.4l0.4-1v-0.8v-0.2c0-0.4-0.2-0.8-0.5-1.2l-1.5-0.7l-1.1,0.1l-1.2,0.5c-1,0.8-1.1,2.2-0.4,3.2
			c0.1,0.1,0.2,0.2,0.4,0.4c0.2,0.1,0.3,0.3,0.5,0.4C154.3,252.6,153.9,253.3,153.8,254L153.8,254z M172,269l-0.4-0.3l-0.7-0.3
			l-0.5-0.1l-0.8,0c-0.9,0.1-1.8,0.6-2.2,1.4c-0.4,0.8-0.3,1.8,0.3,2.4l1.2,0.7l1,0.1h0.5c0.8-0.1,1.5-0.5,1.9-1.2l0.2-1l-0.1-0.7
			L172,269z M181.5,247.2c0-0.8-0.4-1.5-1-2c-0.1-0.1-0.2-0.2-0.3-0.2l-1.1-0.3h-0.8l-1,0.4c-0.6,0.4-1,1-1.2,1.6l-0.9-0.5l-0.9-0.1
			h-0.5c-0.5,0-0.9,0.2-1.3,0.4l-0.7,1l-0.1,0.8v0.4c0,0.4,0.2,0.8,0.5,1.2l1.2,0.7l0.9,0.1h0.4c0.4,0,0.9-0.2,1.3-0.4l0.8-1.1V249
			c0.1,0.1,0.2,0.2,0.3,0.3c0.1,0.1,0.2,0.2,0.4,0.3l1,0.3h0.8l1-0.4C180.9,248.9,181.4,248.1,181.5,247.2L181.5,247.2z
			 M181.6,227.4l0.8,0.7l1.2,0.4h0.9l1.2-0.4c1.1-0.9,1.3-2.5,0.4-3.5c-0.1-0.1-0.2-0.3-0.4-0.4c-0.6-0.5-1.5-0.7-2.3-0.6
			c-0.9,0.1-1.6,0.6-2.1,1.3l-0.2,1l0.1,0.7L181.6,227.4z M180.9,234.9l0.6-0.1l0.4-0.1l0.5-0.2c0.9-0.6,1.4-1.6,1.2-2.7l0.1-0.7
			l-0.3-1c-0.7-1-1.9-1.4-3.1-1.1h-0.5l-1.2,0.4c-1.3,1.1-1.4,3-0.4,4.3c0.1,0.1,0.3,0.3,0.4,0.4
			C179.4,234.5,180.1,234.8,180.9,234.9L180.9,234.9z M186.8,260.6c0.1,0.1,0.2,0.2,0.3,0.3c-0.6-1-1.7-1.5-2.9-1.5l-0.7,0.1
			l-0.5,0.2l-0.6,0.4c-0.3,0.3-0.6,0.7-0.7,1.2c-0.3,1.4,0.6,2.7,1.9,3c1.4,0.6,3,0.1,3.8-1.1l0.1-1.2l-0.3-0.8L186.8,260.6z
			 M183,257.2l0.6,0l0.8-0.1l0.2-0.1c1.9-0.6,2.8-1.6,2.7-3.1l-0.1-0.4l-0.1-0.3l-0.2-0.3c-0.2-0.3-0.4-0.5-0.6-0.7
			c-0.5-0.4-1.1-0.6-1.8-0.7l-1.1-0.1l-1.4,0.5c-0.8,0.6-1.3,1.6-1.4,2.7c0.1,0.8,0.4,1.5,1,1.9c0.1,0.1,0.3,0.2,0.5,0.3L183,257.2z
			 M208.9,291.3c-0.9-0.8-2-1.2-3.2-1c-0.2,0-0.4,0.1-0.6,0.2c-0.1-0.4-0.4-0.8-0.8-1.1l-0.1-0.1l-0.2-0.1l-1.2-0.3l-0.8,0.1l-1,0.5
			c-1,0.8-1.2,2.2-0.5,3.3l1.2,0.8l1,0.2h0.5l0.3-0.1l0.3,0.6c0.1,0.1,0.3,0.2,0.4,0.4c0.7,0.6,1.6,0.9,2.5,0.8
			c0.8,0.4,1.8,0.3,2.6-0.2l0.7-0.8l0.2-0.7l-0.1-1C209.7,292,209.3,291.6,208.9,291.3L208.9,291.3z M147.3,272.7
			c0.1,0,0.2-0.1,0.3-0.1C147.6,272.6,147.4,272.6,147.3,272.7L147.3,272.7z M197.7,259.1l-1-0.2l-1.5,0.3c-1.2,0.7-1.7,2.3-1,3.5
			c0.1,0.2,0.2,0.3,0.4,0.5l1.3,0.6h1l1.3-0.6c0.8-0.8,1.1-2,0.7-3.1L197.7,259.1z M132.4,210.7c0.4-0.3,0.6-0.8,0.5-1.3
			c0-0.5-0.3-1-0.8-1.4l-0.6,0.6c0.1,0.1-0.5,0.6-0.5,0.6c-0.1-0.1-0.2-0.1-0.3-0.2l-0.4,0.4c-0.1,0.1,0,0.3,0.1,0.4l-1.1,1.1
			C130.3,211.6,131.5,211.5,132.4,210.7L132.4,210.7z M210.8,212.9c-0.1-0.1-0.3-0.2-0.4-0.3l-1.1-0.3h-0.8l-1,0.4
			c-0.8,0.5-1.2,1.4-1.3,2.3c0,0.8,0.4,1.5,1,2c0.1,0.1,0.2,0.2,0.4,0.3l1.1,0.3h0.4c0-0.1,0.4,0,0.4,0l1.3-0.4
			c0.7-0.5,1.1-1.2,1.1-2C211.9,214.3,211.5,213.5,210.8,212.9L210.8,212.9z M188.2,174l-0.4-0.2c-1.3-0.8-3-1-4.5-0.4l-0.4,0.3
			l-0.3,0.2l-0.3,0.4c-0.3,0.4-0.4,1-0.3,1.5l-0.1,0.8l0.5,1.3l1.2,1l1.4,0.4l0.9-0.1l1.2-0.7c0.1-0.1,0.1-0.1,0.4-0.3
			c0.4-0.2,0.8-0.5,1.2-0.9l0.4-1.3l-0.2-0.9L188.2,174z M125.2,209.2l0.6-0.6c1.2,1.2,3,1.2,4.3,0.2l0.4-0.5l0.2-0.4l0.1-0.6
			c0-0.8-0.4-1.5-1-2c-0.1-0.1-0.1-0.1-0.2-0.1c0.4,0,0.9,0,1.3-0.1c0.1,0.5,0.3,0.9,0.6,1.3c0.6,0.7,1.5,1.1,2.5,1.1l0.9-0.2
			l0.6-0.3l0.6-0.6c0.1-0.1,0.1-0.2,0.2-0.4c1-0.9,1.1-2.4,0.3-3.4c-0.1-0.1-0.1-0.2-0.2-0.2l-1-0.5h-0.2c0-0.1,0-0.8,0-0.8l-0.4-1
			c-0.1-0.1-0.3-0.3-0.4-0.4c-0.1-0.1-0.3-0.2-0.4-0.3c0.2-0.1,0.3-0.2,0.4-0.3l0.9,0.4h1l0.9-0.3c-0.1,0.1-0.2,0.1-0.3,0.1
			c0.9-0.2,1.6-0.8,1.9-1.6c0.3-0.7,0.2-1.5-0.3-2.1l-1-0.7l-0.6-0.1c-0.3-0.2-0.6-0.4-0.9-0.6l-0.9-0.1l-0.1-0.7l-0.5-0.9
			c-0.5-0.4-1.1-0.7-1.7-0.8c0-0.3,0-0.6,0-0.8c-0.2-1-0.9-1.8-1.8-2c0-0.2,0-0.4,0-0.6l-0.1-0.2c0.3,0,0.5,0,0.8,0
			c1-0.2,1.9-0.9,2.2-1.9c0.3-1.1-0.2-2.2-1.2-2.7c-0.4-0.2-0.9-0.3-1.4-0.3c0.1-0.1,0.2-0.2,0.3-0.3c-1,0.6-1.9,1.2-2.7,2
			c0,0.1-0.1,0.1-0.1,0.2c-1.6,1.3-2.8,3-3.7,4.8l0.6,0.5c-0.1,0-0.2-0.1-0.3-0.2c0.4,0.4,0.9,0.8,1.4,1l0.6,0c0,0.2,0,0.4,0.1,0.7
			c-0.3,0.1-0.6,0.2-0.8,0.4l-0.6,1l-0.1,0.8l0.3,0.9L126,195c0-0.1-0.1-0.2-0.1-0.3c0,0.1,0,0.2,0.1,0.3l-0.6-0.6
			c-0.6-0.2-1.1-0.2-1.7-0.1c-0.2,0.9-0.2,1.8-0.2,2.7v2.9l0.2-0.6c1.3,0.1,2.4-0.7,2.9-1.8l0.1-0.2v-0.7l0.6,1.4
			c1,1,2.5,1.2,3.7,0.5l0.2-0.3l0.4,0.3l0.5,0.2c0.1,0-0.4,0.5-0.4,0.5c-0.6,0.1-1.1,0.3-1.6,0.7l-0.4,0.8c-0.1,0-0.2,0-0.3,0
			c-1,0.1-1.9,0.9-2.2,1.9c-0.1,0.3-0.1,0.6-0.1,0.8l0.3,0.8l-0.3-0.2l-0.4-0.3v-0.2l-0.4-0.3l-2.1-0.1l-0.2,0.2l-0.6,0.1v6.2
			c0.5,0,1,0,1.5-0.1L125.2,209.2z M170.1,231.6c-1.2,0.8-1.5,2.5-0.7,3.7c0.1,0.1,0.1,0.2,0.2,0.3l0.7,0.4l0.6,0.2l0.8,0.1
			c1.1-0.1,2-0.7,2.5-1.6c-0.2,0.2-0.4,0.3-0.6,0.3l1.2-1l0.3-0.9l-0.4-1.5l-0.1-0.1C173.3,230.3,171.4,230.4,170.1,231.6
			L170.1,231.6z M141.2,218.2l0.3,0.1c1.4,0.7,3,0.2,3.8-1.2l0.2-0.8l-0.1-0.6l-0.3-0.8c-0.1-0.2-0.3-0.3-0.5-0.5
			c-1.2-1-3-1.1-4.3-0.2c-1,0.8-1.2,2.2-0.4,3.2c0,0.1,0.1,0.1,0.1,0.2L141.2,218.2z M143.1,246.6l1.1-0.5l0.8-0.8l0.4-1.1v-0.8
			l-0.5-1.1l-0.2-0.1c-0.7-0.6-1.5-0.9-2.4-0.9l-0.6,0.1l-0.4,0.1l-0.5,0.3c-0.7,0.5-1.1,1.2-1.1,2c0,0.8,0.4,1.6,1.1,2.1
			c0.1,0.1,0.2,0.2,0.4,0.3l1.2,0.3L143.1,246.6z M152.6,279.8l0.3-0.1c-0.1,0.1-0.2,0.1-0.3,0.2c0.8-0.2,1.4-0.9,1.4-1.8l-0.2-0.6
			l-0.1-1.1c-1-0.8-2.4-0.9-3.5-0.3c0.5-0.9,0.4-2.1-0.4-2.9l-1.1-0.5l-0.8-0.1l-1.1,0.2c0.1-0.1,0.2-0.1,0.4-0.1
			c-1,0.1-2,0.6-2.5,1.5l-0.2,0.9l0.1,0.7l0.5,0.9l0.1,0.1c0.7,0.6,1.5,0.9,2.4,0.9l0.6-0.1l0.4-0.1l0.4-0.2c-0.5,1-0.2,2.3,0.7,3
			l2.4-0.1L152.6,279.8z M167.1,198.3l1.2,0.3l0.8-0.1l1.1-0.5c0.5-0.6,1-1.2,1.3-1.9c0.2-0.4,0.4-0.7,0.7-1c0,0-0.1,0.1-0.2,0.1
			l1.2-1.4l0-1.1l-1.1-1.5c-0.7-0.2-1.4-0.2-2.1-0.1c0.3-0.1,0.6,0,0.9,0H170l-0.7,0.2l-0.8,0.5c-0.1,0.1,0,0,0.2-0.1l-0.8,0.6
			l-0.4,0.5l-0.3,0.9c0-0.1,0-0.1,0-0.2c0,0.1-0.3,0.3-0.3,0.4c-0.4,0.4-0.7,0.9-0.9,1.5C165.7,196.7,166.1,197.8,167.1,198.3
			L167.1,198.3z M127.2,213.6c-1,0.8-1.2,2.2-0.4,3.2c0.1,0.2,0.2,0.3,0.4,0.4c0.2,0.1,0.4,0.3,0.6,0.4l1.1,0.2l0.8-0.1l1-0.5
			l0.2-0.2c0,0.1-0.1,0.1-0.1,0.2v1.1l0.3,0.8l0.8,0.8c-0.1,0-0.2-0.1-0.2-0.1c0.6,0.5,1.4,0.8,2.1,0.8l1.1-0.3l0.6-0.4l0.6-0.9
			l0.1-0.5c0.2-0.7,0-1.5-0.5-2c-0.5-0.5-1.2-0.8-1.9-0.8l-0.6,0.2c-0.8-0.1-1.6,0.3-2.2,0.9l0.4-0.9v-0.8v-0.2
			c0-0.4-0.2-0.8-0.4-1.1l-1.5-0.7l-1.1,0L127.2,213.6z M169.6,295.5l-0.4,0.2C169.3,295.6,169.6,295.5,169.6,295.5l-0.3-0.3
			c0-0.1,0-0.1,0-0.2c-0.1-0.7-0.4-1.3-0.9-1.7l-2.4,0.1l-0.2,0.2l-0.4,0.1l-0.4,0.4l-0.4,0.7c-0.1,0.3-0.1,0.6,0,0.9h0.7
			c1.5,0,3.1,0.2,4.6,0.5C169.9,295.9,169.8,295.7,169.6,295.5L169.6,295.5z M171,208.8l0-0.8l-0.5-1c-0.1-0.1-0.3-0.3-0.4-0.4
			c-0.8-0.8-2-1.2-3.1-1.1c-0.6,0.1-1.1,0.3-1.5,0.7l-0.2-0.1l-1.1,0.2l-1.2,1.1l-0.2,0.7l0.2,1.1l0.4,0.7l1,0.7
			c2.1-0.1,4.3-0.4,6.3-1L171,208.8z M125.4,274.9c0.3-0.9,0-1.9-0.8-2.5c-0.4-0.3-0.8-0.5-1.2-0.7v4.8
			C124.3,276.3,125.1,275.7,125.4,274.9L125.4,274.9z M123.5,216.9v3.6c0.5-0.4,0.8-1.1,0.8-1.7C124.2,218,124,217.4,123.5,216.9
			L123.5,216.9z M124.7,282.3c0.2-0.1,0.3-0.2,0.5-0.3l0.4-1.5l-0.2-0.7l-0.1-0.2L125,279l-1.1-0.8l-0.4-0.1v4.9
			c0.4-0.1,0.8-0.3,1.1-0.5L124.7,282.3z M125.9,263.4l0.3-1l-0.1-0.7l-0.5-0.9l-0.4-0.3l-0.7-0.3l-0.5-0.1h-0.4v4.7h0.5
			C124.7,264.4,125.4,264,125.9,263.4L125.9,263.4z M128.9,268.8l1,0.4h0.8l1.1-0.3c1.2-0.7,1.6-2.2,0.9-3.4
			c-0.1-0.2-0.2-0.3-0.3-0.4l-0.1-0.2l-1-0.6l-0.8-0.2l-1.2,0.1c-0.8,0.3-1.5,1-1.7,1.9c-0.1,0.9,0.2,1.7,0.9,2.3
			C128.6,268.5,128.8,268.7,128.9,268.8L128.9,268.8z M124.9,223.1c0.1-0.8-0.3-1.6-0.9-2.1c-0.2-0.1-0.3-0.2-0.5-0.3v4.2
			c0,0,0.1,0,0.2-0.1C124.3,224.6,124.8,223.9,124.9,223.1L124.9,223.1z M140.5,306.2l-0.1-0.1l-1.1-0.4h-0.8l-1.1,0.3
			c-0.7,0.4-1.1,1.2-1.2,2c0,0.8,0.3,1.5,0.9,2l0.2,0.2l0.2,0.1c1-1.4,2.1-2.7,3.2-4L140.5,306.2z M162,166.7
			c-0.2-0.1-0.4-0.3-0.6-0.3c0.4,0.4,0.9,0.8,1.3,1.2C162.6,167.3,162.3,167,162,166.7L162,166.7z M160.6,184.8l1.2-0.2l0.8-0.4
			l0.2-0.3c0.5,0.2,1.1,0.2,1.6,0c0.7-0.2,1.3-0.8,1.6-1.5v-1l-0.1-0.3h-7.6c-0.3,0.9-0.1,1.8,0.4,2.6
			C159.1,184.3,159.8,184.8,160.6,184.8L160.6,184.8z M125.8,308.9l-1.2-0.6l-0.9-0.1h-0.3v4.5h0.3h0.4c0.5,0,0.9-0.2,1.3-0.4l0.7-1
			l0.1-0.8V310C126.2,309.6,126.1,309.2,125.8,308.9L125.8,308.9z M125.9,257.9c0.6,0.5,1.3,0.7,2.1,0.6h0.2h0.2l0.2-0.1
			c0.9-0.2,1.6-0.9,1.8-1.8c0.2-0.9-0.2-1.9-1-2.5c-0.7-0.6-1.5-0.8-2.4-0.8c-0.7,0.1-1.4,0.5-1.8,1.1l-0.2,0.8v0.6l0.3,0.8
			c-0.1-0.2-0.2-0.4-0.2-0.6C125.1,256.9,125.4,257.5,125.9,257.9L125.9,257.9z M133.9,275.9l-0.5-1.1l-0.6-0.5l-1.3-0.4h-0.3
			c0,0,0.1-0.5,0.1-0.5v-0.7c-0.1-0.6-0.4-1.1-0.8-1.5l-0.9-0.4l-0.8-0.2l-1.1,0.1c-0.2,0.1-0.3,0.2-0.5,0.3
			c-0.2,0.1-0.5,0.3-0.7,0.4c-0.8,0.8-0.9,2.1-0.1,2.9c0.1,0.1,0.1,0.1,0.2,0.2c0.6,0.5,1.3,0.8,2.1,0.8c-0.4,0.8-0.3,1.8,0.4,2.4
			l0.2,0.1c0.1,0.1,0.2,0.3,0.4,0.4l1.2,0.4h0.9l1.2-0.5l0.6-0.5l0.4-1.1L133.9,275.9z M131.9,302l-1.3,0.4l0.7-0.9l-1-0.6l-0.7-0.2
			c-1.2-0.2-2.4,0.3-3,1.4l-0.1,0.3l-0.1,0.3l0,0.4c0,0.8,0.4,1.6,1.1,2.1c0.4,0.3,0.8,0.6,1.2,0.8l0.2,0.1l1.1,0.2l0.8-0.1l1-0.4
			c1-0.9,1.2-2.4,0.3-3.4C132,302.1,132,302.1,131.9,302L131.9,302z M140.9,209.2l0.6-0.5l0.3-0.8c0.1,0.3,0.2,0.7,0.5,0.9l1.2,0.6
			h0.4c0.3,0,0.6,0,0.9,0l1.4-0.5c1-0.8,1.1-2.1,0.4-3.1c-0.1-0.1-0.2-0.2-0.2-0.3c-0.2-0.2-0.4-0.3-0.6-0.4l-1.2-0.2l-0.8,0.1
			l-1.1,0.5c-0.3,0.3-0.6,0.7-0.8,1.1l-0.5-1c-1-0.9-2.3-1.1-3.5-0.8l-0.9,0.6l-0.5,0.6l-0.3,1c0,0.6,0.3,1.2,0.8,1.7
			c0.3,0.3,0.8,0.5,1.2,0.6c-0.2-0.1-0.4-0.2-0.6-0.3l1.2,0.5h0.9L140.9,209.2z M163.8,225.9l0.3,0.8l0.2,0.3c0.3,0.4,0.6,0.6,1,0.8
			l1.4,0.1l0.9-0.3l0.4-0.2c0.4-0.2,0.6-0.5,0.9-0.9l0.1-1.2l-0.3-0.8l-0.2-0.4c-0.2-0.3-0.6-0.6-0.9-0.8l-1.4-0.1l-0.9,0.3
			l-0.4,0.2l-0.2,0.1l-0.1-1l-0.6-1.1c-0.7-0.6-1.6-0.9-2.5-0.8c-0.8,0.1-1.5,0.6-1.9,1.2l-0.2,1l0.1,0.7l0.5,0.9l0.4,0.3l1.1,0.4
			h0.8h0.2c0.4,0,0.9-0.2,1.3-0.4L163.8,225.9z M146.8,228.4l-0.9-0.1h-0.4c-0.5,0-0.9,0.2-1.3,0.4l-0.7,1l-0.1,0.8v0.4
			c0,0.4,0.2,0.8,0.4,1.1l1.2,0.7l0.9,0.1h0.4c0.4,0,0.9-0.2,1.3-0.4l0.5-0.8l0.8,0.6c-0.1,0-0.2-0.1-0.3-0.2l0.1,0.1
			c0.4,0.5,0.9,0.8,1.4,1.1h1.5l0.9-0.4l0.9-1c-0.1,0.2-0.2,0.4-0.4,0.6c1.2-0.6,1.9-1.7,1.9-3l-0.2-0.7l-0.2-0.4l-0.5-0.5
			c-0.6-0.4-1.3-0.7-2.1-0.8c0.3,0.1,0.5,0.3,0.7,0.5l-1.4-0.9l-1.1-0.1l-1.5,0.7c-0.1,0.1-0.2,0.2-0.3,0.3
			c-0.3,0.4-0.6,0.8-0.8,1.2L146.8,228.4z M138.7,204.3l1.3,0.5h0.9l1.3-0.6c0.7-0.3,1.3-1,1.4-1.8c0-0.9-0.3-1.7-1-2.2l-1.2-0.4
			h-0.9l-1.2,0.4C136.9,202.3,138.3,203.9,138.7,204.3L138.7,204.3z M146.1,193.1c0.8-0.1,1.5-0.6,1.9-1.2l0.2-1l-0.1-0.7l-0.5-0.9
			c-1-0.9-2.4-1-3.6-0.5l-0.9,1.3v1l0.6,1.2C144.3,192.9,145.2,193.2,146.1,193.1L146.1,193.1z M154.3,241.1c-0.2,1,0.1,1.9,0.8,2.7
			l1,0.7l0.8,0.2l1.3-0.2c0.7-0.3,1.1-0.9,1.3-1.7c0.1-0.4,0.1-0.7,0.1-1.1c0,0.1,0,0.2,0,0.2l-0.2-1.1l-0.5-0.7l-1-0.7
			C156.5,238.9,154.9,239.7,154.3,241.1C154.3,241.1,154.3,241.1,154.3,241.1L154.3,241.1z M150.3,200.8c1.1,1,2.8,1.1,4,0.2l0.6-1
			c0.1,0,0.6,0,0.6,0c0.5,0,0.9-0.2,1.3-0.4l0.7-1.1l0.1-0.9v-0.5c-0.1-0.6-0.4-1.1-0.9-1.4l-0.1-0.1l-0.2-0.1l-1.2-0.3l-0.8,0.1
			l-1,0.4c-0.3,0.3-0.6,0.7-0.8,1.2c-0.9-0.2-1.7,0-2.4,0.6l-0.6,1l-0.1,0.8l0.4,1.1C150.1,200.6,150.2,200.7,150.3,200.8
			L150.3,200.8z M125.6,251.4c0.6,0.2,1.2,0.2,1.8,0c-0.1,0.7,0.1,1.3,0.5,1.8l1.4,0.6c1,0.6,2.3,0.6,3.2,0l0.5-0.5l0.2-0.4l0.2-0.7
			c0-0.9-0.5-1.8-1.2-2.4c-0.1-0.1-0.3-0.3-0.5-0.4l-1.1-0.4l-0.8,0l-0.9,0.3l-0.1-0.8c-0.1-0.6-0.5-1.2-0.9-1.6
			c-0.2-0.2-0.5-0.4-0.8-0.5l-0.3,0l-0.1-0.2c-0.2-0.3-0.5-0.6-0.8-0.9c-0.6-0.5-1.4-0.7-2.2-0.6c-0.2,0-0.3,0.1-0.5,0.2v8.2
			c0.7-0.1,1.4-0.4,1.9-1L125.6,251.4z M138.7,300.5c0.9-0.8,1.1-2.1,0.3-3.1c0,0-0.1-0.1-0.1-0.1l-1.1-0.6l-0.1-0.1l-1.1-0.2
			l-1.7,0.4l-0.6,0.5l-0.4,0.8l-0.1,0.6l0.1,0.9c0.2,0.3,0.4,0.6,0.6,0.8C135.9,301.4,137.5,301.4,138.7,300.5L138.7,300.5z
			 M131.7,238.4l1.6-0.2l0.6-0.4c1.1-0.2,2-1,2.3-2c0.1-0.2,0.1-0.5,0.1-0.8l-0.1-0.4l-0.1-0.3l-0.2-0.4c-0.3-0.5-0.8-1-1.3-1.3
			l0.4-0.6l0.1-0.8v-0.3c0-0.4-0.2-0.8-0.5-1.2l-1.2-0.7l-0.9-0.1h-0.4c-0.5,0-0.9,0.2-1.3,0.4l-0.7,1l-0.1,0.8v0.4
			c0.1,0.3,0.2,0.6,0.3,0.8c-0.1,0-0.6,0.5-0.6,0.5c-0.3,0.4-0.6,0.9-0.7,1.4c-0.5,1.8,0.6,3.7,2.5,4.1
			C131.6,238.4,131.6,238.4,131.7,238.4L131.7,238.4z M136.8,289.7l-1.1,0.2l-0.7,0.4l-0.8,0.9l-0.1,0.2c-0.3,1.2,0.2,2.4,1.2,3.1
			l1.5,0.4l1-0.2l1.2-1c0.1-0.1,0.1-0.3,0.1-0.4c0.3-0.8,0.1-1.7-0.4-2.3C138.4,290.2,137.6,289.8,136.8,289.7L136.8,289.7z
			 M132.4,243.8l0.3,0.1l1.2-0.2l0.7-0.4l0.8-0.8c0.3-0.7,0.3-1.6-0.2-2.3c-0.5-0.7-1.2-1.2-2-1.3h-0.2l-1.2,0.2l-0.7,0.4l-0.8,0.8
			c-0.3,0.7-0.2,1.6,0.2,2.3C130.9,243.2,131.6,243.6,132.4,243.8L132.4,243.8z M138.7,261.7l-1.5-0.5c-0.1,0-0.3-0.1-0.4-0.1
			l-1,0.1l-1.3,0.7l-0.1,0.1c-0.4,0.4-0.7,0.9-0.9,1.4c-0.3,1.3,0.4,2.5,1.7,2.9l1.8-0.3l0.6-0.5c0.9-0.2,1.6-0.8,1.9-1.7
			C139.6,263.2,139.3,262.3,138.7,261.7L138.7,261.7z"/>
		<path id="Path_2744" class="st1" d="M157.6,512.8l0.8,0.1h0.5l0.8-0.2c0.8-0.4,1.4-1.1,1.6-2c0.3-1,0-2.1-0.7-2.8
			c-0.7-0.8-1.8-1.1-2.8-1l-1,0.4l-0.6,0.5l-0.5,0.9C155.2,510.3,156,512.1,157.6,512.8z M153.8,526.2c0.9-0.1,1.8-0.6,2.4-1.3
			l0.4-1l0-0.8l-0.5-1c-1.3-1.1-3.2-1.2-4.5-0.1l-0.1,0.1l-0.8,1.2v0.9l0.6,1.2C152,526,152.9,526.3,153.8,526.2L153.8,526.2z
			 M161.3,535.1l-0.3-0.8c-0.1-0.2-0.3-0.4-0.5-0.5c-0.7-0.6-1.6-0.8-2.4-0.6c-0.1-0.1-0.3-0.3-0.4-0.4c-1.2-1.1-3-1.1-4.2,0.1
			c-0.5,0.5-0.8,1.2-0.8,1.9v0.6l0.1,0.4l0.3,0.6c0.2,0.2,0.4,0.5,0.7,0.7c2.5-0.9,5.1-1.4,7.7-1.5
			C161.4,535.4,161.4,535.3,161.3,535.1L161.3,535.1z M146.4,531.5l-0.4-0.3l-0.7-0.3l-0.5-0.1l-0.8,0c-0.9,0.1-1.8,0.6-2.2,1.4
			c-0.4,0.8-0.3,1.8,0.3,2.5l1.2,0.7l1,0.1h0.5c0.8-0.1,1.5-0.5,1.9-1.2l0.2-1l-0.1-0.7L146.4,531.5z M148.9,524
			c0,0-0.1-0.1-0.1-0.1c-0.3-0.4-0.8-0.5-1.2-0.2c-0.1,0.1-0.2,0.2-0.3,0.4l0.3,0.8c-0.1,0-0.1-0.1-0.1-0.2l0.4,0.8
			c0.6,0.2,1.2,0,1.6-0.5l-0.7-0.9C148.8,523.9,148.9,523.9,148.9,524L148.9,524z M165.1,507.1l0.7,0.2c1.2,0.1,2.3-0.5,2.9-1.5
			c0.1-0.2,0.2-0.4,0.2-0.6c0.1,0,0.3,0,0.4,0.1l0.6-0.1l0.4-0.2l0.5-0.3c1.2-0.9,1.3-2.6,0.4-3.8c-0.1-0.1-0.2-0.2-0.3-0.3
			l-0.1-0.1l-1.4-0.7h-1l-1.4,0.6c-0.4,0.5-0.7,1.2-0.7,1.9H166l-1,0.3c-1.3,0.6-1.8,2.2-1.2,3.5c0.1,0.2,0.2,0.3,0.3,0.5l0.6,0.4
			L165.1,507.1z M153.8,493.8l0.1,0.6l0.2,0.6l0.4,0.6c1,0.9,2.5,0.9,3.6,0.1c1-0.7,1.3-2.1,0.6-3.2c-0.1-0.1-0.1-0.2-0.2-0.3
			l-1-0.6l0.4-0.2l0.4-0.4l0.4-1v-0.8v-0.2c0-0.4-0.2-0.8-0.5-1.2l-1.5-0.7l-1.1,0.1l-1.2,0.5c-1,0.8-1.1,2.2-0.4,3.2
			c0.1,0.1,0.2,0.2,0.4,0.4c0.2,0.1,0.3,0.3,0.5,0.4C154.3,492.4,153.9,493.1,153.8,493.8L153.8,493.8z M172,508.9l-0.4-0.3
			l-0.7-0.3l-0.5-0.1l-0.8,0c-0.9,0.1-1.8,0.6-2.2,1.4c-0.4,0.8-0.3,1.8,0.3,2.4l1.2,0.7l1,0.1h0.5c0.8-0.1,1.5-0.5,1.9-1.2l0.2-1
			l-0.1-0.7L172,508.9z M181.5,487c0-0.8-0.4-1.5-1-2c-0.1-0.1-0.2-0.2-0.3-0.2l-1.1-0.3h-0.8l-1,0.4c-0.6,0.4-1,1-1.2,1.6l-0.9-0.5
			l-0.9-0.1h-0.5c-0.5,0-0.9,0.2-1.3,0.4l-0.7,1l-0.1,0.8v0.4c0,0.4,0.2,0.8,0.5,1.2l1.2,0.7l0.9,0.1h0.4c0.4,0,0.9-0.2,1.3-0.4
			l0.8-1.1v-0.2c0.1,0.1,0.2,0.2,0.3,0.3c0.1,0.1,0.2,0.2,0.4,0.3l1,0.3h0.8l1-0.4C180.9,488.8,181.4,487.9,181.5,487L181.5,487z
			 M181.6,467.2l0.8,0.7l1.2,0.4h0.9l1.2-0.4c1.1-0.9,1.3-2.5,0.4-3.5c-0.1-0.1-0.2-0.3-0.4-0.4c-0.6-0.5-1.5-0.7-2.3-0.6
			c-0.9,0.1-1.6,0.6-2.1,1.3l-0.2,1l0.1,0.7L181.6,467.2z M180.9,474.7l0.6-0.1l0.4-0.1l0.5-0.2c0.9-0.6,1.4-1.6,1.2-2.7l0.1-0.7
			l-0.3-1c-0.7-1-1.9-1.4-3.1-1.1h-0.5l-1.2,0.4c-1.3,1.1-1.4,3-0.4,4.3c0.1,0.1,0.3,0.3,0.4,0.4
			C179.4,474.4,180.1,474.6,180.9,474.7L180.9,474.7z M186.8,500.4c0.1,0.1,0.2,0.2,0.3,0.3c-0.6-1-1.7-1.5-2.9-1.5l-0.7,0.1
			l-0.5,0.2l-0.6,0.4c-0.3,0.3-0.6,0.7-0.7,1.2c-0.3,1.4,0.6,2.7,1.9,3c1.4,0.6,3,0.1,3.8-1.1l0.1-1.2l-0.3-0.8L186.8,500.4z
			 M183,497l0.6,0l0.8-0.1l0.2-0.1c1.9-0.6,2.8-1.6,2.7-3.1l-0.1-0.4l-0.1-0.3l-0.2-0.3c-0.2-0.3-0.4-0.5-0.6-0.7
			c-0.5-0.4-1.1-0.6-1.8-0.7l-1.1-0.1l-1.4,0.5c-0.8,0.6-1.3,1.6-1.4,2.7c0.1,0.8,0.4,1.5,1,1.9c0.1,0.1,0.3,0.2,0.5,0.3L183,497z
			 M208.9,531.1c-0.9-0.8-2-1.2-3.2-1c-0.2,0-0.4,0.1-0.6,0.2c-0.1-0.4-0.4-0.8-0.8-1.1l-0.1-0.1l-0.2-0.1l-1.2-0.3l-0.8,0.1l-1,0.5
			c-1,0.8-1.2,2.2-0.5,3.3l1.2,0.8l1,0.2h0.5l0.3-0.1l0.3,0.6c0.1,0.1,0.3,0.2,0.4,0.4c0.7,0.6,1.6,0.9,2.5,0.8
			c0.8,0.4,1.8,0.3,2.6-0.2l0.7-0.8l0.2-0.7l-0.1-1C209.7,531.8,209.3,531.4,208.9,531.1L208.9,531.1z M147.3,512.5
			c0.1,0,0.2-0.1,0.3-0.1C147.6,512.4,147.4,512.5,147.3,512.5L147.3,512.5z M197.7,498.9l-1-0.2l-1.5,0.3c-1.2,0.7-1.7,2.3-1,3.5
			c0.1,0.2,0.2,0.3,0.4,0.5l1.3,0.6h1l1.3-0.6c0.8-0.8,1.1-2,0.7-3.1L197.7,498.9z M132.4,450.5c0.4-0.3,0.6-0.8,0.5-1.3
			c0-0.5-0.3-1-0.8-1.4l-0.6,0.6c0.1,0.1-0.5,0.6-0.5,0.6c-0.1-0.1-0.2-0.1-0.3-0.2l-0.4,0.4c-0.1,0.1,0,0.3,0.1,0.4l-1.1,1.1
			C130.3,451.4,131.5,451.3,132.4,450.5L132.4,450.5z M210.8,452.8c-0.1-0.1-0.3-0.2-0.4-0.3l-1.1-0.3h-0.8l-1,0.4
			c-0.8,0.5-1.2,1.4-1.3,2.3c0,0.8,0.4,1.5,1,2c0.1,0.1,0.2,0.2,0.4,0.3l1.1,0.3h0.4c0-0.1,0.4,0,0.4,0l1.3-0.4
			c0.7-0.5,1.1-1.2,1.1-2C211.9,454.1,211.5,453.3,210.8,452.8L210.8,452.8z M188.2,413.8l-0.4-0.2c-1.3-0.8-3-1-4.5-0.4l-0.4,0.3
			l-0.3,0.2l-0.3,0.4c-0.3,0.4-0.4,1-0.3,1.5l-0.1,0.8l0.5,1.3l1.2,1l1.4,0.4l0.9-0.1l1.2-0.7c0.1-0.1,0.1-0.1,0.4-0.3
			c0.4-0.2,0.8-0.5,1.2-0.9l0.4-1.3l-0.2-0.9L188.2,413.8z M125.2,449l0.6-0.6c1.2,1.2,3,1.2,4.3,0.2l0.4-0.5l0.2-0.4l0.1-0.6
			c0-0.8-0.4-1.5-1-2c-0.1-0.1-0.1-0.1-0.2-0.1c0.4,0,0.9,0,1.3-0.1c0.1,0.5,0.3,0.9,0.6,1.3c0.6,0.7,1.5,1.1,2.5,1.1l0.9-0.2
			l0.6-0.3l0.6-0.6c0.1-0.1,0.1-0.2,0.2-0.4c1-0.9,1.1-2.4,0.3-3.4c-0.1-0.1-0.1-0.2-0.2-0.2l-1-0.5h-0.2c0-0.1,0-0.8,0-0.8l-0.4-1
			c-0.1-0.1-0.3-0.3-0.4-0.4c-0.1-0.1-0.3-0.2-0.4-0.3c0.2-0.1,0.3-0.2,0.4-0.3l0.9,0.4h1l0.9-0.3c-0.1,0.1-0.2,0.1-0.3,0.1
			c0.9-0.2,1.6-0.8,1.9-1.6c0.3-0.7,0.2-1.5-0.3-2.1l-1-0.7l-0.6-0.1c-0.3-0.2-0.6-0.4-0.9-0.6l-0.9-0.1l-0.1-0.7l-0.5-0.9
			c-0.5-0.4-1.1-0.7-1.7-0.8c0-0.3,0-0.6,0-0.8c-0.2-1-0.9-1.8-1.8-2c0-0.2,0-0.4,0-0.6l-0.1-0.2c0.3,0,0.5,0,0.8,0
			c1-0.2,1.9-0.9,2.2-1.9c0.3-1.1-0.2-2.2-1.2-2.7c-0.4-0.2-0.9-0.3-1.4-0.3c0.1-0.1,0.2-0.2,0.3-0.3c-1,0.6-1.9,1.2-2.7,2
			c0,0.1-0.1,0.1-0.1,0.2c-1.6,1.3-2.8,3-3.7,4.8l0.6,0.5c-0.1,0-0.2-0.1-0.3-0.2c0.4,0.4,0.9,0.8,1.4,1l0.6,0c0,0.2,0,0.4,0.1,0.7
			c-0.3,0.1-0.6,0.2-0.8,0.4l-0.6,1l-0.1,0.8l0.3,0.9l-0.2-0.2c0-0.1-0.1-0.2-0.1-0.3c0,0.1,0,0.2,0.1,0.3l-0.6-0.6
			c-0.6-0.2-1.1-0.2-1.7-0.1c-0.2,0.9-0.2,1.8-0.2,2.7v2.9l0.2-0.6c1.3,0.1,2.4-0.7,2.9-1.8l0.1-0.2v-0.7l0.6,1.4
			c1,1,2.5,1.2,3.7,0.5l0.2-0.3l0.4,0.3l0.5,0.2c0.1,0-0.4,0.5-0.4,0.5c-0.6,0.1-1.1,0.3-1.6,0.7l-0.4,0.8c-0.1,0-0.2,0-0.3,0
			c-1,0.1-1.9,0.9-2.2,1.9c-0.1,0.3-0.1,0.6-0.1,0.8l0.3,0.8l-0.3-0.2l-0.4-0.3v-0.2l-0.4-0.3l-2.1-0.1L124,443l-0.6,0.1v6.2
			c0.5,0,1,0,1.5-0.1L125.2,449z M170.1,471.4c-1.2,0.8-1.5,2.5-0.7,3.7c0.1,0.1,0.1,0.2,0.2,0.3l0.7,0.4l0.6,0.2l0.8,0.1
			c1.1-0.1,2-0.7,2.5-1.6c-0.2,0.2-0.4,0.3-0.6,0.3l1.2-1l0.3-0.9l-0.4-1.5l-0.1-0.1C173.3,470.1,171.4,470.2,170.1,471.4
			L170.1,471.4z M141.2,458l0.3,0.1c1.4,0.7,3,0.2,3.8-1.2l0.2-0.8l-0.1-0.6l-0.3-0.8c-0.1-0.2-0.3-0.3-0.5-0.5
			c-1.2-1-3-1.1-4.3-0.2c-1,0.8-1.2,2.2-0.4,3.2c0,0.1,0.1,0.1,0.1,0.2L141.2,458z M143.1,486.4l1.1-0.5l0.8-0.8l0.4-1.1v-0.8
			l-0.5-1.1l-0.2-0.1c-0.7-0.6-1.5-0.9-2.4-0.9l-0.6,0.1l-0.4,0.1l-0.5,0.3c-0.7,0.5-1.1,1.2-1.1,2c0,0.8,0.4,1.6,1.1,2.1
			c0.1,0.1,0.2,0.2,0.4,0.3l1.2,0.3L143.1,486.4z M152.6,519.6l0.3-0.1c-0.1,0.1-0.2,0.1-0.3,0.2c0.8-0.2,1.4-0.9,1.4-1.8l-0.2-0.6
			l-0.1-1.1c-1-0.8-2.4-0.9-3.5-0.3c0.5-0.9,0.4-2.1-0.4-2.9l-1.1-0.5l-0.8-0.1l-1.1,0.2c0.1-0.1,0.2-0.1,0.4-0.1
			c-1,0.1-2,0.6-2.5,1.5l-0.2,0.9l0.1,0.7l0.5,0.9l0.1,0.1c0.7,0.6,1.5,0.9,2.4,0.9l0.6-0.1l0.4-0.1l0.4-0.2c-0.5,1-0.2,2.3,0.7,3
			l2.4-0.1L152.6,519.6z M167.1,438.1l1.2,0.3l0.8-0.1l1.1-0.5c0.5-0.6,1-1.2,1.3-1.9c0.2-0.4,0.4-0.7,0.7-1c0,0-0.1,0.1-0.2,0.1
			l1.2-1.4l0-1.1l-1.1-1.5c-0.7-0.2-1.4-0.2-2.1-0.1c0.3-0.1,0.6,0,0.9,0H170l-0.7,0.2l-0.8,0.5c-0.1,0.1,0,0,0.2-0.1l-0.8,0.6
			l-0.4,0.5l-0.3,0.9c0-0.1,0-0.1,0-0.2c0,0.1-0.3,0.3-0.3,0.4c-0.4,0.4-0.7,0.9-0.9,1.5C165.7,436.5,166.1,437.6,167.1,438.1
			L167.1,438.1z M127.2,453.4c-1,0.8-1.2,2.2-0.4,3.2c0.1,0.2,0.2,0.3,0.4,0.4c0.2,0.1,0.4,0.3,0.6,0.4l1.1,0.2l0.8-0.1l1-0.5
			l0.2-0.2c0,0.1-0.1,0.1-0.1,0.2v1.1l0.3,0.8l0.8,0.8c-0.1,0-0.2-0.1-0.2-0.1c0.6,0.5,1.4,0.8,2.1,0.8l1.1-0.3l0.6-0.4l0.6-0.9
			l0.1-0.5c0.2-0.7,0-1.5-0.5-2c-0.5-0.5-1.2-0.8-1.9-0.8l-0.6,0.2c-0.8-0.1-1.6,0.3-2.2,0.9l0.4-0.9v-0.8v-0.2
			c0-0.4-0.2-0.8-0.4-1.1l-1.5-0.7l-1.1,0L127.2,453.4z M169.6,535.3l-0.4,0.2C169.3,535.4,169.6,535.3,169.6,535.3l-0.3-0.3
			c0-0.1,0-0.1,0-0.2c-0.1-0.7-0.4-1.3-0.9-1.7l-2.4,0.1l-0.2,0.2l-0.4,0.1L165,534l-0.4,0.7c-0.1,0.3-0.1,0.6,0,0.9h0.7
			c1.5,0,3.1,0.2,4.6,0.5C169.9,535.7,169.8,535.5,169.6,535.3L169.6,535.3z M171,448.7l0-0.8l-0.5-1c-0.1-0.1-0.3-0.3-0.4-0.4
			c-0.8-0.8-2-1.2-3.1-1.1c-0.6,0.1-1.1,0.3-1.5,0.7l-0.2-0.1l-1.1,0.2l-1.2,1.1l-0.2,0.7l0.2,1.1l0.4,0.7l1,0.7
			c2.1-0.1,4.3-0.4,6.3-1L171,448.7z M125.4,514.7c0.3-0.9,0-1.9-0.8-2.5c-0.4-0.3-0.8-0.5-1.2-0.7v4.8
			C124.3,516.1,125.1,515.6,125.4,514.7L125.4,514.7z M123.5,456.7v3.6c0.5-0.4,0.8-1.1,0.8-1.7C124.2,457.8,124,457.2,123.5,456.7
			L123.5,456.7z M124.7,522.1c0.2-0.1,0.3-0.2,0.5-0.3l0.4-1.5l-0.2-0.7l-0.1-0.2l-0.3-0.5l-1.1-0.8l-0.4-0.1v4.9
			c0.4-0.1,0.8-0.3,1.1-0.5L124.7,522.1z M125.9,503.2l0.3-1l-0.1-0.7l-0.5-0.9l-0.4-0.3l-0.7-0.3l-0.5-0.1h-0.4v4.7h0.5
			C124.7,504.3,125.4,503.8,125.9,503.2L125.9,503.2z M128.9,508.7l1,0.4h0.8l1.1-0.3c1.2-0.7,1.6-2.2,0.9-3.4
			c-0.1-0.2-0.2-0.3-0.3-0.4l-0.1-0.2l-1-0.6l-0.8-0.2l-1.2,0.1c-0.8,0.3-1.5,1-1.7,1.9c-0.1,0.9,0.2,1.7,0.9,2.3
			C128.6,508.4,128.8,508.5,128.9,508.7L128.9,508.7z M124.9,462.9c0.1-0.8-0.3-1.6-0.9-2.1c-0.2-0.1-0.3-0.2-0.5-0.3v4.2
			c0,0,0.1,0,0.2-0.1C124.3,464.4,124.8,463.7,124.9,462.9L124.9,462.9z M140.5,546l-0.1-0.1l-1.1-0.4h-0.8l-1.1,0.3
			c-0.7,0.4-1.1,1.2-1.2,2c0,0.8,0.3,1.5,0.9,2l0.2,0.2l0.2,0.1c1-1.4,2.1-2.7,3.2-4L140.5,546z M162,406.6
			c-0.2-0.1-0.4-0.3-0.6-0.3c0.4,0.4,0.9,0.8,1.3,1.2C162.6,407.1,162.3,406.8,162,406.6L162,406.6z M160.6,424.7l1.2-0.2l0.8-0.4
			l0.2-0.3c0.5,0.2,1.1,0.2,1.6,0c0.7-0.2,1.3-0.8,1.6-1.5v-1l-0.1-0.3h-7.6c-0.3,0.9-0.1,1.8,0.4,2.6
			C159.1,424.1,159.8,424.6,160.6,424.7L160.6,424.7z M125.8,548.7l-1.2-0.6l-0.9-0.1h-0.3v4.5h0.3h0.4c0.5,0,0.9-0.2,1.3-0.4l0.7-1
			l0.1-0.8v-0.4C126.2,549.4,126.1,549.1,125.8,548.7L125.8,548.7z M125.9,497.8c0.6,0.5,1.3,0.7,2.1,0.6h0.2h0.2l0.2-0.1
			c0.9-0.2,1.6-0.9,1.8-1.8c0.2-0.9-0.2-1.9-1-2.5c-0.7-0.6-1.5-0.8-2.4-0.8c-0.7,0.1-1.4,0.5-1.8,1.1l-0.2,0.8v0.6l0.3,0.8
			c-0.1-0.2-0.2-0.4-0.2-0.6C125.1,496.7,125.4,497.4,125.9,497.8L125.9,497.8z M133.9,515.8l-0.5-1.1l-0.6-0.5l-1.3-0.4h-0.3
			c0,0,0.1-0.5,0.1-0.5v-0.7c-0.1-0.6-0.4-1.1-0.8-1.5l-0.9-0.4l-0.8-0.2l-1.1,0.1c-0.2,0.1-0.3,0.2-0.5,0.3
			c-0.2,0.1-0.5,0.3-0.7,0.4c-0.8,0.8-0.9,2.1-0.1,2.9c0.1,0.1,0.1,0.1,0.2,0.2c0.6,0.5,1.3,0.8,2.1,0.8c-0.4,0.8-0.3,1.8,0.4,2.4
			l0.2,0.1c0.1,0.1,0.2,0.3,0.4,0.4l1.2,0.4h0.9l1.2-0.5l0.6-0.5l0.4-1.1L133.9,515.8z M131.9,541.9l-1.3,0.4l0.7-0.9l-1-0.6
			l-0.7-0.2c-1.2-0.2-2.4,0.3-3,1.4l-0.1,0.3l-0.1,0.3l0,0.4c0,0.8,0.4,1.6,1.1,2.1c0.4,0.3,0.8,0.6,1.2,0.8l0.2,0.1l1.1,0.2
			l0.8-0.1l1-0.4c1-0.9,1.2-2.4,0.3-3.4C132,542,132,542,131.9,541.9L131.9,541.9z M140.9,449.1l0.6-0.5l0.3-0.8
			c0.1,0.3,0.2,0.7,0.5,0.9l1.2,0.6h0.4c0.3,0,0.6,0,0.9,0l1.4-0.5c1-0.8,1.1-2.1,0.4-3.1c-0.1-0.1-0.2-0.2-0.2-0.3
			c-0.2-0.2-0.4-0.3-0.6-0.4l-1.2-0.2l-0.8,0.1l-1.1,0.5c-0.3,0.3-0.6,0.7-0.8,1.1l-0.5-1c-1-0.9-2.3-1.1-3.5-0.8l-0.9,0.6l-0.5,0.6
			l-0.3,1c0,0.6,0.3,1.2,0.8,1.7c0.3,0.3,0.8,0.5,1.2,0.6c-0.2-0.1-0.4-0.2-0.6-0.3l1.2,0.5h0.9L140.9,449.1z M163.8,465.7l0.3,0.8
			l0.2,0.3c0.3,0.4,0.6,0.6,1,0.8l1.4,0.1l0.9-0.3l0.4-0.2c0.4-0.2,0.6-0.5,0.9-0.9l0.1-1.2l-0.3-0.8l-0.2-0.4
			c-0.2-0.3-0.6-0.6-0.9-0.8l-1.4-0.1l-0.9,0.3l-0.4,0.2l-0.2,0.1l-0.1-1l-0.6-1.1c-0.7-0.6-1.6-0.9-2.5-0.8
			c-0.8,0.1-1.5,0.6-1.9,1.2l-0.2,1l0.1,0.7l0.5,0.9l0.4,0.3l1.1,0.4h0.8h0.2c0.4,0,0.9-0.2,1.3-0.4L163.8,465.7z M146.8,468.2
			l-0.9-0.1h-0.4c-0.5,0-0.9,0.2-1.3,0.4l-0.7,1l-0.1,0.8v0.4c0,0.4,0.2,0.8,0.4,1.1l1.2,0.7l0.9,0.1h0.4c0.4,0,0.9-0.2,1.3-0.4
			l0.5-0.8l0.8,0.6c-0.1,0-0.2-0.1-0.3-0.2l0.1,0.1c0.4,0.5,0.9,0.8,1.4,1.1h1.5l0.9-0.4l0.9-1c-0.1,0.2-0.2,0.4-0.4,0.6
			c1.2-0.6,1.9-1.7,1.9-3l-0.2-0.7l-0.2-0.4l-0.5-0.5c-0.6-0.4-1.3-0.7-2.1-0.8c0.3,0.1,0.5,0.3,0.7,0.5l-1.4-0.9l-1.1-0.1l-1.5,0.7
			c-0.1,0.1-0.2,0.2-0.3,0.3c-0.3,0.4-0.6,0.8-0.8,1.2L146.8,468.2z M138.7,444.1l1.3,0.5h0.9l1.3-0.6c0.7-0.3,1.3-1,1.4-1.8
			c0-0.9-0.3-1.7-1-2.2l-1.2-0.4h-0.9l-1.2,0.4C136.9,442.1,138.3,443.7,138.7,444.1L138.7,444.1z M146.1,432.9
			c0.8-0.1,1.5-0.6,1.9-1.2l0.2-1l-0.1-0.7l-0.5-0.9c-1-0.9-2.4-1-3.6-0.5l-0.9,1.3v1l0.6,1.2C144.3,432.7,145.2,433,146.1,432.9
			L146.1,432.9z M154.3,480.9c-0.2,1,0.1,1.9,0.8,2.7l1,0.7l0.8,0.2l1.3-0.2c0.7-0.3,1.1-0.9,1.3-1.7c0.1-0.4,0.1-0.7,0.1-1.1
			c0,0.1,0,0.2,0,0.2l-0.2-1.1l-0.5-0.7l-1-0.7C156.5,478.7,154.9,479.5,154.3,480.9C154.3,480.9,154.3,480.9,154.3,480.9
			L154.3,480.9z M150.3,440.7c1.1,1,2.8,1.1,4,0.2l0.6-1c0.1,0,0.6,0,0.6,0c0.5,0,0.9-0.2,1.3-0.4l0.7-1.1l0.1-0.9V437
			c-0.1-0.6-0.4-1.1-0.9-1.4l-0.1-0.1l-0.2-0.1l-1.2-0.3l-0.8,0.1l-1,0.4c-0.3,0.3-0.6,0.7-0.8,1.2c-0.9-0.2-1.7,0-2.4,0.6l-0.6,1
			l-0.1,0.8l0.4,1.1C150.1,440.4,150.2,440.5,150.3,440.7L150.3,440.7z M125.6,491.2c0.6,0.2,1.2,0.2,1.8,0
			c-0.1,0.7,0.1,1.3,0.5,1.8l1.4,0.6c1,0.6,2.3,0.6,3.2,0l0.5-0.5l0.2-0.4l0.2-0.7c0-0.9-0.5-1.8-1.2-2.4c-0.1-0.1-0.3-0.3-0.5-0.4
			l-1.1-0.4l-0.8,0l-0.9,0.3l-0.1-0.8c-0.1-0.6-0.5-1.2-0.9-1.6c-0.2-0.2-0.5-0.4-0.8-0.5l-0.3,0l-0.1-0.2c-0.2-0.3-0.5-0.6-0.8-0.9
			c-0.6-0.5-1.4-0.7-2.2-0.6c-0.2,0-0.3,0.1-0.5,0.2v8.2c0.7-0.1,1.4-0.4,1.9-1L125.6,491.2z M138.7,540.3c0.9-0.8,1.1-2.1,0.3-3.1
			c0,0-0.1-0.1-0.1-0.1l-1.1-0.6l-0.1-0.1l-1.1-0.2l-1.7,0.4l-0.6,0.5L134,538l-0.1,0.6l0.1,0.9c0.2,0.3,0.4,0.6,0.6,0.8
			C135.9,541.2,137.5,541.2,138.7,540.3L138.7,540.3z M131.7,478.2l1.6-0.2l0.6-0.4c1.1-0.2,2-1,2.3-2c0.1-0.2,0.1-0.5,0.1-0.8
			l-0.1-0.4l-0.1-0.3l-0.2-0.4c-0.3-0.5-0.8-1-1.3-1.3l0.4-0.6l0.1-0.8v-0.3c0-0.4-0.2-0.8-0.5-1.2l-1.2-0.7l-0.9-0.1h-0.4
			c-0.5,0-0.9,0.2-1.3,0.4l-0.7,1l-0.1,0.8v0.4c0.1,0.3,0.2,0.6,0.3,0.8c-0.1,0-0.6,0.5-0.6,0.5c-0.3,0.4-0.6,0.9-0.7,1.4
			c-0.5,1.8,0.6,3.7,2.5,4.1C131.6,478.2,131.6,478.2,131.7,478.2L131.7,478.2z M136.8,529.5l-1.1,0.2l-0.7,0.4l-0.8,0.9l-0.1,0.2
			c-0.3,1.2,0.2,2.4,1.2,3.1l1.5,0.4l1-0.2l1.2-1c0.1-0.1,0.1-0.3,0.1-0.4c0.3-0.8,0.1-1.7-0.4-2.3
			C138.4,530,137.6,529.6,136.8,529.5L136.8,529.5z M132.4,483.6l0.3,0.1l1.2-0.2l0.7-0.4l0.8-0.8c0.3-0.7,0.3-1.6-0.2-2.3
			c-0.5-0.7-1.2-1.2-2-1.3h-0.2l-1.2,0.2l-0.7,0.4l-0.8,0.8c-0.3,0.7-0.2,1.6,0.2,2.3C130.9,483,131.6,483.5,132.4,483.6
			L132.4,483.6z M138.7,501.5l-1.5-0.5c-0.1,0-0.3-0.1-0.4-0.1l-1,0.1l-1.3,0.7l-0.1,0.1c-0.4,0.4-0.7,0.9-0.9,1.4
			c-0.3,1.3,0.4,2.5,1.7,2.9l1.8-0.3l0.6-0.5c0.9-0.2,1.6-0.8,1.9-1.7C139.6,503,139.3,502.1,138.7,501.5L138.7,501.5z"/>
	</g>
</g>
<g id="Group_11934">
</g>
<g id="Group_11935">
</g>
</svg>
