<?xml version="1.0" encoding="utf-8"?>
<!-- Generator: Adobe Illustrator 24.3.0, SVG Export Plug-In . SVG Version: 6.00 Build 0)  -->
<svg version="1.1" id="Layer_1" xmlns="http://www.w3.org/2000/svg" xmlns:xlink="http://www.w3.org/1999/xlink" x="0px" y="0px"
	 viewBox="0 0 653 647" style="enable-background:new 0 0 653 647;" xml:space="preserve">
<style type="text/css">
	.st0{fill:#FF9557;}
	.st1{fill:#FFFFFF;}
</style>
<g id="Group_11936" transform="translate(0)">
	<g id="Group_11923" transform="translate(0 4.188)">
		<path id="Path_2428" class="st0" d="M525.1,134.2c-53.5-53.4-139-56.6-196.4-7.4c-60.5-52.1-151.8-45.3-203.9,15.2
			c-49.5,57.4-46.2,143.3,7.5,196.8L320.7,527c4.4,4.4,11.6,4.4,16.1,0l188.3-188.4C581.5,282.2,581.5,190.7,525.1,134.2z
			 M511.3,235.1c-6.2,0.9-12-3.4-12.9-9.6l0,0c-3.5-24.1-18.2-45-39.6-56.5c-5.5-3-7.6-9.9-4.7-15.4c3-5.5,9.9-7.6,15.4-4.7l0,0
			c8.6,4.6,16.5,10.5,23.4,17.4c15.2,15.1,25,34.7,28,55.9C521.8,228.5,517.5,234.3,511.3,235.1L511.3,235.1z"/>
	</g>
	<g id="Group_11933" transform="translate(0.357 0)">
		<path id="Path_2737" class="st1" d="M139,258.7l1,0.2h0.7l1-0.2c1.1-0.5,1.9-1.5,2.2-2.6c0.4-1.3,0-2.8-0.9-3.8
			c-1-1-2.4-1.5-3.8-1.4l-1.4,0.6l-0.8,0.7l-0.7,1.2C135.8,255.5,136.9,257.8,139,258.7z M133.9,276.7c1.3-0.1,2.4-0.8,3.2-1.8
			l0.5-1.4l-0.1-1l-0.7-1.3c-1.7-1.5-4.3-1.6-6.1-0.1l-0.2,0.1l-1,1.6v1.2l0.8,1.7C131.4,276.5,132.7,276.9,133.9,276.7L133.9,276.7
			z M143.9,288.7l-0.4-1.1c-0.2-0.2-0.4-0.5-0.6-0.7c-0.9-0.7-2.1-1-3.3-0.8c-0.2-0.2-0.3-0.3-0.5-0.5c-1.6-1.5-4.1-1.4-5.6,0.2
			c-0.6,0.7-1,1.6-1.1,2.5v0.8l0.2,0.6l0.4,0.7c0.3,0.3,0.6,0.6,0.9,0.9c3.3-1.2,6.8-1.9,10.3-2C144.1,289.1,144,288.9,143.9,288.7
			L143.9,288.7z M124,283.9l-0.5-0.4l-0.9-0.5l-0.7-0.2l-1-0.1c-1.2,0.1-2.3,0.8-2.9,1.9c-0.5,1.1-0.4,2.4,0.4,3.3l1.6,0.9l1.3,0.1
			h0.7c1-0.2,2-0.7,2.6-1.6l0.3-1.4l-0.1-1L124,283.9z M127.4,273.8c-0.1,0-0.1-0.1-0.2-0.2c-0.4-0.5-1.1-0.6-1.6-0.3
			c-0.2,0.1-0.3,0.3-0.4,0.5l0.3,1c-0.1-0.1-0.1-0.1-0.2-0.2l0.6,1c0.8,0.2,1.7,0,2.2-0.7l-0.9-1.2
			C127.2,273.7,127.3,273.7,127.4,273.8L127.4,273.8z M149.1,251.2l0.9,0.2c1.6,0.1,3.1-0.7,3.9-2c0.1-0.3,0.2-0.6,0.3-0.9
			c0.2,0,0.4,0.1,0.6,0.1l0.8-0.2l0.6-0.2l0.7-0.4c1.5-1.3,1.8-3.5,0.5-5.1c-0.1-0.1-0.2-0.3-0.4-0.4l-0.1-0.2l-1.8-0.9h-1.4
			l-1.9,0.9c-0.6,0.7-0.9,1.6-0.9,2.5h-0.6l-1.4,0.4c-1.7,0.8-2.4,2.9-1.6,4.6c0.1,0.2,0.2,0.5,0.4,0.7l0.8,0.6L149.1,251.2z
			 M133.8,233.4l0.1,0.8l0.3,0.8l0.5,0.7c1.4,1.2,3.4,1.3,4.8,0.2c1.4-1,1.7-2.9,0.8-4.2c-0.1-0.1-0.2-0.2-0.3-0.3l-1.3-0.8l0.5-0.2
			l0.5-0.5l0.6-1.3v-1v-0.3c-0.1-0.6-0.3-1.1-0.6-1.6l-2-0.9l-1.5,0.1l-1.6,0.7c-1.3,1.1-1.5,3-0.5,4.3c0.1,0.2,0.3,0.3,0.5,0.5
			c0.2,0.2,0.5,0.3,0.7,0.5C134.5,231.5,134,232.4,133.8,233.4L133.8,233.4z M158.3,253.5l-0.5-0.4l-0.9-0.5l-0.7-0.2l-1-0.1
			c-1.3,0.1-2.4,0.8-3,1.9c-0.5,1.1-0.4,2.4,0.4,3.3l1.6,0.9l1.3,0.2h0.7c1-0.1,2-0.7,2.6-1.6l0.3-1.4l-0.1-1L158.3,253.5z
			 M170.9,224.3c0-1-0.5-2-1.3-2.7c-0.1-0.1-0.3-0.2-0.4-0.3l-1.4-0.4h-1l-1.4,0.5c-0.8,0.5-1.3,1.3-1.6,2.2l-1.2-0.7l-1.2-0.2h-0.6
			c-0.6,0.1-1.2,0.3-1.7,0.6l-0.9,1.4l-0.2,1.1v0.5c0.1,0.6,0.3,1.1,0.6,1.6l1.6,0.9l1.2,0.2h0.6c0.6,0,1.2-0.2,1.7-0.5l1-1.4v-0.3
			c0.1,0.1,0.2,0.3,0.4,0.4c0.2,0.1,0.3,0.2,0.5,0.3l1.4,0.4h1l1.4-0.5C170.2,226.6,170.9,225.5,170.9,224.3L170.9,224.3z
			 M171.2,197.7l1.1,0.9l1.6,0.5h1.1l1.6-0.6c1.4-1.2,1.7-3.3,0.5-4.7c-0.2-0.2-0.3-0.4-0.5-0.5c-0.9-0.7-2-1-3-0.9
			c-1.1,0.1-2.2,0.8-2.8,1.7l-0.3,1.4l0.1,1L171.2,197.7z M170.2,207.7l0.8-0.1l0.5-0.2l0.7-0.3c1.2-0.8,1.8-2.2,1.6-3.6l0.1-0.9
			l-0.3-1.3c-0.9-1.3-2.6-1.9-4.1-1.5h-0.7l-1.5,0.6c-1.7,1.4-1.9,4-0.5,5.7c0.2,0.2,0.4,0.4,0.6,0.5
			C168.2,207.3,169.2,207.7,170.2,207.7L170.2,207.7z M178.1,242.2c0.2,0.1,0.3,0.3,0.4,0.4c-0.8-1.3-2.3-2.1-3.9-1.9l-0.9,0.2
			l-0.6,0.3l-0.8,0.5c-0.4,0.4-0.8,1-0.9,1.6c-0.4,1.8,0.8,3.6,2.6,4.1c1.8,0.8,4,0.1,5.1-1.5l0.1-1.6l-0.4-1L178.1,242.2z
			 M173,237.7l0.8,0.1l1-0.1l0.3-0.1c2.5-0.8,3.8-2.2,3.7-4.1l-0.1-0.5l-0.1-0.4l-0.2-0.4c-0.2-0.3-0.5-0.7-0.8-0.9
			c-0.7-0.5-1.5-0.9-2.4-0.9l-1.5-0.1l-1.9,0.7c-1.1,0.9-1.8,2.2-1.9,3.6c0.1,1,0.6,1.9,1.4,2.6c0.2,0.2,0.4,0.3,0.6,0.4L173,237.7z
			 M207.7,283.3c-1.2-1.1-2.7-1.6-4.3-1.4c-0.3,0-0.5,0.1-0.8,0.2c-0.2-0.6-0.5-1.1-1-1.5l-0.2-0.1l-0.3-0.2l-1.6-0.4l-1,0.1
			l-1.4,0.6c-1.3,1.1-1.6,3-0.7,4.4l1.6,1l1.3,0.2h0.7l0.4-0.1l0.4,0.8c0.2,0.2,0.3,0.3,0.5,0.5c0.9,0.8,2.1,1.2,3.3,1.1
			c1.1,0.5,2.4,0.4,3.4-0.3l0.9-1.1l0.3-0.9l-0.1-1.4C208.8,284.3,208.3,283.8,207.7,283.3L207.7,283.3z M125.1,258.4
			c0.2,0,0.3-0.1,0.5-0.1C125.6,258.3,125.4,258.4,125.1,258.4L125.1,258.4z M192.7,240.2l-1.3-0.3l-2,0.4c-1.7,0.9-2.2,3-1.3,4.7
			c0.1,0.2,0.3,0.5,0.5,0.6l1.8,0.7h1.3l1.7-0.8c1.1-1.1,1.5-2.7,0.9-4.2L192.7,240.2z M105.2,175.4c0.5-0.5,0.7-1.1,0.7-1.8
			c-0.1-0.7-0.4-1.4-1-1.8l-0.8,0.8c0.1,0.1-0.7,0.8-0.7,0.8c-0.1-0.1-0.2-0.2-0.4-0.3l-0.5,0.5c-0.1,0.2,0,0.4,0.1,0.5l-1.5,1.5
			C102.4,176.5,104.1,176.4,105.2,175.4L105.2,175.4z M210.3,178.3c-0.2-0.1-0.4-0.3-0.5-0.4l-1.5-0.4h-1l-1.4,0.5
			c-1,0.7-1.6,1.8-1.7,3c0,1,0.5,2,1.3,2.6c0.2,0.1,0.3,0.2,0.5,0.3l1.5,0.4h0.6c0-0.1,0.5,0,0.5,0l1.8-0.5c0.9-0.6,1.5-1.6,1.5-2.7
			C211.7,180.1,211.2,179,210.3,178.3L210.3,178.3z M180,126.2l-0.6-0.3c-1.8-1.1-4-1.3-6-0.5l-0.5,0.4l-0.3,0.3l-0.4,0.5
			c-0.3,0.6-0.5,1.3-0.4,2l-0.2,1l0.7,1.8l1.6,1.3l1.8,0.5l1.3-0.1l1.6-0.9c0.1-0.2,0.2-0.2,0.5-0.4c0.6-0.3,1.1-0.7,1.6-1.2
			l0.6-1.8l-0.2-1.2L180,126.2z M95.5,173.4l0.8-0.7c1.6,1.5,4,1.7,5.7,0.3l0.5-0.7l0.3-0.5l0.2-0.8c0-1-0.5-2-1.4-2.6
			c-0.1-0.1-0.2-0.1-0.3-0.1c0.6,0.1,1.2,0,1.7-0.2c0.1,0.6,0.3,1.2,0.8,1.7c0.8,0.9,2.1,1.5,3.3,1.5l1.2-0.3l0.8-0.4l0.8-0.7
			c0.1-0.2,0.2-0.3,0.2-0.5c1.4-1.2,1.5-3.2,0.4-4.6c-0.1-0.1-0.2-0.2-0.3-0.3l-1.4-0.6h-0.3c0-0.1,0.1-1.1,0.1-1.1l-0.5-1.4
			c-0.2-0.2-0.3-0.3-0.5-0.5c-0.2-0.1-0.3-0.3-0.5-0.4c0.2-0.1,0.4-0.2,0.6-0.4l1.2,0.5h1.4l1.3-0.4c-0.1,0.1-0.2,0.1-0.3,0.2
			c1.1-0.3,2.1-1,2.6-2.1c0.4-0.9,0.2-2-0.4-2.8l-1.4-0.9l-0.8-0.2c-0.4-0.3-0.8-0.6-1.2-0.8l-1.2-0.2l-0.1-0.9l-0.7-1.2
			c-0.6-0.5-1.4-0.9-2.3-1c0.1-0.4,0.1-0.7,0-1.1c-0.2-1.3-1.2-2.4-2.5-2.7c0-0.3,0-0.5,0-0.8l-0.1-0.2c0.4,0,0.7,0,1.1,0
			c1.4-0.2,2.5-1.2,2.9-2.6c0.4-1.4-0.3-2.9-1.6-3.6c-0.6-0.3-1.2-0.4-1.8-0.4c0.1-0.1,0.3-0.3,0.4-0.4c-1.3,0.7-2.5,1.6-3.7,2.6
			c0,0.1-0.1,0.2-0.1,0.3c-2.1,1.8-3.8,4-4.9,6.4l0.8,0.7c-0.2,0-0.3-0.1-0.4-0.2c0.6,0.6,1.2,1,1.9,1.4l0.8-0.1
			c0,0.3,0,0.6,0.1,0.9c-0.4,0.1-0.7,0.3-1.1,0.5l-0.8,1.3l-0.1,1l0.4,1.2l-0.3-0.2c-0.1-0.1-0.1-0.3-0.1-0.4c0,0.1,0,0.2,0.1,0.4
			l-0.8-0.7c-0.7-0.2-1.5-0.3-2.3-0.1c-0.2,1.2-0.3,2.4-0.3,3.6v3.8l0.3-0.8c1.7,0.1,3.3-0.9,3.9-2.5l0.1-0.2v-0.9l0.8,1.8
			c1.3,1.3,3.3,1.6,4.9,0.7l0.3-0.4l0.6,0.4l0.6,0.3c0.2,0-0.5,0.7-0.5,0.7c-0.8,0.1-1.5,0.4-2.1,0.9l-0.5,1.1c-0.1,0-0.3,0-0.4,0
			c-1.4,0.2-2.6,1.2-2.9,2.5c-0.1,0.4-0.1,0.7-0.1,1.1l0.4,1.1l-0.4-0.3l-0.5-0.3v-0.2l-0.6-0.5l-2.8-0.1l-0.3,0.2l-0.8,0.1v8.3
			c0.7,0,1.3,0,2-0.1L95.5,173.4z M155.7,203.3c-1.6,1.1-2,3.3-0.9,4.9c0.1,0.1,0.2,0.3,0.3,0.4l0.9,0.6l0.8,0.3l1.1,0.1
			c1.4-0.2,2.7-1,3.4-2.2c-0.2,0.2-0.5,0.4-0.8,0.4l1.6-1.3l0.4-1.2l-0.5-2l-0.2-0.2C160,201.6,157.4,201.7,155.7,203.3L155.7,203.3
			z M117.1,185.4l0.5,0.1c1.9,0.9,4.1,0.2,5.1-1.6l0.2-1.1l-0.1-0.8l-0.4-1c-0.2-0.2-0.4-0.4-0.6-0.6c-1.7-1.4-4-1.5-5.8-0.3
			c-1.3,1-1.6,2.9-0.6,4.3c0.1,0.1,0.1,0.1,0.2,0.2L117.1,185.4z M119.5,223.5l1.5-0.6l1-1l0.6-1.4v-1l-0.7-1.5l-0.2-0.2
			c-0.9-0.8-2-1.2-3.2-1.3l-0.8,0.1l-0.6,0.2l-0.7,0.4c-0.9,0.6-1.5,1.6-1.5,2.7c0,1.1,0.6,2.2,1.5,2.9c0.2,0.1,0.3,0.3,0.5,0.4
			l1.6,0.4L119.5,223.5z M132.3,268l0.4-0.1c-0.1,0.1-0.2,0.2-0.4,0.2c1.1-0.3,1.9-1.3,1.9-2.4l-0.3-0.8l-0.1-1.5
			c-1.3-1.1-3.2-1.3-4.7-0.4c0.7-1.3,0.5-2.8-0.5-3.9l-1.4-0.7l-1.1-0.1l-1.5,0.3c0.2-0.1,0.3-0.1,0.5-0.2c-1.4,0.1-2.6,0.8-3.3,2
			l-0.2,1.3l0.2,0.9l0.7,1.2l0.2,0.1c0.9,0.8,2.1,1.2,3.3,1.3l0.8-0.1l0.5-0.2l0.6-0.3c-0.7,1.4-0.3,3,0.9,4l3.2-0.2L132.3,268z
			 M151.7,158.8l1.6,0.4l1.1-0.1l1.5-0.7c0.7-0.8,1.3-1.6,1.8-2.5c0.2-0.5,0.6-0.9,0.9-1.3c-0.1,0-0.1,0.1-0.2,0.1l1.6-1.9l0.1-1.4
			l-1.5-2c-0.9-0.3-1.9-0.3-2.8-0.1c0.4-0.1,0.8-0.1,1.1,0.1h-1.5l-0.9,0.3l-1.1,0.7c-0.1,0.1,0,0,0.3-0.1l-1,0.7l-0.5,0.7l-0.4,1.2
			c0-0.1,0-0.2,0-0.3c-0.1,0.1-0.4,0.4-0.5,0.6c-0.6,0.6-1,1.3-1.2,2C149.8,156.6,150.4,158.1,151.7,158.8L151.7,158.8z M98.2,179.2
			c-1.3,1-1.6,2.9-0.6,4.3c0.2,0.2,0.3,0.4,0.5,0.5c0.2,0.2,0.5,0.4,0.8,0.5l1.5,0.2l1-0.1l1.3-0.6l0.3-0.3
			c-0.1,0.1-0.1,0.2-0.2,0.3v1.5l0.4,1l1.1,1.1c-0.1,0-0.2-0.1-0.3-0.2c0.8,0.7,1.8,1.1,2.9,1.1l1.5-0.4l0.9-0.6l0.9-1.2l0.2-0.7
			c0.2-0.9,0-2-0.6-2.7c-0.7-0.7-1.6-1.1-2.5-1.1l-0.8,0.2c-1.1-0.1-2.2,0.4-2.9,1.2l0.5-1.1v-1V181c-0.1-0.5-0.3-1.1-0.6-1.5
			l-2-0.9l-1.4,0.1L98.2,179.2z M155.1,289l-0.5,0.2C154.6,289.1,155,288.9,155.1,289l-0.4-0.4c0-0.1,0-0.2,0-0.2
			c-0.1-0.9-0.5-1.7-1.2-2.2l-3.2,0.2l-0.2,0.3l-0.6,0.1l-0.5,0.5l-0.5,0.9c-0.1,0.4-0.1,0.8,0,1.2h0.9c2.1,0,4.1,0.2,6.2,0.6
			C155.4,289.6,155.3,289.3,155.1,289L155.1,289z M156.9,172.8l-0.1-1l-0.7-1.3c-0.2-0.2-0.4-0.3-0.6-0.5c-1.1-1-2.6-1.6-4.2-1.4
			c-0.7,0.1-1.4,0.4-2,0.9l-0.3-0.1l-1.4,0.3l-1.6,1.5l-0.3,1l0.2,1.5l0.6,0.9l1.3,0.9c2.9-0.1,5.7-0.5,8.5-1.3L156.9,172.8z
			 M95.9,261.3c0.4-1.2,0-2.6-1-3.4c-0.5-0.4-1-0.7-1.7-0.9v6.4C94.4,263.3,95.4,262.5,95.9,261.3L95.9,261.3z M93.2,183.6v4.8
			c0.7-0.6,1-1.4,1.1-2.3C94.3,185.2,93.9,184.3,93.2,183.6L93.2,183.6z M94.9,271.3c0.2-0.1,0.5-0.3,0.6-0.5l0.6-2l-0.3-1l-0.1-0.3
			l-0.4-0.7l-1.5-1.1l-0.5-0.1v6.6c0.5-0.1,1.1-0.3,1.5-0.7L94.9,271.3z M96.5,245.9l0.3-1.4l-0.1-1l-0.7-1.2l-0.5-0.4l-0.9-0.4
			l-0.7-0.2h-0.6v6.3h0.7C94.9,247.4,95.8,246.8,96.5,245.9L96.5,245.9z M100.6,253.3l1.4,0.5h1l1.4-0.4c1.6-0.9,2.1-3,1.1-4.6
			c-0.1-0.2-0.3-0.4-0.4-0.6L105,248l-1.3-0.9l-1.1-0.3l-1.7,0.1c-1.1,0.4-2,1.4-2.3,2.6c-0.2,1.2,0.3,2.3,1.2,3
			C100.1,252.9,100.3,253.1,100.6,253.3L100.6,253.3z M95.1,192c0.1-1.1-0.4-2.1-1.2-2.8c-0.2-0.2-0.5-0.3-0.7-0.4v5.7
			c0.1,0,0.1,0,0.2-0.1C94.3,193.9,95,193.1,95.1,192L95.1,192z M116,303.3l-0.2-0.2l-1.5-0.6h-1.1l-1.5,0.4
			c-0.9,0.6-1.5,1.6-1.6,2.7c0,1,0.4,2,1.2,2.7l0.3,0.2l0.2,0.1c1.3-1.9,2.8-3.6,4.3-5.3L116,303.3z M144.9,116.4
			c-0.3-0.2-0.5-0.3-0.8-0.4c0.6,0.6,1.2,1.1,1.8,1.6C145.6,117.2,145.3,116.8,144.9,116.4L144.9,116.4z M143,140.7l1.7-0.3l1-0.6
			l0.3-0.4c0.7,0.2,1.4,0.2,2.1,0c1-0.3,1.8-1,2.2-2v-1.4l-0.1-0.4h-10.2c-0.4,1.2-0.2,2.4,0.5,3.4C141,140,141.9,140.6,143,140.7
			L143,140.7z M96.4,306.9l-1.6-0.8l-1.2-0.1h-0.4v6.1h0.4h0.6c0.6-0.1,1.2-0.3,1.7-0.6l0.9-1.4L97,309v-0.6
			C96.9,307.9,96.7,307.4,96.4,306.9L96.4,306.9z M96.5,238.7c0.8,0.6,1.8,0.9,2.8,0.8h0.3h0.2l0.3-0.1c1.2-0.3,2.1-1.2,2.5-2.4
			c0.3-1.3-0.3-2.6-1.3-3.3c-0.9-0.8-2-1.1-3.2-1c-1,0.1-1.9,0.6-2.4,1.4l-0.3,1.1v0.8l0.4,1.1c-0.2-0.2-0.3-0.5-0.3-0.8
			C95.4,237.2,95.8,238.1,96.5,238.7L96.5,238.7z M107.2,262.8l-0.7-1.4l-0.8-0.7l-1.8-0.5h-0.5c0-0.1,0.2-0.7,0.2-0.7v-0.9
			c-0.2-0.8-0.5-1.5-1.1-2l-1.2-0.6l-1.1-0.2l-1.5,0.2c-0.2,0.1-0.4,0.2-0.6,0.4c-0.3,0.1-0.6,0.3-0.9,0.6c-1.1,1-1.2,2.8-0.2,3.9
			c0.1,0.1,0.2,0.2,0.3,0.3c0.8,0.7,1.8,1.1,2.9,1.1c-0.5,1.1-0.4,2.3,0.5,3.2l0.3,0.2c0.1,0.2,0.3,0.4,0.5,0.5l1.6,0.6h1.2l1.6-0.7
			l0.7-0.7l0.6-1.5L107.2,262.8z M104.5,297.7l-1.8,0.5l1-1.3l-1.3-0.8l-0.9-0.3c-1.6-0.3-3.2,0.4-4.1,1.9l-0.2,0.5l-0.1,0.4L97,299
			c0,1.1,0.6,2.1,1.5,2.8c0.5,0.4,1,0.8,1.6,1l0.3,0.2l1.4,0.3l1-0.1l1.3-0.6c1.4-1.2,1.6-3.2,0.4-4.6c0,0,0,0,0,0L104.5,297.7z
			 M116.6,173.4l0.8-0.7l0.5-1c0.1,0.5,0.3,0.9,0.6,1.3l1.6,0.8h0.6c0.4,0,0.8,0,1.3,0l1.9-0.7c1.3-1,1.5-2.9,0.5-4.2
			c-0.1-0.1-0.2-0.3-0.3-0.4c-0.2-0.2-0.5-0.4-0.8-0.6l-1.6-0.3l-1.1,0.1l-1.4,0.7c-0.4,0.4-0.8,0.9-1,1.4l-0.6-1.3
			c-1.3-1.2-3.1-1.5-4.7-1l-1.3,0.8l-0.6,0.8l-0.4,1.3c0,0.8,0.4,1.6,1,2.2c0.5,0.4,1,0.7,1.6,0.9c-0.3-0.1-0.5-0.2-0.7-0.4l1.6,0.6
			h1.2L116.6,173.4z M147.3,195.7l0.4,1l0.3,0.5c0.4,0.5,0.8,0.8,1.4,1.1l1.8,0.1l1.1-0.4l0.5-0.3c0.5-0.3,0.9-0.7,1.2-1.2l0.1-1.7
			l-0.4-1l-0.3-0.5c-0.3-0.4-0.8-0.8-1.2-1l-1.9-0.1l-1.2,0.4l-0.5,0.3l-0.2,0.2l-0.1-1.3l-0.8-1.4c-0.9-0.8-2.1-1.2-3.3-1
			c-1,0.2-2,0.8-2.5,1.7l-0.3,1.3l0.2,0.9l0.7,1.2l0.5,0.4l1.5,0.5h1.1h0.3c0.6-0.1,1.2-0.2,1.7-0.6L147.3,195.7z M124.4,199.1
			l-1.2-0.2h-0.6c-0.6,0.1-1.2,0.3-1.7,0.6l-0.9,1.4l-0.2,1.1v0.5c0.1,0.6,0.3,1.1,0.6,1.5l1.6,0.9l1.2,0.2h0.6
			c0.6-0.1,1.2-0.2,1.7-0.5l0.7-1l1,0.7c-0.2-0.1-0.3-0.1-0.4-0.2l0.2,0.2c0.5,0.6,1.2,1.1,1.9,1.4h2l1.2-0.6l1.1-1.3
			c-0.1,0.3-0.3,0.6-0.6,0.8c1.6-0.8,2.5-2.3,2.5-4.1l-0.2-0.9l-0.3-0.6l-0.6-0.7c-0.8-0.6-1.8-0.9-2.7-1c0.4,0.1,0.7,0.4,1,0.7
			l-1.9-1.2l-1.4-0.1l-2,0.9c-0.1,0.1-0.2,0.3-0.3,0.4c-0.4,0.5-0.8,1-1,1.6L124.4,199.1z M113.7,166.8l1.7,0.6h1.2l1.7-0.8
			c1-0.4,1.7-1.4,1.9-2.4c0.1-1.2-0.5-2.3-1.4-3l-1.6-0.6h-1.2l-1.6,0.6C111.3,164.1,113.1,166.2,113.7,166.8L113.7,166.8z
			 M123.6,151.7c1.1-0.1,2-0.8,2.6-1.7l0.3-1.3l-0.1-0.9l-0.7-1.2c-1.4-1.1-3.3-1.4-4.9-0.6l-1.2,1.8v1.3l0.8,1.6
			C121.2,151.5,122.4,151.9,123.6,151.7L123.6,151.7z M134.6,216.1c-0.2,1.3,0.2,2.6,1,3.6l1.4,0.9l1.1,0.2l1.7-0.2
			c0.9-0.5,1.5-1.3,1.8-2.2c0.1-0.5,0.2-1,0.1-1.5c0,0.1,0,0.2,0,0.3l-0.3-1.5l-0.6-0.9l-1.4-0.9
			C137.5,213.2,135.3,214.1,134.6,216.1C134.6,216.1,134.6,216.1,134.6,216.1L134.6,216.1z M129.2,162.1c1.5,1.3,3.7,1.4,5.4,0.2
			l0.8-1.3c0.1,0,0.9,0,0.9,0c0.6-0.1,1.2-0.3,1.7-0.6l0.9-1.5l0.1-1.2v-0.6c-0.2-0.8-0.6-1.4-1.2-1.9l-0.2-0.1l-0.2-0.2l-1.6-0.4
			l-1,0.1l-1.4,0.6c-0.5,0.4-0.8,1-1,1.6c-1.2-0.2-2.3,0.1-3.3,0.8l-0.8,1.4l-0.1,1.1l0.5,1.5C128.9,161.8,129.1,162,129.2,162.1
			L129.2,162.1z M96.1,229.9c0.8,0.2,1.7,0.2,2.5,0c-0.1,0.9,0.2,1.8,0.7,2.5l1.8,0.8c1.3,0.9,3,0.9,4.3,0l0.7-0.7l0.3-0.6l0.3-0.9
			c-0.1-1.2-0.6-2.4-1.6-3.2c-0.2-0.2-0.4-0.4-0.6-0.5l-1.4-0.5l-1.1-0.1l-1.3,0.3l-0.2-1c-0.2-0.8-0.6-1.6-1.3-2.1
			c-0.3-0.3-0.7-0.5-1.1-0.7l-0.4-0.1l-0.1-0.3c-0.3-0.4-0.6-0.8-1-1.2c-0.8-0.7-1.9-1-2.9-0.8c-0.2,0.1-0.4,0.1-0.6,0.2v11
			c1-0.1,1.9-0.6,2.6-1.3L96.1,229.9z M113.7,295.7c1.3-1,1.5-2.9,0.4-4.1c0-0.1-0.1-0.1-0.1-0.1l-1.5-0.7l-0.2-0.1l-1.4-0.3
			l-2.2,0.6l-0.7,0.7l-0.6,1l-0.1,0.8l0.2,1.2c0.2,0.4,0.5,0.8,0.9,1.1C109.8,296.9,112.1,296.9,113.7,295.7L113.7,295.7z
			 M104.2,212.5l2.1-0.3l0.8-0.5c1.5-0.2,2.7-1.3,3.1-2.7c0.1-0.3,0.1-0.7,0.1-1l-0.1-0.5l-0.1-0.4l-0.2-0.5
			c-0.5-0.7-1.1-1.3-1.8-1.8l0.6-0.8l0.2-1.1v-0.5c-0.1-0.6-0.3-1.1-0.6-1.5l-1.6-0.9l-1.2-0.2H105c-0.6,0.1-1.2,0.3-1.7,0.6
			l-0.9,1.4l-0.2,1.1v0.5c0.1,0.4,0.2,0.8,0.4,1.1c-0.1,0-0.8,0.7-0.8,0.7c-0.4,0.6-0.8,1.2-1,1.9c-0.6,2.4,0.9,4.9,3.3,5.5
			C104.1,212.5,104.2,212.5,104.2,212.5L104.2,212.5z M111.1,281.2l-1.5,0.3l-0.9,0.5l-1,1.2l-0.1,0.2c-0.4,1.6,0.3,3.2,1.6,4.1
			l2,0.5l1.4-0.3l1.6-1.3c0.1-0.2,0.1-0.4,0.2-0.6c0.3-1.1,0.2-2.2-0.5-3.1C113.2,281.9,112.2,281.3,111.1,281.2L111.1,281.2z
			 M105.1,219.6l0.4,0.1l1.6-0.3l0.9-0.5l1-1.1c0.4-1,0.3-2.1-0.2-3c-0.6-0.9-1.6-1.6-2.7-1.8h-0.3l-1.6,0.3l-0.9,0.5l-1,1.1
			c-0.4,1-0.3,2.1,0.2,3C103.1,218.9,104.1,219.5,105.1,219.6L105.1,219.6z M113.6,243.7l-2-0.6c-0.2,0-0.4-0.1-0.5-0.2l-1.4,0.1
			l-1.7,1l-0.2,0.2c-0.5,0.5-1,1.2-1.2,1.9c-0.4,1.7,0.6,3.4,2.3,3.9l2.4-0.4l0.8-0.6c1.2-0.2,2.1-1.1,2.5-2.2
			C114.9,245.6,114.5,244.5,113.6,243.7L113.6,243.7z"/>
		<path id="Path_2739" class="st1" d="M190.7,111.6l-0.4,0.9l-0.2,0.7l0,1c0.2,1.2,1,2.2,2,2.8c1.2,0.7,2.7,0.8,3.9,0.1
			c1.2-0.7,2.1-1.9,2.3-3.3l-0.2-1.5l-0.4-0.9l-1-1C194.7,109.3,192.1,109.8,190.7,111.6z M174.6,102c-0.2,1.3,0.1,2.5,0.9,3.6
			l1.2,0.8l1,0.2l1.5-0.3c1.9-1.3,2.6-3.8,1.7-5.9l-0.1-0.2l-1.3-1.4l-1.2-0.3l-1.8,0.4C175.5,99.7,174.9,100.8,174.6,102L174.6,102
			z M160.5,108.6l1.2-0.1c0.3-0.1,0.6-0.3,0.8-0.4c1-0.7,1.6-1.8,1.7-2.9c0.2-0.1,0.4-0.2,0.6-0.4c1.9-1.1,2.4-3.6,1.3-5.4
			c-0.5-0.8-1.2-1.4-2.1-1.7l-0.8-0.2l-0.6,0l-0.8,0.2c-0.4,0.2-0.8,0.4-1.1,0.6c0.3,3.5,0.1,7-0.7,10.5c0.2,0,0.3-0.1,0.5-0.1
			L160.5,108.6z M170.3,90.5l0.6-0.4l0.7-0.7l0.4-0.6l0.3-1c0.2-1.2-0.2-2.5-1.1-3.3c-0.9-0.8-2.2-1-3.3-0.5l-1.3,1.3l-0.5,1.2
			l-0.2,0.7c-0.1,1,0.2,2.1,0.8,2.9l1.2,0.7l1,0.1L170.3,90.5z M179.2,96.5c0.1,0,0.1-0.1,0.2-0.1c0.6-0.2,0.9-0.9,0.7-1.5
			c-0.1-0.2-0.2-0.4-0.4-0.5l-1.1,0.1c0.1-0.1,0.2-0.1,0.3-0.1l-1.1,0.3c-0.4,0.7-0.4,1.6,0.1,2.3l1.3-0.5
			C179.3,96.4,179.3,96.4,179.2,96.5L179.2,96.5z M195.4,123.2l-0.5,0.8c-0.5,1.5-0.2,3.2,0.9,4.3c0.2,0.2,0.5,0.4,0.8,0.5
			c-0.1,0.2-0.2,0.3-0.2,0.5l-0.1,0.9l0.1,0.6l0.2,0.8c0.8,1.8,3,2.6,4.8,1.8c0.2-0.1,0.3-0.2,0.5-0.3l0.2-0.1l1.3-1.5l0.4-1.4
			l-0.3-2c-0.6-0.7-1.3-1.3-2.2-1.6l0.2-0.6l0-1.4c-0.4-1.9-2.2-3.1-4.1-2.8c-0.3,0-0.5,0.1-0.7,0.2l-0.8,0.6L195.4,123.2z
			 M216.6,113.1l-0.8-0.1l-0.8,0.1l-0.9,0.4c-1.5,1-2.1,2.9-1.4,4.6c0.6,1.6,2.3,2.4,3.9,1.8c0.1,0,0.3-0.1,0.4-0.2l1.1-1.1l0.1,0.5
			l0.3,0.6l1.1,0.9l1,0.3l0.3,0.1c0.6,0.1,1.1,0,1.7-0.2l1.4-1.7l0.3-1.4l-0.3-1.7c-0.7-1.5-2.5-2.2-4-1.6c-0.2,0.1-0.4,0.2-0.6,0.3
			c-0.2,0.2-0.4,0.4-0.6,0.6C218.2,114.4,217.5,113.6,216.6,113.1L216.6,113.1z M190.8,131.5l0.6-0.4l0.7-0.7l0.4-0.6l0.3-1
			c0.2-1.2-0.2-2.5-1.1-3.4c-0.9-0.8-2.2-1-3.3-0.5l-1.3,1.3l-0.5,1.2l-0.2,0.7c-0.1,1,0.2,2.1,0.8,2.9l1.2,0.7l1,0.1L190.8,131.5z
			 M215.8,151.3c1,0.3,2.1,0,2.9-0.6c0.1-0.1,0.3-0.2,0.4-0.3l0.7-1.3l0.3-1l-0.1-1.5c-0.3-0.9-0.9-1.6-1.7-2.1l1-1l0.5-1.1l0.1-0.5
			c0.1-0.6,0.1-1.2-0.1-1.8l-1.1-1.3l-1-0.4l-0.5-0.1c-0.6-0.1-1.1,0-1.7,0.2l-1.2,1.3l-0.5,1.1l-0.1,0.5c-0.1,0.6-0.1,1.2,0.1,1.8
			l1.1,1.3l0.3,0.1c-0.2,0.1-0.3,0.2-0.5,0.3c-0.2,0.1-0.3,0.2-0.5,0.4l-0.7,1.3l-0.3,1l0.1,1.5C213.7,150.1,214.6,151,215.8,151.3
			L215.8,151.3z M241.4,158.4l-1.2,0.9l-0.9,1.4l-0.3,1.1l0.2,1.6c0.8,1.7,2.7,2.5,4.4,1.7c0.2-0.1,0.4-0.2,0.6-0.4
			c0.9-0.6,1.5-1.6,1.6-2.7c0.2-1.1-0.2-2.3-0.9-3.2l-1.2-0.7l-1-0.1L241.4,158.4z M232,154.9l-0.1,0.8l0,0.6l0.1,0.8
			c0.4,1.4,1.6,2.3,3.1,2.5l0.9,0.4l1.3,0.1c0.3-0.1,0.7-0.3,1-0.5c1-0.7,1.6-1.9,1.6-3.1l0.2-0.7l-0.2-1.6c-1-2-3.4-2.9-5.4-1.9
			c-0.2,0.1-0.5,0.2-0.7,0.4C232.9,153.1,232.3,154,232,154.9L232,154.9z M196.6,153.6c-0.2,0.1-0.3,0.2-0.5,0.3
			c1.5-0.5,2.6-1.7,2.9-3.2l0.1-0.9l-0.1-0.7l-0.3-0.9c-0.3-0.5-0.7-1-1.3-1.3c-1.7-0.8-3.7-0.2-4.6,1.4c-1.2,1.6-1.2,3.8,0.1,5.3
			l1.5,0.5l1.1-0.1L196.6,153.6z M202.3,149.8l-0.3,0.7l-0.1,1l0,0.3c0.1,2.6,1.1,4.2,3,4.6l0.5,0l0.4,0l0.5-0.1
			c0.4-0.1,0.8-0.3,1.1-0.6c0.7-0.5,1.2-1.2,1.5-2l0.5-1.4l-0.2-2c-0.5-1.3-1.6-2.3-3-2.7c-1-0.2-2,0.1-2.8,0.7
			c-0.2,0.1-0.4,0.3-0.6,0.5L202.3,149.8z M149.3,171.5c1.3-0.9,2.2-2.2,2.4-3.8c0-0.3,0-0.5,0-0.8c0.6,0,1.2-0.2,1.7-0.6l0.2-0.1
			l0.2-0.2l0.8-1.5l0.2-1l-0.2-1.5c-0.7-1.5-2.5-2.3-4.1-1.8l-1.4,1.3l-0.5,1.2l-0.2,0.7l0,0.4l-0.9,0.2c-0.2,0.1-0.4,0.2-0.6,0.4
			c-1,0.7-1.7,1.7-1.9,2.9c-0.8,0.9-1.1,2.2-0.8,3.4l0.8,1.1l0.8,0.5l1.4,0.3C147.9,172.3,148.6,172,149.3,171.5L149.3,171.5z
			 M194.6,98.3c0,0.2,0,0.3,0,0.5C194.6,98.7,194.6,98.5,194.6,98.3z M194.7,168.3l0.6-1.2l0.1-2.1c-0.5-1.8-2.4-2.9-4.2-2.5
			c-0.3,0.1-0.5,0.2-0.7,0.3l-1.2,1.5l-0.3,1.3l0.3,1.9c0.7,1.4,2.2,2.1,3.8,2L194.7,168.3z M280,100.5c0.3,0.6,0.9,1,1.5,1.2
			c0.7,0.1,1.5-0.1,2-0.5l-0.5-0.9c-0.1,0.1-0.6-0.9-0.6-0.9c0.1-0.1,0.2-0.2,0.3-0.3l-0.3-0.6c-0.1-0.1-0.4-0.1-0.5,0l-1.1-1.9
			C279.6,97.5,279.3,99.2,280,100.5z M249.9,201.2c0.2-0.1,0.4-0.3,0.5-0.4l0.8-1.3l0.3-1l-0.1-1.5c-0.4-1.2-1.3-2.1-2.5-2.4
			c-1-0.3-2.1,0-2.9,0.6c-0.2,0.1-0.3,0.2-0.5,0.4l-0.7,1.4l-0.2,0.6c0.1,0-0.1,0.5-0.1,0.5l0,1.8c0.4,1,1.2,1.8,2.2,2.1
			C247.8,202.2,249,202,249.9,201.2L249.9,201.2z M308.2,185.5l0.4-0.5c1.5-1.5,2.3-3.5,2-5.6l-0.2-0.6l-0.3-0.4l-0.4-0.5
			c-0.5-0.5-1.1-0.8-1.8-0.9l-0.9-0.4l-1.9,0.2l-1.7,1.2l-1,1.6l-0.2,1.3l0.5,1.8c0.1,0.1,0.1,0.2,0.3,0.6c0.2,0.6,0.4,1.3,0.7,1.9
			l1.6,1l1.2,0.1L308.2,185.5z M284.4,91.7l0.5,0.9c-1.9,1.1-2.6,3.5-1.7,5.4l0.5,0.7l0.5,0.4l0.7,0.4c1,0.2,2.1,0,2.9-0.6
			c0.1,0,0.1-0.1,0.2-0.2c-0.2,0.6-0.3,1.1-0.3,1.7c-0.6-0.1-1.3,0-1.9,0.3c-1.1,0.6-2,1.6-2.3,2.8l-0.1,1.2l0.2,0.8l0.5,1
			c0.1,0.1,0.3,0.2,0.4,0.3c0.8,1.6,2.7,2.3,4.3,1.5c0.1-0.1,0.2-0.1,0.4-0.2l0.9-1.2l0.1-0.3c0.1,0,1,0.3,1,0.3l1.5-0.2
			c0.2-0.1,0.4-0.2,0.6-0.4c0.2-0.1,0.3-0.3,0.5-0.4c0.1,0.2,0.1,0.4,0.2,0.6l-0.8,1l-0.4,1.3l0,1.3c0-0.1-0.1-0.3-0.1-0.4
			c0,1.2,0.4,2.3,1.3,3.1c0.8,0.6,1.9,0.7,2.8,0.4l1.2-1.1l0.4-0.7c0.4-0.3,0.8-0.6,1.1-0.9l0.5-1.1l0.8,0.1l1.4-0.4
			c0.7-0.5,1.2-1.1,1.6-1.9c0.3,0.2,0.7,0.3,1.1,0.3c1.3,0.1,2.6-0.5,3.3-1.7c0.2,0.1,0.5,0.2,0.8,0.2l0.2,0c-0.1,0.3-0.2,0.7-0.3,1
			c-0.2,1.4,0.5,2.8,1.7,3.5c1.3,0.7,2.9,0.4,3.8-0.7c0.4-0.5,0.7-1.1,0.9-1.7c0.1,0.2,0.2,0.3,0.3,0.5c-0.4-1.5-0.9-2.9-1.6-4.2
			c-0.1-0.1-0.1-0.1-0.2-0.2c-1.2-2.5-2.8-4.7-4.9-6.4l-0.9,0.6c0.1-0.1,0.2-0.3,0.3-0.4c-0.7,0.4-1.3,0.9-1.8,1.5l-0.2,0.8
			c-0.3-0.1-0.6-0.1-0.9-0.1c0-0.4-0.1-0.8-0.3-1.2l-1-1.1l-0.9-0.4l-1.2,0.1l0.3-0.2c0.1,0,0.3,0,0.4,0c-0.1,0-0.2,0-0.4,0l0.9-0.6
			c0.4-0.7,0.7-1.4,0.7-2.2c-1.1-0.5-2.2-0.9-3.4-1.2l-3.7-1l0.7,0.5c-0.5,1.6,0,3.4,1.4,4.4l0.2,0.2l0.8,0.2l-2,0.3
			c-1.6,0.9-2.4,2.8-1.9,4.6l0.3,0.4l-0.5,0.5l-0.4,0.6c0,0.1-0.5-0.6-0.5-0.6c0.1-0.8,0-1.5-0.3-2.3l-0.9-0.8
			c0-0.1,0.1-0.3,0.1-0.4c0.2-1.4-0.5-2.8-1.7-3.5c-0.3-0.2-0.7-0.3-1-0.4l-1.2,0.1l0.4-0.3l0.5-0.4l0.2,0.1l0.6-0.5l0.8-2.7
			l-0.1-0.3l0.1-0.8l-8-2.1c-0.2,0.6-0.3,1.3-0.4,1.9L284.4,91.7z M239.9,142.1c-0.7-1.8-2.7-2.8-4.5-2.1c-0.1,0.1-0.3,0.1-0.4,0.2
			l-0.8,0.7l-0.4,0.7l-0.4,1c-0.2,1.4,0.3,2.8,1.3,3.8c-0.1-0.3-0.2-0.6-0.2-0.9l0.9,1.9l1,0.7l2.1,0l0.2-0.1
			C240.4,146.7,241,144.2,239.9,142.1z M267.2,109.4l-0.2,0.4c-1.3,1.6-1.3,3.9,0.2,5.3l1,0.5l0.8,0.1l1.1-0.1
			c0.3-0.1,0.5-0.3,0.8-0.4c1.8-1.2,2.5-3.5,1.7-5.5c-0.6-1.6-2.4-2.3-4-1.7c-0.1,0-0.2,0.1-0.2,0.1L267.2,109.4z M229.8,101.9
			l0.3,1.6l0.7,1.2l1.2,0.9l1,0.3l1.6-0.3l0.2-0.2c1-0.7,1.7-1.6,2-2.8l0.1-0.9l0-0.6l-0.2-0.8c-0.4-1-1.2-1.8-2.3-2.2
			c-1.1-0.3-2.3,0-3.1,0.7c-0.2,0.1-0.3,0.3-0.5,0.4l-0.8,1.4L229.8,101.9z M183.5,102.7l0,0.4c-0.1-0.1-0.1-0.3-0.1-0.4
			c0,1.2,0.7,2.2,1.9,2.5l0.8-0.1l1.5,0.3c1.4-1,2-2.8,1.6-4.5c1,1,2.6,1.2,3.9,0.5l1.1-1.2l0.4-1l0.1-1.6c0,0.2,0.1,0.3,0.1,0.5
			c0.3-1.3-0.1-2.7-1.1-3.7l-1.1-0.5l-0.9-0.1l-1.3,0.4l-0.2,0.1c-1,0.7-1.7,1.7-2.1,2.8l-0.1,0.8l0,0.6l0.1,0.7
			c-1.2-1-2.9-1.1-4.1-0.1l-0.7,3.2L183.5,102.7z M284,149.8l-0.8,1.4l-0.2,1.1l0.3,1.6c0.5,0.9,1.2,1.7,2,2.4
			c0.4,0.4,0.8,0.8,1.1,1.2c0-0.1,0-0.1,0-0.2l1.4,2.1l1.4,0.4l2.3-0.9c0.5-0.8,0.8-1.7,0.8-2.6c0,0.4-0.1,0.8-0.4,1.1l0.4-1.4l0-1
			l-0.4-1.3c-0.1-0.1,0,0,0,0.3l-0.5-1.2l-0.5-0.7l-1-0.7c0.1,0,0.2,0,0.2,0.1c-0.1-0.1-0.3-0.5-0.4-0.6c-0.4-0.7-1-1.3-1.6-1.7
			C286.6,148.5,285,148.7,284,149.8z M278.1,92.7c-0.6-1.6-2.4-2.3-4-1.7c-0.2,0.1-0.5,0.2-0.7,0.4c-0.2,0.2-0.5,0.4-0.7,0.6
			l-0.6,1.3l-0.1,1l0.3,1.5l0.2,0.3c-0.1-0.1-0.1-0.2-0.2-0.2l-1.5-0.4l-1.1,0.1l-1.4,0.8c0.1-0.1,0.2-0.2,0.2-0.3
			c-0.9,0.6-1.5,1.5-1.8,2.5l0,1.5l0.3,1l0.9,1.1l0.6,0.4c0.9,0.5,1.9,0.5,2.8,0c0.8-0.5,1.5-1.2,1.7-2.2l0-0.9
			c0.4-1.1,0.2-2.2-0.4-3.2l1,0.8l1,0.3l0.2,0.1c0.5,0.1,1.1,0,1.6-0.2l1.4-1.7l0.3-1.4L278.1,92.7z M157.3,119.3l-0.1-0.5
			c0.1,0,0.2,0.5,0.2,0.5l0.4-0.3c0.1,0,0.2,0,0.2,0.1c0.9,0.1,1.8-0.1,2.5-0.6l0.7-3.2l-0.2-0.3l0.1-0.6l-0.3-0.6L160,113
			c-0.3-0.2-0.7-0.3-1.1-0.3l-0.2,0.9c-0.6,2-1.3,3.9-2.2,5.8C156.7,119.4,157,119.4,157.3,119.3L157.3,119.3z M269.1,151.1l1,0.2
			l1.5-0.3c0.2-0.1,0.4-0.3,0.6-0.4c1.3-0.8,2.2-2.1,2.5-3.7c0.1-0.7,0-1.5-0.3-2.2l0.1-0.4l0-1.5l-1-2l-0.9-0.5l-1.5-0.2l-1,0.3
			l-1.2,1.1c-0.5,0.9-0.7,1.9-0.5,2.9c-1.5,1.6-1.6,3.9-0.4,5.7L269.1,151.1z M199.3,69.2c1.1,0.7,2.4,0.6,3.5-0.1
			c0.5-0.3,1-0.8,1.3-1.4l-6.2-1.7C197.9,67.3,198.4,68.5,199.3,69.2z M275.1,86.8l-4.6-1.2c0.4,0.8,1.1,1.4,2,1.6
			C273.4,87.5,274.3,87.3,275.1,86.8z M190,65.7c0.1,0.3,0.2,0.5,0.3,0.7l1.8,1l1,0l0.3,0l0.8-0.2l1.5-1.2l0.3-0.5l-6.4-1.7
			c0,0.6,0.1,1.1,0.3,1.6L190,65.7z M214.1,73.8l1.2,0.7l1,0.1l1.4-0.4l0.6-0.4l0.7-0.7l0.4-0.6l0.2-0.6l-6-1.6l-0.2,0.7
			C213.1,72,213.4,73,214.1,73.8L214.1,73.8z M205.9,75.9l-0.8,1.2l-0.3,1l0,1.5c0.5,1.8,2.4,2.8,4.1,2.3c0.2-0.1,0.5-0.2,0.7-0.3
			l0.3-0.1l1.2-1l0.5-1l0.3-1.6c-0.1-1.2-0.8-2.3-1.9-2.9c-1.1-0.5-2.3-0.3-3.2,0.3C206.5,75.5,206.2,75.7,205.9,75.9L205.9,75.9z
			 M266.5,86.5c1,0.4,2.1,0.2,3-0.5c0.2-0.2,0.4-0.4,0.6-0.6l-5.5-1.5c0,0.1,0,0.1,0,0.2C264.8,85.2,265.6,86.1,266.5,86.5z
			 M153.6,77.8l0.2-0.1l0.9-1.3l0.3-1l-0.1-1.5c-0.3-1-1.1-1.9-2.2-2.3c-1-0.3-2.1-0.2-2.9,0.4l-0.3,0.2l-0.1,0.2
			c1.4,1.8,2.8,3.6,4,5.5L153.6,77.8z M326.6,154.2c0.2-0.2,0.5-0.4,0.7-0.7c-0.7,0.4-1.4,0.9-2,1.3
			C325.7,154.7,326.2,154.5,326.6,154.2z M303.7,146l-0.2,1.7l0.3,1.1l0.3,0.4c-0.4,0.6-0.6,1.3-0.6,2.1c0,1,0.5,2,1.3,2.6l1.3,0.4
			l0.4,0l2.6-9.9c-1-0.7-2.3-0.8-3.4-0.4C304.9,144.3,304.1,145,303.7,146z M155.2,57.9l1.2-1.3l0.5-1.1l0.1-0.4l-5.9-1.6l-0.1,0.4
			l-0.2,0.6c-0.1,0.6-0.1,1.2,0.1,1.8l1,1.2l1,0.4l0.5,0.1C154.1,58.2,154.6,58.1,155.2,57.9z M221.1,75.8c-0.8,0.6-1.3,1.5-1.5,2.5
			l-0.1,0.3l-0.1,0.2l0,0.3c0,1.2,0.6,2.4,1.7,3c1.2,0.6,2.6,0.5,3.6-0.3c1-0.6,1.6-1.7,1.8-2.8c0.2-1-0.1-1.9-0.7-2.7l-1-0.6
			l-0.8-0.2l-1.1,0.1c0.3-0.1,0.6-0.1,0.8-0.1C222.8,75.1,221.8,75.2,221.1,75.8L221.1,75.8z M195,79.8l1.6-0.3l0.9-0.6l1-1.6
			l0.1-0.4c0,0,0.6,0.3,0.6,0.3l0.8,0.2c0.8,0,1.6-0.1,2.2-0.5l0.8-1l0.5-1l0.2-1.5c0-0.2-0.1-0.5-0.2-0.7c-0.1-0.3-0.2-0.7-0.3-1
			c-0.7-1.4-2.4-1.9-3.8-1.2c-0.1,0.1-0.2,0.1-0.4,0.2c-0.9,0.6-1.5,1.4-1.8,2.5c-0.9-0.8-2.2-0.9-3.2-0.4l-0.2,0.2
			c-0.2,0.1-0.4,0.2-0.6,0.3l-1,1.4l-0.3,1.1l0.2,1.7l0.5,0.9l1.3,1L195,79.8z M161.9,68.2l0-1.8l1,1.2l1.2-1.1l0.6-0.8
			c0.7-1.5,0.4-3.2-0.8-4.4l-0.4-0.3l-0.3-0.2l-0.5-0.2c-1.1-0.2-2.2,0-3.1,0.7c-0.5,0.4-1,0.8-1.4,1.3l-0.2,0.3l-0.6,1.3l-0.2,1
			l0.2,1.4c0.8,1.6,2.7,2.3,4.4,1.6c0,0,0,0,0,0L161.9,68.2z M279,112l0.5,0.9l0.9,0.7c-0.5,0-0.9,0.1-1.4,0.3l-1.2,1.3l-0.2,0.6
			c-0.1,0.4-0.2,0.8-0.3,1.2l0.2,2c0.6,1.5,2.4,2.2,3.9,1.6c0.2-0.1,0.3-0.1,0.4-0.2c0.3-0.2,0.5-0.4,0.7-0.6l0.6-1.4l0.2-1.1
			l-0.3-1.6c-0.3-0.5-0.6-1-1.1-1.3l1.4-0.3c1.4-0.9,2.3-2.6,2.2-4.3l-0.4-1.4l-0.6-0.8l-1.2-0.8c-0.8-0.2-1.7,0-2.4,0.4
			c-0.5,0.3-0.9,0.8-1.2,1.3c0.1-0.2,0.3-0.5,0.6-0.6l-1,1.3l-0.3,1.2L279,112z M249.5,135.9l-1.1,0.2l-0.5,0.2
			c-0.6,0.2-1,0.6-1.4,1.1l-0.5,1.7l0.1,1.2l0.1,0.6c0.1,0.6,0.4,1.1,0.8,1.5l1.6,0.5l1.1-0.2l0.6-0.2c0.5-0.2,0.9-0.5,1.3-0.9
			l0.6-1.8l-0.1-1.2l-0.1-0.6l-0.1-0.3l1.3,0.3l1.6-0.4c1-0.7,1.7-1.7,1.8-2.9c0.1-1.1-0.2-2.1-0.9-2.9l-1.2-0.6l-0.9-0.1l-1.3,0.4
			l-0.6,0.4l-0.9,1.3l-0.3,1.1l-0.1,0.3c-0.1,0.6-0.1,1.2,0.1,1.8L249.5,135.9z M252.1,112.9l0.5-1.1l0.1-0.5
			c0.1-0.6,0.1-1.2-0.1-1.8l-1.1-1.3l-1-0.4l-0.5-0.1c-0.6-0.1-1.1,0-1.6,0.2l-1.3,1.3l-0.5,1.2l-0.1,0.6c-0.1,0.6-0.1,1.2,0.1,1.8
			l0.8,0.9l-1,0.8c0.1-0.1,0.2-0.2,0.3-0.3l-0.2,0.1c-0.7,0.3-1.4,0.9-1.9,1.5l-0.5,2l0.2,1.3l1,1.4c-0.3-0.2-0.5-0.4-0.6-0.7
			c0.3,1.7,1.6,3,3.3,3.5l0.9,0l0.6-0.2l0.8-0.4c0.8-0.6,1.3-1.5,1.7-2.4c-0.2,0.3-0.6,0.6-1,0.7l1.6-1.5l0.5-1.4l-0.3-2.2
			c-0.1-0.1-0.2-0.3-0.3-0.4c-0.3-0.5-0.8-1-1.3-1.4L252.1,112.9z M286.1,111l-1.1,1.5l-0.3,1.2l0.3,1.8c0.2,1.1,0.9,2,1.9,2.4
			c1.1,0.4,2.3,0.2,3.2-0.6l1-1.4l0.3-1.1l-0.2-1.7C289.4,109.3,286.8,110.5,286.1,111z M298.1,124.4c-0.1,1.1,0.2,2.1,0.9,2.9
			l1.2,0.6l0.9,0.1l1.4-0.4c1.5-1,2.2-2.8,1.9-4.5l-1.4-1.6l-1.3-0.3l-1.7,0.4C298.9,122.2,298.3,123.2,298.1,124.4z M233,118.4
			c-1.2-0.5-2.6-0.5-3.7,0l-1.2,1.1l-0.5,1l-0.2,1.7c0.2,1,0.8,1.8,1.7,2.3c0.4,0.3,0.9,0.4,1.4,0.5c-0.1,0-0.2,0-0.3-0.1l1.5,0.1
			l1-0.4l1.2-1.1C235.1,121.9,234.7,119.5,233,118.4z M286.5,127.2c-1.7,1.1-2.4,3.2-1.6,5.1l1.1,1.1c0,0.1-0.2,0.8-0.2,0.8
			c-0.1,0.6-0.1,1.2,0.1,1.8l1.1,1.2l1.1,0.4l0.6,0.2c0.8,0,1.5-0.2,2.2-0.6l0.2-0.1l0.2-0.2l0.8-1.4l0.2-1L292,133
			c-0.3-0.6-0.7-1-1.3-1.4c0.5-1.1,0.6-2.3,0.1-3.4l-1.1-1.1l-1-0.4l-1.6,0.1C286.9,126.9,286.7,127,286.5,127.2L286.5,127.2z
			 M229.6,77.6c-0.4,0.7-0.7,1.5-0.6,2.4c-0.8-0.3-1.8-0.3-2.6,0l-1.3,1.5c-1.2,1.1-1.6,2.7-1.1,4.2l0.5,0.8l0.5,0.5l0.8,0.5
			c1.2,0.3,2.5,0,3.5-0.7c0.2-0.1,0.4-0.3,0.7-0.4l0.8-1.3l0.3-1l0-1.3l1,0.1c0.8,0.1,1.7-0.2,2.4-0.6c0.3-0.2,0.7-0.5,0.9-0.9
			l0.2-0.4l0.3,0c0.5-0.1,1-0.4,1.4-0.7c0.9-0.6,1.4-1.5,1.5-2.6c0-0.2,0-0.4-0.1-0.6l-10.7-2.9c-0.2,1,0.1,2,0.6,2.8L229.6,77.6z
			 M161.6,77.5c0.7,1.5,2.4,2.2,3.9,1.5c0.1,0,0.1-0.1,0.2-0.1l1.1-1.2l0.2-0.1l0.7-1.3l0-2.3l-0.5-0.9l-0.8-0.8l-0.8-0.3l-1.2-0.1
			c-0.5,0.1-0.9,0.3-1.3,0.6C161.4,73.5,160.8,75.7,161.6,77.5z M244.4,90l-0.3,2.2l0.3,0.9c-0.2,1.5,0.5,2.9,1.8,3.7
			c0.3,0.2,0.6,0.3,0.9,0.4l0.5,0.1l0.4,0l0.6-0.1c0.8-0.3,1.6-0.7,2.2-1.2l0.7,0.8l1,0.5l0.5,0.1c0.5,0.1,1.1,0,1.6-0.2l1.3-1.3
			l0.5-1.1l0.2-0.6c0.1-0.6,0.1-1.2-0.1-1.8l-1.1-1.3l-1-0.4l-0.5-0.1c-0.4,0-0.8,0-1.2,0.1c0-0.1-0.4-1-0.4-1c-0.4-0.6-1-1-1.6-1.4
			c-2.2-1.2-4.9-0.4-6.2,1.7C244.4,89.9,244.4,90,244.4,90L244.4,90z M176.2,78.8l0.1-1.5l-0.3-1l-0.9-1.3l-0.2-0.1
			c-1.4-0.8-3.2-0.6-4.4,0.5l-1,1.8l-0.1,1.4l0.9,2c0.2,0.1,0.3,0.2,0.5,0.3c0.9,0.6,2.1,0.7,3.1,0.3
			C175.1,80.8,175.9,79.9,176.2,78.8L176.2,78.8z M237.2,89l-0.2,0.3l-0.2,1.6l0.2,1l0.8,1.3c0.8,0.7,2,0.9,3,0.6
			c1.1-0.4,1.9-1.1,2.4-2.2l0.1-0.2l0.2-1.6l-0.3-1l-0.8-1.3c-0.9-0.7-2-0.9-3-0.6C238.5,87.3,237.7,88,237.2,89L237.2,89z
			 M211.8,91l1.1-1.8c0.1-0.2,0.2-0.3,0.3-0.5l0.2-1.4l-0.5-1.9l-0.1-0.2c-0.4-0.7-0.9-1.2-1.5-1.6c-1.5-0.8-3.4-0.3-4.3,1.2
			l-0.2,2.4l0.4,0.9c-0.1,1.2,0.5,2.3,1.5,3C209.6,91.7,210.8,91.6,211.8,91L211.8,91z"/>
		<path id="Path_2738" class="st1" d="M139,414.6l1,0.2h0.7l1-0.2c1.1-0.5,1.9-1.5,2.2-2.6c0.4-1.3,0-2.8-0.9-3.8
			c-1-1-2.4-1.5-3.8-1.4l-1.4,0.6l-0.8,0.7l-0.7,1.2C135.8,411.3,136.9,413.7,139,414.6z M133.9,432.6c1.3-0.1,2.4-0.8,3.2-1.8
			l0.5-1.4l-0.1-1l-0.7-1.3c-1.7-1.5-4.3-1.6-6.1-0.1l-0.2,0.1l-1,1.6v1.2l0.8,1.7C131.4,432.3,132.7,432.7,133.9,432.6L133.9,432.6
			z M143.9,444.5l-0.4-1.1c-0.2-0.2-0.4-0.5-0.6-0.7c-0.9-0.7-2.1-1-3.3-0.8c-0.2-0.2-0.3-0.3-0.5-0.5c-1.6-1.5-4.1-1.4-5.6,0.2
			c-0.6,0.7-1,1.6-1.1,2.5v0.8l0.2,0.6l0.4,0.7c0.3,0.3,0.6,0.6,0.9,0.9c3.3-1.2,6.8-1.9,10.3-2C144.1,444.9,144,444.8,143.9,444.5
			L143.9,444.5z M124,439.7l-0.5-0.4l-0.9-0.5l-0.7-0.2l-1-0.1c-1.2,0.1-2.3,0.8-2.9,1.9c-0.5,1.1-0.4,2.4,0.4,3.3l1.6,0.9l1.3,0.1
			h0.7c1-0.2,2-0.7,2.6-1.6l0.3-1.4l-0.1-1L124,439.7z M127.4,429.6c-0.1,0-0.1-0.1-0.2-0.2c-0.4-0.5-1.1-0.6-1.6-0.3
			c-0.2,0.1-0.3,0.3-0.4,0.5l0.3,1c-0.1-0.1-0.1-0.1-0.2-0.2l0.6,1c0.8,0.2,1.7,0,2.2-0.7l-0.9-1.2
			C127.2,429.6,127.3,429.6,127.4,429.6L127.4,429.6z M149.1,407l0.9,0.2c1.6,0.1,3.1-0.7,3.9-2c0.1-0.3,0.2-0.6,0.3-0.9
			c0.2,0,0.4,0.1,0.6,0.1l0.8-0.2l0.6-0.2l0.7-0.4c1.5-1.3,1.8-3.5,0.5-5.1c-0.1-0.1-0.2-0.3-0.4-0.4l-0.1-0.2l-1.8-0.9h-1.4
			l-1.9,0.9c-0.6,0.7-0.9,1.6-0.9,2.5h-0.6l-1.4,0.4c-1.7,0.8-2.4,2.9-1.6,4.6c0.1,0.2,0.2,0.5,0.4,0.7l0.8,0.6L149.1,407z
			 M133.8,389.2l0.1,0.8l0.3,0.8l0.5,0.7c1.4,1.2,3.4,1.3,4.8,0.2c1.4-1,1.7-2.9,0.8-4.2c-0.1-0.1-0.2-0.2-0.3-0.3l-1.3-0.8l0.5-0.2
			l0.5-0.5l0.6-1.3v-1v-0.3c-0.1-0.6-0.3-1.1-0.6-1.6l-2-0.9l-1.5,0.1l-1.6,0.7c-1.3,1.1-1.5,3-0.5,4.3c0.1,0.2,0.3,0.3,0.5,0.5
			c0.2,0.2,0.5,0.3,0.7,0.5C134.5,387.3,134,388.2,133.8,389.2L133.8,389.2z M158.3,409.4l-0.5-0.4l-0.9-0.5l-0.7-0.2l-1-0.1
			c-1.3,0.1-2.4,0.8-3,1.9c-0.5,1.1-0.4,2.4,0.4,3.3l1.6,0.9l1.3,0.2h0.7c1-0.1,2-0.7,2.6-1.6l0.3-1.4l-0.1-1L158.3,409.4z
			 M170.9,380.1c0-1-0.5-2-1.3-2.7c-0.1-0.1-0.3-0.2-0.4-0.3l-1.4-0.4h-1l-1.4,0.5c-0.8,0.5-1.3,1.3-1.6,2.2l-1.2-0.7l-1.2-0.2h-0.6
			c-0.6,0.1-1.2,0.3-1.7,0.6l-0.9,1.4l-0.2,1.1v0.5c0.1,0.6,0.3,1.1,0.6,1.6l1.6,0.9l1.2,0.2h0.6c0.6,0,1.2-0.2,1.7-0.5l1-1.4v-0.3
			c0.1,0.1,0.2,0.3,0.4,0.4c0.2,0.1,0.3,0.2,0.5,0.3l1.4,0.4h1l1.4-0.5C170.2,382.4,170.9,381.3,170.9,380.1L170.9,380.1z
			 M171.2,353.6l1.1,0.9l1.6,0.5h1.1l1.6-0.6c1.4-1.2,1.7-3.3,0.5-4.7c-0.2-0.2-0.3-0.4-0.5-0.5c-0.9-0.7-2-1-3-0.9
			c-1.1,0.1-2.2,0.8-2.8,1.7l-0.3,1.4l0.1,1L171.2,353.6z M170.2,363.5l0.8-0.1l0.5-0.2l0.7-0.3c1.2-0.8,1.8-2.2,1.6-3.6l0.1-0.9
			l-0.3-1.3c-0.9-1.3-2.6-1.9-4.1-1.5h-0.7l-1.5,0.6c-1.7,1.4-1.9,4-0.5,5.7c0.2,0.2,0.4,0.4,0.6,0.5
			C168.2,363.1,169.2,363.5,170.2,363.5L170.2,363.5z M178.1,398c0.2,0.1,0.3,0.3,0.4,0.4c-0.8-1.3-2.3-2.1-3.9-1.9l-0.9,0.2
			l-0.6,0.3l-0.8,0.5c-0.4,0.4-0.8,1-0.9,1.6c-0.4,1.8,0.8,3.6,2.6,4.1c1.8,0.8,4,0.1,5.1-1.5l0.1-1.6l-0.4-1L178.1,398z M173,393.5
			l0.8,0.1l1-0.1l0.3-0.1c2.5-0.8,3.8-2.2,3.7-4.1l-0.1-0.5l-0.1-0.4l-0.2-0.4c-0.2-0.3-0.5-0.7-0.8-0.9c-0.7-0.5-1.5-0.9-2.4-0.9
			l-1.5-0.1l-1.9,0.7c-1.1,0.9-1.8,2.2-1.9,3.6c0.1,1,0.6,1.9,1.4,2.6c0.2,0.2,0.4,0.3,0.6,0.4L173,393.5z M207.7,439.1
			c-1.2-1.1-2.7-1.6-4.3-1.4c-0.3,0-0.5,0.1-0.8,0.2c-0.2-0.6-0.5-1.1-1-1.5l-0.2-0.1l-0.3-0.2l-1.6-0.4l-1,0.1l-1.4,0.6
			c-1.3,1.1-1.6,3-0.7,4.4l1.6,1l1.3,0.2h0.7l0.4-0.1l0.4,0.8c0.2,0.2,0.3,0.3,0.5,0.5c0.9,0.8,2.1,1.2,3.3,1.1
			c1.1,0.5,2.4,0.4,3.4-0.3l0.9-1.1l0.3-0.9l-0.1-1.4C208.8,440.1,208.3,439.6,207.7,439.1L207.7,439.1z M125.1,414.2
			c0.2,0,0.3-0.1,0.5-0.1C125.6,414.1,125.4,414.2,125.1,414.2L125.1,414.2z M192.7,396l-1.3-0.3l-2,0.4c-1.7,0.9-2.2,3-1.3,4.7
			c0.1,0.2,0.3,0.5,0.5,0.6l1.8,0.7h1.3l1.7-0.8c1.1-1.1,1.5-2.7,0.9-4.2L192.7,396z M105.2,331.2c0.5-0.5,0.7-1.1,0.7-1.8
			c-0.1-0.7-0.4-1.4-1-1.8l-0.8,0.8c0.1,0.1-0.7,0.8-0.7,0.8c-0.1-0.1-0.2-0.2-0.4-0.3l-0.5,0.5c-0.1,0.2,0,0.4,0.1,0.5l-1.5,1.5
			C102.4,332.3,104.1,332.3,105.2,331.2L105.2,331.2z M210.3,334.2c-0.2-0.1-0.4-0.3-0.5-0.4l-1.5-0.4h-1l-1.4,0.5
			c-1,0.7-1.6,1.8-1.7,3c0,1,0.5,2,1.3,2.6c0.2,0.1,0.3,0.2,0.5,0.3l1.5,0.4h0.6c0-0.1,0.5,0,0.5,0l1.8-0.5c0.9-0.6,1.5-1.6,1.5-2.7
			C211.7,335.9,211.2,334.9,210.3,334.2L210.3,334.2z M180,282l-0.6-0.3c-1.8-1.1-4-1.3-6-0.5l-0.5,0.4l-0.3,0.3l-0.4,0.5
			c-0.3,0.6-0.5,1.3-0.4,2l-0.2,1l0.7,1.8l1.6,1.3l1.8,0.5l1.3-0.1l1.6-0.9c0.1-0.2,0.2-0.2,0.5-0.4c0.6-0.3,1.1-0.7,1.6-1.2
			l0.6-1.8l-0.2-1.2L180,282z M95.5,329.2l0.8-0.7c1.6,1.5,4,1.7,5.7,0.3l0.5-0.7l0.3-0.5l0.2-0.8c0-1-0.5-2-1.4-2.6
			c-0.1-0.1-0.2-0.1-0.3-0.1c0.6,0.1,1.2,0,1.7-0.2c0.1,0.6,0.3,1.2,0.8,1.7c0.8,0.9,2.1,1.5,3.3,1.5l1.2-0.3l0.8-0.4l0.8-0.7
			c0.1-0.2,0.2-0.3,0.2-0.5c1.4-1.2,1.5-3.2,0.4-4.6c-0.1-0.1-0.2-0.2-0.3-0.3l-1.4-0.6h-0.3c0-0.1,0.1-1.1,0.1-1.1l-0.5-1.4
			c-0.2-0.2-0.3-0.3-0.5-0.5c-0.2-0.1-0.3-0.3-0.5-0.4c0.2-0.1,0.4-0.2,0.6-0.4l1.2,0.5h1.4l1.3-0.4c-0.1,0.1-0.2,0.1-0.3,0.2
			c1.1-0.3,2.1-1,2.6-2.1c0.4-0.9,0.2-2-0.4-2.8l-1.4-0.9l-0.8-0.2c-0.4-0.3-0.8-0.6-1.2-0.8l-1.2-0.2l-0.1-0.9l-0.7-1.2
			c-0.6-0.5-1.4-0.9-2.3-1c0.1-0.4,0.1-0.7,0-1.1c-0.2-1.3-1.2-2.4-2.5-2.7c0-0.3,0-0.5,0-0.8l-0.1-0.2c0.4,0,0.7,0,1.1,0
			c1.4-0.2,2.5-1.2,2.9-2.6c0.4-1.4-0.3-2.9-1.6-3.6c-0.6-0.3-1.2-0.4-1.8-0.4c0.1-0.1,0.3-0.3,0.4-0.4c-1.3,0.7-2.5,1.6-3.7,2.6
			c0,0.1-0.1,0.2-0.1,0.3c-2.1,1.8-3.8,4-4.9,6.4l0.8,0.7c-0.2,0-0.3-0.1-0.4-0.2c0.6,0.6,1.2,1,1.9,1.4l0.8-0.1
			c0,0.3,0,0.6,0.1,0.9c-0.4,0.1-0.7,0.3-1.1,0.5l-0.8,1.3l-0.1,1l0.4,1.2l-0.3-0.2c-0.1-0.1-0.1-0.3-0.1-0.4c0,0.1,0,0.2,0.1,0.4
			l-0.8-0.7c-0.7-0.2-1.5-0.3-2.3-0.1c-0.2,1.2-0.3,2.4-0.3,3.6v3.8l0.3-0.8c1.7,0.1,3.3-0.9,3.9-2.5l0.1-0.2v-0.9l0.8,1.8
			c1.3,1.3,3.3,1.6,4.9,0.7l0.3-0.4l0.6,0.4l0.6,0.3c0.2,0-0.5,0.7-0.5,0.7c-0.8,0.1-1.5,0.4-2.1,0.9l-0.5,1.1c-0.1,0-0.3,0-0.4,0
			c-1.4,0.2-2.6,1.2-2.9,2.5c-0.1,0.4-0.1,0.7-0.1,1.1l0.4,1.1l-0.4-0.3l-0.5-0.3v-0.2L97,321l-2.8-0.1l-0.3,0.2l-0.8,0.1v8.3
			c0.7,0,1.3,0,2-0.1L95.5,329.2z M155.7,359.1c-1.6,1.1-2,3.3-0.9,4.9c0.1,0.1,0.2,0.3,0.3,0.4l0.9,0.6l0.8,0.3l1.1,0.1
			c1.4-0.2,2.7-1,3.4-2.2c-0.2,0.2-0.5,0.4-0.8,0.4l1.6-1.3l0.4-1.2l-0.5-2l-0.2-0.2C160,357.4,157.4,357.5,155.7,359.1L155.7,359.1
			z M117.1,341.2l0.5,0.1c1.9,0.9,4.1,0.2,5.1-1.6l0.2-1.1l-0.1-0.8l-0.4-1c-0.2-0.2-0.4-0.4-0.6-0.6c-1.7-1.4-4-1.5-5.8-0.3
			c-1.3,1-1.6,2.9-0.6,4.3c0.1,0.1,0.1,0.1,0.2,0.2L117.1,341.2z M119.5,379.3l1.5-0.6l1-1l0.6-1.4v-1l-0.7-1.5l-0.2-0.2
			c-0.9-0.8-2-1.2-3.2-1.3l-0.8,0.1l-0.6,0.2l-0.7,0.4c-0.9,0.6-1.5,1.6-1.5,2.7c0,1.1,0.6,2.2,1.5,2.9c0.2,0.1,0.3,0.3,0.5,0.4
			l1.6,0.4L119.5,379.3z M132.3,423.8l0.4-0.1c-0.1,0.1-0.2,0.2-0.4,0.2c1.1-0.3,1.9-1.3,1.9-2.4l-0.3-0.8l-0.1-1.5
			c-1.3-1.1-3.2-1.3-4.7-0.4c0.7-1.3,0.5-2.8-0.5-3.9l-1.4-0.7l-1.1-0.1l-1.5,0.3c0.2-0.1,0.3-0.1,0.5-0.2c-1.4,0.1-2.6,0.8-3.3,2
			l-0.2,1.3l0.2,0.9l0.7,1.2l0.2,0.1c0.9,0.8,2.1,1.2,3.3,1.3l0.8-0.1l0.5-0.2l0.6-0.3c-0.7,1.4-0.3,3,0.9,4l3.2-0.2L132.3,423.8z
			 M151.7,314.6l1.6,0.4l1.1-0.1l1.5-0.7c0.7-0.8,1.3-1.6,1.8-2.5c0.2-0.5,0.6-0.9,0.9-1.3c-0.1,0-0.1,0.1-0.2,0.1l1.6-1.9l0.1-1.4
			l-1.5-2c-0.9-0.3-1.9-0.3-2.8-0.1c0.4-0.1,0.8-0.1,1.1,0.1h-1.5l-0.9,0.3l-1.1,0.7c-0.1,0.1,0,0,0.3-0.1l-1,0.7l-0.5,0.7l-0.4,1.2
			c0-0.1,0-0.2,0-0.3c-0.1,0.1-0.4,0.4-0.5,0.6c-0.6,0.6-1,1.3-1.2,2C149.8,312.4,150.4,313.9,151.7,314.6L151.7,314.6z M98.2,335
			c-1.3,1-1.6,2.9-0.6,4.3c0.2,0.2,0.3,0.4,0.5,0.5c0.2,0.2,0.5,0.4,0.8,0.5l1.5,0.2l1-0.1l1.3-0.6l0.3-0.3
			c-0.1,0.1-0.1,0.2-0.2,0.3v1.5l0.4,1l1.1,1.1c-0.1,0-0.2-0.1-0.3-0.2c0.8,0.7,1.8,1.1,2.9,1.1l1.5-0.4l0.9-0.6l0.9-1.2l0.2-0.7
			c0.2-0.9,0-2-0.6-2.7c-0.7-0.7-1.6-1.1-2.5-1.1l-0.8,0.2c-1.1-0.1-2.2,0.4-2.9,1.2l0.5-1.1v-1v-0.2c-0.1-0.5-0.3-1.1-0.6-1.5
			l-2-0.9l-1.4,0.1L98.2,335z M155.1,444.8l-0.5,0.2C154.6,445,155,444.8,155.1,444.8l-0.4-0.4c0-0.1,0-0.2,0-0.2
			c-0.1-0.9-0.5-1.7-1.2-2.2l-3.2,0.2l-0.2,0.3l-0.6,0.1l-0.5,0.5l-0.5,0.9c-0.1,0.4-0.1,0.8,0,1.2h0.9c2.1,0,4.1,0.2,6.2,0.6
			C155.4,445.4,155.3,445.1,155.1,444.8L155.1,444.8z M156.9,328.7l-0.1-1l-0.7-1.3c-0.2-0.2-0.4-0.3-0.6-0.5
			c-1.1-1-2.6-1.6-4.2-1.4c-0.7,0.1-1.4,0.4-2,0.9l-0.3-0.1l-1.4,0.3L146,327l-0.3,1l0.2,1.5l0.6,0.9l1.3,0.9
			c2.9-0.1,5.7-0.5,8.5-1.3L156.9,328.7z M95.9,417.2c0.4-1.2,0-2.6-1-3.4c-0.5-0.4-1-0.7-1.7-0.9v6.4
			C94.4,419.1,95.4,418.3,95.9,417.2L95.9,417.2z M93.2,339.4v4.8c0.7-0.6,1-1.4,1.1-2.3C94.3,341,93.9,340.1,93.2,339.4L93.2,339.4
			z M94.9,427.1c0.2-0.1,0.5-0.3,0.6-0.5l0.6-2l-0.3-1l-0.1-0.3l-0.4-0.7l-1.5-1.1l-0.5-0.1v6.6c0.5-0.1,1.1-0.3,1.5-0.7L94.9,427.1
			z M96.5,401.7l0.3-1.4l-0.1-1l-0.7-1.2l-0.5-0.4l-0.9-0.4l-0.7-0.2h-0.6v6.3h0.7C94.9,403.2,95.8,402.6,96.5,401.7L96.5,401.7z
			 M100.6,409.1l1.4,0.5h1l1.4-0.4c1.6-0.9,2.1-3,1.1-4.6c-0.1-0.2-0.3-0.4-0.4-0.6l-0.2-0.2l-1.3-0.9l-1.1-0.3l-1.7,0.1
			c-1.1,0.4-2,1.4-2.3,2.6c-0.2,1.2,0.3,2.3,1.2,3C100.1,408.7,100.3,408.9,100.6,409.1L100.6,409.1z M95.1,347.8
			c0.1-1.1-0.4-2.1-1.2-2.8c-0.2-0.2-0.5-0.3-0.7-0.4v5.7c0.1,0,0.1,0,0.2-0.1C94.3,349.8,95,348.9,95.1,347.8L95.1,347.8z
			 M116,459.1l-0.2-0.2l-1.5-0.6h-1.1l-1.5,0.4c-0.9,0.6-1.5,1.6-1.6,2.7c0,1,0.4,2,1.2,2.7l0.3,0.2l0.2,0.1
			c1.3-1.9,2.8-3.6,4.3-5.3L116,459.1z M144.9,272.3c-0.3-0.2-0.5-0.3-0.8-0.4c0.6,0.6,1.2,1.1,1.8,1.6
			C145.6,273,145.3,272.6,144.9,272.3L144.9,272.3z M143,296.5l1.7-0.3l1-0.6l0.3-0.4c0.7,0.2,1.4,0.2,2.1,0c1-0.3,1.8-1,2.2-2v-1.4
			l-0.1-0.4h-10.2c-0.4,1.2-0.2,2.4,0.5,3.4C141,295.8,141.9,296.4,143,296.5L143,296.5z M96.4,462.8l-1.6-0.8l-1.2-0.1h-0.4v6.1
			h0.4h0.6c0.6-0.1,1.2-0.3,1.7-0.6l0.9-1.4l0.2-1.1v-0.6C96.9,463.7,96.7,463.2,96.4,462.8L96.4,462.8z M96.5,394.5
			c0.8,0.6,1.8,0.9,2.8,0.8h0.3h0.2l0.3-0.1c1.2-0.3,2.1-1.2,2.5-2.4c0.3-1.3-0.3-2.6-1.3-3.3c-0.9-0.8-2-1.1-3.2-1
			c-1,0.1-1.9,0.6-2.4,1.4l-0.3,1.1v0.8l0.4,1.1c-0.2-0.2-0.3-0.5-0.3-0.8C95.4,393.1,95.8,393.9,96.5,394.5L96.5,394.5z
			 M107.2,418.6l-0.7-1.4l-0.8-0.7l-1.8-0.5h-0.5c0-0.1,0.2-0.7,0.2-0.7v-0.9c-0.2-0.8-0.5-1.5-1.1-2l-1.2-0.6l-1.1-0.2l-1.5,0.2
			c-0.2,0.1-0.4,0.2-0.6,0.4c-0.3,0.1-0.6,0.3-0.9,0.6c-1.1,1-1.2,2.8-0.2,3.9c0.1,0.1,0.2,0.2,0.3,0.3c0.8,0.7,1.8,1.1,2.9,1.1
			c-0.5,1.1-0.4,2.3,0.5,3.2l0.3,0.2c0.1,0.2,0.3,0.4,0.5,0.5l1.6,0.6h1.2l1.6-0.7l0.7-0.7l0.6-1.5L107.2,418.6z M104.5,453.6
			l-1.8,0.5l1-1.3l-1.3-0.8l-0.9-0.3c-1.6-0.3-3.2,0.4-4.1,1.9l-0.2,0.5l-0.1,0.4l-0.1,0.5c0,1.1,0.6,2.1,1.5,2.8
			c0.5,0.4,1,0.8,1.6,1l0.3,0.2l1.4,0.3l1-0.1l1.3-0.6c1.4-1.2,1.6-3.2,0.4-4.6c0,0,0,0,0,0L104.5,453.6z M116.6,329.2l0.8-0.7
			l0.5-1c0.1,0.5,0.3,0.9,0.6,1.3l1.6,0.8h0.6c0.4,0,0.8,0,1.3,0l1.9-0.7c1.3-1,1.5-2.9,0.5-4.2c-0.1-0.1-0.2-0.3-0.3-0.4
			c-0.2-0.2-0.5-0.4-0.8-0.6l-1.6-0.3l-1.1,0.1l-1.4,0.7c-0.4,0.4-0.8,0.9-1,1.4l-0.6-1.3c-1.3-1.2-3.1-1.5-4.7-1l-1.3,0.8l-0.6,0.8
			l-0.4,1.3c0,0.8,0.4,1.6,1,2.2c0.5,0.4,1,0.7,1.6,0.9c-0.3-0.1-0.5-0.2-0.7-0.4l1.6,0.6h1.2L116.6,329.2z M147.3,351.5l0.4,1
			l0.3,0.5c0.4,0.5,0.8,0.8,1.4,1.1l1.8,0.1l1.1-0.4l0.5-0.3c0.5-0.3,0.9-0.7,1.2-1.2l0.1-1.7l-0.4-1l-0.3-0.5
			c-0.3-0.4-0.8-0.8-1.2-1l-1.9-0.1l-1.2,0.4l-0.5,0.3l-0.2,0.2l-0.1-1.3l-0.8-1.4c-0.9-0.8-2.1-1.2-3.3-1c-1,0.2-2,0.8-2.5,1.7
			l-0.3,1.3l0.2,0.9l0.7,1.2l0.5,0.4l1.5,0.5h1.1h0.3c0.6-0.1,1.2-0.2,1.7-0.6L147.3,351.5z M124.4,354.9l-1.2-0.2h-0.6
			c-0.6,0.1-1.2,0.3-1.7,0.6l-0.9,1.4l-0.2,1.1v0.5c0.1,0.6,0.3,1.1,0.6,1.5l1.6,0.9l1.2,0.2h0.6c0.6-0.1,1.2-0.2,1.7-0.5l0.7-1
			l1,0.7c-0.2-0.1-0.3-0.1-0.4-0.2l0.2,0.2c0.5,0.6,1.2,1.1,1.9,1.4h2l1.2-0.6l1.1-1.3c-0.1,0.3-0.3,0.6-0.6,0.8
			c1.6-0.8,2.5-2.3,2.5-4.1l-0.2-0.9l-0.3-0.6l-0.6-0.7c-0.8-0.6-1.8-0.9-2.7-1c0.4,0.1,0.7,0.4,1,0.7l-1.9-1.2l-1.4-0.1l-2,0.9
			c-0.1,0.1-0.2,0.3-0.3,0.4c-0.4,0.5-0.8,1-1,1.6L124.4,354.9z M113.7,322.6l1.7,0.6h1.2l1.7-0.8c1-0.4,1.7-1.4,1.9-2.4
			c0.1-1.2-0.5-2.3-1.4-3l-1.6-0.6h-1.2l-1.6,0.6C111.3,319.9,113.1,322.1,113.7,322.6L113.7,322.6z M123.6,307.5
			c1.1-0.1,2-0.8,2.6-1.7l0.3-1.3l-0.1-0.9l-0.7-1.2c-1.4-1.1-3.3-1.4-4.9-0.6l-1.2,1.8v1.3l0.8,1.6
			C121.2,307.3,122.4,307.7,123.6,307.5L123.6,307.5z M134.6,371.9c-0.2,1.3,0.2,2.6,1,3.6l1.4,0.9l1.1,0.2l1.7-0.2
			c0.9-0.5,1.5-1.3,1.8-2.2c0.1-0.5,0.2-1,0.1-1.5c0,0.1,0,0.2,0,0.3l-0.3-1.5l-0.6-0.9l-1.4-0.9C137.5,369,135.3,370,134.6,371.9
			C134.6,371.9,134.6,371.9,134.6,371.9L134.6,371.9z M129.2,318c1.5,1.3,3.7,1.4,5.4,0.2l0.8-1.3c0.1,0,0.9,0,0.9,0
			c0.6-0.1,1.2-0.3,1.7-0.6l0.9-1.5l0.1-1.2V313c-0.2-0.8-0.6-1.4-1.2-1.9l-0.2-0.1l-0.2-0.2l-1.6-0.4l-1,0.1l-1.4,0.6
			c-0.5,0.4-0.8,1-1,1.6c-1.2-0.2-2.3,0.1-3.3,0.8l-0.8,1.4l-0.1,1.1l0.5,1.5C128.9,317.6,129.1,317.8,129.2,318L129.2,318z
			 M96.1,385.7c0.8,0.2,1.7,0.2,2.5,0c-0.1,0.9,0.2,1.8,0.7,2.5l1.8,0.8c1.3,0.9,3,0.9,4.3,0l0.7-0.7l0.3-0.6l0.3-0.9
			c-0.1-1.2-0.6-2.4-1.6-3.2c-0.2-0.2-0.4-0.4-0.6-0.5l-1.4-0.5l-1.1-0.1l-1.3,0.3l-0.2-1c-0.2-0.8-0.6-1.6-1.3-2.1
			c-0.3-0.3-0.7-0.5-1.1-0.7l-0.4-0.1l-0.1-0.3c-0.3-0.4-0.6-0.8-1-1.2c-0.8-0.7-1.9-1-2.9-0.8c-0.2,0.1-0.4,0.1-0.6,0.2v11
			c1-0.1,1.9-0.6,2.6-1.3L96.1,385.7z M113.7,451.5c1.3-1,1.5-2.9,0.4-4.1c0-0.1-0.1-0.1-0.1-0.1l-1.5-0.7l-0.2-0.1l-1.4-0.3
			l-2.2,0.6l-0.7,0.7l-0.6,1l-0.1,0.8l0.2,1.2c0.2,0.4,0.5,0.8,0.9,1.1C109.8,452.7,112.1,452.7,113.7,451.5L113.7,451.5z
			 M104.2,368.3l2.1-0.3l0.8-0.5c1.5-0.2,2.7-1.3,3.1-2.7c0.1-0.3,0.1-0.7,0.1-1l-0.1-0.5l-0.1-0.4l-0.2-0.5
			c-0.5-0.7-1.1-1.3-1.8-1.8l0.6-0.8l0.2-1.1v-0.5c-0.1-0.6-0.3-1.1-0.6-1.5l-1.6-0.9l-1.2-0.2H105c-0.6,0.1-1.2,0.3-1.7,0.6
			l-0.9,1.4l-0.2,1.1v0.5c0.1,0.4,0.2,0.8,0.4,1.1c-0.1,0-0.8,0.7-0.8,0.7c-0.4,0.6-0.8,1.2-1,1.9c-0.6,2.4,0.9,4.9,3.3,5.5
			C104.1,368.3,104.2,368.3,104.2,368.3L104.2,368.3z M111.1,437l-1.5,0.3l-0.9,0.5l-1,1.2l-0.1,0.2c-0.4,1.6,0.3,3.2,1.6,4.1l2,0.5
			l1.4-0.3l1.6-1.3c0.1-0.2,0.1-0.4,0.2-0.6c0.3-1.1,0.2-2.2-0.5-3.1C113.2,437.7,112.2,437.2,111.1,437L111.1,437z M105.1,375.5
			l0.4,0.1l1.6-0.3l0.9-0.5l1-1.1c0.4-1,0.3-2.1-0.2-3c-0.6-0.9-1.6-1.6-2.7-1.8h-0.3l-1.6,0.3l-0.9,0.5l-1,1.1
			c-0.4,1-0.3,2.1,0.2,3C103.1,374.7,104.1,375.3,105.1,375.5L105.1,375.5z M113.6,399.6l-2-0.6c-0.2,0-0.4-0.1-0.5-0.2l-1.4,0.1
			l-1.7,1l-0.2,0.2c-0.5,0.5-1,1.2-1.2,1.9c-0.4,1.7,0.6,3.4,2.3,3.9l2.4-0.4l0.8-0.6c1.2-0.2,2.1-1.1,2.5-2.2
			C114.9,401.5,114.5,400.3,113.6,399.6L113.6,399.6z"/>
		<path id="Path_2740" class="st1" d="M287.7,510.2l0.9-0.5l0.6-0.5l0.6-0.8c0.5-1.1,0.5-2.3,0-3.4c-0.6-1.3-1.7-2.1-3.1-2.3
			c-1.4-0.1-2.8,0.4-3.8,1.4l-0.7,1.3l-0.2,1l0.3,1.4C283.2,509.8,285.5,510.8,287.7,510.2z M295.4,527.2c0.9-0.9,1.4-2.2,1.4-3.4
			l-0.5-1.4l-0.7-0.7l-1.4-0.6c-2.3,0-4.3,1.6-4.7,3.8l-0.1,0.2l0.2,1.9l0.8,0.9l1.7,0.7C293.3,528.6,294.5,528.1,295.4,527.2
			L295.4,527.2z M310.7,529.9l-1-0.6c-0.3-0.1-0.6-0.1-0.9-0.1c-1.2,0-2.3,0.6-3,1.5c-0.2,0-0.5,0-0.7,0c-2.2-0.1-4,1.5-4.2,3.7
			c-0.1,0.9,0.2,1.8,0.8,2.6l0.5,0.6l0.5,0.3l0.8,0.3c0.4,0.1,0.9,0.1,1.3,0.1c1.8-3,4-5.8,6.6-8.2c-0.2-0.1-0.3-0.1-0.5-0.2
			L310.7,529.9z M292.4,539.1l-0.8,0l-1,0.2l-0.7,0.3l-0.8,0.6c-0.9,0.9-1.3,2.1-1,3.4c0.3,1.2,1.2,2,2.4,2.3l1.8-0.3l1.1-0.7
			l0.6-0.5c0.7-0.8,1-1.8,1-2.8l-0.6-1.3l-0.7-0.7L292.4,539.1z M288.5,529.1c-0.1,0-0.1,0-0.2,0c-0.6-0.2-1.3,0.2-1.4,0.8
			c-0.1,0.2,0,0.4,0,0.6l0.9,0.6c-0.1,0-0.2,0-0.3,0l1.1,0.4c0.8-0.3,1.2-1.1,1.2-1.9l-1.4-0.3C288.3,529.2,288.4,529.2,288.5,529.1
			L288.5,529.1z M290.5,498l0.9-0.4c1.3-0.9,1.9-2.5,1.7-4.1c-0.1-0.3-0.2-0.6-0.3-0.8c0.2-0.1,0.3-0.2,0.5-0.3l0.5-0.7l0.3-0.5
			l0.3-0.8c0.4-2-0.9-3.9-2.9-4.2c-0.2,0-0.4-0.1-0.5-0.1l-0.2-0.1l-1.9,0.4l-1.1,0.9l-0.9,1.9c0,0.9,0.4,1.8,0.9,2.5l-0.5,0.4
			l-0.8,1.2c-0.8,1.7,0,3.8,1.7,4.6c0.2,0.1,0.5,0.2,0.7,0.2l1,0L290.5,498z M267.4,494.1l0.6,0.6l0.7,0.4l1,0.2
			c1.8,0,3.4-1.2,3.8-3c0.4-1.6-0.5-3.3-2.1-3.7c-0.1,0-0.3-0.1-0.4-0.1l-1.5,0.3l0.2-0.5l0.1-0.7l-0.4-1.4l-0.7-0.8l-0.2-0.2
			c-0.4-0.4-0.9-0.7-1.5-0.8l-2.1,0.6l-1.1,1l-0.7,1.6c-0.3,1.6,0.7,3.3,2.4,3.6c0.2,0,0.4,0.1,0.7,0.1c0.3,0,0.6,0,0.9-0.1
			C266.8,492.1,266.9,493.2,267.4,494.1L267.4,494.1z M299.1,493.8l-0.7,0l-1,0.2l-0.7,0.3l-0.8,0.6c-0.9,0.9-1.3,2.2-1,3.4
			c0.3,1.2,1.2,2,2.4,2.3l1.8-0.3l1.1-0.7l0.6-0.5c0.7-0.8,1.1-1.8,1-2.9l-0.6-1.3l-0.7-0.6L299.1,493.8z M290,463.2
			c-0.7-0.8-1.7-1.2-2.7-1.2c-0.2,0-0.4,0-0.5,0l-1.3,0.6l-0.8,0.7l-0.7,1.3c-0.2,0.9-0.2,1.9,0.2,2.7l-1.4,0.3l-1,0.7l-0.4,0.4
			c-0.4,0.4-0.7,1-0.9,1.6l0.2,1.7l0.6,0.9l0.3,0.4c0.4,0.4,0.9,0.7,1.5,0.8l1.8-0.3l1-0.7l0.4-0.4c0.4-0.4,0.8-0.9,1-1.5l-0.1-1.7
			l-0.2-0.2c0.2,0,0.4,0,0.5,0c0.2,0,0.4,0,0.6,0l1.3-0.6l0.8-0.7l0.7-1.3C291,465.4,290.7,464.2,290,463.2L290,463.2z M273.1,442.8
			l1.5-0.1l1.5-0.6l0.9-0.7l0.8-1.4c0.4-1.8-0.8-3.6-2.7-4c-0.2,0-0.5-0.1-0.7-0.1c-1.1,0-2.1,0.5-2.9,1.3c-0.8,0.8-1.2,2-1.1,3.1
			l0.6,1.3l0.7,0.6L273.1,442.8z M278.7,451.1l0.6-0.6l0.3-0.5l0.3-0.7c0.4-1.4,0-2.9-1.1-3.8l-0.5-0.8l-1-0.9
			c-1.5-0.4-3.2,0.2-4.1,1.5l-0.5,0.4l-0.8,1.4c-0.4,2.2,1.1,4.3,3.3,4.7c0.3,0,0.5,0.1,0.8,0.1C277,452,278,451.6,278.7,451.1
			L278.7,451.1z M306.9,472.4c0.2,0,0.4,0,0.6,0c-1.5-0.5-3.1-0.1-4.2,1l-0.6,0.7l-0.3,0.6l-0.2,0.9c-0.1,0.6,0,1.2,0.3,1.8
			c0.9,1.6,2.9,2.3,4.6,1.5c1.9-0.6,3.1-2.4,2.9-4.4l-0.9-1.3l-0.9-0.5L306.9,472.4z M300.1,472.2l0.6-0.5l0.7-0.8l0.1-0.2
			c1.4-2.2,1.5-4.1,0.2-5.5l-0.4-0.3l-0.3-0.2l-0.5-0.2c-0.4-0.1-0.8-0.2-1.2-0.2c-0.9,0-1.7,0.3-2.4,0.8l-1.2,0.8l-1,1.7
			c-0.3,1.4,0,2.8,0.9,3.9c0.7,0.7,1.7,1.1,2.7,1.1c0.2,0,0.5,0,0.7-0.1L300.1,472.2z M356,484.9c-1.6-0.1-3.1,0.6-4.2,1.7
			c-0.2,0.2-0.3,0.4-0.5,0.7c-0.5-0.3-1.1-0.5-1.7-0.5l-0.2,0l-0.3,0l-1.5,0.8l-0.7,0.7l-0.7,1.4c-0.3,1.7,0.7,3.3,2.3,3.8l1.9-0.2
			l1.1-0.7l0.5-0.4l0.3-0.3l0.8,0.4c0.2,0,0.5,0,0.7,0c1.2,0,2.4-0.4,3.2-1.3c1.2-0.3,2.1-1.2,2.6-2.3l0-1.4l-0.4-0.9l-0.9-1
			C357.7,485,356.9,484.8,356,484.9L356,484.9z M276.9,518.9c0.1-0.1,0.2-0.3,0.3-0.4C277.2,518.5,277,518.6,276.9,518.9z
			 M316.9,461.4l-1.2,0.6l-1.3,1.6c-0.7,1.8,0.2,3.8,2,4.4c0.3,0.1,0.5,0.2,0.8,0.2l1.8-0.6l1-0.8l0.8-1.7c0.2-1.5-0.6-3-2-3.8
			L316.9,461.4z M208.2,468.1c0.1-0.7-0.1-1.3-0.6-1.8c-0.5-0.5-1.2-0.8-2-0.7l-0.1,1.1c0.1,0,0,1.1,0,1.1c-0.1,0-0.3,0-0.4,0
			l-0.1,0.7c0.1,0.2,0.2,0.3,0.4,0.3l-0.2,2.1C206.8,470.8,208.1,469.6,208.2,468.1z M290.7,402.8c-0.2,0-0.5,0-0.7,0l-1.4,0.6
			l-0.8,0.7l-0.7,1.3c-0.3,1.2-0.1,2.5,0.6,3.4c0.7,0.8,1.7,1.2,2.7,1.2c0.2,0,0.4,0,0.6,0l1.4-0.7l0.5-0.4c0-0.1,0.4-0.3,0.4-0.3
			l1-1.5c0.3-1.1,0.1-2.2-0.6-3C292.9,403.2,291.8,402.7,290.7,402.8L290.7,402.8z M233.9,382.3l-0.6,0.2c-2.1,0.3-3.9,1.6-4.9,3.4
			l-0.2,0.6l0,0.5l0,0.6c0.1,0.7,0.5,1.3,1,1.7l0.5,0.9l1.7,0.9l2.1,0l1.7-0.8l0.9-0.9l0.6-1.7c0-0.2,0-0.2,0.2-0.7
			c0.2-0.6,0.4-1.3,0.5-1.9l-0.7-1.8l-0.9-0.8L233.9,382.3z M199.6,472.8l0.1-1.1c2.2,0.2,4.1-1.3,4.6-3.5l0-0.8l-0.2-0.6l-0.4-0.7
			c-0.7-0.8-1.7-1.2-2.8-1.1c-0.1,0-0.2,0-0.3,0c0.5-0.3,0.9-0.8,1.2-1.3c0.5,0.4,1.1,0.7,1.7,0.8c1.3,0.2,2.5-0.2,3.5-1l0.7-0.9
			l0.3-0.8l0.1-1.1c0-0.2-0.1-0.4-0.1-0.5c0.3-1.8-0.9-3.4-2.6-3.7c-0.1,0-0.3,0-0.4,0l-1.4,0.4l-0.2,0.2c0-0.1-0.6-0.8-0.6-0.8
			l-1.3-0.7c-0.2,0-0.5,0-0.7,0c-0.2,0-0.4,0-0.6,0.1c0.1-0.2,0.1-0.4,0.2-0.7l1.2-0.4l1-0.9l0.7-1.1c0,0.1-0.1,0.2-0.1,0.4
			c0.7-0.9,1-2.1,0.7-3.3c-0.3-0.9-1.1-1.7-2.1-1.9l-1.6,0.2l-0.7,0.4c-0.5,0-1,0-1.4,0.1l-1,0.6l-0.6-0.6l-1.3-0.5
			c-0.8,0-1.7,0.2-2.4,0.7c-0.2-0.3-0.4-0.6-0.7-0.8c-1-0.9-2.4-1.1-3.6-0.5c-0.1-0.2-0.3-0.4-0.5-0.6l-0.2-0.2
			c0.3-0.2,0.6-0.4,0.8-0.7c0.9-1.1,1.2-2.6,0.6-3.8c-0.6-1.3-2.1-2-3.5-1.6c-0.6,0.1-1.2,0.4-1.7,0.9c0-0.2,0-0.4,0-0.6
			c-0.5,1.4-0.9,2.9-1.1,4.4c0,0.1,0,0.2,0.1,0.3c-0.5,2.7-0.3,5.4,0.4,8.1l1.1,0c-0.2,0.1-0.3,0.1-0.5,0.1c0.8,0.1,1.6,0,2.3-0.2
			l0.6-0.6c0.2,0.2,0.4,0.4,0.7,0.6c-0.2,0.3-0.4,0.7-0.5,1.1l0.2,1.5l0.5,0.9l1.1,0.7l-0.4,0c-0.1-0.1-0.2-0.1-0.3-0.2
			c0.1,0.1,0.2,0.2,0.3,0.2l-1.1,0c-0.7,0.3-1.4,0.8-1.8,1.4c0.6,1,1.3,2,2.1,3l2.5,2.9l-0.3-0.8c1.4-1,1.9-2.8,1.4-4.4l-0.1-0.2
			l-0.6-0.7l1.8,0.9c1.8,0.2,3.6-0.9,4.2-2.6l0-0.5l0.7-0.1l0.7-0.2c0.1-0.1,0.1,0.8,0.1,0.8c-0.5,0.6-0.8,1.3-1,2l0.3,1.2
			c-0.1,0.1-0.2,0.2-0.3,0.3c-1,1-1.2,2.5-0.6,3.8c0.2,0.3,0.4,0.7,0.6,0.9l1,0.6l-0.5,0l-0.6,0l-0.1-0.2l-0.8,0l-2.2,1.7l-0.1,0.3
			l-0.6,0.6l5.3,6.4c0.5-0.4,1-0.9,1.4-1.4L199.6,472.8z M264.9,457c-0.5,1.9,0.6,3.8,2.5,4.4c0.2,0,0.3,0.1,0.5,0.1l1.1-0.2
			l0.7-0.3l0.9-0.6c1-1,1.4-2.5,1.1-3.9c-0.1,0.3-0.2,0.6-0.4,0.9l0.4-2l-0.4-1.1l-1.7-1.2l-0.3,0
			C267.1,452.9,265.2,454.7,264.9,457z M223.8,468.2l0.4-0.2c2-0.5,3.3-2.4,2.9-4.5l-0.5-1l-0.6-0.6l-1-0.5
			c-0.3-0.1-0.6-0.1-0.9-0.1c-2.2,0-4.1,1.4-4.6,3.5c-0.4,1.6,0.7,3.3,2.3,3.6c0.1,0,0.2,0,0.3,0L223.8,468.2z M250.2,495.7l0.7-1.4
			l0.1-1.4l-0.5-1.5l-0.7-0.8l-1.5-0.7l-0.3,0c-1.2,0-2.3,0.4-3.3,1.1l-0.6,0.6l-0.3,0.5l-0.3,0.7c-0.3,1.1-0.1,2.2,0.6,3.1
			c0.7,0.9,1.8,1.3,3,1.2c0.2,0,0.4,0,0.6,0l1.5-0.7L250.2,495.7z M288.6,521.6l0.3-0.3c0,0.1-0.1,0.3-0.2,0.4
			c0.7-0.9,0.7-2.2-0.1-3.1l-0.7-0.4l-1-1.1c-1.7,0-3.3,1.1-3.9,2.8c-0.2-1.4-1.4-2.5-2.9-2.7l-1.6,0.4l-0.9,0.6l-1,1.2
			c0.1-0.2,0.1-0.3,0.2-0.5c-1,0.9-1.5,2.3-1.2,3.7l0.6,1.1l0.7,0.6l1.3,0.5l0.2,0c1.2,0,2.4-0.4,3.3-1.1l0.5-0.6l0.3-0.5l0.3-0.6
			c0.4,1.5,1.7,2.5,3.3,2.4l2.4-2.2L288.6,521.6z M233.2,425.4l1.5-0.7l0.8-0.8l0.7-1.5c0.1-1,0-2.1-0.2-3.1
			c-0.1-0.5-0.2-1.1-0.2-1.6c0,0.1-0.1,0.1-0.1,0.2l0-2.5l-0.9-1.1l-2.4-0.6c-0.9,0.3-1.6,0.9-2.2,1.7c0.2-0.3,0.6-0.5,0.9-0.7
			l-1.1,0.9l-0.5,0.8l-0.4,1.3c0,0.2,0,0,0.1-0.2l-0.3,1.2l0.1,0.8l0.5,1.1c-0.1-0.1-0.1-0.1-0.2-0.2c0,0.1,0,0.6,0,0.7
			c-0.1,0.8,0.1,1.6,0.4,2.3C230.3,425,231.8,425.7,233.2,425.4z M205.3,475.5c-0.4,1.6,0.6,3.3,2.3,3.6c0.2,0.1,0.5,0.1,0.8,0.1
			c0.3,0,0.6,0,0.9-0.1l1.3-0.7l0.7-0.8l0.6-1.4l0-0.4c0,0.1,0,0.2,0.1,0.3l1,1.2l1,0.5l1.6,0.1c-0.1,0-0.2,0.1-0.4,0.1
			c1.1,0,2.1-0.3,2.9-1l0.9-1.2l0.3-1l-0.1-1.4l-0.3-0.7c-0.4-0.9-1.3-1.5-2.3-1.7c-1-0.1-1.9,0.2-2.7,0.8l-0.5,0.7
			c-0.9,0.7-1.5,1.7-1.5,2.8l-0.3-1.2l-0.7-0.8l-0.1-0.2c-0.4-0.4-0.9-0.7-1.4-0.8l-2.1,0.6l-1.1,1L205.3,475.5z M319.5,523.1
			l-0.3,0.5c-0.1-0.1,0.1-0.5,0.1-0.5l-0.5,0c0-0.1-0.1-0.1-0.2-0.2c-0.6-0.6-1.5-0.9-2.4-0.9l-2.4,2.2l0,0.4l-0.4,0.4l-0.1,0.7
			l0.2,1c0.2,0.4,0.4,0.7,0.7,0.9l0.7-0.6c1.6-1.3,3.3-2.5,5.1-3.5C320.1,523.3,319.8,523.1,319.5,523.1L319.5,523.1z M246.2,432.9
			l-0.7-0.7l-1.4-0.6c-0.3,0-0.5,0-0.8,0c-1.5-0.1-3,0.5-4.1,1.6c-0.5,0.6-0.8,1.2-1,2l-0.3,0.3l-0.9,1.2l-0.3,2.2l0.4,0.9l1.2,1
			l1,0.3l1.6-0.1c0.9-0.4,1.6-1.1,2.1-2c2.1-0.5,3.6-2.3,3.6-4.4L246.2,432.9z M256.4,539.9c-0.5-1.2-1.6-1.9-2.9-1.9
			c-0.6,0-1.3,0.1-1.9,0.4l4.1,4.9C256.5,542.3,256.7,541.1,256.4,539.9z M204.4,482.1l3.1,3.7c0.1-0.9-0.1-1.8-0.7-2.5
			C206.2,482.6,205.3,482.1,204.4,482.1z M262,548.2c0.1-0.3,0.2-0.5,0.2-0.8l-0.8-1.9l-0.8-0.5l-0.3-0.2l-0.8-0.3l-1.9,0.1
			l-0.5,0.2l4.2,5.1c0.3-0.4,0.6-0.9,0.7-1.5L262,548.2z M246.9,527.7l-0.6-1.3l-0.7-0.6l-1.3-0.5l-0.7,0l-1,0.2l-0.7,0.3l-0.5,0.4
			l4,4.8l0.5-0.4C246.7,529.8,247,528.8,246.9,527.7L246.9,527.7z M254.8,530.7l1.4-0.5l0.8-0.7l0.8-1.2c0.6-1.7-0.3-3.6-2.1-4.2
			c-0.2-0.1-0.5-0.1-0.7-0.2l-0.3-0.1l-1.5,0.2l-1,0.5l-1.2,1.2c-0.6,1.1-0.6,2.4-0.1,3.4c0.6,1,1.7,1.6,2.9,1.6
			C254.1,530.7,254.5,530.7,254.8,530.7L254.8,530.7z M211.2,487.3c-0.6-0.9-1.6-1.4-2.7-1.3c-0.3,0-0.5,0.1-0.8,0.1l3.7,4.4
			c0,0,0.1-0.1,0.1-0.2C211.9,489.3,211.8,488.2,211.2,487.3z M298.8,559.1l-0.2,0l-1.5,0.6l-0.8,0.7l-0.8,1.3
			c-0.3,1.1-0.1,2.2,0.5,3.1c0.6,0.8,1.6,1.3,2.6,1.3l0.4,0l0.2-0.1c-0.2-2.3-0.2-4.5-0.1-6.8L298.8,559.1z M200.8,397.4
			c-0.3,0-0.6,0.1-0.9,0.2c0.8,0.1,1.6,0.1,2.4,0.1C201.8,397.5,201.3,397.4,200.8,397.4z M214.9,417.2l1.1-1.3l0.4-1.1l0-0.5
			c0.7-0.3,1.2-0.8,1.6-1.4c0.5-0.9,0.7-1.9,0.4-2.9l-0.9-1.1l-0.3-0.2l-7.8,6.6c0.5,1.1,1.4,2,2.6,2.3
			C212.9,417.9,214,417.8,214.9,417.2z M286.1,574.5l-1.7,0.4l-1,0.7l-0.3,0.2l3.9,4.7l0.3-0.3l0.5-0.4c0.4-0.4,0.8-1,0.9-1.6
			l-0.2-1.7l-0.6-0.9l-0.4-0.4C287.1,574.9,286.6,574.6,286.1,574.5z M242.3,522.1c1,0,2-0.4,2.7-1.1l0.2-0.2l0.2-0.1l0.2-0.3
			c0.7-1,0.9-2.3,0.4-3.4c-0.6-1.2-1.8-1.9-3.1-1.8c-1.2,0-2.3,0.4-3.1,1.3c-0.7,0.7-1,1.7-0.9,2.6l0.4,1l0.5,0.6l1,0.6
			c-0.3-0.1-0.5-0.2-0.7-0.4C240.5,521.7,241.4,522.1,242.3,522.1L242.3,522.1z M266,533.7l-1.5-0.6l-1.1,0l-1.7,0.8l-0.3,0.3
			c0,0-0.3-0.6-0.3-0.6l-0.6-0.7c-0.6-0.5-1.4-0.8-2.1-0.8l-1.2,0.3l-1,0.6l-1,1.1c-0.1,0.2-0.2,0.4-0.2,0.7c-0.1,0.3-0.2,0.6-0.3,1
			c-0.2,1.5,0.9,2.9,2.4,3.1c0.1,0,0.3,0,0.4,0c1.1,0.1,2.1-0.3,2.9-1c0.3,1.2,1.2,2,2.4,2.1l0.3-0.1c0.2,0.1,0.5,0.1,0.7,0.1
			l1.6-0.6l0.9-0.8l0.8-1.5l0.1-1l-0.5-1.5L266,533.7z M286.4,562.2l-1,1.5l-0.1-1.6l-1.6,0.3l-0.9,0.3c-1.4,0.8-2.2,2.4-1.9,4
			l0.1,0.5l0.2,0.3l0.3,0.4c0.8,0.8,1.8,1.3,2.9,1.2c0.6,0,1.3-0.1,1.9-0.3l0.3-0.1l1.2-0.7l0.7-0.7l0.6-1.3
			c0.3-1.8-0.9-3.5-2.7-3.8c0,0,0,0,0,0L286.4,562.2z M215.7,459.2l0.2-1l-0.3-1.1c0.4,0.3,0.8,0.5,1.3,0.6l1.8-0.4l0.5-0.4
			c0.3-0.3,0.6-0.6,1-0.8l1-1.7c0.3-1.6-0.7-3.2-2.3-3.5c-0.2,0-0.3-0.1-0.5-0.1c-0.3,0-0.6,0-1,0.1l-1.3,0.8l-0.8,0.8l-0.6,1.5
			c-0.1,0.6,0,1.2,0.1,1.7l-1.3-0.6c-1.7-0.1-3.3,0.8-4.3,2.3l-0.5,1.4l0,1l0.5,1.3c0.6,0.6,1.4,1,2.2,1.1c0.6,0,1.2-0.1,1.8-0.4
			c-0.3,0.1-0.5,0.2-0.8,0.2l1.6-0.5l0.9-0.8L215.7,459.2z M253.5,456.6l1,0.5l0.5,0.2c0.6,0.1,1.2,0.1,1.8-0.1l1.4-1.1l0.6-1
			l0.2-0.5c0.2-0.5,0.3-1.1,0.2-1.7l-1-1.4l-1-0.5l-0.6-0.2c-0.5-0.1-1.1-0.1-1.6,0l-1.5,1.1L253,453l-0.2,0.5l-0.1,0.3l-0.9-1
			l-1.6-0.6c-1.2,0-2.4,0.5-3.2,1.3c-0.7,0.8-1,1.8-0.9,2.9l0.6,1.2l0.7,0.6l1.3,0.5l0.7,0l1.5-0.5l0.8-0.7l0.2-0.2
			c0.4-0.4,0.7-0.9,0.9-1.5L253.5,456.6z M238.2,473.9l-1,0.7l-0.4,0.4c-0.4,0.4-0.8,1-0.9,1.6l0.2,1.7l0.6,0.9l0.3,0.4
			c0.4,0.4,0.9,0.7,1.4,0.8l1.8-0.3l1-0.7l0.4-0.4c0.4-0.4,0.8-0.9,1-1.5l-0.1-1.2l1.3-0.1c-0.2,0.1-0.3,0.1-0.5,0.1l0.2,0
			c0.8,0.1,1.6,0.1,2.4-0.1l1.6-1.3l0.5-1.2l0-1.7c0.1,0.3,0.1,0.6,0.1,0.9c0.7-1.6,0.4-3.4-0.7-4.7l-0.8-0.5l-0.6-0.2l-0.9-0.1
			c-1,0.1-1.9,0.4-2.8,1c0.4-0.2,0.8-0.2,1.2-0.1l-2.2,0.3l-1.2,0.8l-1,2c0,0.2,0,0.3,0,0.5c0,0.6,0.1,1.3,0.3,1.9L238.2,473.9z
			 M209.2,456l1.7-0.6l1-0.8l0.8-1.7c0.5-1,0.4-2.1-0.1-3.1c-0.7-0.9-1.8-1.5-3-1.4L208,449l-0.9,0.7l-0.8,1.5
			C205.6,455.5,208.4,456,209.2,456z M207.1,438.1c0.7-0.8,1-1.9,0.9-2.9l-0.6-1.2l-0.7-0.6l-1.3-0.5c-1.8,0-3.4,1-4.1,2.6l0.2,2.2
			l0.9,1l1.6,0.7C205.2,439.5,206.3,439,207.1,438.1z M256.9,480.4c0.7,1.1,1.8,1.9,3.1,2.1l1.6-0.2l1-0.6l1.1-1.3
			c0.4-0.9,0.4-2,0-2.9c-0.2-0.5-0.5-0.9-0.9-1.2c0.1,0.1,0.1,0.1,0.2,0.2l-1.2-1l-1-0.3l-1.7,0.2
			C257.2,476.3,256.2,478.4,256.9,480.4z M218.2,442.5c2,0.1,3.8-1.3,4.3-3.3l-0.3-1.5c0.1-0.1,0.7-0.5,0.7-0.5
			c0.4-0.4,0.8-1,0.9-1.6l-0.2-1.7l-0.6-1l-0.4-0.5c-0.6-0.5-1.4-0.7-2.1-0.7l-0.2,0l-0.3,0l-1.5,0.7l-0.7,0.7l-0.7,1.3
			c-0.1,0.6,0,1.3,0.2,1.9c-1,0.6-1.8,1.5-2,2.7l0.3,1.6l0.6,0.9l1.3,0.9C217.7,442.5,217.9,442.5,218.2,442.5L218.2,442.5z
			 M236.4,515.7c0.8-0.3,1.4-0.9,1.9-1.6c0.5,0.7,1.3,1.3,2.1,1.4l1.9-0.5c1.6-0.2,2.9-1.3,3.3-2.8l0.1-1l-0.1-0.7l-0.4-0.9
			c-0.8-0.9-2-1.4-3.3-1.4c-0.3,0-0.5,0-0.8,0l-1.4,0.5l-0.8,0.6l-0.7,1.1l-0.8-0.7c-0.7-0.5-1.5-0.8-2.3-0.8
			c-0.4,0-0.8,0.1-1.2,0.2l-0.4,0.2l-0.2-0.2c-0.5-0.2-1-0.3-1.5-0.2c-1,0-2,0.5-2.7,1.2c-0.1,0.2-0.2,0.4-0.3,0.6l7.1,8.5
			c0.7-0.7,1.1-1.7,1.1-2.7L236.4,515.7z M292.1,554.8c0.3-1.6-0.7-3.1-2.3-3.4c-0.1,0-0.1,0-0.2,0l-1.6,0.4l-0.2,0l-1.3,0.7
			l-1.3,1.9l-0.1,1l0.2,1.1l0.4,0.7l0.9,0.8c0.4,0.2,0.9,0.3,1.3,0.3C289.9,558.1,291.6,556.7,292.1,554.8z M231.4,497.1l1.4-1.6
			l0.3-0.9c1-1.1,1.2-2.7,0.7-4.1c-0.1-0.3-0.3-0.6-0.6-0.9l-0.4-0.4l-0.3-0.2l-0.5-0.2c-0.8-0.2-1.7-0.3-2.5-0.2l-0.1-1l-0.6-1
			l-0.3-0.4c-0.4-0.4-0.9-0.7-1.4-0.8l-1.8,0.4l-1,0.7l-0.5,0.4c-0.4,0.4-0.8,1-0.9,1.6l0.2,1.7l0.6,0.9l0.3,0.4
			c0.3,0.2,0.6,0.4,1,0.6c-0.1,0.1-0.2,1-0.2,1c0,0.7,0.2,1.4,0.5,2.1c1.1,2.3,3.8,3.2,6.1,2.1C231.3,497.1,231.3,497.1,231.4,497.1
			L231.4,497.1z M280.8,545.4l-1,1.2l-0.4,1l0,1.5l0.1,0.2c0.7,1.4,2.3,2.3,3.9,2.1l1.9-0.9l0.9-1.1l0.4-2.1
			c-0.1-0.2-0.1-0.4-0.2-0.6c-0.4-1-1.3-1.8-2.4-2.1C282.9,544.4,281.7,544.7,280.8,545.4L280.8,545.4z M236.7,502l0.3-0.2l1.1-1.2
			l0.4-1l0.1-1.5c-0.3-1-1.1-1.8-2.1-2.2c-1.1-0.3-2.2-0.2-3.2,0.4l-0.2,0.2l-1.1,1.3l-0.4,1l-0.1,1.5c0.3,1,1.1,1.8,2.1,2.2
			C234.6,502.7,235.7,502.5,236.7,502L236.7,502z M258.7,515l-2,0.8c-0.2,0.1-0.3,0.2-0.5,0.2l-1,1l-0.7,1.8l0,0.2
			c-0.1,0.8,0,1.5,0.3,2.2c0.8,1.6,2.6,2.2,4.2,1.5l1.6-1.9l0.2-1c0.8-0.9,0.9-2.2,0.5-3.3C260.8,515.6,259.8,515,258.7,515
			L258.7,515z"/>
	</g>
</g>
</svg>
